<?xml version="1.0" encoding="utf-8"?>
<svg height="250.896622pt" version="1.1" viewBox="0 0 374.964375 250.896622" width="374.964375pt" xmlns="http://www.w3.org/2000/svg" xmlns:xlink="http://www.w3.org/1999/xlink">
 <defs>
  <style type="text/css">
*{stroke-linecap:butt;stroke-linejoin:round;}
  </style>
 </defs>
 <g id="figure_1">
  <g id="patch_1">
   <path d="M 0 250.896622 
L 374.964375 250.896622 
L 374.964375 0 
L 0 0 
z
" style="fill:none;"></path>
  </g>
  <g id="axes_1">
   <g id="patch_2">
    <path d="M 32.964375 226.647247 
L 367.764375 226.647247 
L 367.764375 9.207247 
L 32.964375 9.207247 
z
" style="fill:#eeeeee;"></path>
   </g>
   <g id="matplotlib.axis_1">
    <g id="xtick_1">
     <g id="line2d_1">
      <path clip-path="url(#p12d55bc634)" d="M 47.96662 226.647247 
L 47.96662 9.207247 
" style="fill:none;stroke:#ffffff;stroke-linecap:round;stroke-width:0.8;"></path>
     </g>
     <g id="line2d_2"></g>
     <g id="text_1">
      <!-- 0 -->
      <defs>
       <path d="M 31.78125 66.40625 
Q 24.171875 66.40625 20.328125 58.90625 
Q 16.5 51.421875 16.5 36.375 
Q 16.5 21.390625 20.328125 13.890625 
Q 24.171875 6.390625 31.78125 6.390625 
Q 39.453125 6.390625 43.28125 13.890625 
Q 47.125 21.390625 47.125 36.375 
Q 47.125 51.421875 43.28125 58.90625 
Q 39.453125 66.40625 31.78125 66.40625 
z
M 31.78125 74.21875 
Q 44.046875 74.21875 50.515625 64.515625 
Q 56.984375 54.828125 56.984375 36.375 
Q 56.984375 17.96875 50.515625 8.265625 
Q 44.046875 -1.421875 31.78125 -1.421875 
Q 19.53125 -1.421875 13.0625 8.265625 
Q 6.59375 17.96875 6.59375 36.375 
Q 6.59375 54.828125 13.0625 64.515625 
Q 19.53125 74.21875 31.78125 74.21875 
z
" id="DejaVuSans-48"></path>
      </defs>
      <g style="fill:#262626;" transform="translate(43.51287 240.785059)scale(0.14 -0.14)">
       <use xlink:href="#DejaVuSans-48"></use>
      </g>
     </g>
    </g>
    <g id="xtick_2">
     <g id="line2d_3">
      <path clip-path="url(#p12d55bc634)" d="M 128.892 226.647247 
L 128.892 9.207247 
" style="fill:none;stroke:#ffffff;stroke-linecap:round;stroke-width:0.8;"></path>
     </g>
     <g id="line2d_4"></g>
     <g id="text_2">
      <!-- 10 -->
      <defs>
       <path d="M 12.40625 8.296875 
L 28.515625 8.296875 
L 28.515625 63.921875 
L 10.984375 60.40625 
L 10.984375 69.390625 
L 28.421875 72.90625 
L 38.28125 72.90625 
L 38.28125 8.296875 
L 54.390625 8.296875 
L 54.390625 0 
L 12.40625 0 
z
" id="DejaVuSans-49"></path>
      </defs>
      <g style="fill:#262626;" transform="translate(119.9845 240.785059)scale(0.14 -0.14)">
       <use xlink:href="#DejaVuSans-49"></use>
       <use x="63.623047" xlink:href="#DejaVuSans-48"></use>
      </g>
     </g>
    </g>
    <g id="xtick_3">
     <g id="line2d_5">
      <path clip-path="url(#p12d55bc634)" d="M 209.817381 226.647247 
L 209.817381 9.207247 
" style="fill:none;stroke:#ffffff;stroke-linecap:round;stroke-width:0.8;"></path>
     </g>
     <g id="line2d_6"></g>
     <g id="text_3">
      <!-- 20 -->
      <defs>
       <path d="M 19.1875 8.296875 
L 53.609375 8.296875 
L 53.609375 0 
L 7.328125 0 
L 7.328125 8.296875 
Q 12.9375 14.109375 22.625 23.890625 
Q 32.328125 33.6875 34.8125 36.53125 
Q 39.546875 41.84375 41.421875 45.53125 
Q 43.3125 49.21875 43.3125 52.78125 
Q 43.3125 58.59375 39.234375 62.25 
Q 35.15625 65.921875 28.609375 65.921875 
Q 23.96875 65.921875 18.8125 64.3125 
Q 13.671875 62.703125 7.8125 59.421875 
L 7.8125 69.390625 
Q 13.765625 71.78125 18.9375 73 
Q 24.125 74.21875 28.421875 74.21875 
Q 39.75 74.21875 46.484375 68.546875 
Q 53.21875 62.890625 53.21875 53.421875 
Q 53.21875 48.921875 51.53125 44.890625 
Q 49.859375 40.875 45.40625 35.40625 
Q 44.1875 33.984375 37.640625 27.21875 
Q 31.109375 20.453125 19.1875 8.296875 
z
" id="DejaVuSans-50"></path>
      </defs>
      <g style="fill:#262626;" transform="translate(200.909881 240.785059)scale(0.14 -0.14)">
       <use xlink:href="#DejaVuSans-50"></use>
       <use x="63.623047" xlink:href="#DejaVuSans-48"></use>
      </g>
     </g>
    </g>
    <g id="xtick_4">
     <g id="line2d_7">
      <path clip-path="url(#p12d55bc634)" d="M 290.742762 226.647247 
L 290.742762 9.207247 
" style="fill:none;stroke:#ffffff;stroke-linecap:round;stroke-width:0.8;"></path>
     </g>
     <g id="line2d_8"></g>
     <g id="text_4">
      <!-- 30 -->
      <defs>
       <path d="M 40.578125 39.3125 
Q 47.65625 37.796875 51.625 33 
Q 55.609375 28.21875 55.609375 21.1875 
Q 55.609375 10.40625 48.1875 4.484375 
Q 40.765625 -1.421875 27.09375 -1.421875 
Q 22.515625 -1.421875 17.65625 -0.515625 
Q 12.796875 0.390625 7.625 2.203125 
L 7.625 11.71875 
Q 11.71875 9.328125 16.59375 8.109375 
Q 21.484375 6.890625 26.8125 6.890625 
Q 36.078125 6.890625 40.9375 10.546875 
Q 45.796875 14.203125 45.796875 21.1875 
Q 45.796875 27.640625 41.28125 31.265625 
Q 36.765625 34.90625 28.71875 34.90625 
L 20.21875 34.90625 
L 20.21875 43.015625 
L 29.109375 43.015625 
Q 36.375 43.015625 40.234375 45.921875 
Q 44.09375 48.828125 44.09375 54.296875 
Q 44.09375 59.90625 40.109375 62.90625 
Q 36.140625 65.921875 28.71875 65.921875 
Q 24.65625 65.921875 20.015625 65.03125 
Q 15.375 64.15625 9.8125 62.3125 
L 9.8125 71.09375 
Q 15.4375 72.65625 20.34375 73.4375 
Q 25.25 74.21875 29.59375 74.21875 
Q 40.828125 74.21875 47.359375 69.109375 
Q 53.90625 64.015625 53.90625 55.328125 
Q 53.90625 49.265625 50.4375 45.09375 
Q 46.96875 40.921875 40.578125 39.3125 
z
" id="DejaVuSans-51"></path>
      </defs>
      <g style="fill:#262626;" transform="translate(281.835262 240.785059)scale(0.14 -0.14)">
       <use xlink:href="#DejaVuSans-51"></use>
       <use x="63.623047" xlink:href="#DejaVuSans-48"></use>
      </g>
     </g>
    </g>
   </g>
   <g id="matplotlib.axis_2">
    <g id="ytick_1">
     <g id="line2d_9">
      <path clip-path="url(#p12d55bc634)" d="M 32.964375 216.76361 
L 367.764375 216.76361 
" style="fill:none;stroke:#ffffff;stroke-linecap:round;stroke-width:0.8;"></path>
     </g>
     <g id="line2d_10"></g>
     <g id="text_5">
      <!-- 0.0 -->
      <defs>
       <path d="M 10.6875 12.40625 
L 21 12.40625 
L 21 0 
L 10.6875 0 
z
" id="DejaVuSans-46"></path>
      </defs>
      <g style="fill:#262626;" transform="translate(7.2 222.082516)scale(0.14 -0.14)">
       <use xlink:href="#DejaVuSans-48"></use>
       <use x="63.623047" xlink:href="#DejaVuSans-46"></use>
       <use x="95.410156" xlink:href="#DejaVuSans-48"></use>
      </g>
     </g>
    </g>
    <g id="ytick_2">
     <g id="line2d_11">
      <path clip-path="url(#p12d55bc634)" d="M 32.964375 165.702434 
L 367.764375 165.702434 
" style="fill:none;stroke:#ffffff;stroke-linecap:round;stroke-width:0.8;"></path>
     </g>
     <g id="line2d_12"></g>
     <g id="text_6">
      <!-- 0.1 -->
      <g style="fill:#262626;" transform="translate(7.2 171.02134)scale(0.14 -0.14)">
       <use xlink:href="#DejaVuSans-48"></use>
       <use x="63.623047" xlink:href="#DejaVuSans-46"></use>
       <use x="95.410156" xlink:href="#DejaVuSans-49"></use>
      </g>
     </g>
    </g>
    <g id="ytick_3">
     <g id="line2d_13">
      <path clip-path="url(#p12d55bc634)" d="M 32.964375 114.641258 
L 367.764375 114.641258 
" style="fill:none;stroke:#ffffff;stroke-linecap:round;stroke-width:0.8;"></path>
     </g>
     <g id="line2d_14"></g>
     <g id="text_7">
      <!-- 0.2 -->
      <g style="fill:#262626;" transform="translate(7.2 119.960164)scale(0.14 -0.14)">
       <use xlink:href="#DejaVuSans-48"></use>
       <use x="63.623047" xlink:href="#DejaVuSans-46"></use>
       <use x="95.410156" xlink:href="#DejaVuSans-50"></use>
      </g>
     </g>
    </g>
    <g id="ytick_4">
     <g id="line2d_15">
      <path clip-path="url(#p12d55bc634)" d="M 32.964375 63.580082 
L 367.764375 63.580082 
" style="fill:none;stroke:#ffffff;stroke-linecap:round;stroke-width:0.8;"></path>
     </g>
     <g id="line2d_16"></g>
     <g id="text_8">
      <!-- 0.3 -->
      <g style="fill:#262626;" transform="translate(7.2 68.898988)scale(0.14 -0.14)">
       <use xlink:href="#DejaVuSans-48"></use>
       <use x="63.623047" xlink:href="#DejaVuSans-46"></use>
       <use x="95.410156" xlink:href="#DejaVuSans-51"></use>
      </g>
     </g>
    </g>
    <g id="ytick_5">
     <g id="line2d_17">
      <path clip-path="url(#p12d55bc634)" d="M 32.964375 12.518906 
L 367.764375 12.518906 
" style="fill:none;stroke:#ffffff;stroke-linecap:round;stroke-width:0.8;"></path>
     </g>
     <g id="line2d_18"></g>
     <g id="text_9">
      <!-- 0.4 -->
      <defs>
       <path d="M 37.796875 64.3125 
L 12.890625 25.390625 
L 37.796875 25.390625 
z
M 35.203125 72.90625 
L 47.609375 72.90625 
L 47.609375 25.390625 
L 58.015625 25.390625 
L 58.015625 17.1875 
L 47.609375 17.1875 
L 47.609375 0 
L 37.796875 0 
L 37.796875 17.1875 
L 4.890625 17.1875 
L 4.890625 26.703125 
z
" id="DejaVuSans-52"></path>
      </defs>
      <g style="fill:#262626;" transform="translate(7.2 17.837812)scale(0.14 -0.14)">
       <use xlink:href="#DejaVuSans-48"></use>
       <use x="63.623047" xlink:href="#DejaVuSans-46"></use>
       <use x="95.410156" xlink:href="#DejaVuSans-52"></use>
      </g>
     </g>
    </g>
   </g>
   <g id="PolyCollection_1">
    <defs>
     <path d="M 48.182557 -34.133011 
L 48.182557 -231.805739 
L 49.712022 -230.636783 
L 51.241488 -227.176964 
L 52.770953 -221.568409 
L 54.300419 -214.038436 
L 55.829884 -204.876983 
L 57.35935 -194.42284 
L 58.888815 -183.03898 
L 60.418281 -171.100977 
L 61.947746 -158.951855 
L 63.477212 -146.913174 
L 65.006677 -135.242841 
L 66.536143 -124.162857 
L 68.065608 -113.832212 
L 69.595074 -104.353993 
L 71.124539 -95.77789 
L 72.654005 -88.114587 
L 74.18347 -81.34017 
L 75.712936 -75.391938 
L 77.242401 -70.216574 
L 78.771867 -65.752305 
L 80.301333 -61.969646 
L 81.830798 -58.650214 
L 83.360264 -55.805386 
L 84.889729 -53.375601 
L 86.419195 -51.300435 
L 87.94866 -49.506851 
L 89.478126 -47.94907 
L 91.007591 -46.587593 
L 92.537057 -45.3895 
L 94.066522 -44.331546 
L 95.595988 -43.390958 
L 97.125453 -42.554636 
L 98.654919 -41.799765 
L 100.184384 -41.119404 
L 101.71385 -40.502692 
L 103.243315 -39.949947 
L 104.772781 -39.448068 
L 106.302246 -38.993268 
L 107.831712 -38.58022 
L 109.361177 -38.210635 
L 110.890643 -37.876401 
L 112.420108 -37.575475 
L 113.949574 -37.306778 
L 115.479039 -37.0653 
L 117.008505 -36.851079 
L 118.53797 -36.661779 
L 120.067436 -36.494408 
L 121.596901 -36.343793 
L 123.126367 -36.208653 
L 124.655832 -36.089553 
L 126.185298 -35.980499 
L 127.714763 -35.881352 
L 129.244229 -35.790221 
L 130.773694 -35.703601 
L 132.30316 -35.623732 
L 133.832625 -35.54867 
L 135.362091 -35.476849 
L 136.891556 -35.408282 
L 138.421022 -35.343579 
L 139.950487 -35.28166 
L 141.479953 -35.222059 
L 143.009418 -35.165218 
L 144.538884 -35.111478 
L 146.068349 -35.059787 
L 147.597815 -35.01155 
L 149.12728 -34.966546 
L 150.656746 -34.924189 
L 152.186211 -34.885375 
L 153.715677 -34.850046 
L 155.245142 -34.817822 
L 156.774608 -34.789224 
L 158.304073 -34.763837 
L 159.833539 -34.742055 
L 161.363005 -34.721975 
L 162.89247 -34.703986 
L 164.421936 -34.687675 
L 165.951401 -34.671672 
L 167.480867 -34.656003 
L 169.010332 -34.639286 
L 170.539798 -34.621551 
L 172.069263 -34.60176 
L 173.598729 -34.580868 
L 175.128194 -34.55879 
L 176.65766 -34.535383 
L 178.187125 -34.510707 
L 179.716591 -34.486025 
L 181.246056 -34.461088 
L 182.775522 -34.436895 
L 184.304987 -34.413776 
L 185.834453 -34.39197 
L 187.363918 -34.371984 
L 188.893384 -34.354064 
L 190.422849 -34.337759 
L 191.952315 -34.323243 
L 193.48178 -34.310617 
L 195.011246 -34.299006 
L 196.540711 -34.289027 
L 198.070177 -34.279983 
L 199.599642 -34.27196 
L 201.129108 -34.264519 
L 202.658573 -34.25791 
L 204.188039 -34.251276 
L 205.717504 -34.245741 
L 207.24697 -34.240626 
L 208.776435 -34.236227 
L 210.305901 -34.231912 
L 211.835366 -34.228388 
L 213.364832 -34.225451 
L 214.894297 -34.222915 
L 216.423763 -34.220787 
L 217.953228 -34.219054 
L 219.482694 -34.217585 
L 221.012159 -34.216471 
L 222.541625 -34.215636 
L 224.07109 -34.214998 
L 225.600556 -34.214566 
L 227.130021 -34.214005 
L 228.659487 -34.213525 
L 230.188952 -34.212882 
L 231.718418 -34.21194 
L 233.247883 -34.210524 
L 234.777349 -34.208809 
L 236.306814 -34.206602 
L 237.83628 -34.203796 
L 239.365745 -34.200554 
L 240.895211 -34.197023 
L 242.424677 -34.193144 
L 243.954142 -34.189043 
L 245.483608 -34.184754 
L 247.013073 -34.180647 
L 248.542539 -34.177007 
L 250.072004 -34.17347 
L 251.60147 -34.170542 
L 253.130935 -34.168054 
L 254.660401 -34.1661 
L 256.189866 -34.164618 
L 257.719332 -34.163869 
L 259.248797 -34.163723 
L 260.778263 -34.164106 
L 262.307728 -34.16528 
L 263.837194 -34.167105 
L 265.366659 -34.169582 
L 266.896125 -34.172837 
L 268.42559 -34.176462 
L 269.955056 -34.180572 
L 271.484521 -34.185076 
L 273.013987 -34.189603 
L 274.543452 -34.193804 
L 276.072918 -34.197658 
L 277.602383 -34.200763 
L 279.131849 -34.202915 
L 280.661314 -34.203973 
L 282.19078 -34.203872 
L 283.720245 -34.202627 
L 285.249711 -34.200333 
L 286.779176 -34.197145 
L 288.308642 -34.19326 
L 289.838107 -34.188894 
L 291.367573 -34.184154 
L 292.897038 -34.179463 
L 294.426504 -34.174817 
L 295.955969 -34.170329 
L 297.485435 -34.166071 
L 299.0149 -34.162081 
L 300.544366 -34.158376 
L 302.073831 -34.154954 
L 303.603297 -34.151813 
L 305.132762 -34.148945 
L 306.662228 -34.146508 
L 308.191693 -34.144271 
L 309.721159 -34.142345 
L 311.250624 -34.140544 
L 312.78009 -34.139356 
L 314.309555 -34.138285 
L 315.839021 -34.137822 
L 317.368486 -34.137665 
L 318.897952 -34.137822 
L 320.427417 -34.138285 
L 321.956883 -34.139196 
L 323.486349 -34.140453 
L 325.015814 -34.14189 
L 326.54528 -34.143575 
L 328.074745 -34.145466 
L 329.604211 -34.14742 
L 331.133676 -34.149629 
L 332.663142 -34.151897 
L 334.192607 -34.15419 
L 335.722073 -34.156478 
L 337.251538 -34.158736 
L 338.781004 -34.161099 
L 340.310469 -34.163312 
L 341.839935 -34.165457 
L 343.3694 -34.167503 
L 344.898866 -34.169413 
L 346.428331 -34.171136 
L 347.957797 -34.172617 
L 349.487262 -34.173794 
L 351.016728 -34.174615 
L 352.546193 -34.175036 
L 352.546193 -34.133011 
L 352.546193 -34.133011 
L 351.016728 -34.133011 
L 349.487262 -34.133011 
L 347.957797 -34.133011 
L 346.428331 -34.133011 
L 344.898866 -34.133011 
L 343.3694 -34.133011 
L 341.839935 -34.133011 
L 340.310469 -34.133011 
L 338.781004 -34.133011 
L 337.251538 -34.133011 
L 335.722073 -34.133011 
L 334.192607 -34.133011 
L 332.663142 -34.133011 
L 331.133676 -34.133011 
L 329.604211 -34.133011 
L 328.074745 -34.133011 
L 326.54528 -34.133011 
L 325.015814 -34.133011 
L 323.486349 -34.133011 
L 321.956883 -34.133011 
L 320.427417 -34.133011 
L 318.897952 -34.133011 
L 317.368486 -34.133011 
L 315.839021 -34.133011 
L 314.309555 -34.133011 
L 312.78009 -34.133011 
L 311.250624 -34.133011 
L 309.721159 -34.133011 
L 308.191693 -34.133011 
L 306.662228 -34.133011 
L 305.132762 -34.133011 
L 303.603297 -34.133011 
L 302.073831 -34.133011 
L 300.544366 -34.133011 
L 299.0149 -34.133011 
L 297.485435 -34.133011 
L 295.955969 -34.133011 
L 294.426504 -34.133011 
L 292.897038 -34.133011 
L 291.367573 -34.133011 
L 289.838107 -34.133011 
L 288.308642 -34.133011 
L 286.779176 -34.133011 
L 285.249711 -34.133011 
L 283.720245 -34.133011 
L 282.19078 -34.133011 
L 280.661314 -34.133011 
L 279.131849 -34.133011 
L 277.602383 -34.133011 
L 276.072918 -34.133011 
L 274.543452 -34.133011 
L 273.013987 -34.133011 
L 271.484521 -34.133011 
L 269.955056 -34.133011 
L 268.42559 -34.133011 
L 266.896125 -34.133011 
L 265.366659 -34.133011 
L 263.837194 -34.133011 
L 262.307728 -34.133011 
L 260.778263 -34.133011 
L 259.248797 -34.133011 
L 257.719332 -34.133011 
L 256.189866 -34.133011 
L 254.660401 -34.133011 
L 253.130935 -34.133011 
L 251.60147 -34.133011 
L 250.072004 -34.133011 
L 248.542539 -34.133011 
L 247.013073 -34.133011 
L 245.483608 -34.133011 
L 243.954142 -34.133011 
L 242.424677 -34.133011 
L 240.895211 -34.133011 
L 239.365745 -34.133011 
L 237.83628 -34.133011 
L 236.306814 -34.133011 
L 234.777349 -34.133011 
L 233.247883 -34.133011 
L 231.718418 -34.133011 
L 230.188952 -34.133011 
L 228.659487 -34.133011 
L 227.130021 -34.133011 
L 225.600556 -34.133011 
L 224.07109 -34.133011 
L 222.541625 -34.133011 
L 221.012159 -34.133011 
L 219.482694 -34.133011 
L 217.953228 -34.133011 
L 216.423763 -34.133011 
L 214.894297 -34.133011 
L 213.364832 -34.133011 
L 211.835366 -34.133011 
L 210.305901 -34.133011 
L 208.776435 -34.133011 
L 207.24697 -34.133011 
L 205.717504 -34.133011 
L 204.188039 -34.133011 
L 202.658573 -34.133011 
L 201.129108 -34.133011 
L 199.599642 -34.133011 
L 198.070177 -34.133011 
L 196.540711 -34.133011 
L 195.011246 -34.133011 
L 193.48178 -34.133011 
L 191.952315 -34.133011 
L 190.422849 -34.133011 
L 188.893384 -34.133011 
L 187.363918 -34.133011 
L 185.834453 -34.133011 
L 184.304987 -34.133011 
L 182.775522 -34.133011 
L 181.246056 -34.133011 
L 179.716591 -34.133011 
L 178.187125 -34.133011 
L 176.65766 -34.133011 
L 175.128194 -34.133011 
L 173.598729 -34.133011 
L 172.069263 -34.133011 
L 170.539798 -34.133011 
L 169.010332 -34.133011 
L 167.480867 -34.133011 
L 165.951401 -34.133011 
L 164.421936 -34.133011 
L 162.89247 -34.133011 
L 161.363005 -34.133011 
L 159.833539 -34.133011 
L 158.304073 -34.133011 
L 156.774608 -34.133011 
L 155.245142 -34.133011 
L 153.715677 -34.133011 
L 152.186211 -34.133011 
L 150.656746 -34.133011 
L 149.12728 -34.133011 
L 147.597815 -34.133011 
L 146.068349 -34.133011 
L 144.538884 -34.133011 
L 143.009418 -34.133011 
L 141.479953 -34.133011 
L 139.950487 -34.133011 
L 138.421022 -34.133011 
L 136.891556 -34.133011 
L 135.362091 -34.133011 
L 133.832625 -34.133011 
L 132.30316 -34.133011 
L 130.773694 -34.133011 
L 129.244229 -34.133011 
L 127.714763 -34.133011 
L 126.185298 -34.133011 
L 124.655832 -34.133011 
L 123.126367 -34.133011 
L 121.596901 -34.133011 
L 120.067436 -34.133011 
L 118.53797 -34.133011 
L 117.008505 -34.133011 
L 115.479039 -34.133011 
L 113.949574 -34.133011 
L 112.420108 -34.133011 
L 110.890643 -34.133011 
L 109.361177 -34.133011 
L 107.831712 -34.133011 
L 106.302246 -34.133011 
L 104.772781 -34.133011 
L 103.243315 -34.133011 
L 101.71385 -34.133011 
L 100.184384 -34.133011 
L 98.654919 -34.133011 
L 97.125453 -34.133011 
L 95.595988 -34.133011 
L 94.066522 -34.133011 
L 92.537057 -34.133011 
L 91.007591 -34.133011 
L 89.478126 -34.133011 
L 87.94866 -34.133011 
L 86.419195 -34.133011 
L 84.889729 -34.133011 
L 83.360264 -34.133011 
L 81.830798 -34.133011 
L 80.301333 -34.133011 
L 78.771867 -34.133011 
L 77.242401 -34.133011 
L 75.712936 -34.133011 
L 74.18347 -34.133011 
L 72.654005 -34.133011 
L 71.124539 -34.133011 
L 69.595074 -34.133011 
L 68.065608 -34.133011 
L 66.536143 -34.133011 
L 65.006677 -34.133011 
L 63.477212 -34.133011 
L 61.947746 -34.133011 
L 60.418281 -34.133011 
L 58.888815 -34.133011 
L 57.35935 -34.133011 
L 55.829884 -34.133011 
L 54.300419 -34.133011 
L 52.770953 -34.133011 
L 51.241488 -34.133011 
L 49.712022 -34.133011 
L 48.182557 -34.133011 
z
" id="m271f7e4ef0" style="stroke:#2a2eec;stroke-opacity:0;"></path>
    </defs>
    <g clip-path="url(#p12d55bc634)">
     <use style="fill:#2a2eec;fill-opacity:0;stroke:#2a2eec;stroke-opacity:0;" x="0" xlink:href="#m271f7e4ef0" y="250.896622"></use>
    </g>
   </g>
   <g id="line2d_19">
    <path clip-path="url(#p12d55bc634)" d="M 48.182557 19.090883 
L 49.712022 20.259839 
L 51.241488 23.719657 
L 52.770953 29.328212 
L 54.300419 36.858186 
L 55.829884 46.019639 
L 57.35935 56.473782 
L 60.418281 79.795645 
L 65.006677 115.65378 
L 68.065608 137.06441 
L 69.595074 146.542629 
L 71.124539 155.118732 
L 72.654005 162.782035 
L 74.18347 169.556452 
L 75.712936 175.504684 
L 77.242401 180.680048 
L 78.771867 185.144317 
L 80.301333 188.926976 
L 81.830798 192.246408 
L 83.360264 195.091235 
L 84.889729 197.521021 
L 86.419195 199.596186 
L 87.94866 201.389771 
L 89.478126 202.947552 
L 91.007591 204.309028 
L 94.066522 206.565076 
L 97.125453 208.341985 
L 100.184384 209.777218 
L 103.243315 210.946674 
L 106.302246 211.903353 
L 109.361177 212.685987 
L 113.949574 213.589844 
L 118.53797 214.234842 
L 124.655832 214.807068 
L 132.30316 215.272889 
L 144.538884 215.785143 
L 156.774608 216.107398 
L 190.422849 216.558863 
L 213.364832 216.67117 
L 328.074745 216.751156 
L 352.546193 216.721585 
L 352.546193 216.721585 
" style="fill:none;stroke:#2a2eec;stroke-linecap:round;stroke-width:1.5;"></path>
   </g>
   <g id="patch_3">
    <path d="M 32.964375 226.647247 
L 32.964375 9.207247 
" style="fill:none;"></path>
   </g>
   <g id="patch_4">
    <path d="M 367.764375 226.647247 
L 367.764375 9.207247 
" style="fill:none;"></path>
   </g>
   <g id="patch_5">
    <path d="M 32.964375 226.647247 
L 367.764375 226.647247 
" style="fill:none;"></path>
   </g>
   <g id="patch_6">
    <path d="M 32.964375 9.207247 
L 367.764375 9.207247 
" style="fill:none;"></path>
   </g>
  </g>
 </g>
 <defs>
  <clipPath id="p12d55bc634">
   <rect height="217.44" width="334.8" x="32.964375" y="9.207247"></rect>
  </clipPath>
 </defs>
</svg>