<?xml version="1.0" encoding="utf-8"?>
<svg height="248.143437pt" version="1.1" viewBox="0 0 391.314245 248.143437" width="391.314245pt" xmlns="http://www.w3.org/2000/svg" xmlns:xlink="http://www.w3.org/1999/xlink">
 <defs>
  <style type="text/css">
*{stroke-linecap:butt;stroke-linejoin:round;}
  </style>
 </defs>
 <g id="figure_1">
  <g id="patch_1">
   <path d="M 0 248.143437 
L 391.314245 248.143437 
L 391.314245 0 
L 0 0 
z
" style="fill:none;"></path>
  </g>
  <g id="axes_1">
   <g id="patch_2">
    <path d="M 45.730625 224.64 
L 380.530625 224.64 
L 380.530625 7.2 
L 45.730625 7.2 
z
" style="fill:#eeeeee;"></path>
   </g>
   <g id="matplotlib.axis_1">
    <g id="xtick_1">
     <g id="line2d_1">
      <path clip-path="url(#pca1e89f3f2)" d="M 58.235701 224.64 
L 58.235701 7.2 
" style="fill:none;stroke:#ffffff;stroke-linecap:round;stroke-width:0.8;"></path>
     </g>
     <g id="line2d_2"></g>
     <g id="text_1">
      <!-- −200 -->
      <defs>
       <path d="M 52.828125 31.203125 
L 5.5625 31.203125 
L 5.5625 39.40625 
L 52.828125 39.40625 
z
" id="ArialMT-8722"></path>
       <path d="M 50.34375 8.453125 
L 50.34375 0 
L 3.03125 0 
Q 2.9375 3.171875 4.046875 6.109375 
Q 5.859375 10.9375 9.828125 15.625 
Q 13.8125 20.3125 21.34375 26.46875 
Q 33.015625 36.03125 37.109375 41.625 
Q 41.21875 47.21875 41.21875 52.203125 
Q 41.21875 57.421875 37.46875 61 
Q 33.734375 64.59375 27.734375 64.59375 
Q 21.390625 64.59375 17.578125 60.78125 
Q 13.765625 56.984375 13.71875 50.25 
L 4.6875 51.171875 
Q 5.609375 61.28125 11.65625 66.578125 
Q 17.71875 71.875 27.9375 71.875 
Q 38.234375 71.875 44.234375 66.15625 
Q 50.25 60.453125 50.25 52 
Q 50.25 47.703125 48.484375 43.546875 
Q 46.734375 39.40625 42.65625 34.8125 
Q 38.578125 30.21875 29.109375 22.21875 
Q 21.1875 15.578125 18.9375 13.203125 
Q 16.703125 10.84375 15.234375 8.453125 
z
" id="ArialMT-50"></path>
       <path d="M 4.15625 35.296875 
Q 4.15625 48 6.765625 55.734375 
Q 9.375 63.484375 14.515625 67.671875 
Q 19.671875 71.875 27.484375 71.875 
Q 33.25 71.875 37.59375 69.546875 
Q 41.9375 67.234375 44.765625 62.859375 
Q 47.609375 58.5 49.21875 52.21875 
Q 50.828125 45.953125 50.828125 35.296875 
Q 50.828125 22.703125 48.234375 14.96875 
Q 45.65625 7.234375 40.5 3 
Q 35.359375 -1.21875 27.484375 -1.21875 
Q 17.140625 -1.21875 11.234375 6.203125 
Q 4.15625 15.140625 4.15625 35.296875 
z
M 13.1875 35.296875 
Q 13.1875 17.671875 17.3125 11.828125 
Q 21.4375 6 27.484375 6 
Q 33.546875 6 37.671875 11.859375 
Q 41.796875 17.71875 41.796875 35.296875 
Q 41.796875 52.984375 37.671875 58.78125 
Q 33.546875 64.59375 27.390625 64.59375 
Q 21.34375 64.59375 17.71875 59.46875 
Q 13.1875 52.9375 13.1875 35.296875 
z
" id="ArialMT-48"></path>
      </defs>
      <g style="fill:#262626;" transform="translate(42.469295 238.160937)scale(0.14 -0.14)">
       <use xlink:href="#ArialMT-8722"></use>
       <use x="58.398438" xlink:href="#ArialMT-50"></use>
       <use x="114.013672" xlink:href="#ArialMT-48"></use>
       <use x="169.628906" xlink:href="#ArialMT-48"></use>
      </g>
     </g>
    </g>
    <g id="xtick_2">
     <g id="line2d_3">
      <path clip-path="url(#pca1e89f3f2)" d="M 136.785845 224.64 
L 136.785845 7.2 
" style="fill:none;stroke:#ffffff;stroke-linecap:round;stroke-width:0.8;"></path>
     </g>
     <g id="line2d_4"></g>
     <g id="text_2">
      <!-- 0 -->
      <g style="fill:#262626;" transform="translate(132.893188 238.160937)scale(0.14 -0.14)">
       <use xlink:href="#ArialMT-48"></use>
      </g>
     </g>
    </g>
    <g id="xtick_3">
     <g id="line2d_5">
      <path clip-path="url(#pca1e89f3f2)" d="M 215.335988 224.64 
L 215.335988 7.2 
" style="fill:none;stroke:#ffffff;stroke-linecap:round;stroke-width:0.8;"></path>
     </g>
     <g id="line2d_6"></g>
     <g id="text_3">
      <!-- 200 -->
      <g style="fill:#262626;" transform="translate(203.65802 238.160937)scale(0.14 -0.14)">
       <use xlink:href="#ArialMT-50"></use>
       <use x="55.615234" xlink:href="#ArialMT-48"></use>
       <use x="111.230469" xlink:href="#ArialMT-48"></use>
      </g>
     </g>
    </g>
    <g id="xtick_4">
     <g id="line2d_7">
      <path clip-path="url(#pca1e89f3f2)" d="M 293.886132 224.64 
L 293.886132 7.2 
" style="fill:none;stroke:#ffffff;stroke-linecap:round;stroke-width:0.8;"></path>
     </g>
     <g id="line2d_8"></g>
     <g id="text_4">
      <!-- 400 -->
      <defs>
       <path d="M 32.328125 0 
L 32.328125 17.140625 
L 1.265625 17.140625 
L 1.265625 25.203125 
L 33.9375 71.578125 
L 41.109375 71.578125 
L 41.109375 25.203125 
L 50.78125 25.203125 
L 50.78125 17.140625 
L 41.109375 17.140625 
L 41.109375 0 
z
M 32.328125 25.203125 
L 32.328125 57.46875 
L 9.90625 25.203125 
z
" id="ArialMT-52"></path>
      </defs>
      <g style="fill:#262626;" transform="translate(282.208163 238.160937)scale(0.14 -0.14)">
       <use xlink:href="#ArialMT-52"></use>
       <use x="55.615234" xlink:href="#ArialMT-48"></use>
       <use x="111.230469" xlink:href="#ArialMT-48"></use>
      </g>
     </g>
    </g>
    <g id="xtick_5">
     <g id="line2d_9">
      <path clip-path="url(#pca1e89f3f2)" d="M 372.436276 224.64 
L 372.436276 7.2 
" style="fill:none;stroke:#ffffff;stroke-linecap:round;stroke-width:0.8;"></path>
     </g>
     <g id="line2d_10"></g>
     <g id="text_5">
      <!-- 600 -->
      <defs>
       <path d="M 49.75 54.046875 
L 41.015625 53.375 
Q 39.84375 58.546875 37.703125 60.890625 
Q 34.125 64.65625 28.90625 64.65625 
Q 24.703125 64.65625 21.53125 62.3125 
Q 17.390625 59.28125 14.984375 53.46875 
Q 12.59375 47.65625 12.5 36.921875 
Q 15.671875 41.75 20.265625 44.09375 
Q 24.859375 46.4375 29.890625 46.4375 
Q 38.671875 46.4375 44.84375 39.96875 
Q 51.03125 33.5 51.03125 23.25 
Q 51.03125 16.5 48.125 10.71875 
Q 45.21875 4.9375 40.140625 1.859375 
Q 35.0625 -1.21875 28.609375 -1.21875 
Q 17.625 -1.21875 10.6875 6.859375 
Q 3.765625 14.9375 3.765625 33.5 
Q 3.765625 54.25 11.421875 63.671875 
Q 18.109375 71.875 29.4375 71.875 
Q 37.890625 71.875 43.28125 67.140625 
Q 48.6875 62.40625 49.75 54.046875 
z
M 13.875 23.1875 
Q 13.875 18.65625 15.796875 14.5 
Q 17.71875 10.359375 21.1875 8.171875 
Q 24.65625 6 28.46875 6 
Q 34.03125 6 38.03125 10.484375 
Q 42.046875 14.984375 42.046875 22.703125 
Q 42.046875 30.125 38.078125 34.390625 
Q 34.125 38.671875 28.125 38.671875 
Q 22.171875 38.671875 18.015625 34.390625 
Q 13.875 30.125 13.875 23.1875 
z
" id="ArialMT-54"></path>
      </defs>
      <g style="fill:#262626;" transform="translate(360.758307 238.160937)scale(0.14 -0.14)">
       <use xlink:href="#ArialMT-54"></use>
       <use x="55.615234" xlink:href="#ArialMT-48"></use>
       <use x="111.230469" xlink:href="#ArialMT-48"></use>
      </g>
     </g>
    </g>
   </g>
   <g id="matplotlib.axis_2">
    <g id="ytick_1">
     <g id="line2d_11">
      <path clip-path="url(#pca1e89f3f2)" d="M 45.730625 214.756364 
L 380.530625 214.756364 
" style="fill:none;stroke:#ffffff;stroke-linecap:round;stroke-width:0.8;"></path>
     </g>
     <g id="line2d_12"></g>
     <g id="text_6">
      <!-- 0.000 -->
      <defs>
       <path d="M 9.078125 0 
L 9.078125 10.015625 
L 19.09375 10.015625 
L 19.09375 0 
z
" id="ArialMT-46"></path>
      </defs>
      <g style="fill:#262626;" transform="translate(7.2 219.766832)scale(0.14 -0.14)">
       <use xlink:href="#ArialMT-48"></use>
       <use x="55.615234" xlink:href="#ArialMT-46"></use>
       <use x="83.398438" xlink:href="#ArialMT-48"></use>
       <use x="139.013672" xlink:href="#ArialMT-48"></use>
       <use x="194.628906" xlink:href="#ArialMT-48"></use>
      </g>
     </g>
    </g>
    <g id="ytick_2">
     <g id="line2d_13">
      <path clip-path="url(#pca1e89f3f2)" d="M 45.730625 164.893237 
L 380.530625 164.893237 
" style="fill:none;stroke:#ffffff;stroke-linecap:round;stroke-width:0.8;"></path>
     </g>
     <g id="line2d_14"></g>
     <g id="text_7">
      <!-- 0.001 -->
      <defs>
       <path d="M 37.25 0 
L 28.46875 0 
L 28.46875 56 
Q 25.296875 52.984375 20.140625 49.953125 
Q 14.984375 46.921875 10.890625 45.40625 
L 10.890625 53.90625 
Q 18.265625 57.375 23.78125 62.296875 
Q 29.296875 67.234375 31.59375 71.875 
L 37.25 71.875 
z
" id="ArialMT-49"></path>
      </defs>
      <g style="fill:#262626;" transform="translate(7.2 169.903706)scale(0.14 -0.14)">
       <use xlink:href="#ArialMT-48"></use>
       <use x="55.615234" xlink:href="#ArialMT-46"></use>
       <use x="83.398438" xlink:href="#ArialMT-48"></use>
       <use x="139.013672" xlink:href="#ArialMT-48"></use>
       <use x="194.628906" xlink:href="#ArialMT-49"></use>
      </g>
     </g>
    </g>
    <g id="ytick_3">
     <g id="line2d_15">
      <path clip-path="url(#pca1e89f3f2)" d="M 45.730625 115.030111 
L 380.530625 115.030111 
" style="fill:none;stroke:#ffffff;stroke-linecap:round;stroke-width:0.8;"></path>
     </g>
     <g id="line2d_16"></g>
     <g id="text_8">
      <!-- 0.002 -->
      <g style="fill:#262626;" transform="translate(7.2 120.04058)scale(0.14 -0.14)">
       <use xlink:href="#ArialMT-48"></use>
       <use x="55.615234" xlink:href="#ArialMT-46"></use>
       <use x="83.398438" xlink:href="#ArialMT-48"></use>
       <use x="139.013672" xlink:href="#ArialMT-48"></use>
       <use x="194.628906" xlink:href="#ArialMT-50"></use>
      </g>
     </g>
    </g>
    <g id="ytick_4">
     <g id="line2d_17">
      <path clip-path="url(#pca1e89f3f2)" d="M 45.730625 65.166984 
L 380.530625 65.166984 
" style="fill:none;stroke:#ffffff;stroke-linecap:round;stroke-width:0.8;"></path>
     </g>
     <g id="line2d_18"></g>
     <g id="text_9">
      <!-- 0.003 -->
      <defs>
       <path d="M 4.203125 18.890625 
L 12.984375 20.0625 
Q 14.5 12.59375 18.140625 9.296875 
Q 21.78125 6 27 6 
Q 33.203125 6 37.46875 10.296875 
Q 41.75 14.59375 41.75 20.953125 
Q 41.75 27 37.796875 30.921875 
Q 33.84375 34.859375 27.734375 34.859375 
Q 25.25 34.859375 21.53125 33.890625 
L 22.515625 41.609375 
Q 23.390625 41.5 23.921875 41.5 
Q 29.546875 41.5 34.03125 44.421875 
Q 38.53125 47.359375 38.53125 53.46875 
Q 38.53125 58.296875 35.25 61.46875 
Q 31.984375 64.65625 26.8125 64.65625 
Q 21.6875 64.65625 18.265625 61.421875 
Q 14.84375 58.203125 13.875 51.765625 
L 5.078125 53.328125 
Q 6.6875 62.15625 12.390625 67.015625 
Q 18.109375 71.875 26.609375 71.875 
Q 32.46875 71.875 37.390625 69.359375 
Q 42.328125 66.84375 44.9375 62.5 
Q 47.5625 58.15625 47.5625 53.265625 
Q 47.5625 48.640625 45.0625 44.828125 
Q 42.578125 41.015625 37.703125 38.765625 
Q 44.046875 37.3125 47.5625 32.6875 
Q 51.078125 28.078125 51.078125 21.140625 
Q 51.078125 11.765625 44.234375 5.25 
Q 37.40625 -1.265625 26.953125 -1.265625 
Q 17.53125 -1.265625 11.296875 4.34375 
Q 5.078125 9.96875 4.203125 18.890625 
z
" id="ArialMT-51"></path>
      </defs>
      <g style="fill:#262626;" transform="translate(7.2 70.177453)scale(0.14 -0.14)">
       <use xlink:href="#ArialMT-48"></use>
       <use x="55.615234" xlink:href="#ArialMT-46"></use>
       <use x="83.398438" xlink:href="#ArialMT-48"></use>
       <use x="139.013672" xlink:href="#ArialMT-48"></use>
       <use x="194.628906" xlink:href="#ArialMT-51"></use>
      </g>
     </g>
    </g>
    <g id="ytick_5">
     <g id="line2d_19">
      <path clip-path="url(#pca1e89f3f2)" d="M 45.730625 15.303858 
L 380.530625 15.303858 
" style="fill:none;stroke:#ffffff;stroke-linecap:round;stroke-width:0.8;"></path>
     </g>
     <g id="line2d_20"></g>
     <g id="text_10">
      <!-- 0.004 -->
      <g style="fill:#262626;" transform="translate(7.2 20.314327)scale(0.14 -0.14)">
       <use xlink:href="#ArialMT-48"></use>
       <use x="55.615234" xlink:href="#ArialMT-46"></use>
       <use x="83.398438" xlink:href="#ArialMT-48"></use>
       <use x="139.013672" xlink:href="#ArialMT-48"></use>
       <use x="194.628906" xlink:href="#ArialMT-52"></use>
      </g>
     </g>
    </g>
   </g>
   <g id="PolyCollection_1">
    <defs>
     <path d="M 60.948807 -33.387074 
L 60.948807 -34.115512 
L 62.478272 -34.182518 
L 64.007738 -34.351091 
L 65.537203 -34.517744 
L 67.066669 -34.578434 
L 68.596134 -34.491654 
L 70.1256 -34.290401 
L 71.655065 -34.145204 
L 73.184531 -34.225078 
L 74.713996 -34.475444 
L 76.243462 -34.73056 
L 77.772927 -34.918908 
L 79.302393 -34.944681 
L 80.831858 -34.711022 
L 82.361324 -34.387359 
L 83.890789 -34.366242 
L 85.420255 -34.899734 
L 86.94972 -35.809049 
L 88.479186 -36.561555 
L 90.008651 -36.851338 
L 91.538117 -36.999681 
L 93.067583 -37.302967 
L 94.597048 -37.620928 
L 96.126514 -37.825545 
L 97.655979 -37.98439 
L 99.185445 -38.371117 
L 100.71491 -39.735403 
L 102.244376 -42.262024 
L 103.773841 -44.562904 
L 105.303307 -45.241299 
L 106.832772 -44.730559 
L 108.362238 -44.239738 
L 109.891703 -44.364375 
L 111.421169 -45.502442 
L 112.950634 -47.784276 
L 114.4801 -49.930497 
L 116.009565 -50.354207 
L 117.539031 -49.481955 
L 119.068496 -49.626341 
L 120.597962 -52.330492 
L 122.127427 -56.302415 
L 123.656893 -58.861149 
L 125.186358 -59.425573 
L 126.715824 -59.715743 
L 128.245289 -61.274191 
L 129.774755 -64.531242 
L 131.30422 -68.852479 
L 132.833686 -72.714669 
L 134.363151 -75.118435 
L 135.892617 -76.929838 
L 137.422082 -79.337606 
L 138.951548 -82.115888 
L 140.481013 -85.124113 
L 142.010479 -89.422076 
L 143.539944 -94.703055 
L 145.06941 -98.751541 
L 146.598875 -101.116389 
L 148.128341 -103.800252 
L 149.657806 -107.635277 
L 151.187272 -110.968321 
L 152.716737 -112.351489 
L 154.246203 -112.918316 
L 155.775668 -115.143321 
L 157.305134 -119.781542 
L 158.834599 -125.060324 
L 160.364065 -129.489143 
L 161.89353 -134.454909 
L 163.422996 -141.610379 
L 164.952461 -148.869428 
L 166.481927 -153.053433 
L 168.011392 -154.976947 
L 169.540858 -157.684321 
L 171.070323 -162.071373 
L 172.599789 -166.837686 
L 174.129255 -171.530272 
L 175.65872 -177.535978 
L 177.188186 -184.302903 
L 178.717651 -187.925869 
L 180.247117 -187.613552 
L 181.776582 -187.284908 
L 183.306048 -190.107106 
L 184.835513 -196.94347 
L 186.364979 -206.15826 
L 187.894444 -213.02949 
L 189.42391 -215.903485 
L 190.953375 -217.624284 
L 192.482841 -218.821302 
L 194.012306 -217.500536 
L 195.541772 -214.318002 
L 197.071237 -211.602417 
L 198.600703 -211.202 
L 200.130168 -213.774882 
L 201.659634 -218.546612 
L 203.189099 -224.020823 
L 204.718565 -228.970582 
L 206.24803 -231.059801 
L 207.777496 -228.271628 
L 209.306961 -222.262866 
L 210.836427 -217.605194 
L 212.365892 -216.683915 
L 213.895358 -218.311254 
L 215.424823 -219.320421 
L 216.954289 -217.122422 
L 218.483754 -212.312929 
L 220.01322 -208.224057 
L 221.542685 -206.972668 
L 223.072151 -207.870404 
L 224.601616 -208.691559 
L 226.131082 -207.618561 
L 227.660547 -204.498833 
L 229.190013 -199.425272 
L 230.719478 -192.284098 
L 232.248944 -185.466035 
L 233.778409 -182.654108 
L 235.307875 -183.354992 
L 236.83734 -183.215671 
L 238.366806 -179.743385 
L 239.896271 -173.804341 
L 241.425737 -167.418028 
L 242.955202 -162.226876 
L 244.484668 -158.305261 
L 246.014133 -154.142237 
L 247.543599 -149.043623 
L 249.073064 -144.002341 
L 250.60253 -140.504659 
L 252.131995 -139.135027 
L 253.661461 -139.045787 
L 255.190927 -137.820054 
L 256.720392 -132.499726 
L 258.249858 -122.878911 
L 259.779323 -113.585067 
L 261.308789 -109.167676 
L 262.838254 -108.11289 
L 264.36772 -105.210975 
L 265.897185 -99.308476 
L 267.426651 -94.399827 
L 268.956116 -93.11332 
L 270.485582 -93.341494 
L 272.015047 -91.70719 
L 273.544513 -87.345369 
L 275.073978 -82.036308 
L 276.603444 -77.891782 
L 278.132909 -75.298912 
L 279.662375 -73.234302 
L 281.19184 -70.837884 
L 282.721306 -68.179948 
L 284.250771 -65.847374 
L 285.780237 -64.033813 
L 287.309702 -62.564398 
L 288.839168 -61.124942 
L 290.368633 -59.149088 
L 291.898099 -56.643573 
L 293.427564 -54.235558 
L 294.95703 -52.112721 
L 296.486495 -50.06094 
L 298.015961 -48.083708 
L 299.545426 -46.50009 
L 301.074892 -45.714873 
L 302.604357 -45.547965 
L 304.133823 -45.332247 
L 305.663288 -44.759557 
L 307.192754 -43.88686 
L 308.722219 -42.720538 
L 310.251685 -41.544327 
L 311.78115 -40.861814 
L 313.310616 -40.730723 
L 314.840081 -40.647963 
L 316.369547 -40.349415 
L 317.899012 -40.235 
L 319.428478 -40.392681 
L 320.957943 -40.050184 
L 322.487409 -38.831826 
L 324.016874 -37.400595 
L 325.54634 -36.421616 
L 327.075805 -35.858446 
L 328.605271 -35.567496 
L 330.134736 -35.580104 
L 331.664202 -35.661556 
L 333.193667 -35.416097 
L 334.723133 -34.851926 
L 336.252599 -34.393992 
L 337.782064 -34.328328 
L 339.31153 -34.427636 
L 340.840995 -34.311518 
L 342.370461 -33.982924 
L 343.899926 -33.747346 
L 345.429392 -33.724243 
L 346.958857 -33.747005 
L 348.488323 -33.681682 
L 350.017788 -33.618005 
L 351.547254 -33.747346 
L 353.076719 -34.097397 
L 354.606185 -34.411166 
L 356.13565 -34.432623 
L 357.665116 -34.226737 
L 359.194581 -34.012263 
L 360.724047 -33.912614 
L 362.253512 -33.999394 
L 363.782978 -34.239606 
L 365.312443 -34.440858 
L 365.312443 -33.387074 
L 365.312443 -33.387074 
L 363.782978 -33.387074 
L 362.253512 -33.387074 
L 360.724047 -33.387074 
L 359.194581 -33.387074 
L 357.665116 -33.387074 
L 356.13565 -33.387074 
L 354.606185 -33.387074 
L 353.076719 -33.387074 
L 351.547254 -33.387074 
L 350.017788 -33.387074 
L 348.488323 -33.387074 
L 346.958857 -33.387074 
L 345.429392 -33.387074 
L 343.899926 -33.387074 
L 342.370461 -33.387074 
L 340.840995 -33.387074 
L 339.31153 -33.387074 
L 337.782064 -33.387074 
L 336.252599 -33.387074 
L 334.723133 -33.387074 
L 333.193667 -33.387074 
L 331.664202 -33.387074 
L 330.134736 -33.387074 
L 328.605271 -33.387074 
L 327.075805 -33.387074 
L 325.54634 -33.387074 
L 324.016874 -33.387074 
L 322.487409 -33.387074 
L 320.957943 -33.387074 
L 319.428478 -33.387074 
L 317.899012 -33.387074 
L 316.369547 -33.387074 
L 314.840081 -33.387074 
L 313.310616 -33.387074 
L 311.78115 -33.387074 
L 310.251685 -33.387074 
L 308.722219 -33.387074 
L 307.192754 -33.387074 
L 305.663288 -33.387074 
L 304.133823 -33.387074 
L 302.604357 -33.387074 
L 301.074892 -33.387074 
L 299.545426 -33.387074 
L 298.015961 -33.387074 
L 296.486495 -33.387074 
L 294.95703 -33.387074 
L 293.427564 -33.387074 
L 291.898099 -33.387074 
L 290.368633 -33.387074 
L 288.839168 -33.387074 
L 287.309702 -33.387074 
L 285.780237 -33.387074 
L 284.250771 -33.387074 
L 282.721306 -33.387074 
L 281.19184 -33.387074 
L 279.662375 -33.387074 
L 278.132909 -33.387074 
L 276.603444 -33.387074 
L 275.073978 -33.387074 
L 273.544513 -33.387074 
L 272.015047 -33.387074 
L 270.485582 -33.387074 
L 268.956116 -33.387074 
L 267.426651 -33.387074 
L 265.897185 -33.387074 
L 264.36772 -33.387074 
L 262.838254 -33.387074 
L 261.308789 -33.387074 
L 259.779323 -33.387074 
L 258.249858 -33.387074 
L 256.720392 -33.387074 
L 255.190927 -33.387074 
L 253.661461 -33.387074 
L 252.131995 -33.387074 
L 250.60253 -33.387074 
L 249.073064 -33.387074 
L 247.543599 -33.387074 
L 246.014133 -33.387074 
L 244.484668 -33.387074 
L 242.955202 -33.387074 
L 241.425737 -33.387074 
L 239.896271 -33.387074 
L 238.366806 -33.387074 
L 236.83734 -33.387074 
L 235.307875 -33.387074 
L 233.778409 -33.387074 
L 232.248944 -33.387074 
L 230.719478 -33.387074 
L 229.190013 -33.387074 
L 227.660547 -33.387074 
L 226.131082 -33.387074 
L 224.601616 -33.387074 
L 223.072151 -33.387074 
L 221.542685 -33.387074 
L 220.01322 -33.387074 
L 218.483754 -33.387074 
L 216.954289 -33.387074 
L 215.424823 -33.387074 
L 213.895358 -33.387074 
L 212.365892 -33.387074 
L 210.836427 -33.387074 
L 209.306961 -33.387074 
L 207.777496 -33.387074 
L 206.24803 -33.387074 
L 204.718565 -33.387074 
L 203.189099 -33.387074 
L 201.659634 -33.387074 
L 200.130168 -33.387074 
L 198.600703 -33.387074 
L 197.071237 -33.387074 
L 195.541772 -33.387074 
L 194.012306 -33.387074 
L 192.482841 -33.387074 
L 190.953375 -33.387074 
L 189.42391 -33.387074 
L 187.894444 -33.387074 
L 186.364979 -33.387074 
L 184.835513 -33.387074 
L 183.306048 -33.387074 
L 181.776582 -33.387074 
L 180.247117 -33.387074 
L 178.717651 -33.387074 
L 177.188186 -33.387074 
L 175.65872 -33.387074 
L 174.129255 -33.387074 
L 172.599789 -33.387074 
L 171.070323 -33.387074 
L 169.540858 -33.387074 
L 168.011392 -33.387074 
L 166.481927 -33.387074 
L 164.952461 -33.387074 
L 163.422996 -33.387074 
L 161.89353 -33.387074 
L 160.364065 -33.387074 
L 158.834599 -33.387074 
L 157.305134 -33.387074 
L 155.775668 -33.387074 
L 154.246203 -33.387074 
L 152.716737 -33.387074 
L 151.187272 -33.387074 
L 149.657806 -33.387074 
L 148.128341 -33.387074 
L 146.598875 -33.387074 
L 145.06941 -33.387074 
L 143.539944 -33.387074 
L 142.010479 -33.387074 
L 140.481013 -33.387074 
L 138.951548 -33.387074 
L 137.422082 -33.387074 
L 135.892617 -33.387074 
L 134.363151 -33.387074 
L 132.833686 -33.387074 
L 131.30422 -33.387074 
L 129.774755 -33.387074 
L 128.245289 -33.387074 
L 126.715824 -33.387074 
L 125.186358 -33.387074 
L 123.656893 -33.387074 
L 122.127427 -33.387074 
L 120.597962 -33.387074 
L 119.068496 -33.387074 
L 117.539031 -33.387074 
L 116.009565 -33.387074 
L 114.4801 -33.387074 
L 112.950634 -33.387074 
L 111.421169 -33.387074 
L 109.891703 -33.387074 
L 108.362238 -33.387074 
L 106.832772 -33.387074 
L 105.303307 -33.387074 
L 103.773841 -33.387074 
L 102.244376 -33.387074 
L 100.71491 -33.387074 
L 99.185445 -33.387074 
L 97.655979 -33.387074 
L 96.126514 -33.387074 
L 94.597048 -33.387074 
L 93.067583 -33.387074 
L 91.538117 -33.387074 
L 90.008651 -33.387074 
L 88.479186 -33.387074 
L 86.94972 -33.387074 
L 85.420255 -33.387074 
L 83.890789 -33.387074 
L 82.361324 -33.387074 
L 80.831858 -33.387074 
L 79.302393 -33.387074 
L 77.772927 -33.387074 
L 76.243462 -33.387074 
L 74.713996 -33.387074 
L 73.184531 -33.387074 
L 71.655065 -33.387074 
L 70.1256 -33.387074 
L 68.596134 -33.387074 
L 67.066669 -33.387074 
L 65.537203 -33.387074 
L 64.007738 -33.387074 
L 62.478272 -33.387074 
L 60.948807 -33.387074 
z
" id="m6d2b6ccb71" style="stroke:#2a2eec;stroke-opacity:0;"></path>
    </defs>
    <g clip-path="url(#pca1e89f3f2)">
     <use style="fill:#2a2eec;fill-opacity:0;stroke:#2a2eec;stroke-opacity:0;" x="0" xlink:href="#m6d2b6ccb71" y="248.143437"></use>
    </g>
   </g>
   <g id="line2d_21">
    <path clip-path="url(#pca1e89f3f2)" d="M 60.948807 214.027925 
L 64.007738 213.792347 
L 67.066669 213.565004 
L 68.596134 213.651784 
L 71.655065 213.998233 
L 73.184531 213.918359 
L 77.772927 213.22453 
L 79.302393 213.198756 
L 82.361324 213.756079 
L 83.890789 213.777195 
L 85.420255 213.243704 
L 86.94972 212.334388 
L 88.479186 211.581882 
L 90.008651 211.2921 
L 91.538117 211.143757 
L 96.126514 210.317893 
L 97.655979 210.159047 
L 99.185445 209.77232 
L 100.71491 208.408035 
L 102.244376 205.881413 
L 103.773841 203.580533 
L 105.303307 202.902139 
L 108.362238 203.9037 
L 109.891703 203.779063 
L 111.421169 202.640995 
L 114.4801 198.212941 
L 116.009565 197.789231 
L 117.539031 198.661483 
L 119.068496 198.517097 
L 120.597962 195.812945 
L 122.127427 191.841023 
L 123.656893 189.282288 
L 125.186358 188.717865 
L 126.715824 188.427694 
L 128.245289 186.869247 
L 129.774755 183.612195 
L 131.30422 179.290958 
L 132.833686 175.428768 
L 134.363151 173.025002 
L 135.892617 171.2136 
L 137.422082 168.805832 
L 140.481013 163.019324 
L 142.010479 158.721362 
L 143.539944 153.440383 
L 145.06941 149.391897 
L 146.598875 147.027048 
L 148.128341 144.343186 
L 149.657806 140.50816 
L 151.187272 137.175117 
L 152.716737 135.791948 
L 154.246203 135.225122 
L 155.775668 133.000116 
L 157.305134 128.361896 
L 158.834599 123.083114 
L 160.364065 118.654295 
L 161.89353 113.688529 
L 164.952461 99.274009 
L 166.481927 95.090005 
L 168.011392 93.166491 
L 169.540858 90.459116 
L 171.070323 86.072065 
L 174.129255 76.613165 
L 175.65872 70.60746 
L 177.188186 63.840535 
L 178.717651 60.217568 
L 181.776582 60.858529 
L 183.306048 58.036331 
L 184.835513 51.199967 
L 186.364979 41.985177 
L 187.894444 35.113947 
L 189.42391 32.239952 
L 190.953375 30.519154 
L 192.482841 29.322135 
L 194.012306 30.642901 
L 195.541772 33.825435 
L 197.071237 36.54102 
L 198.600703 36.941437 
L 200.130168 34.368555 
L 201.659634 29.596826 
L 203.189099 24.122614 
L 204.718565 19.172855 
L 206.24803 17.083636 
L 207.777496 19.871809 
L 209.306961 25.880571 
L 210.836427 30.538244 
L 212.365892 31.459523 
L 213.895358 29.832184 
L 215.424823 28.823017 
L 216.954289 31.021016 
L 218.483754 35.830508 
L 220.01322 39.919381 
L 221.542685 41.170769 
L 224.601616 39.451878 
L 226.131082 40.524876 
L 227.660547 43.644605 
L 229.190013 48.718166 
L 232.248944 62.677403 
L 233.778409 65.489329 
L 235.307875 64.788445 
L 236.83734 64.927766 
L 238.366806 68.400052 
L 239.896271 74.339097 
L 241.425737 80.725409 
L 242.955202 85.916561 
L 246.014133 94.0012 
L 249.073064 104.141097 
L 250.60253 107.638779 
L 252.131995 109.00841 
L 253.661461 109.097651 
L 255.190927 110.323384 
L 256.720392 115.643711 
L 259.779323 134.558371 
L 261.308789 138.975762 
L 262.838254 140.030548 
L 264.36772 142.932463 
L 265.897185 148.834962 
L 267.426651 153.743611 
L 268.956116 155.030118 
L 270.485582 154.801943 
L 272.015047 156.436247 
L 273.544513 160.798069 
L 275.073978 166.10713 
L 276.603444 170.251655 
L 278.132909 172.844525 
L 279.662375 174.909136 
L 281.19184 177.305554 
L 282.721306 179.963489 
L 284.250771 182.296063 
L 285.780237 184.109624 
L 288.839168 187.018495 
L 290.368633 188.994349 
L 293.427564 193.90788 
L 296.486495 198.082498 
L 298.015961 200.05973 
L 299.545426 201.643347 
L 301.074892 202.428564 
L 304.133823 202.811191 
L 305.663288 203.383881 
L 307.192754 204.256577 
L 310.251685 206.59911 
L 311.78115 207.281624 
L 314.840081 207.495474 
L 316.369547 207.794022 
L 317.899012 207.908437 
L 319.428478 207.750757 
L 320.957943 208.093254 
L 322.487409 209.311612 
L 324.016874 210.742843 
L 325.54634 211.721821 
L 327.075805 212.284992 
L 328.605271 212.575942 
L 331.664202 212.481881 
L 333.193667 212.72734 
L 336.252599 213.749446 
L 337.782064 213.815109 
L 339.31153 213.715801 
L 340.840995 213.83192 
L 343.899926 214.396092 
L 350.017788 214.525432 
L 351.547254 214.396092 
L 354.606185 213.732271 
L 356.13565 213.710814 
L 360.724047 214.230824 
L 362.253512 214.144044 
L 365.312443 213.702579 
L 365.312443 213.702579 
" style="fill:none;stroke:#2a2eec;stroke-linecap:round;stroke-width:1.5;"></path>
   </g>
   <g id="patch_3">
    <path d="M 45.730625 224.64 
L 45.730625 7.2 
" style="fill:none;"></path>
   </g>
   <g id="patch_4">
    <path d="M 380.530625 224.64 
L 380.530625 7.2 
" style="fill:none;"></path>
   </g>
   <g id="patch_5">
    <path d="M 45.730625 224.64 
L 380.530625 224.64 
" style="fill:none;"></path>
   </g>
   <g id="patch_6">
    <path d="M 45.730625 7.2 
L 380.530625 7.2 
" style="fill:none;"></path>
   </g>
  </g>
 </g>
 <defs>
  <clipPath id="pca1e89f3f2">
   <rect height="217.44" width="334.8" x="45.730625" y="7.2"></rect>
  </clipPath>
 </defs>
</svg>