<?xml version="1.0" encoding="utf-8"?>
<svg height="253.153906pt" version="1.1" viewBox="0 0 383.837969 253.153906" width="383.837969pt" xmlns="http://www.w3.org/2000/svg" xmlns:xlink="http://www.w3.org/1999/xlink">
 <defs>
  <style type="text/css">
*{stroke-linecap:butt;stroke-linejoin:round;}
  </style>
 </defs>
 <g id="figure_1">
  <g id="patch_1">
   <path d="M 0 253.153906 
L 383.837969 253.153906 
L 383.837969 0 
L 0 0 
z
" style="fill:none;"></path>
  </g>
  <g id="axes_1">
   <g id="patch_2">
    <path d="M 30.16 229.650469 
L 364.96 229.650469 
L 364.96 12.210469 
L 30.16 12.210469 
z
" style="fill:#eeeeee;"></path>
   </g>
   <g id="matplotlib.axis_1">
    <g id="xtick_1">
     <g id="line2d_1">
      <path clip-path="url(#p624cf62191)" d="M 30.16 229.650469 
L 30.16 12.210469 
" style="fill:none;stroke:#ffffff;stroke-linecap:round;stroke-width:0.8;"></path>
     </g>
     <g id="line2d_2"></g>
     <g id="text_1">
      <!-- 150 -->
      <defs>
       <path d="M 37.25 0 
L 28.46875 0 
L 28.46875 56 
Q 25.296875 52.984375 20.140625 49.953125 
Q 14.984375 46.921875 10.890625 45.40625 
L 10.890625 53.90625 
Q 18.265625 57.375 23.78125 62.296875 
Q 29.296875 67.234375 31.59375 71.875 
L 37.25 71.875 
z
" id="ArialMT-49"></path>
       <path d="M 4.15625 18.75 
L 13.375 19.53125 
Q 14.40625 12.796875 18.140625 9.390625 
Q 21.875 6 27.15625 6 
Q 33.5 6 37.890625 10.78125 
Q 42.28125 15.578125 42.28125 23.484375 
Q 42.28125 31 38.0625 35.34375 
Q 33.84375 39.703125 27 39.703125 
Q 22.75 39.703125 19.328125 37.765625 
Q 15.921875 35.84375 13.96875 32.765625 
L 5.71875 33.84375 
L 12.640625 70.609375 
L 48.25 70.609375 
L 48.25 62.203125 
L 19.671875 62.203125 
L 15.828125 42.96875 
Q 22.265625 47.46875 29.34375 47.46875 
Q 38.71875 47.46875 45.15625 40.96875 
Q 51.609375 34.46875 51.609375 24.265625 
Q 51.609375 14.546875 45.953125 7.46875 
Q 39.0625 -1.21875 27.15625 -1.21875 
Q 17.390625 -1.21875 11.203125 4.25 
Q 5.03125 9.71875 4.15625 18.75 
z
" id="ArialMT-53"></path>
       <path d="M 4.15625 35.296875 
Q 4.15625 48 6.765625 55.734375 
Q 9.375 63.484375 14.515625 67.671875 
Q 19.671875 71.875 27.484375 71.875 
Q 33.25 71.875 37.59375 69.546875 
Q 41.9375 67.234375 44.765625 62.859375 
Q 47.609375 58.5 49.21875 52.21875 
Q 50.828125 45.953125 50.828125 35.296875 
Q 50.828125 22.703125 48.234375 14.96875 
Q 45.65625 7.234375 40.5 3 
Q 35.359375 -1.21875 27.484375 -1.21875 
Q 17.140625 -1.21875 11.234375 6.203125 
Q 4.15625 15.140625 4.15625 35.296875 
z
M 13.1875 35.296875 
Q 13.1875 17.671875 17.3125 11.828125 
Q 21.4375 6 27.484375 6 
Q 33.546875 6 37.671875 11.859375 
Q 41.796875 17.71875 41.796875 35.296875 
Q 41.796875 52.984375 37.671875 58.78125 
Q 33.546875 64.59375 27.390625 64.59375 
Q 21.34375 64.59375 17.71875 59.46875 
Q 13.1875 52.9375 13.1875 35.296875 
z
" id="ArialMT-48"></path>
      </defs>
      <g style="fill:#262626;" transform="translate(18.482031 243.171406)scale(0.14 -0.14)">
       <use xlink:href="#ArialMT-49"></use>
       <use x="55.615234" xlink:href="#ArialMT-53"></use>
       <use x="111.230469" xlink:href="#ArialMT-48"></use>
      </g>
     </g>
    </g>
    <g id="xtick_2">
     <g id="line2d_3">
      <path clip-path="url(#p624cf62191)" d="M 97.12 229.650469 
L 97.12 12.210469 
" style="fill:none;stroke:#ffffff;stroke-linecap:round;stroke-width:0.8;"></path>
     </g>
     <g id="line2d_4"></g>
     <g id="text_2">
      <!-- 152 -->
      <defs>
       <path d="M 50.34375 8.453125 
L 50.34375 0 
L 3.03125 0 
Q 2.9375 3.171875 4.046875 6.109375 
Q 5.859375 10.9375 9.828125 15.625 
Q 13.8125 20.3125 21.34375 26.46875 
Q 33.015625 36.03125 37.109375 41.625 
Q 41.21875 47.21875 41.21875 52.203125 
Q 41.21875 57.421875 37.46875 61 
Q 33.734375 64.59375 27.734375 64.59375 
Q 21.390625 64.59375 17.578125 60.78125 
Q 13.765625 56.984375 13.71875 50.25 
L 4.6875 51.171875 
Q 5.609375 61.28125 11.65625 66.578125 
Q 17.71875 71.875 27.9375 71.875 
Q 38.234375 71.875 44.234375 66.15625 
Q 50.25 60.453125 50.25 52 
Q 50.25 47.703125 48.484375 43.546875 
Q 46.734375 39.40625 42.65625 34.8125 
Q 38.578125 30.21875 29.109375 22.21875 
Q 21.1875 15.578125 18.9375 13.203125 
Q 16.703125 10.84375 15.234375 8.453125 
z
" id="ArialMT-50"></path>
      </defs>
      <g style="fill:#262626;" transform="translate(85.442031 243.171406)scale(0.14 -0.14)">
       <use xlink:href="#ArialMT-49"></use>
       <use x="55.615234" xlink:href="#ArialMT-53"></use>
       <use x="111.230469" xlink:href="#ArialMT-50"></use>
      </g>
     </g>
    </g>
    <g id="xtick_3">
     <g id="line2d_5">
      <path clip-path="url(#p624cf62191)" d="M 164.08 229.650469 
L 164.08 12.210469 
" style="fill:none;stroke:#ffffff;stroke-linecap:round;stroke-width:0.8;"></path>
     </g>
     <g id="line2d_6"></g>
     <g id="text_3">
      <!-- 154 -->
      <defs>
       <path d="M 32.328125 0 
L 32.328125 17.140625 
L 1.265625 17.140625 
L 1.265625 25.203125 
L 33.9375 71.578125 
L 41.109375 71.578125 
L 41.109375 25.203125 
L 50.78125 25.203125 
L 50.78125 17.140625 
L 41.109375 17.140625 
L 41.109375 0 
z
M 32.328125 25.203125 
L 32.328125 57.46875 
L 9.90625 25.203125 
z
" id="ArialMT-52"></path>
      </defs>
      <g style="fill:#262626;" transform="translate(152.402031 243.171406)scale(0.14 -0.14)">
       <use xlink:href="#ArialMT-49"></use>
       <use x="55.615234" xlink:href="#ArialMT-53"></use>
       <use x="111.230469" xlink:href="#ArialMT-52"></use>
      </g>
     </g>
    </g>
    <g id="xtick_4">
     <g id="line2d_7">
      <path clip-path="url(#p624cf62191)" d="M 231.04 229.650469 
L 231.04 12.210469 
" style="fill:none;stroke:#ffffff;stroke-linecap:round;stroke-width:0.8;"></path>
     </g>
     <g id="line2d_8"></g>
     <g id="text_4">
      <!-- 156 -->
      <defs>
       <path d="M 49.75 54.046875 
L 41.015625 53.375 
Q 39.84375 58.546875 37.703125 60.890625 
Q 34.125 64.65625 28.90625 64.65625 
Q 24.703125 64.65625 21.53125 62.3125 
Q 17.390625 59.28125 14.984375 53.46875 
Q 12.59375 47.65625 12.5 36.921875 
Q 15.671875 41.75 20.265625 44.09375 
Q 24.859375 46.4375 29.890625 46.4375 
Q 38.671875 46.4375 44.84375 39.96875 
Q 51.03125 33.5 51.03125 23.25 
Q 51.03125 16.5 48.125 10.71875 
Q 45.21875 4.9375 40.140625 1.859375 
Q 35.0625 -1.21875 28.609375 -1.21875 
Q 17.625 -1.21875 10.6875 6.859375 
Q 3.765625 14.9375 3.765625 33.5 
Q 3.765625 54.25 11.421875 63.671875 
Q 18.109375 71.875 29.4375 71.875 
Q 37.890625 71.875 43.28125 67.140625 
Q 48.6875 62.40625 49.75 54.046875 
z
M 13.875 23.1875 
Q 13.875 18.65625 15.796875 14.5 
Q 17.71875 10.359375 21.1875 8.171875 
Q 24.65625 6 28.46875 6 
Q 34.03125 6 38.03125 10.484375 
Q 42.046875 14.984375 42.046875 22.703125 
Q 42.046875 30.125 38.078125 34.390625 
Q 34.125 38.671875 28.125 38.671875 
Q 22.171875 38.671875 18.015625 34.390625 
Q 13.875 30.125 13.875 23.1875 
z
" id="ArialMT-54"></path>
      </defs>
      <g style="fill:#262626;" transform="translate(219.362031 243.171406)scale(0.14 -0.14)">
       <use xlink:href="#ArialMT-49"></use>
       <use x="55.615234" xlink:href="#ArialMT-53"></use>
       <use x="111.230469" xlink:href="#ArialMT-54"></use>
      </g>
     </g>
    </g>
    <g id="xtick_5">
     <g id="line2d_9">
      <path clip-path="url(#p624cf62191)" d="M 298 229.650469 
L 298 12.210469 
" style="fill:none;stroke:#ffffff;stroke-linecap:round;stroke-width:0.8;"></path>
     </g>
     <g id="line2d_10"></g>
     <g id="text_5">
      <!-- 158 -->
      <defs>
       <path d="M 17.671875 38.8125 
Q 12.203125 40.828125 9.5625 44.53125 
Q 6.9375 48.25 6.9375 53.421875 
Q 6.9375 61.234375 12.546875 66.546875 
Q 18.171875 71.875 27.484375 71.875 
Q 36.859375 71.875 42.578125 66.421875 
Q 48.296875 60.984375 48.296875 53.171875 
Q 48.296875 48.1875 45.671875 44.5 
Q 43.0625 40.828125 37.75 38.8125 
Q 44.34375 36.671875 47.78125 31.875 
Q 51.21875 27.09375 51.21875 20.453125 
Q 51.21875 11.28125 44.71875 5.03125 
Q 38.234375 -1.21875 27.640625 -1.21875 
Q 17.046875 -1.21875 10.546875 5.046875 
Q 4.046875 11.328125 4.046875 20.703125 
Q 4.046875 27.6875 7.59375 32.390625 
Q 11.140625 37.109375 17.671875 38.8125 
z
M 15.921875 53.71875 
Q 15.921875 48.640625 19.1875 45.40625 
Q 22.46875 42.1875 27.6875 42.1875 
Q 32.765625 42.1875 36.015625 45.375 
Q 39.265625 48.578125 39.265625 53.21875 
Q 39.265625 58.0625 35.90625 61.359375 
Q 32.5625 64.65625 27.59375 64.65625 
Q 22.5625 64.65625 19.234375 61.421875 
Q 15.921875 58.203125 15.921875 53.71875 
z
M 13.09375 20.65625 
Q 13.09375 16.890625 14.875 13.375 
Q 16.65625 9.859375 20.171875 7.921875 
Q 23.6875 6 27.734375 6 
Q 34.03125 6 38.125 10.046875 
Q 42.234375 14.109375 42.234375 20.359375 
Q 42.234375 26.703125 38.015625 30.859375 
Q 33.796875 35.015625 27.4375 35.015625 
Q 21.234375 35.015625 17.15625 30.90625 
Q 13.09375 26.8125 13.09375 20.65625 
z
" id="ArialMT-56"></path>
      </defs>
      <g style="fill:#262626;" transform="translate(286.322031 243.171406)scale(0.14 -0.14)">
       <use xlink:href="#ArialMT-49"></use>
       <use x="55.615234" xlink:href="#ArialMT-53"></use>
       <use x="111.230469" xlink:href="#ArialMT-56"></use>
      </g>
     </g>
    </g>
    <g id="xtick_6">
     <g id="line2d_11">
      <path clip-path="url(#p624cf62191)" d="M 364.96 229.650469 
L 364.96 12.210469 
" style="fill:none;stroke:#ffffff;stroke-linecap:round;stroke-width:0.8;"></path>
     </g>
     <g id="line2d_12"></g>
     <g id="text_6">
      <!-- 160 -->
      <g style="fill:#262626;" transform="translate(353.282031 243.171406)scale(0.14 -0.14)">
       <use xlink:href="#ArialMT-49"></use>
       <use x="55.615234" xlink:href="#ArialMT-54"></use>
       <use x="111.230469" xlink:href="#ArialMT-48"></use>
      </g>
     </g>
    </g>
   </g>
   <g id="matplotlib.axis_2">
    <g id="ytick_1">
     <g id="line2d_13">
      <path clip-path="url(#p624cf62191)" d="M 30.16 229.650469 
L 364.96 229.650469 
" style="fill:none;stroke:#ffffff;stroke-linecap:round;stroke-width:0.8;"></path>
     </g>
     <g id="line2d_14"></g>
     <g id="text_7">
      <!-- 7.0 -->
      <defs>
       <path d="M 4.734375 62.203125 
L 4.734375 70.65625 
L 51.078125 70.65625 
L 51.078125 63.8125 
Q 44.234375 56.546875 37.515625 44.484375 
Q 30.8125 32.421875 27.15625 19.671875 
Q 24.515625 10.6875 23.78125 0 
L 14.75 0 
Q 14.890625 8.453125 18.0625 20.40625 
Q 21.234375 32.375 27.171875 43.484375 
Q 33.109375 54.59375 39.796875 62.203125 
z
" id="ArialMT-55"></path>
       <path d="M 9.078125 0 
L 9.078125 10.015625 
L 19.09375 10.015625 
L 19.09375 0 
z
" id="ArialMT-46"></path>
      </defs>
      <g style="fill:#262626;" transform="translate(7.2 234.660938)scale(0.14 -0.14)">
       <use xlink:href="#ArialMT-55"></use>
       <use x="55.615234" xlink:href="#ArialMT-46"></use>
       <use x="83.398438" xlink:href="#ArialMT-48"></use>
      </g>
     </g>
    </g>
    <g id="ytick_2">
     <g id="line2d_15">
      <path clip-path="url(#p624cf62191)" d="M 30.16 175.290469 
L 364.96 175.290469 
" style="fill:none;stroke:#ffffff;stroke-linecap:round;stroke-width:0.8;"></path>
     </g>
     <g id="line2d_16"></g>
     <g id="text_8">
      <!-- 7.5 -->
      <g style="fill:#262626;" transform="translate(7.2 180.300938)scale(0.14 -0.14)">
       <use xlink:href="#ArialMT-55"></use>
       <use x="55.615234" xlink:href="#ArialMT-46"></use>
       <use x="83.398438" xlink:href="#ArialMT-53"></use>
      </g>
     </g>
    </g>
    <g id="ytick_3">
     <g id="line2d_17">
      <path clip-path="url(#p624cf62191)" d="M 30.16 120.930469 
L 364.96 120.930469 
" style="fill:none;stroke:#ffffff;stroke-linecap:round;stroke-width:0.8;"></path>
     </g>
     <g id="line2d_18"></g>
     <g id="text_9">
      <!-- 8.0 -->
      <g style="fill:#262626;" transform="translate(7.2 125.940937)scale(0.14 -0.14)">
       <use xlink:href="#ArialMT-56"></use>
       <use x="55.615234" xlink:href="#ArialMT-46"></use>
       <use x="83.398438" xlink:href="#ArialMT-48"></use>
      </g>
     </g>
    </g>
    <g id="ytick_4">
     <g id="line2d_19">
      <path clip-path="url(#p624cf62191)" d="M 30.16 66.570469 
L 364.96 66.570469 
" style="fill:none;stroke:#ffffff;stroke-linecap:round;stroke-width:0.8;"></path>
     </g>
     <g id="line2d_20"></g>
     <g id="text_10">
      <!-- 8.5 -->
      <g style="fill:#262626;" transform="translate(7.2 71.580937)scale(0.14 -0.14)">
       <use xlink:href="#ArialMT-56"></use>
       <use x="55.615234" xlink:href="#ArialMT-46"></use>
       <use x="83.398438" xlink:href="#ArialMT-53"></use>
      </g>
     </g>
    </g>
    <g id="ytick_5">
     <g id="line2d_21">
      <path clip-path="url(#p624cf62191)" d="M 30.16 12.210469 
L 364.96 12.210469 
" style="fill:none;stroke:#ffffff;stroke-linecap:round;stroke-width:0.8;"></path>
     </g>
     <g id="line2d_22"></g>
     <g id="text_11">
      <!-- 9.0 -->
      <defs>
       <path d="M 5.46875 16.546875 
L 13.921875 17.328125 
Q 14.984375 11.375 18.015625 8.6875 
Q 21.046875 6 25.78125 6 
Q 29.828125 6 32.875 7.859375 
Q 35.9375 9.71875 37.890625 12.8125 
Q 39.84375 15.921875 41.15625 21.1875 
Q 42.484375 26.46875 42.484375 31.9375 
Q 42.484375 32.515625 42.4375 33.6875 
Q 39.796875 29.5 35.234375 26.875 
Q 30.671875 24.265625 25.34375 24.265625 
Q 16.453125 24.265625 10.296875 30.703125 
Q 4.15625 37.15625 4.15625 47.703125 
Q 4.15625 58.59375 10.578125 65.234375 
Q 17 71.875 26.65625 71.875 
Q 33.640625 71.875 39.421875 68.109375 
Q 45.21875 64.359375 48.21875 57.390625 
Q 51.21875 50.4375 51.21875 37.25 
Q 51.21875 23.53125 48.234375 15.40625 
Q 45.265625 7.28125 39.375 3.03125 
Q 33.5 -1.21875 25.59375 -1.21875 
Q 17.1875 -1.21875 11.859375 3.4375 
Q 6.546875 8.109375 5.46875 16.546875 
z
M 41.453125 48.140625 
Q 41.453125 55.71875 37.421875 60.15625 
Q 33.40625 64.59375 27.734375 64.59375 
Q 21.875 64.59375 17.53125 59.8125 
Q 13.1875 55.03125 13.1875 47.40625 
Q 13.1875 40.578125 17.3125 36.296875 
Q 21.4375 32.03125 27.484375 32.03125 
Q 33.59375 32.03125 37.515625 36.296875 
Q 41.453125 40.578125 41.453125 48.140625 
z
" id="ArialMT-57"></path>
      </defs>
      <g style="fill:#262626;" transform="translate(7.2 17.220937)scale(0.14 -0.14)">
       <use xlink:href="#ArialMT-57"></use>
       <use x="55.615234" xlink:href="#ArialMT-46"></use>
       <use x="83.398438" xlink:href="#ArialMT-48"></use>
      </g>
     </g>
    </g>
   </g>
   <g id="LineCollection_1">
    <path clip-path="url(#p624cf62191)" d="M 348.050904 229.650469 
L 348.050904 227.454142 
L 348.050904 225.257763 
L 348.050904 223.061332 
L 351.432825 220.865005 
L 351.432825 218.668626 
L 351.432825 216.472299 
L 351.432825 214.275921 
L 351.432825 212.079542 
L 354.814747 209.883215 
L 354.814747 207.686784 
L 354.814747 205.490457 
L 354.814747 203.29413 
L 354.814747 201.097751 
L 354.814747 198.901373 
L 358.196157 196.704994 
L 358.196157 194.508615 
L 358.196157 192.312288 
L 358.196157 190.115961 
L 358.196157 187.91953 
L 361.578079 185.723203 
L 361.578079 183.526876 
L 361.578079 181.330446 
L 361.578079 179.134119 
L 361.578079 176.937792 
L 361.578079 174.741361 
L 361.578079 172.545034 
L 364.96 170.348655 
L 364.96 168.152276 
L 364.96 165.955949 
L 364.96 163.759519 
L 364.96 161.563192 
L 364.96 159.366813 
" style="fill:none;stroke:#440154;stroke-width:1.5;"></path>
   </g>
   <g id="LineCollection_2">
    <path clip-path="url(#p624cf62191)" d="M 182.341354 208.181941 
L 185.723275 208.276944 
L 189.105197 207.360773 
L 192.487118 205.388237 
L 195.869039 202.294625 
L 196.873114 201.097751 
L 199.250961 197.824886 
L 199.96882 196.704994 
L 201.238406 194.508615 
L 203.361882 190.115961 
L 204.306547 187.91953 
L 205.821389 183.526876 
L 206.551848 181.330446 
L 207.823801 176.937792 
L 208.783203 172.545034 
L 210.30097 163.759519 
L 210.84228 159.366813 
L 211.212653 154.974107 
L 211.492788 148.385023 
L 211.472094 141.795938 
L 211.14605 135.206853 
L 210.737039 130.814148 
L 210.149905 126.421338 
L 208.984242 119.832253 
L 208.051426 115.439599 
L 206.826682 111.046842 
L 204.547065 104.457757 
L 203.616234 102.26143 
L 201.439037 97.868673 
L 199.250961 94.283286 
L 196.948005 91.279588 
L 195.869039 90.028296 
L 194.835687 89.083157 
L 192.114657 86.88683 
L 189.105197 85.243121 
L 185.723275 84.413026 
L 182.341354 84.532252 
L 178.960454 85.599669 
L 175.578022 87.708029 
L 174.071778 89.083157 
L 171.939296 91.279588 
L 170.229869 93.475915 
L 168.757147 95.672242 
L 167.444418 97.868673 
L 165.432769 101.991743 
L 164.335995 104.457757 
L 162.748691 108.850515 
L 160.281436 117.635926 
L 159.415658 122.028632 
L 158.455395 128.617769 
L 157.912171 133.010423 
L 157.551912 137.40318 
L 157.349065 141.795938 
L 157.316031 148.385023 
L 157.47377 152.77778 
L 157.78459 157.170486 
L 158.266553 161.563192 
L 159.941482 172.545034 
L 160.95643 176.937792 
L 162.876482 183.526876 
L 164.455312 187.91953 
L 167.495659 194.508615 
L 170.199148 198.901373 
L 172.196611 201.524741 
L 173.878215 203.29413 
L 175.578022 204.893117 
L 178.960454 207.071979 
L 182.341354 208.181941 
L 182.341354 208.181941 
" style="fill:none;stroke:#46327e;stroke-width:1.5;"></path>
   </g>
   <g id="LineCollection_3">
    <path clip-path="url(#p624cf62191)" d="M 182.341354 196.873545 
L 185.723275 196.999367 
L 186.598089 196.704994 
L 189.105197 195.865668 
L 191.001738 194.508615 
L 192.487118 193.375199 
L 193.45058 192.312288 
L 195.253222 190.115961 
L 195.869039 189.294365 
L 196.74271 187.91953 
L 197.986262 185.723203 
L 199.065282 183.526876 
L 199.250961 183.115736 
L 200.04084 181.330446 
L 200.896662 179.134119 
L 201.640256 176.937792 
L 202.286611 174.741361 
L 202.632882 173.416954 
L 202.885169 172.545034 
L 203.452068 170.348655 
L 203.944824 168.152276 
L 204.365667 165.955949 
L 204.725873 163.759519 
L 205.030014 161.563192 
L 205.283998 159.366813 
L 205.490262 157.170486 
L 205.652103 154.974107 
L 205.773907 152.77778 
L 205.852099 150.58135 
L 205.893807 148.385023 
L 205.895949 146.188644 
L 205.859005 143.992265 
L 205.782641 141.795938 
L 205.665197 139.599507 
L 205.50402 137.40318 
L 205.2983 135.206853 
L 205.043981 133.010423 
L 204.734879 130.814148 
L 204.369942 128.617769 
L 203.944039 126.421338 
L 203.447853 124.225011 
L 202.873514 122.028632 
L 202.632882 121.193772 
L 202.261596 119.832253 
L 201.582907 117.635926 
L 200.809572 115.439599 
L 199.920228 113.243169 
L 199.250961 111.759274 
L 198.907695 111.046842 
L 197.753077 108.850515 
L 196.431361 106.654084 
L 195.869039 105.794027 
L 194.797869 104.457757 
L 192.838418 102.26143 
L 192.487118 101.889821 
L 189.917094 100.065 
L 189.105197 99.516099 
L 185.723275 98.442254 
L 182.341354 98.588382 
L 178.960454 99.974704 
L 178.8415 100.065 
L 176.074328 102.26143 
L 175.578022 102.681288 
L 174.081872 104.457757 
L 172.444117 106.654084 
L 172.196611 107.009275 
L 171.110513 108.850515 
L 169.963375 111.046842 
L 168.959625 113.243169 
L 168.81469 113.585023 
L 168.056074 115.439599 
L 167.265152 117.635926 
L 166.570883 119.832253 
L 165.970142 122.028632 
L 165.445148 124.225011 
L 165.432769 124.282285 
L 164.928291 126.421338 
L 164.47964 128.617769 
L 164.096325 130.814148 
L 163.772686 133.010423 
L 163.504171 135.206853 
L 163.285197 137.40318 
L 163.114063 139.599507 
L 162.987077 141.795938 
L 162.90367 143.992265 
L 162.862091 146.188644 
L 162.860024 148.385023 
L 162.898466 150.58135 
L 162.979069 152.77778 
L 163.100916 154.974107 
L 163.266988 157.170486 
L 163.47879 159.366813 
L 163.738728 161.563192 
L 164.052654 163.759519 
L 164.426001 165.955949 
L 164.86357 168.152276 
L 165.374878 170.348655 
L 165.432769 170.574465 
L 165.878731 172.545034 
L 166.450572 174.741361 
L 167.108736 176.937792 
L 167.869044 179.134119 
L 168.743163 181.330446 
L 168.81469 181.497774 
L 169.679887 183.526876 
L 170.756319 185.723203 
L 172.001151 187.91953 
L 172.196611 188.241249 
L 173.502431 190.115961 
L 175.253884 192.312288 
L 175.578022 192.691697 
L 177.713941 194.508615 
L 178.960454 195.488512 
L 181.927421 196.704994 
L 182.341354 196.873545 
" style="fill:none;stroke:#365c8d;stroke-width:1.5;"></path>
   </g>
   <g id="LineCollection_4">
    <path clip-path="url(#p624cf62191)" d="M 182.341354 188.481788 
L 185.723275 188.634528 
L 187.473241 187.91953 
L 189.105197 187.233825 
L 190.816866 185.723203 
L 192.487118 184.101227 
L 192.90597 183.526876 
L 194.378563 181.330446 
L 195.655315 179.134119 
L 195.869039 178.733483 
L 196.698906 176.937792 
L 197.588207 174.741361 
L 198.359926 172.545034 
L 199.030063 170.348655 
L 199.250961 169.531689 
L 199.625059 168.152276 
L 200.143523 165.955949 
L 200.582655 163.759519 
L 200.951742 161.563192 
L 201.256456 159.366813 
L 201.500741 157.170486 
L 201.688385 154.974107 
L 201.823224 152.77778 
L 201.904406 150.58135 
L 201.935945 148.385023 
L 201.913585 146.188644 
L 201.842398 143.992265 
L 201.7181 141.795938 
L 201.539539 139.599507 
L 201.302724 137.40318 
L 201.004692 135.206853 
L 200.642784 133.010423 
L 200.206867 130.814148 
L 199.697916 128.617769 
L 199.250961 126.953139 
L 199.103692 126.421338 
L 198.421145 124.225011 
L 197.636892 122.028632 
L 196.736803 119.832253 
L 195.869039 117.968864 
L 195.684123 117.635926 
L 194.355958 115.439599 
L 192.839427 113.243169 
L 192.487118 112.768625 
L 190.624216 111.046842 
L 189.105197 109.757879 
L 186.808476 108.850515 
L 185.723275 108.430291 
L 182.341354 108.611274 
L 181.852925 108.850515 
L 178.960454 110.308239 
L 178.183242 111.046842 
L 176.05115 113.243169 
L 175.578022 113.769977 
L 174.487794 115.439599 
L 173.213766 117.635926 
L 172.196611 119.619181 
L 172.101914 119.832253 
L 171.207006 122.028632 
L 170.420792 124.225011 
L 169.741708 126.421338 
L 169.156406 128.617769 
L 168.81469 130.090519 
L 168.646455 130.814148 
L 168.201806 133.010423 
L 167.82616 135.206853 
L 167.519173 137.40318 
L 167.27391 139.599507 
L 167.087934 141.795938 
L 166.956161 143.992265 
L 166.879888 146.188644 
L 166.853914 148.385023 
L 166.882414 150.58135 
L 166.962977 152.77778 
L 167.095979 154.974107 
L 167.284251 157.170486 
L 167.53169 159.366813 
L 167.838356 161.563192 
L 168.213697 163.759519 
L 168.663738 165.955949 
L 168.81469 166.604522 
L 169.163444 168.152276 
L 169.739014 170.348655 
L 170.404686 172.545034 
L 171.173341 174.741361 
L 172.062591 176.937792 
L 172.196611 177.241184 
L 173.130327 179.134119 
L 174.365956 181.330446 
L 175.578022 183.219673 
L 175.843398 183.526876 
L 177.898222 185.723203 
L 178.960454 186.75215 
L 181.211591 187.91953 
L 182.341354 188.481788 
" style="fill:none;stroke:#277f8e;stroke-width:1.5;"></path>
   </g>
   <g id="LineCollection_5">
    <path clip-path="url(#p624cf62191)" d="M 182.341354 180.965089 
L 185.723275 181.157382 
L 189.105197 179.403459 
L 189.357325 179.134119 
L 191.250722 176.937792 
L 192.487118 175.308468 
L 192.797265 174.741361 
L 193.885833 172.545034 
L 194.82428 170.348655 
L 195.636747 168.152276 
L 195.869039 167.430204 
L 196.28975 165.955949 
L 196.831389 163.759519 
L 197.280867 161.563192 
L 197.650146 159.366813 
L 197.941095 157.170486 
L 198.161719 154.974107 
L 198.312027 152.77778 
L 198.396964 150.58135 
L 198.415429 148.385023 
L 198.366589 146.188644 
L 198.254865 143.992265 
L 198.071817 141.795938 
L 197.817424 139.599507 
L 197.487931 137.40318 
L 197.079016 135.206853 
L 196.580781 133.010423 
L 195.989739 130.814148 
L 195.869039 130.417072 
L 195.233865 128.617769 
L 194.336891 126.421338 
L 193.294414 124.225011 
L 192.487118 122.716291 
L 191.965668 122.028632 
L 190.119432 119.832253 
L 189.105197 118.739899 
L 186.934207 117.635926 
L 185.723275 117.051854 
L 182.341354 117.265701 
L 181.732625 117.635926 
L 178.960454 119.433179 
L 178.627643 119.832253 
L 176.9408 122.028632 
L 175.578022 124.05305 
L 175.492166 124.225011 
L 174.491163 126.421338 
L 173.622662 128.617769 
L 172.876921 130.814148 
L 172.241336 133.010423 
L 172.196611 133.188585 
L 171.741076 135.206853 
L 171.32985 137.40318 
L 170.998328 139.599507 
L 170.741898 141.795938 
L 170.554562 143.992265 
L 170.43907 146.188644 
L 170.386433 148.385023 
L 170.402541 150.58135 
L 170.485267 152.77778 
L 170.631855 154.974107 
L 170.847179 157.170486 
L 171.136442 159.366813 
L 171.50036 161.563192 
L 171.946196 163.759519 
L 172.196611 164.801432 
L 172.498964 165.955949 
L 173.165585 168.152276 
L 173.949932 170.348655 
L 174.858779 172.545034 
L 175.578022 174.071755 
L 175.993408 174.741361 
L 177.513214 176.937792 
L 178.960454 178.770419 
L 179.485566 179.134119 
L 182.341354 180.965089 
" style="fill:none;stroke:#1fa187;stroke-width:1.5;"></path>
   </g>
   <g id="LineCollection_6">
    <path clip-path="url(#p624cf62191)" d="M 182.341354 173.325078 
L 185.723275 173.588767 
L 187.283459 172.545034 
L 189.105197 171.195669 
L 189.670416 170.348655 
L 190.97164 168.152276 
L 192.075755 165.955949 
L 192.487118 165.003922 
L 192.884323 163.759519 
L 193.475989 161.563192 
L 193.957897 159.366813 
L 194.331178 157.170486 
L 194.613121 154.974107 
L 194.795342 152.77778 
L 194.890725 150.58135 
L 194.89318 148.385023 
L 194.805038 146.188644 
L 194.626672 143.992265 
L 194.350739 141.795938 
L 193.976432 139.599507 
L 193.497984 137.40318 
L 192.907867 135.206853 
L 192.487118 133.897606 
L 192.092213 133.010423 
L 190.964357 130.814148 
L 189.638117 128.617769 
L 189.105197 127.831104 
L 187.128581 126.421338 
L 185.723275 125.510844 
L 182.341354 125.794887 
L 181.56905 126.421338 
L 179.131698 128.617769 
L 178.960454 128.789287 
L 177.843527 130.814148 
L 176.803967 133.010423 
L 175.930073 135.206853 
L 175.578022 136.252522 
L 175.28256 137.40318 
L 174.818394 139.599507 
L 174.453272 141.795938 
L 174.182034 143.992265 
L 174.006542 146.188644 
L 173.918317 148.385023 
L 173.917331 150.58135 
L 174.006651 152.77778 
L 174.181451 154.974107 
L 174.449912 157.170486 
L 174.81056 159.366813 
L 175.271518 161.563192 
L 175.578022 162.762251 
L 175.905674 163.759519 
L 176.763933 165.955949 
L 177.785088 168.152276 
L 178.960454 170.311623 
L 178.996534 170.348655 
L 181.387214 172.545034 
L 182.341354 173.325078 
" style="fill:none;stroke:#4ac16d;stroke-width:1.5;"></path>
   </g>
   <g id="LineCollection_7">
    <path clip-path="url(#p624cf62191)" d="M 182.341354 164.017065 
L 185.723275 164.436757 
L 186.364077 163.759519 
L 188.125045 161.563192 
L 189.105197 160.052959 
L 189.330566 159.366813 
L 189.893341 157.170486 
L 190.311739 154.974107 
L 190.573458 152.77778 
L 190.695585 150.58135 
L 190.669101 148.385023 
L 190.501254 146.188644 
L 190.183581 143.992265 
L 189.711763 141.795938 
L 189.105197 139.66554 
L 189.067482 139.599507 
L 187.504882 137.40318 
L 185.723275 135.369706 
L 182.341354 135.847915 
L 181.253611 137.40318 
L 179.985248 139.599507 
L 178.990232 141.795938 
L 178.960454 141.881172 
L 178.541467 143.992265 
L 178.245732 146.188644 
L 178.087422 148.385023 
L 178.066278 150.58135 
L 178.168807 152.77778 
L 178.41288 154.974107 
L 178.786808 157.170486 
L 178.960454 157.90879 
L 179.56072 159.366813 
L 180.711534 161.563192 
L 182.142196 163.759519 
L 182.341354 164.017065 
" style="fill:none;stroke:#a0da39;stroke-width:1.5;"></path>
   </g>
   <g id="LineCollection_8"></g>
   <g id="patch_3">
    <path d="M 30.16 229.650469 
L 30.16 12.210469 
" style="fill:none;"></path>
   </g>
   <g id="patch_4">
    <path d="M 364.96 229.650469 
L 364.96 12.210469 
" style="fill:none;"></path>
   </g>
   <g id="patch_5">
    <path d="M 30.16 229.650469 
L 364.96 229.650469 
" style="fill:none;"></path>
   </g>
   <g id="patch_6">
    <path d="M 30.16 12.210469 
L 364.96 12.210469 
" style="fill:none;"></path>
   </g>
  </g>
 </g>
 <defs>
  <clipPath id="p624cf62191">
   <rect height="217.44" width="334.8" x="30.16" y="12.210469"></rect>
  </clipPath>
 </defs>
</svg>