<?xml version="1.0" encoding="utf-8"?>
<svg height="214.286162pt" version="1.1" viewBox="0 0 621.376974 214.286162" width="621.376974pt" xmlns="http://www.w3.org/2000/svg" xmlns:xlink="http://www.w3.org/1999/xlink">
 <defs>
  <style type="text/css">
*{stroke-linecap:butt;stroke-linejoin:round;}
  </style>
 </defs>
 <g id="figure_1">
  <g id="patch_1">
   <path d="M 0 214.286162 
L 621.376974 214.286162 
L 621.376974 0 
L 0 0 
z
" style="fill:none;"></path>
  </g>
  <g id="axes_1">
   <g id="patch_2">
    <path d="M 45.551216 188.4375 
L 299.187579 188.4375 
L 299.187579 25.3575 
L 45.551216 25.3575 
z
" style="fill:#eeeeee;"></path>
   </g>
   <g id="matplotlib.axis_1">
    <g id="xtick_1">
     <g id="line2d_1">
      <path clip-path="url(#pa69038294a)" d="M 54.918407 188.4375 
L 54.918407 25.3575 
" style="fill:none;stroke:#ffffff;stroke-linecap:round;stroke-width:0.8;"></path>
     </g>
     <g id="line2d_2"></g>
     <g id="text_1">
      <!-- 153 -->
      <defs>
       <path d="M 12.40625 8.296875 
L 28.515625 8.296875 
L 28.515625 63.921875 
L 10.984375 60.40625 
L 10.984375 69.390625 
L 28.421875 72.90625 
L 38.28125 72.90625 
L 38.28125 8.296875 
L 54.390625 8.296875 
L 54.390625 0 
L 12.40625 0 
z
" id="DejaVuSans-49"></path>
       <path d="M 10.796875 72.90625 
L 49.515625 72.90625 
L 49.515625 64.59375 
L 19.828125 64.59375 
L 19.828125 46.734375 
Q 21.96875 47.46875 24.109375 47.828125 
Q 26.265625 48.1875 28.421875 48.1875 
Q 40.625 48.1875 47.75 41.5 
Q 54.890625 34.8125 54.890625 23.390625 
Q 54.890625 11.625 47.5625 5.09375 
Q 40.234375 -1.421875 26.90625 -1.421875 
Q 22.3125 -1.421875 17.546875 -0.640625 
Q 12.796875 0.140625 7.71875 1.703125 
L 7.71875 11.625 
Q 12.109375 9.234375 16.796875 8.0625 
Q 21.484375 6.890625 26.703125 6.890625 
Q 35.15625 6.890625 40.078125 11.328125 
Q 45.015625 15.765625 45.015625 23.390625 
Q 45.015625 31 40.078125 35.4375 
Q 35.15625 39.890625 26.703125 39.890625 
Q 22.75 39.890625 18.8125 39.015625 
Q 14.890625 38.140625 10.796875 36.28125 
z
" id="DejaVuSans-53"></path>
       <path d="M 40.578125 39.3125 
Q 47.65625 37.796875 51.625 33 
Q 55.609375 28.21875 55.609375 21.1875 
Q 55.609375 10.40625 48.1875 4.484375 
Q 40.765625 -1.421875 27.09375 -1.421875 
Q 22.515625 -1.421875 17.65625 -0.515625 
Q 12.796875 0.390625 7.625 2.203125 
L 7.625 11.71875 
Q 11.71875 9.328125 16.59375 8.109375 
Q 21.484375 6.890625 26.8125 6.890625 
Q 36.078125 6.890625 40.9375 10.546875 
Q 45.796875 14.203125 45.796875 21.1875 
Q 45.796875 27.640625 41.28125 31.265625 
Q 36.765625 34.90625 28.71875 34.90625 
L 20.21875 34.90625 
L 20.21875 43.015625 
L 29.109375 43.015625 
Q 36.375 43.015625 40.234375 45.921875 
Q 44.09375 48.828125 44.09375 54.296875 
Q 44.09375 59.90625 40.109375 62.90625 
Q 36.140625 65.921875 28.71875 65.921875 
Q 24.65625 65.921875 20.015625 65.03125 
Q 15.375 64.15625 9.8125 62.3125 
L 9.8125 71.09375 
Q 15.4375 72.65625 20.34375 73.4375 
Q 25.25 74.21875 29.59375 74.21875 
Q 40.828125 74.21875 47.359375 69.109375 
Q 53.90625 64.015625 53.90625 55.328125 
Q 53.90625 49.265625 50.4375 45.09375 
Q 46.96875 40.921875 40.578125 39.3125 
z
" id="DejaVuSans-51"></path>
      </defs>
      <g style="fill:#262626;" transform="translate(39.980075 203.830936)scale(0.156525 -0.156525)">
       <use xlink:href="#DejaVuSans-49"></use>
       <use x="63.623047" xlink:href="#DejaVuSans-53"></use>
       <use x="127.246094" xlink:href="#DejaVuSans-51"></use>
      </g>
     </g>
    </g>
    <g id="xtick_2">
     <g id="line2d_3">
      <path clip-path="url(#pa69038294a)" d="M 126.253477 188.4375 
L 126.253477 25.3575 
" style="fill:none;stroke:#ffffff;stroke-linecap:round;stroke-width:0.8;"></path>
     </g>
     <g id="line2d_4"></g>
     <g id="text_2">
      <!-- 154 -->
      <defs>
       <path d="M 37.796875 64.3125 
L 12.890625 25.390625 
L 37.796875 25.390625 
z
M 35.203125 72.90625 
L 47.609375 72.90625 
L 47.609375 25.390625 
L 58.015625 25.390625 
L 58.015625 17.1875 
L 47.609375 17.1875 
L 47.609375 0 
L 37.796875 0 
L 37.796875 17.1875 
L 4.890625 17.1875 
L 4.890625 26.703125 
z
" id="DejaVuSans-52"></path>
      </defs>
      <g style="fill:#262626;" transform="translate(111.315146 203.830936)scale(0.156525 -0.156525)">
       <use xlink:href="#DejaVuSans-49"></use>
       <use x="63.623047" xlink:href="#DejaVuSans-53"></use>
       <use x="127.246094" xlink:href="#DejaVuSans-52"></use>
      </g>
     </g>
    </g>
    <g id="xtick_3">
     <g id="line2d_5">
      <path clip-path="url(#pa69038294a)" d="M 197.588548 188.4375 
L 197.588548 25.3575 
" style="fill:none;stroke:#ffffff;stroke-linecap:round;stroke-width:0.8;"></path>
     </g>
     <g id="line2d_6"></g>
     <g id="text_3">
      <!-- 155 -->
      <g style="fill:#262626;" transform="translate(182.650217 203.830936)scale(0.156525 -0.156525)">
       <use xlink:href="#DejaVuSans-49"></use>
       <use x="63.623047" xlink:href="#DejaVuSans-53"></use>
       <use x="127.246094" xlink:href="#DejaVuSans-53"></use>
      </g>
     </g>
    </g>
    <g id="xtick_4">
     <g id="line2d_7">
      <path clip-path="url(#pa69038294a)" d="M 268.923619 188.4375 
L 268.923619 25.3575 
" style="fill:none;stroke:#ffffff;stroke-linecap:round;stroke-width:0.8;"></path>
     </g>
     <g id="line2d_8"></g>
     <g id="text_4">
      <!-- 156 -->
      <defs>
       <path d="M 33.015625 40.375 
Q 26.375 40.375 22.484375 35.828125 
Q 18.609375 31.296875 18.609375 23.390625 
Q 18.609375 15.53125 22.484375 10.953125 
Q 26.375 6.390625 33.015625 6.390625 
Q 39.65625 6.390625 43.53125 10.953125 
Q 47.40625 15.53125 47.40625 23.390625 
Q 47.40625 31.296875 43.53125 35.828125 
Q 39.65625 40.375 33.015625 40.375 
z
M 52.59375 71.296875 
L 52.59375 62.3125 
Q 48.875 64.0625 45.09375 64.984375 
Q 41.3125 65.921875 37.59375 65.921875 
Q 27.828125 65.921875 22.671875 59.328125 
Q 17.53125 52.734375 16.796875 39.40625 
Q 19.671875 43.65625 24.015625 45.921875 
Q 28.375 48.1875 33.59375 48.1875 
Q 44.578125 48.1875 50.953125 41.515625 
Q 57.328125 34.859375 57.328125 23.390625 
Q 57.328125 12.15625 50.6875 5.359375 
Q 44.046875 -1.421875 33.015625 -1.421875 
Q 20.359375 -1.421875 13.671875 8.265625 
Q 6.984375 17.96875 6.984375 36.375 
Q 6.984375 53.65625 15.1875 63.9375 
Q 23.390625 74.21875 37.203125 74.21875 
Q 40.921875 74.21875 44.703125 73.484375 
Q 48.484375 72.75 52.59375 71.296875 
z
" id="DejaVuSans-54"></path>
      </defs>
      <g style="fill:#262626;" transform="translate(253.985287 203.830936)scale(0.156525 -0.156525)">
       <use xlink:href="#DejaVuSans-49"></use>
       <use x="63.623047" xlink:href="#DejaVuSans-53"></use>
       <use x="127.246094" xlink:href="#DejaVuSans-54"></use>
      </g>
     </g>
    </g>
   </g>
   <g id="matplotlib.axis_2">
    <g id="ytick_1">
     <g id="line2d_9">
      <path clip-path="url(#pa69038294a)" d="M 45.551216 181.024773 
L 299.187579 181.024773 
" style="fill:none;stroke:#ffffff;stroke-linecap:round;stroke-width:0.8;"></path>
     </g>
     <g id="line2d_10"></g>
     <g id="text_5">
      <!-- 0.00 -->
      <defs>
       <path d="M 31.78125 66.40625 
Q 24.171875 66.40625 20.328125 58.90625 
Q 16.5 51.421875 16.5 36.375 
Q 16.5 21.390625 20.328125 13.890625 
Q 24.171875 6.390625 31.78125 6.390625 
Q 39.453125 6.390625 43.28125 13.890625 
Q 47.125 21.390625 47.125 36.375 
Q 47.125 51.421875 43.28125 58.90625 
Q 39.453125 66.40625 31.78125 66.40625 
z
M 31.78125 74.21875 
Q 44.046875 74.21875 50.515625 64.515625 
Q 56.984375 54.828125 56.984375 36.375 
Q 56.984375 17.96875 50.515625 8.265625 
Q 44.046875 -1.421875 31.78125 -1.421875 
Q 19.53125 -1.421875 13.0625 8.265625 
Q 6.59375 17.96875 6.59375 36.375 
Q 6.59375 54.828125 13.0625 64.515625 
Q 19.53125 74.21875 31.78125 74.21875 
z
" id="DejaVuSans-48"></path>
       <path d="M 10.6875 12.40625 
L 21 12.40625 
L 21 0 
L 10.6875 0 
z
" id="DejaVuSans-46"></path>
      </defs>
      <g style="fill:#262626;" transform="translate(7.2 186.971491)scale(0.156525 -0.156525)">
       <use xlink:href="#DejaVuSans-48"></use>
       <use x="63.623047" xlink:href="#DejaVuSans-46"></use>
       <use x="95.410156" xlink:href="#DejaVuSans-48"></use>
       <use x="159.033203" xlink:href="#DejaVuSans-48"></use>
      </g>
     </g>
    </g>
    <g id="ytick_2">
     <g id="line2d_11">
      <path clip-path="url(#pa69038294a)" d="M 45.551216 142.011907 
L 299.187579 142.011907 
" style="fill:none;stroke:#ffffff;stroke-linecap:round;stroke-width:0.8;"></path>
     </g>
     <g id="line2d_12"></g>
     <g id="text_6">
      <!-- 0.25 -->
      <defs>
       <path d="M 19.1875 8.296875 
L 53.609375 8.296875 
L 53.609375 0 
L 7.328125 0 
L 7.328125 8.296875 
Q 12.9375 14.109375 22.625 23.890625 
Q 32.328125 33.6875 34.8125 36.53125 
Q 39.546875 41.84375 41.421875 45.53125 
Q 43.3125 49.21875 43.3125 52.78125 
Q 43.3125 58.59375 39.234375 62.25 
Q 35.15625 65.921875 28.609375 65.921875 
Q 23.96875 65.921875 18.8125 64.3125 
Q 13.671875 62.703125 7.8125 59.421875 
L 7.8125 69.390625 
Q 13.765625 71.78125 18.9375 73 
Q 24.125 74.21875 28.421875 74.21875 
Q 39.75 74.21875 46.484375 68.546875 
Q 53.21875 62.890625 53.21875 53.421875 
Q 53.21875 48.921875 51.53125 44.890625 
Q 49.859375 40.875 45.40625 35.40625 
Q 44.1875 33.984375 37.640625 27.21875 
Q 31.109375 20.453125 19.1875 8.296875 
z
" id="DejaVuSans-50"></path>
      </defs>
      <g style="fill:#262626;" transform="translate(7.2 147.958625)scale(0.156525 -0.156525)">
       <use xlink:href="#DejaVuSans-48"></use>
       <use x="63.623047" xlink:href="#DejaVuSans-46"></use>
       <use x="95.410156" xlink:href="#DejaVuSans-50"></use>
       <use x="159.033203" xlink:href="#DejaVuSans-53"></use>
      </g>
     </g>
    </g>
    <g id="ytick_3">
     <g id="line2d_13">
      <path clip-path="url(#pa69038294a)" d="M 45.551216 102.999041 
L 299.187579 102.999041 
" style="fill:none;stroke:#ffffff;stroke-linecap:round;stroke-width:0.8;"></path>
     </g>
     <g id="line2d_14"></g>
     <g id="text_7">
      <!-- 0.50 -->
      <g style="fill:#262626;" transform="translate(7.2 108.945759)scale(0.156525 -0.156525)">
       <use xlink:href="#DejaVuSans-48"></use>
       <use x="63.623047" xlink:href="#DejaVuSans-46"></use>
       <use x="95.410156" xlink:href="#DejaVuSans-53"></use>
       <use x="159.033203" xlink:href="#DejaVuSans-48"></use>
      </g>
     </g>
    </g>
    <g id="ytick_4">
     <g id="line2d_15">
      <path clip-path="url(#pa69038294a)" d="M 45.551216 63.986175 
L 299.187579 63.986175 
" style="fill:none;stroke:#ffffff;stroke-linecap:round;stroke-width:0.8;"></path>
     </g>
     <g id="line2d_16"></g>
     <g id="text_8">
      <!-- 0.75 -->
      <defs>
       <path d="M 8.203125 72.90625 
L 55.078125 72.90625 
L 55.078125 68.703125 
L 28.609375 0 
L 18.3125 0 
L 43.21875 64.59375 
L 8.203125 64.59375 
z
" id="DejaVuSans-55"></path>
      </defs>
      <g style="fill:#262626;" transform="translate(7.2 69.932893)scale(0.156525 -0.156525)">
       <use xlink:href="#DejaVuSans-48"></use>
       <use x="63.623047" xlink:href="#DejaVuSans-46"></use>
       <use x="95.410156" xlink:href="#DejaVuSans-55"></use>
       <use x="159.033203" xlink:href="#DejaVuSans-53"></use>
      </g>
     </g>
    </g>
   </g>
   <g id="PolyCollection_1">
    <path clip-path="url(#pa69038294a)" d="M 57.080141 181.024773 
L 57.080141 180.432764 
L 58.238827 180.428647 
L 59.397513 180.416392 
L 60.556199 180.400543 
L 61.714885 180.362333 
L 62.873571 180.322026 
L 64.032257 180.27401 
L 65.190943 180.218495 
L 66.349629 180.155858 
L 67.508315 180.088802 
L 68.667001 180.013077 
L 69.825687 179.910886 
L 70.984373 179.815336 
L 72.143059 179.712756 
L 73.301745 179.603306 
L 74.460431 179.488581 
L 75.619117 179.365398 
L 76.777803 179.208313 
L 77.936489 179.057521 
L 79.095175 178.894194 
L 80.253861 178.716804 
L 81.412547 178.524714 
L 82.571233 178.315372 
L 83.729919 178.034081 
L 84.888605 177.761714 
L 86.047291 177.462078 
L 87.205977 177.134445 
L 88.364663 176.780449 
L 89.523349 176.397995 
L 90.682035 175.895003 
L 91.840721 175.41349 
L 92.999407 174.891213 
L 94.158093 174.326038 
L 95.316779 173.718202 
L 96.475465 173.061517 
L 97.634151 172.359684 
L 98.792837 171.476633 
L 99.951523 170.617099 
L 101.110209 169.694878 
L 102.268895 168.716947 
L 103.427581 167.678912 
L 104.586267 166.596424 
L 105.744953 165.265635 
L 106.903639 164.01161 
L 108.062325 162.702934 
L 109.221011 161.34772 
L 110.379697 159.934246 
L 111.538383 158.472955 
L 112.697069 156.666423 
L 113.855755 154.948634 
L 115.014441 153.120692 
L 116.173127 151.172116 
L 117.331813 149.110574 
L 118.490499 146.903876 
L 119.649185 144.583636 
L 120.807871 141.806572 
L 121.966557 139.129307 
L 123.125243 136.347237 
L 124.283929 133.507932 
L 125.442615 130.607274 
L 126.601301 127.715363 
L 127.759987 124.427174 
L 128.918673 121.440705 
L 130.077359 118.494646 
L 131.236045 115.637806 
L 132.394731 112.795468 
L 133.553417 110.024872 
L 134.712103 106.790127 
L 135.870789 103.862439 
L 137.029475 100.880079 
L 138.188161 97.87929 
L 139.346847 94.701462 
L 140.505533 91.43882 
L 141.664219 87.55934 
L 142.822905 83.883937 
L 143.981591 80.093742 
L 145.140277 76.225074 
L 146.298963 72.41419 
L 147.457649 68.51659 
L 148.616335 64.188896 
L 149.775021 60.294561 
L 150.933707 56.539599 
L 152.092393 52.971395 
L 153.251079 49.771253 
L 154.409765 46.664134 
L 155.568451 43.904679 
L 156.727137 41.006857 
L 157.885823 38.778371 
L 159.044509 36.907823 
L 160.203195 35.598663 
L 161.361881 34.420702 
L 162.520567 33.676259 
L 163.679253 32.897222 
L 164.837939 32.770227 
L 165.996625 32.976591 
L 167.155311 33.486842 
L 168.313997 34.493549 
L 169.472683 35.41706 
L 170.631369 36.161273 
L 171.790055 37.269856 
L 172.948741 38.431519 
L 174.107427 39.602119 
L 175.266113 41.035856 
L 176.424799 42.052885 
L 177.583485 42.777899 
L 178.742171 43.698043 
L 179.900857 44.636975 
L 181.059543 45.634367 
L 182.218228 47.072677 
L 183.376914 48.205809 
L 184.5356 49.598557 
L 185.694286 51.056923 
L 186.852972 52.932549 
L 188.011658 55.096929 
L 189.170344 57.895297 
L 190.32903 60.511771 
L 191.487716 63.46353 
L 192.646402 66.569456 
L 193.805088 70.024056 
L 194.963774 73.696753 
L 196.12246 77.892373 
L 197.281146 81.755071 
L 198.439832 85.769556 
L 199.598518 89.771563 
L 200.757204 93.860339 
L 201.91589 97.917413 
L 203.074576 101.897196 
L 204.233262 106.092387 
L 205.391948 109.688276 
L 206.550634 113.112864 
L 207.70932 116.437309 
L 208.868006 119.61313 
L 210.026692 122.643233 
L 211.185378 125.833683 
L 212.344064 128.495388 
L 213.50275 131.099969 
L 214.661436 133.610092 
L 215.820122 136.089211 
L 216.978808 138.515456 
L 218.137494 141.145268 
L 219.29618 143.370077 
L 220.454866 145.579747 
L 221.613552 147.743288 
L 222.772238 149.870069 
L 223.930924 151.939235 
L 225.08961 154.142611 
L 226.248296 155.990313 
L 227.406982 157.785282 
L 228.565668 159.502914 
L 229.724354 161.145368 
L 230.88304 162.699476 
L 232.041726 164.16112 
L 233.200412 165.668954 
L 234.359098 166.889938 
L 235.517784 168.036315 
L 236.67647 169.115079 
L 237.835156 170.123042 
L 238.993842 171.06277 
L 240.152528 172.033247 
L 241.311214 172.809403 
L 242.4699 173.541385 
L 243.628586 174.225321 
L 244.787272 174.862452 
L 245.945958 175.451163 
L 247.104644 176.057439 
L 248.26333 176.524694 
L 249.422016 176.955861 
L 250.580702 177.348975 
L 251.739388 177.706558 
L 252.898074 178.029997 
L 254.05676 178.361853 
L 255.215446 178.610627 
L 256.374132 178.840657 
L 257.532818 179.052522 
L 258.691504 179.24837 
L 259.85019 179.429065 
L 261.008876 179.595601 
L 262.167562 179.773837 
L 263.326248 179.904159 
L 264.484934 180.025006 
L 265.64362 180.135683 
L 266.802306 180.236113 
L 267.960992 180.325768 
L 269.119678 180.414379 
L 270.278364 180.479546 
L 271.43705 180.536648 
L 272.595736 180.585465 
L 273.754422 180.627383 
L 274.913108 180.662711 
L 276.071794 180.697821 
L 277.23048 180.719877 
L 278.389166 180.738279 
L 279.547852 180.752266 
L 280.706538 180.763912 
L 281.865224 180.772918 
L 283.02391 180.783606 
L 284.182596 180.787092 
L 285.341282 180.789779 
L 286.499968 180.790145 
L 287.658654 180.79083 
L 287.658654 181.024773 
L 287.658654 181.024773 
L 286.499968 181.024773 
L 285.341282 181.024773 
L 284.182596 181.024773 
L 283.02391 181.024773 
L 281.865224 181.024773 
L 280.706538 181.024773 
L 279.547852 181.024773 
L 278.389166 181.024773 
L 277.23048 181.024773 
L 276.071794 181.024773 
L 274.913108 181.024773 
L 273.754422 181.024773 
L 272.595736 181.024773 
L 271.43705 181.024773 
L 270.278364 181.024773 
L 269.119678 181.024773 
L 267.960992 181.024773 
L 266.802306 181.024773 
L 265.64362 181.024773 
L 264.484934 181.024773 
L 263.326248 181.024773 
L 262.167562 181.024773 
L 261.008876 181.024773 
L 259.85019 181.024773 
L 258.691504 181.024773 
L 257.532818 181.024773 
L 256.374132 181.024773 
L 255.215446 181.024773 
L 254.05676 181.024773 
L 252.898074 181.024773 
L 251.739388 181.024773 
L 250.580702 181.024773 
L 249.422016 181.024773 
L 248.26333 181.024773 
L 247.104644 181.024773 
L 245.945958 181.024773 
L 244.787272 181.024773 
L 243.628586 181.024773 
L 242.4699 181.024773 
L 241.311214 181.024773 
L 240.152528 181.024773 
L 238.993842 181.024773 
L 237.835156 181.024773 
L 236.67647 181.024773 
L 235.517784 181.024773 
L 234.359098 181.024773 
L 233.200412 181.024773 
L 232.041726 181.024773 
L 230.88304 181.024773 
L 229.724354 181.024773 
L 228.565668 181.024773 
L 227.406982 181.024773 
L 226.248296 181.024773 
L 225.08961 181.024773 
L 223.930924 181.024773 
L 222.772238 181.024773 
L 221.613552 181.024773 
L 220.454866 181.024773 
L 219.29618 181.024773 
L 218.137494 181.024773 
L 216.978808 181.024773 
L 215.820122 181.024773 
L 214.661436 181.024773 
L 213.50275 181.024773 
L 212.344064 181.024773 
L 211.185378 181.024773 
L 210.026692 181.024773 
L 208.868006 181.024773 
L 207.70932 181.024773 
L 206.550634 181.024773 
L 205.391948 181.024773 
L 204.233262 181.024773 
L 203.074576 181.024773 
L 201.91589 181.024773 
L 200.757204 181.024773 
L 199.598518 181.024773 
L 198.439832 181.024773 
L 197.281146 181.024773 
L 196.12246 181.024773 
L 194.963774 181.024773 
L 193.805088 181.024773 
L 192.646402 181.024773 
L 191.487716 181.024773 
L 190.32903 181.024773 
L 189.170344 181.024773 
L 188.011658 181.024773 
L 186.852972 181.024773 
L 185.694286 181.024773 
L 184.5356 181.024773 
L 183.376914 181.024773 
L 182.218228 181.024773 
L 181.059543 181.024773 
L 179.900857 181.024773 
L 178.742171 181.024773 
L 177.583485 181.024773 
L 176.424799 181.024773 
L 175.266113 181.024773 
L 174.107427 181.024773 
L 172.948741 181.024773 
L 171.790055 181.024773 
L 170.631369 181.024773 
L 169.472683 181.024773 
L 168.313997 181.024773 
L 167.155311 181.024773 
L 165.996625 181.024773 
L 164.837939 181.024773 
L 163.679253 181.024773 
L 162.520567 181.024773 
L 161.361881 181.024773 
L 160.203195 181.024773 
L 159.044509 181.024773 
L 157.885823 181.024773 
L 156.727137 181.024773 
L 155.568451 181.024773 
L 154.409765 181.024773 
L 153.251079 181.024773 
L 152.092393 181.024773 
L 150.933707 181.024773 
L 149.775021 181.024773 
L 148.616335 181.024773 
L 147.457649 181.024773 
L 146.298963 181.024773 
L 145.140277 181.024773 
L 143.981591 181.024773 
L 142.822905 181.024773 
L 141.664219 181.024773 
L 140.505533 181.024773 
L 139.346847 181.024773 
L 138.188161 181.024773 
L 137.029475 181.024773 
L 135.870789 181.024773 
L 134.712103 181.024773 
L 133.553417 181.024773 
L 132.394731 181.024773 
L 131.236045 181.024773 
L 130.077359 181.024773 
L 128.918673 181.024773 
L 127.759987 181.024773 
L 126.601301 181.024773 
L 125.442615 181.024773 
L 124.283929 181.024773 
L 123.125243 181.024773 
L 121.966557 181.024773 
L 120.807871 181.024773 
L 119.649185 181.024773 
L 118.490499 181.024773 
L 117.331813 181.024773 
L 116.173127 181.024773 
L 115.014441 181.024773 
L 113.855755 181.024773 
L 112.697069 181.024773 
L 111.538383 181.024773 
L 110.379697 181.024773 
L 109.221011 181.024773 
L 108.062325 181.024773 
L 106.903639 181.024773 
L 105.744953 181.024773 
L 104.586267 181.024773 
L 103.427581 181.024773 
L 102.268895 181.024773 
L 101.110209 181.024773 
L 99.951523 181.024773 
L 98.792837 181.024773 
L 97.634151 181.024773 
L 96.475465 181.024773 
L 95.316779 181.024773 
L 94.158093 181.024773 
L 92.999407 181.024773 
L 91.840721 181.024773 
L 90.682035 181.024773 
L 89.523349 181.024773 
L 88.364663 181.024773 
L 87.205977 181.024773 
L 86.047291 181.024773 
L 84.888605 181.024773 
L 83.729919 181.024773 
L 82.571233 181.024773 
L 81.412547 181.024773 
L 80.253861 181.024773 
L 79.095175 181.024773 
L 77.936489 181.024773 
L 76.777803 181.024773 
L 75.619117 181.024773 
L 74.460431 181.024773 
L 73.301745 181.024773 
L 72.143059 181.024773 
L 70.984373 181.024773 
L 69.825687 181.024773 
L 68.667001 181.024773 
L 67.508315 181.024773 
L 66.349629 181.024773 
L 65.190943 181.024773 
L 64.032257 181.024773 
L 62.873571 181.024773 
L 61.714885 181.024773 
L 60.556199 181.024773 
L 59.397513 181.024773 
L 58.238827 181.024773 
L 57.080141 181.024773 
z
" style="fill:none;"></path>
   </g>
   <g id="line2d_17">
    <path clip-path="url(#pa69038294a)" d="M 57.080141 180.432764 
L 62.873571 180.322026 
L 68.667001 180.013077 
L 76.777803 179.208313 
L 81.412547 178.524714 
L 83.729919 178.034081 
L 87.205977 177.134445 
L 89.523349 176.397995 
L 94.158093 174.326038 
L 96.475465 173.061517 
L 97.634151 172.359684 
L 102.268895 168.716947 
L 104.586267 166.596424 
L 111.538383 158.472955 
L 116.173127 151.172116 
L 118.490499 146.903876 
L 119.649185 144.583636 
L 126.601301 127.715363 
L 128.918673 121.440705 
L 132.394731 112.795468 
L 133.553417 110.024872 
L 135.870789 103.862439 
L 139.346847 94.701462 
L 140.505533 91.43882 
L 152.092393 52.971395 
L 154.409765 46.664134 
L 156.727137 41.006857 
L 157.885823 38.778371 
L 159.044509 36.907823 
L 161.361881 34.420702 
L 163.679253 32.897222 
L 164.837939 32.770227 
L 165.996625 32.976591 
L 167.155311 33.486842 
L 169.472683 35.41706 
L 170.631369 36.161273 
L 174.107427 39.602119 
L 175.266113 41.035856 
L 176.424799 42.052885 
L 177.583485 42.777899 
L 181.059543 45.634367 
L 182.218228 47.072677 
L 183.376914 48.205809 
L 185.694286 51.056923 
L 186.852972 52.932549 
L 188.011658 55.096929 
L 192.646402 66.569456 
L 194.963774 73.696753 
L 197.281146 81.755071 
L 205.391948 109.688276 
L 207.70932 116.437309 
L 211.185378 125.833683 
L 214.661436 133.610092 
L 219.29618 143.370077 
L 222.772238 149.870069 
L 226.248296 155.990313 
L 228.565668 159.502914 
L 230.88304 162.699476 
L 233.200412 165.668954 
L 235.517784 168.036315 
L 237.835156 170.123042 
L 241.311214 172.809403 
L 243.628586 174.225321 
L 247.104644 176.057439 
L 250.580702 177.348975 
L 254.05676 178.361853 
L 258.691504 179.24837 
L 263.326248 179.904159 
L 269.119678 180.414379 
L 276.071794 180.697821 
L 286.499968 180.790145 
L 287.658654 180.79083 
L 287.658654 180.79083 
" style="fill:none;stroke:#2a2eec;stroke-linecap:round;stroke-width:1.677051;"></path>
   </g>
   <g id="patch_3">
    <path d="M 45.551216 188.4375 
L 45.551216 25.3575 
" style="fill:none;"></path>
   </g>
   <g id="patch_4">
    <path d="M 299.187579 188.4375 
L 299.187579 25.3575 
" style="fill:none;"></path>
   </g>
   <g id="patch_5">
    <path d="M 45.551216 188.4375 
L 299.187579 188.4375 
" style="fill:none;"></path>
   </g>
   <g id="patch_6">
    <path d="M 45.551216 25.3575 
L 299.187579 25.3575 
" style="fill:none;"></path>
   </g>
   <g id="text_9">
    <!-- sample mu -->
    <defs>
     <path d="M 44.28125 53.078125 
L 44.28125 44.578125 
Q 40.484375 46.53125 36.375 47.5 
Q 32.28125 48.484375 27.875 48.484375 
Q 21.1875 48.484375 17.84375 46.4375 
Q 14.5 44.390625 14.5 40.28125 
Q 14.5 37.15625 16.890625 35.375 
Q 19.28125 33.59375 26.515625 31.984375 
L 29.59375 31.296875 
Q 39.15625 29.25 43.1875 25.515625 
Q 47.21875 21.78125 47.21875 15.09375 
Q 47.21875 7.46875 41.1875 3.015625 
Q 35.15625 -1.421875 24.609375 -1.421875 
Q 20.21875 -1.421875 15.453125 -0.5625 
Q 10.6875 0.296875 5.421875 2 
L 5.421875 11.28125 
Q 10.40625 8.6875 15.234375 7.390625 
Q 20.0625 6.109375 24.8125 6.109375 
Q 31.15625 6.109375 34.5625 8.28125 
Q 37.984375 10.453125 37.984375 14.40625 
Q 37.984375 18.0625 35.515625 20.015625 
Q 33.0625 21.96875 24.703125 23.78125 
L 21.578125 24.515625 
Q 13.234375 26.265625 9.515625 29.90625 
Q 5.8125 33.546875 5.8125 39.890625 
Q 5.8125 47.609375 11.28125 51.796875 
Q 16.75 56 26.8125 56 
Q 31.78125 56 36.171875 55.265625 
Q 40.578125 54.546875 44.28125 53.078125 
z
" id="DejaVuSans-115"></path>
     <path d="M 34.28125 27.484375 
Q 23.390625 27.484375 19.1875 25 
Q 14.984375 22.515625 14.984375 16.5 
Q 14.984375 11.71875 18.140625 8.90625 
Q 21.296875 6.109375 26.703125 6.109375 
Q 34.1875 6.109375 38.703125 11.40625 
Q 43.21875 16.703125 43.21875 25.484375 
L 43.21875 27.484375 
z
M 52.203125 31.203125 
L 52.203125 0 
L 43.21875 0 
L 43.21875 8.296875 
Q 40.140625 3.328125 35.546875 0.953125 
Q 30.953125 -1.421875 24.3125 -1.421875 
Q 15.921875 -1.421875 10.953125 3.296875 
Q 6 8.015625 6 15.921875 
Q 6 25.140625 12.171875 29.828125 
Q 18.359375 34.515625 30.609375 34.515625 
L 43.21875 34.515625 
L 43.21875 35.40625 
Q 43.21875 41.609375 39.140625 45 
Q 35.0625 48.390625 27.6875 48.390625 
Q 23 48.390625 18.546875 47.265625 
Q 14.109375 46.140625 10.015625 43.890625 
L 10.015625 52.203125 
Q 14.9375 54.109375 19.578125 55.046875 
Q 24.21875 56 28.609375 56 
Q 40.484375 56 46.34375 49.84375 
Q 52.203125 43.703125 52.203125 31.203125 
z
" id="DejaVuSans-97"></path>
     <path d="M 52 44.1875 
Q 55.375 50.25 60.0625 53.125 
Q 64.75 56 71.09375 56 
Q 79.640625 56 84.28125 50.015625 
Q 88.921875 44.046875 88.921875 33.015625 
L 88.921875 0 
L 79.890625 0 
L 79.890625 32.71875 
Q 79.890625 40.578125 77.09375 44.375 
Q 74.3125 48.1875 68.609375 48.1875 
Q 61.625 48.1875 57.5625 43.546875 
Q 53.515625 38.921875 53.515625 30.90625 
L 53.515625 0 
L 44.484375 0 
L 44.484375 32.71875 
Q 44.484375 40.625 41.703125 44.40625 
Q 38.921875 48.1875 33.109375 48.1875 
Q 26.21875 48.1875 22.15625 43.53125 
Q 18.109375 38.875 18.109375 30.90625 
L 18.109375 0 
L 9.078125 0 
L 9.078125 54.6875 
L 18.109375 54.6875 
L 18.109375 46.1875 
Q 21.1875 51.21875 25.484375 53.609375 
Q 29.78125 56 35.6875 56 
Q 41.65625 56 45.828125 52.96875 
Q 50 49.953125 52 44.1875 
z
" id="DejaVuSans-109"></path>
     <path d="M 18.109375 8.203125 
L 18.109375 -20.796875 
L 9.078125 -20.796875 
L 9.078125 54.6875 
L 18.109375 54.6875 
L 18.109375 46.390625 
Q 20.953125 51.265625 25.265625 53.625 
Q 29.59375 56 35.59375 56 
Q 45.5625 56 51.78125 48.09375 
Q 58.015625 40.1875 58.015625 27.296875 
Q 58.015625 14.40625 51.78125 6.484375 
Q 45.5625 -1.421875 35.59375 -1.421875 
Q 29.59375 -1.421875 25.265625 0.953125 
Q 20.953125 3.328125 18.109375 8.203125 
z
M 48.6875 27.296875 
Q 48.6875 37.203125 44.609375 42.84375 
Q 40.53125 48.484375 33.40625 48.484375 
Q 26.265625 48.484375 22.1875 42.84375 
Q 18.109375 37.203125 18.109375 27.296875 
Q 18.109375 17.390625 22.1875 11.75 
Q 26.265625 6.109375 33.40625 6.109375 
Q 40.53125 6.109375 44.609375 11.75 
Q 48.6875 17.390625 48.6875 27.296875 
z
" id="DejaVuSans-112"></path>
     <path d="M 9.421875 75.984375 
L 18.40625 75.984375 
L 18.40625 0 
L 9.421875 0 
z
" id="DejaVuSans-108"></path>
     <path d="M 56.203125 29.59375 
L 56.203125 25.203125 
L 14.890625 25.203125 
Q 15.484375 15.921875 20.484375 11.0625 
Q 25.484375 6.203125 34.421875 6.203125 
Q 39.59375 6.203125 44.453125 7.46875 
Q 49.3125 8.734375 54.109375 11.28125 
L 54.109375 2.78125 
Q 49.265625 0.734375 44.1875 -0.34375 
Q 39.109375 -1.421875 33.890625 -1.421875 
Q 20.796875 -1.421875 13.15625 6.1875 
Q 5.515625 13.8125 5.515625 26.8125 
Q 5.515625 40.234375 12.765625 48.109375 
Q 20.015625 56 32.328125 56 
Q 43.359375 56 49.78125 48.890625 
Q 56.203125 41.796875 56.203125 29.59375 
z
M 47.21875 32.234375 
Q 47.125 39.59375 43.09375 43.984375 
Q 39.0625 48.390625 32.421875 48.390625 
Q 24.90625 48.390625 20.390625 44.140625 
Q 15.875 39.890625 15.1875 32.171875 
z
" id="DejaVuSans-101"></path>
     <path id="DejaVuSans-32"></path>
     <path d="M 8.5 21.578125 
L 8.5 54.6875 
L 17.484375 54.6875 
L 17.484375 21.921875 
Q 17.484375 14.15625 20.5 10.265625 
Q 23.53125 6.390625 29.59375 6.390625 
Q 36.859375 6.390625 41.078125 11.03125 
Q 45.3125 15.671875 45.3125 23.6875 
L 45.3125 54.6875 
L 54.296875 54.6875 
L 54.296875 0 
L 45.3125 0 
L 45.3125 8.40625 
Q 42.046875 3.421875 37.71875 1 
Q 33.40625 -1.421875 27.6875 -1.421875 
Q 18.265625 -1.421875 13.375 4.4375 
Q 8.5 10.296875 8.5 21.578125 
z
M 31.109375 56 
z
" id="DejaVuSans-117"></path>
    </defs>
    <g style="fill:#262626;" transform="translate(127.878148 19.3575)scale(0.16 -0.16)">
     <use xlink:href="#DejaVuSans-115"></use>
     <use x="52.099609" xlink:href="#DejaVuSans-97"></use>
     <use x="113.378906" xlink:href="#DejaVuSans-109"></use>
     <use x="210.791016" xlink:href="#DejaVuSans-112"></use>
     <use x="274.267578" xlink:href="#DejaVuSans-108"></use>
     <use x="302.050781" xlink:href="#DejaVuSans-101"></use>
     <use x="363.574219" xlink:href="#DejaVuSans-32"></use>
     <use x="395.361328" xlink:href="#DejaVuSans-109"></use>
     <use x="492.773438" xlink:href="#DejaVuSans-117"></use>
    </g>
   </g>
  </g>
  <g id="axes_2">
   <g id="patch_7">
    <path d="M 349.914852 188.4375 
L 603.551216 188.4375 
L 603.551216 25.3575 
L 349.914852 25.3575 
z
" style="fill:#eeeeee;"></path>
   </g>
   <g id="matplotlib.axis_3">
    <g id="xtick_5">
     <g id="line2d_18">
      <path clip-path="url(#pc149164c60)" d="M 361.443778 188.4375 
L 361.443778 25.3575 
" style="fill:none;stroke:#ffffff;stroke-linecap:round;stroke-width:0.8;"></path>
     </g>
     <g id="line2d_19"></g>
     <g id="text_10">
      <!-- 7.0 -->
      <g style="fill:#262626;" transform="translate(348.997614 203.830936)scale(0.156525 -0.156525)">
       <use xlink:href="#DejaVuSans-55"></use>
       <use x="63.623047" xlink:href="#DejaVuSans-46"></use>
       <use x="95.410156" xlink:href="#DejaVuSans-48"></use>
      </g>
     </g>
    </g>
    <g id="xtick_6">
     <g id="line2d_20">
      <path clip-path="url(#pc149164c60)" d="M 421.515536 188.4375 
L 421.515536 25.3575 
" style="fill:none;stroke:#ffffff;stroke-linecap:round;stroke-width:0.8;"></path>
     </g>
     <g id="line2d_21"></g>
     <g id="text_11">
      <!-- 7.5 -->
      <g style="fill:#262626;" transform="translate(409.069372 203.830936)scale(0.156525 -0.156525)">
       <use xlink:href="#DejaVuSans-55"></use>
       <use x="63.623047" xlink:href="#DejaVuSans-46"></use>
       <use x="95.410156" xlink:href="#DejaVuSans-53"></use>
      </g>
     </g>
    </g>
    <g id="xtick_7">
     <g id="line2d_22">
      <path clip-path="url(#pc149164c60)" d="M 481.587294 188.4375 
L 481.587294 25.3575 
" style="fill:none;stroke:#ffffff;stroke-linecap:round;stroke-width:0.8;"></path>
     </g>
     <g id="line2d_23"></g>
     <g id="text_12">
      <!-- 8.0 -->
      <defs>
       <path d="M 31.78125 34.625 
Q 24.75 34.625 20.71875 30.859375 
Q 16.703125 27.09375 16.703125 20.515625 
Q 16.703125 13.921875 20.71875 10.15625 
Q 24.75 6.390625 31.78125 6.390625 
Q 38.8125 6.390625 42.859375 10.171875 
Q 46.921875 13.96875 46.921875 20.515625 
Q 46.921875 27.09375 42.890625 30.859375 
Q 38.875 34.625 31.78125 34.625 
z
M 21.921875 38.8125 
Q 15.578125 40.375 12.03125 44.71875 
Q 8.5 49.078125 8.5 55.328125 
Q 8.5 64.0625 14.71875 69.140625 
Q 20.953125 74.21875 31.78125 74.21875 
Q 42.671875 74.21875 48.875 69.140625 
Q 55.078125 64.0625 55.078125 55.328125 
Q 55.078125 49.078125 51.53125 44.71875 
Q 48 40.375 41.703125 38.8125 
Q 48.828125 37.15625 52.796875 32.3125 
Q 56.78125 27.484375 56.78125 20.515625 
Q 56.78125 9.90625 50.3125 4.234375 
Q 43.84375 -1.421875 31.78125 -1.421875 
Q 19.734375 -1.421875 13.25 4.234375 
Q 6.78125 9.90625 6.78125 20.515625 
Q 6.78125 27.484375 10.78125 32.3125 
Q 14.796875 37.15625 21.921875 38.8125 
z
M 18.3125 54.390625 
Q 18.3125 48.734375 21.84375 45.5625 
Q 25.390625 42.390625 31.78125 42.390625 
Q 38.140625 42.390625 41.71875 45.5625 
Q 45.3125 48.734375 45.3125 54.390625 
Q 45.3125 60.0625 41.71875 63.234375 
Q 38.140625 66.40625 31.78125 66.40625 
Q 25.390625 66.40625 21.84375 63.234375 
Q 18.3125 60.0625 18.3125 54.390625 
z
" id="DejaVuSans-56"></path>
      </defs>
      <g style="fill:#262626;" transform="translate(469.14113 203.830936)scale(0.156525 -0.156525)">
       <use xlink:href="#DejaVuSans-56"></use>
       <use x="63.623047" xlink:href="#DejaVuSans-46"></use>
       <use x="95.410156" xlink:href="#DejaVuSans-48"></use>
      </g>
     </g>
    </g>
    <g id="xtick_8">
     <g id="line2d_24">
      <path clip-path="url(#pc149164c60)" d="M 541.659052 188.4375 
L 541.659052 25.3575 
" style="fill:none;stroke:#ffffff;stroke-linecap:round;stroke-width:0.8;"></path>
     </g>
     <g id="line2d_25"></g>
     <g id="text_13">
      <!-- 8.5 -->
      <g style="fill:#262626;" transform="translate(529.212888 203.830936)scale(0.156525 -0.156525)">
       <use xlink:href="#DejaVuSans-56"></use>
       <use x="63.623047" xlink:href="#DejaVuSans-46"></use>
       <use x="95.410156" xlink:href="#DejaVuSans-53"></use>
      </g>
     </g>
    </g>
    <g id="xtick_9">
     <g id="line2d_26">
      <path clip-path="url(#pc149164c60)" d="M 601.73081 188.4375 
L 601.73081 25.3575 
" style="fill:none;stroke:#ffffff;stroke-linecap:round;stroke-width:0.8;"></path>
     </g>
     <g id="line2d_27"></g>
     <g id="text_14">
      <!-- 9.0 -->
      <defs>
       <path d="M 10.984375 1.515625 
L 10.984375 10.5 
Q 14.703125 8.734375 18.5 7.8125 
Q 22.3125 6.890625 25.984375 6.890625 
Q 35.75 6.890625 40.890625 13.453125 
Q 46.046875 20.015625 46.78125 33.40625 
Q 43.953125 29.203125 39.59375 26.953125 
Q 35.25 24.703125 29.984375 24.703125 
Q 19.046875 24.703125 12.671875 31.3125 
Q 6.296875 37.9375 6.296875 49.421875 
Q 6.296875 60.640625 12.9375 67.421875 
Q 19.578125 74.21875 30.609375 74.21875 
Q 43.265625 74.21875 49.921875 64.515625 
Q 56.59375 54.828125 56.59375 36.375 
Q 56.59375 19.140625 48.40625 8.859375 
Q 40.234375 -1.421875 26.421875 -1.421875 
Q 22.703125 -1.421875 18.890625 -0.6875 
Q 15.09375 0.046875 10.984375 1.515625 
z
M 30.609375 32.421875 
Q 37.25 32.421875 41.125 36.953125 
Q 45.015625 41.5 45.015625 49.421875 
Q 45.015625 57.28125 41.125 61.84375 
Q 37.25 66.40625 30.609375 66.40625 
Q 23.96875 66.40625 20.09375 61.84375 
Q 16.21875 57.28125 16.21875 49.421875 
Q 16.21875 41.5 20.09375 36.953125 
Q 23.96875 32.421875 30.609375 32.421875 
z
" id="DejaVuSans-57"></path>
      </defs>
      <g style="fill:#262626;" transform="translate(589.284646 203.830936)scale(0.156525 -0.156525)">
       <use xlink:href="#DejaVuSans-57"></use>
       <use x="63.623047" xlink:href="#DejaVuSans-46"></use>
       <use x="95.410156" xlink:href="#DejaVuSans-48"></use>
      </g>
     </g>
    </g>
   </g>
   <g id="matplotlib.axis_4">
    <g id="ytick_5">
     <g id="line2d_28">
      <path clip-path="url(#pc149164c60)" d="M 349.914852 181.024773 
L 603.551216 181.024773 
" style="fill:none;stroke:#ffffff;stroke-linecap:round;stroke-width:0.8;"></path>
     </g>
     <g id="line2d_29"></g>
     <g id="text_15">
      <!-- 0.0 -->
      <g style="fill:#262626;" transform="translate(321.522524 186.971491)scale(0.156525 -0.156525)">
       <use xlink:href="#DejaVuSans-48"></use>
       <use x="63.623047" xlink:href="#DejaVuSans-46"></use>
       <use x="95.410156" xlink:href="#DejaVuSans-48"></use>
      </g>
     </g>
    </g>
    <g id="ytick_6">
     <g id="line2d_30">
      <path clip-path="url(#pc149164c60)" d="M 349.914852 124.358905 
L 603.551216 124.358905 
" style="fill:none;stroke:#ffffff;stroke-linecap:round;stroke-width:0.8;"></path>
     </g>
     <g id="line2d_31"></g>
     <g id="text_16">
      <!-- 0.5 -->
      <g style="fill:#262626;" transform="translate(321.522524 130.305623)scale(0.156525 -0.156525)">
       <use xlink:href="#DejaVuSans-48"></use>
       <use x="63.623047" xlink:href="#DejaVuSans-46"></use>
       <use x="95.410156" xlink:href="#DejaVuSans-53"></use>
      </g>
     </g>
    </g>
    <g id="ytick_7">
     <g id="line2d_32">
      <path clip-path="url(#pc149164c60)" d="M 349.914852 67.693036 
L 603.551216 67.693036 
" style="fill:none;stroke:#ffffff;stroke-linecap:round;stroke-width:0.8;"></path>
     </g>
     <g id="line2d_33"></g>
     <g id="text_17">
      <!-- 1.0 -->
      <g style="fill:#262626;" transform="translate(321.522524 73.639754)scale(0.156525 -0.156525)">
       <use xlink:href="#DejaVuSans-49"></use>
       <use x="63.623047" xlink:href="#DejaVuSans-46"></use>
       <use x="95.410156" xlink:href="#DejaVuSans-48"></use>
      </g>
     </g>
    </g>
   </g>
   <g id="PolyCollection_2">
    <path clip-path="url(#pc149164c60)" d="M 361.443778 181.024773 
L 361.443778 175.023528 
L 362.602464 174.943575 
L 363.76115 174.778517 
L 364.919836 174.495043 
L 366.078522 174.113315 
L 367.237208 173.621265 
L 368.395894 173.051573 
L 369.55458 172.382318 
L 370.713266 171.65491 
L 371.871952 170.834064 
L 373.030638 169.980393 
L 374.189324 169.034448 
L 375.34801 168.072423 
L 376.506696 167.018105 
L 377.665382 165.946749 
L 378.824068 164.735708 
L 379.982754 163.512249 
L 381.14144 162.152746 
L 382.300126 160.743357 
L 383.458812 159.243105 
L 384.617498 157.569692 
L 385.776184 155.843079 
L 386.93487 153.921643 
L 388.093556 151.964848 
L 389.252242 149.826027 
L 390.410928 147.678369 
L 391.569614 145.391029 
L 392.7283 143.134235 
L 393.886986 140.753814 
L 395.045671 138.462733 
L 396.204357 136.0663 
L 397.363043 133.799988 
L 398.521729 131.430601 
L 399.680415 129.197505 
L 400.839101 126.829848 
L 401.997787 124.569403 
L 403.156473 122.135981 
L 404.315159 119.7413 
L 405.473845 117.097444 
L 406.632531 114.451464 
L 407.791217 111.660687 
L 408.949903 108.577142 
L 410.108589 105.493663 
L 411.267275 102.127439 
L 412.425961 98.800746 
L 413.584647 95.240415 
L 414.743333 91.817142 
L 415.902019 88.266503 
L 417.060705 84.953909 
L 418.219391 81.557662 
L 419.378077 78.509396 
L 420.536763 75.441751 
L 421.695449 72.742351 
L 422.854135 70.037821 
L 424.012821 67.655716 
L 425.171507 65.217577 
L 426.330193 63.048494 
L 427.488879 60.668246 
L 428.647565 58.478839 
L 429.806251 56.041687 
L 430.964937 53.696127 
L 432.123623 51.377086 
L 433.282309 48.822424 
L 434.440995 46.47979 
L 435.599681 43.970691 
L 436.758367 41.788311 
L 437.917053 39.558721 
L 439.075739 37.769205 
L 440.234425 36.043409 
L 441.393111 34.85585 
L 442.551797 33.768851 
L 443.710483 33.243874 
L 444.869169 32.770227 
L 446.027855 32.814522 
L 447.186541 32.843535 
L 448.345227 33.269479 
L 449.503913 33.546933 
L 450.662599 34.091902 
L 451.821285 34.389714 
L 452.979971 34.865356 
L 454.138657 35.159724 
L 455.297343 35.282135 
L 456.456029 35.564053 
L 457.614715 35.576468 
L 458.773401 35.807433 
L 459.932087 35.891334 
L 461.090773 36.333532 
L 462.249459 36.743499 
L 463.408145 37.631089 
L 464.566831 38.605129 
L 465.725517 40.162203 
L 466.884203 41.810484 
L 468.042889 44.038034 
L 469.201575 46.357013 
L 470.360261 49.156411 
L 471.518947 51.981982 
L 472.677633 55.144922 
L 473.836319 58.189836 
L 474.995005 61.457504 
L 476.153691 64.449796 
L 477.312377 67.542676 
L 478.471063 70.361502 
L 479.629749 73.008101 
L 480.788435 75.690228 
L 481.947121 78.048363 
L 483.105807 80.497376 
L 484.264493 82.69238 
L 485.423179 85.063525 
L 486.581865 87.26917 
L 487.740551 89.72611 
L 488.899237 92.088676 
L 490.057923 94.725319 
L 491.216609 97.288693 
L 492.375295 100.11726 
L 493.533981 102.830925 
L 494.692667 105.729135 
L 495.851353 108.471312 
L 497.010039 111.319944 
L 498.168725 113.927427 
L 499.327411 116.571297 
L 500.486097 118.962004 
L 501.644783 121.206361 
L 502.803469 123.431747 
L 503.962155 125.388731 
L 505.120841 127.339781 
L 506.279527 129.098007 
L 507.438213 130.901301 
L 508.596899 132.563404 
L 509.755585 134.322206 
L 510.914271 135.987899 
L 512.072957 137.778801 
L 513.231643 139.500249 
L 514.390329 141.349675 
L 515.549015 143.117902 
L 516.707701 144.986093 
L 517.866387 146.763932 
L 519.025073 148.596256 
L 520.183759 150.325633 
L 521.342445 152.079627 
L 522.501131 153.691817 
L 523.659817 155.30244 
L 524.818503 156.777059 
L 525.977189 158.176553 
L 527.135875 159.548377 
L 528.294561 160.780387 
L 529.453247 161.9881 
L 530.611933 163.067565 
L 531.770619 164.131537 
L 532.929305 165.071944 
L 534.087991 166.007012 
L 535.246677 166.831626 
L 536.405363 167.650738 
L 537.564049 168.384164 
L 538.722734 169.116385 
L 539.88142 169.770426 
L 541.040106 170.423332 
L 542.198792 171.009522 
L 543.357478 171.59399 
L 544.516164 172.117831 
L 545.67485 172.641521 
L 546.833536 173.106094 
L 547.992222 173.546762 
L 549.150908 173.984878 
L 550.309594 174.372755 
L 551.46828 174.761096 
L 552.626966 175.109638 
L 553.785652 175.461559 
L 554.944338 175.788604 
L 556.103024 176.123155 
L 557.26171 176.437554 
L 558.420396 176.760718 
L 559.579082 177.065625 
L 560.737768 177.376995 
L 561.896454 177.670745 
L 563.05514 177.966468 
L 564.213826 178.236038 
L 565.372512 178.499434 
L 566.531198 178.732794 
L 567.689884 178.952415 
L 568.84857 179.142776 
L 570.007256 179.319182 
L 571.165942 179.463567 
L 572.324628 179.587762 
L 573.483314 179.698896 
L 574.642 179.787138 
L 575.800686 179.866968 
L 576.959372 179.928612 
L 578.118058 179.985774 
L 579.276744 180.029925 
L 580.43543 180.076212 
L 581.594116 180.111927 
L 582.752802 180.150501 
L 583.911488 180.181311 
L 585.070174 180.213099 
L 586.22886 180.238112 
L 587.387546 180.263857 
L 588.546232 180.282719 
L 589.704918 180.299981 
L 590.863604 180.3096 
L 592.02229 180.316017 
L 592.02229 181.024773 
L 592.02229 181.024773 
L 590.863604 181.024773 
L 589.704918 181.024773 
L 588.546232 181.024773 
L 587.387546 181.024773 
L 586.22886 181.024773 
L 585.070174 181.024773 
L 583.911488 181.024773 
L 582.752802 181.024773 
L 581.594116 181.024773 
L 580.43543 181.024773 
L 579.276744 181.024773 
L 578.118058 181.024773 
L 576.959372 181.024773 
L 575.800686 181.024773 
L 574.642 181.024773 
L 573.483314 181.024773 
L 572.324628 181.024773 
L 571.165942 181.024773 
L 570.007256 181.024773 
L 568.84857 181.024773 
L 567.689884 181.024773 
L 566.531198 181.024773 
L 565.372512 181.024773 
L 564.213826 181.024773 
L 563.05514 181.024773 
L 561.896454 181.024773 
L 560.737768 181.024773 
L 559.579082 181.024773 
L 558.420396 181.024773 
L 557.26171 181.024773 
L 556.103024 181.024773 
L 554.944338 181.024773 
L 553.785652 181.024773 
L 552.626966 181.024773 
L 551.46828 181.024773 
L 550.309594 181.024773 
L 549.150908 181.024773 
L 547.992222 181.024773 
L 546.833536 181.024773 
L 545.67485 181.024773 
L 544.516164 181.024773 
L 543.357478 181.024773 
L 542.198792 181.024773 
L 541.040106 181.024773 
L 539.88142 181.024773 
L 538.722734 181.024773 
L 537.564049 181.024773 
L 536.405363 181.024773 
L 535.246677 181.024773 
L 534.087991 181.024773 
L 532.929305 181.024773 
L 531.770619 181.024773 
L 530.611933 181.024773 
L 529.453247 181.024773 
L 528.294561 181.024773 
L 527.135875 181.024773 
L 525.977189 181.024773 
L 524.818503 181.024773 
L 523.659817 181.024773 
L 522.501131 181.024773 
L 521.342445 181.024773 
L 520.183759 181.024773 
L 519.025073 181.024773 
L 517.866387 181.024773 
L 516.707701 181.024773 
L 515.549015 181.024773 
L 514.390329 181.024773 
L 513.231643 181.024773 
L 512.072957 181.024773 
L 510.914271 181.024773 
L 509.755585 181.024773 
L 508.596899 181.024773 
L 507.438213 181.024773 
L 506.279527 181.024773 
L 505.120841 181.024773 
L 503.962155 181.024773 
L 502.803469 181.024773 
L 501.644783 181.024773 
L 500.486097 181.024773 
L 499.327411 181.024773 
L 498.168725 181.024773 
L 497.010039 181.024773 
L 495.851353 181.024773 
L 494.692667 181.024773 
L 493.533981 181.024773 
L 492.375295 181.024773 
L 491.216609 181.024773 
L 490.057923 181.024773 
L 488.899237 181.024773 
L 487.740551 181.024773 
L 486.581865 181.024773 
L 485.423179 181.024773 
L 484.264493 181.024773 
L 483.105807 181.024773 
L 481.947121 181.024773 
L 480.788435 181.024773 
L 479.629749 181.024773 
L 478.471063 181.024773 
L 477.312377 181.024773 
L 476.153691 181.024773 
L 474.995005 181.024773 
L 473.836319 181.024773 
L 472.677633 181.024773 
L 471.518947 181.024773 
L 470.360261 181.024773 
L 469.201575 181.024773 
L 468.042889 181.024773 
L 466.884203 181.024773 
L 465.725517 181.024773 
L 464.566831 181.024773 
L 463.408145 181.024773 
L 462.249459 181.024773 
L 461.090773 181.024773 
L 459.932087 181.024773 
L 458.773401 181.024773 
L 457.614715 181.024773 
L 456.456029 181.024773 
L 455.297343 181.024773 
L 454.138657 181.024773 
L 452.979971 181.024773 
L 451.821285 181.024773 
L 450.662599 181.024773 
L 449.503913 181.024773 
L 448.345227 181.024773 
L 447.186541 181.024773 
L 446.027855 181.024773 
L 444.869169 181.024773 
L 443.710483 181.024773 
L 442.551797 181.024773 
L 441.393111 181.024773 
L 440.234425 181.024773 
L 439.075739 181.024773 
L 437.917053 181.024773 
L 436.758367 181.024773 
L 435.599681 181.024773 
L 434.440995 181.024773 
L 433.282309 181.024773 
L 432.123623 181.024773 
L 430.964937 181.024773 
L 429.806251 181.024773 
L 428.647565 181.024773 
L 427.488879 181.024773 
L 426.330193 181.024773 
L 425.171507 181.024773 
L 424.012821 181.024773 
L 422.854135 181.024773 
L 421.695449 181.024773 
L 420.536763 181.024773 
L 419.378077 181.024773 
L 418.219391 181.024773 
L 417.060705 181.024773 
L 415.902019 181.024773 
L 414.743333 181.024773 
L 413.584647 181.024773 
L 412.425961 181.024773 
L 411.267275 181.024773 
L 410.108589 181.024773 
L 408.949903 181.024773 
L 407.791217 181.024773 
L 406.632531 181.024773 
L 405.473845 181.024773 
L 404.315159 181.024773 
L 403.156473 181.024773 
L 401.997787 181.024773 
L 400.839101 181.024773 
L 399.680415 181.024773 
L 398.521729 181.024773 
L 397.363043 181.024773 
L 396.204357 181.024773 
L 395.045671 181.024773 
L 393.886986 181.024773 
L 392.7283 181.024773 
L 391.569614 181.024773 
L 390.410928 181.024773 
L 389.252242 181.024773 
L 388.093556 181.024773 
L 386.93487 181.024773 
L 385.776184 181.024773 
L 384.617498 181.024773 
L 383.458812 181.024773 
L 382.300126 181.024773 
L 381.14144 181.024773 
L 379.982754 181.024773 
L 378.824068 181.024773 
L 377.665382 181.024773 
L 376.506696 181.024773 
L 375.34801 181.024773 
L 374.189324 181.024773 
L 373.030638 181.024773 
L 371.871952 181.024773 
L 370.713266 181.024773 
L 369.55458 181.024773 
L 368.395894 181.024773 
L 367.237208 181.024773 
L 366.078522 181.024773 
L 364.919836 181.024773 
L 363.76115 181.024773 
L 362.602464 181.024773 
L 361.443778 181.024773 
z
" style="fill:none;"></path>
   </g>
   <g id="line2d_34">
    <path clip-path="url(#pc149164c60)" d="M 361.443778 175.023528 
L 363.76115 174.778517 
L 366.078522 174.113315 
L 368.395894 173.051573 
L 370.713266 171.65491 
L 373.030638 169.980393 
L 376.506696 167.018105 
L 378.824068 164.735708 
L 381.14144 162.152746 
L 383.458812 159.243105 
L 385.776184 155.843079 
L 388.093556 151.964848 
L 391.569614 145.391029 
L 395.045671 138.462733 
L 398.521729 131.430601 
L 401.997787 124.569403 
L 405.473845 117.097444 
L 407.791217 111.660687 
L 411.267275 102.127439 
L 414.743333 91.817142 
L 417.060705 84.953909 
L 418.219391 81.557662 
L 420.536763 75.441751 
L 422.854135 70.037821 
L 427.488879 60.668246 
L 428.647565 58.478839 
L 435.599681 43.970691 
L 437.917053 39.558721 
L 440.234425 36.043409 
L 442.551797 33.768851 
L 444.869169 32.770227 
L 447.186541 32.843535 
L 448.345227 33.269479 
L 449.503913 33.546933 
L 450.662599 34.091902 
L 451.821285 34.389714 
L 452.979971 34.865356 
L 454.138657 35.159724 
L 455.297343 35.282135 
L 456.456029 35.564053 
L 457.614715 35.576468 
L 458.773401 35.807433 
L 459.932087 35.891334 
L 462.249459 36.743499 
L 464.566831 38.605129 
L 466.884203 41.810484 
L 469.201575 46.357013 
L 471.518947 51.981982 
L 477.312377 67.542676 
L 479.629749 73.008101 
L 480.788435 75.690228 
L 490.057923 94.725319 
L 492.375295 100.11726 
L 495.851353 108.471312 
L 498.168725 113.927427 
L 500.486097 118.962004 
L 502.803469 123.431747 
L 506.279527 129.098007 
L 509.755585 134.322206 
L 513.231643 139.500249 
L 519.025073 148.596256 
L 522.501131 153.691817 
L 524.818503 156.777059 
L 527.135875 159.548377 
L 529.453247 161.9881 
L 531.770619 164.131537 
L 535.246677 166.831626 
L 537.564049 168.384164 
L 539.88142 169.770426 
L 542.198792 171.009522 
L 545.67485 172.641521 
L 549.150908 173.984878 
L 553.785652 175.461559 
L 563.05514 177.966468 
L 567.689884 178.952415 
L 571.165942 179.463567 
L 575.800686 179.866968 
L 582.752802 180.150501 
L 592.02229 180.316017 
L 592.02229 180.316017 
" style="fill:none;stroke:#2a2eec;stroke-linecap:round;stroke-width:1.677051;"></path>
   </g>
   <g id="patch_8">
    <path d="M 349.914852 188.4375 
L 349.914852 25.3575 
" style="fill:none;"></path>
   </g>
   <g id="patch_9">
    <path d="M 603.551216 188.4375 
L 603.551216 25.3575 
" style="fill:none;"></path>
   </g>
   <g id="patch_10">
    <path d="M 349.914852 188.4375 
L 603.551216 188.4375 
" style="fill:none;"></path>
   </g>
   <g id="patch_11">
    <path d="M 349.914852 25.3575 
L 603.551216 25.3575 
" style="fill:none;"></path>
   </g>
   <g id="text_18">
    <!-- sample sigma -->
    <defs>
     <path d="M 9.421875 54.6875 
L 18.40625 54.6875 
L 18.40625 0 
L 9.421875 0 
z
M 9.421875 75.984375 
L 18.40625 75.984375 
L 18.40625 64.59375 
L 9.421875 64.59375 
z
" id="DejaVuSans-105"></path>
     <path d="M 45.40625 27.984375 
Q 45.40625 37.75 41.375 43.109375 
Q 37.359375 48.484375 30.078125 48.484375 
Q 22.859375 48.484375 18.828125 43.109375 
Q 14.796875 37.75 14.796875 27.984375 
Q 14.796875 18.265625 18.828125 12.890625 
Q 22.859375 7.515625 30.078125 7.515625 
Q 37.359375 7.515625 41.375 12.890625 
Q 45.40625 18.265625 45.40625 27.984375 
z
M 54.390625 6.78125 
Q 54.390625 -7.171875 48.1875 -13.984375 
Q 42 -20.796875 29.203125 -20.796875 
Q 24.46875 -20.796875 20.265625 -20.09375 
Q 16.0625 -19.390625 12.109375 -17.921875 
L 12.109375 -9.1875 
Q 16.0625 -11.328125 19.921875 -12.34375 
Q 23.78125 -13.375 27.78125 -13.375 
Q 36.625 -13.375 41.015625 -8.765625 
Q 45.40625 -4.15625 45.40625 5.171875 
L 45.40625 9.625 
Q 42.625 4.78125 38.28125 2.390625 
Q 33.9375 0 27.875 0 
Q 17.828125 0 11.671875 7.65625 
Q 5.515625 15.328125 5.515625 27.984375 
Q 5.515625 40.671875 11.671875 48.328125 
Q 17.828125 56 27.875 56 
Q 33.9375 56 38.28125 53.609375 
Q 42.625 51.21875 45.40625 46.390625 
L 45.40625 54.6875 
L 54.390625 54.6875 
z
" id="DejaVuSans-103"></path>
    </defs>
    <g style="fill:#262626;" transform="translate(420.940534 19.3575)scale(0.16 -0.16)">
     <use xlink:href="#DejaVuSans-115"></use>
     <use x="52.099609" xlink:href="#DejaVuSans-97"></use>
     <use x="113.378906" xlink:href="#DejaVuSans-109"></use>
     <use x="210.791016" xlink:href="#DejaVuSans-112"></use>
     <use x="274.267578" xlink:href="#DejaVuSans-108"></use>
     <use x="302.050781" xlink:href="#DejaVuSans-101"></use>
     <use x="363.574219" xlink:href="#DejaVuSans-32"></use>
     <use x="395.361328" xlink:href="#DejaVuSans-115"></use>
     <use x="447.460938" xlink:href="#DejaVuSans-105"></use>
     <use x="475.244141" xlink:href="#DejaVuSans-103"></use>
     <use x="538.720703" xlink:href="#DejaVuSans-109"></use>
     <use x="636.132812" xlink:href="#DejaVuSans-97"></use>
    </g>
   </g>
  </g>
 </g>
 <defs>
  <clipPath id="pa69038294a">
   <rect height="163.08" width="253.636364" x="45.551216" y="25.3575"></rect>
  </clipPath>
  <clipPath id="pc149164c60">
   <rect height="163.08" width="253.636364" x="349.914852" y="25.3575"></rect>
  </clipPath>
 </defs>
</svg>