<?xml version="1.0" encoding="utf-8"?>
<svg height="296.39952pt" version="1.1" viewBox="0 0 440.39952 296.39952" width="440.39952pt" xmlns="http://www.w3.org/2000/svg" xmlns:xlink="http://www.w3.org/1999/xlink">
 <defs>
  <style type="text/css">
*{stroke-linecap:butt;stroke-linejoin:round;}
  </style>
 </defs>
 <g id="figure_1">
  <g id="patch_1">
   <path d="M 0 296.39952 
L 440.39952 296.39952 
L 440.39952 0 
L 0 0 
z
" style="fill:none;"></path>
  </g>
  <g id="axes_1">
   <g id="patch_2">
    <path d="M 7.2 269.150145 
L 433.19952 269.150145 
L 433.19952 25.3575 
L 7.2 25.3575 
z
" style="fill:#eeeeee;"></path>
   </g>
   <g id="matplotlib.axis_1">
    <g id="xtick_1">
     <g id="line2d_1">
      <path clip-path="url(#pb9d202993e)" d="M 72.961683 269.150145 
L 72.961683 25.3575 
" style="fill:none;stroke:#ffffff;stroke-linecap:round;stroke-width:0.8;"></path>
     </g>
     <g id="line2d_2">
      <defs>
       <path d="M 0 0 
L 0 3 
" id="mcf1106d983" style="stroke:#808080;"></path>
      </defs>
      <g>
       <use style="fill:#808080;stroke:#808080;" x="72.961683" xlink:href="#mcf1106d983" y="269.150145"></use>
      </g>
     </g>
     <g id="text_1">
      <!-- 1.4 -->
      <defs>
       <path d="M 12.40625 8.296875 
L 28.515625 8.296875 
L 28.515625 63.921875 
L 10.984375 60.40625 
L 10.984375 69.390625 
L 28.421875 72.90625 
L 38.28125 72.90625 
L 38.28125 8.296875 
L 54.390625 8.296875 
L 54.390625 0 
L 12.40625 0 
z
" id="DejaVuSans-49"></path>
       <path d="M 10.6875 12.40625 
L 21 12.40625 
L 21 0 
L 10.6875 0 
z
" id="DejaVuSans-46"></path>
       <path d="M 37.796875 64.3125 
L 12.890625 25.390625 
L 37.796875 25.390625 
z
M 35.203125 72.90625 
L 47.609375 72.90625 
L 47.609375 25.390625 
L 58.015625 25.390625 
L 58.015625 17.1875 
L 47.609375 17.1875 
L 47.609375 0 
L 37.796875 0 
L 37.796875 17.1875 
L 4.890625 17.1875 
L 4.890625 26.703125 
z
" id="DejaVuSans-52"></path>
      </defs>
      <g style="fill:#262626;" transform="translate(61.829495 286.287957)scale(0.14 -0.14)">
       <use xlink:href="#DejaVuSans-49"></use>
       <use x="63.623047" xlink:href="#DejaVuSans-46"></use>
       <use x="95.410156" xlink:href="#DejaVuSans-52"></use>
      </g>
     </g>
    </g>
    <g id="xtick_2">
     <g id="line2d_3">
      <path clip-path="url(#pb9d202993e)" d="M 147.015593 269.150145 
L 147.015593 25.3575 
" style="fill:none;stroke:#ffffff;stroke-linecap:round;stroke-width:0.8;"></path>
     </g>
     <g id="line2d_4">
      <g>
       <use style="fill:#808080;stroke:#808080;" x="147.015593" xlink:href="#mcf1106d983" y="269.150145"></use>
      </g>
     </g>
     <g id="text_2">
      <!-- 1.6 -->
      <defs>
       <path d="M 33.015625 40.375 
Q 26.375 40.375 22.484375 35.828125 
Q 18.609375 31.296875 18.609375 23.390625 
Q 18.609375 15.53125 22.484375 10.953125 
Q 26.375 6.390625 33.015625 6.390625 
Q 39.65625 6.390625 43.53125 10.953125 
Q 47.40625 15.53125 47.40625 23.390625 
Q 47.40625 31.296875 43.53125 35.828125 
Q 39.65625 40.375 33.015625 40.375 
z
M 52.59375 71.296875 
L 52.59375 62.3125 
Q 48.875 64.0625 45.09375 64.984375 
Q 41.3125 65.921875 37.59375 65.921875 
Q 27.828125 65.921875 22.671875 59.328125 
Q 17.53125 52.734375 16.796875 39.40625 
Q 19.671875 43.65625 24.015625 45.921875 
Q 28.375 48.1875 33.59375 48.1875 
Q 44.578125 48.1875 50.953125 41.515625 
Q 57.328125 34.859375 57.328125 23.390625 
Q 57.328125 12.15625 50.6875 5.359375 
Q 44.046875 -1.421875 33.015625 -1.421875 
Q 20.359375 -1.421875 13.671875 8.265625 
Q 6.984375 17.96875 6.984375 36.375 
Q 6.984375 53.65625 15.1875 63.9375 
Q 23.390625 74.21875 37.203125 74.21875 
Q 40.921875 74.21875 44.703125 73.484375 
Q 48.484375 72.75 52.59375 71.296875 
z
" id="DejaVuSans-54"></path>
      </defs>
      <g style="fill:#262626;" transform="translate(135.883406 286.287957)scale(0.14 -0.14)">
       <use xlink:href="#DejaVuSans-49"></use>
       <use x="63.623047" xlink:href="#DejaVuSans-46"></use>
       <use x="95.410156" xlink:href="#DejaVuSans-54"></use>
      </g>
     </g>
    </g>
    <g id="xtick_3">
     <g id="line2d_5">
      <path clip-path="url(#pb9d202993e)" d="M 221.069504 269.150145 
L 221.069504 25.3575 
" style="fill:none;stroke:#ffffff;stroke-linecap:round;stroke-width:0.8;"></path>
     </g>
     <g id="line2d_6">
      <g>
       <use style="fill:#808080;stroke:#808080;" x="221.069504" xlink:href="#mcf1106d983" y="269.150145"></use>
      </g>
     </g>
     <g id="text_3">
      <!-- 1.8 -->
      <defs>
       <path d="M 31.78125 34.625 
Q 24.75 34.625 20.71875 30.859375 
Q 16.703125 27.09375 16.703125 20.515625 
Q 16.703125 13.921875 20.71875 10.15625 
Q 24.75 6.390625 31.78125 6.390625 
Q 38.8125 6.390625 42.859375 10.171875 
Q 46.921875 13.96875 46.921875 20.515625 
Q 46.921875 27.09375 42.890625 30.859375 
Q 38.875 34.625 31.78125 34.625 
z
M 21.921875 38.8125 
Q 15.578125 40.375 12.03125 44.71875 
Q 8.5 49.078125 8.5 55.328125 
Q 8.5 64.0625 14.71875 69.140625 
Q 20.953125 74.21875 31.78125 74.21875 
Q 42.671875 74.21875 48.875 69.140625 
Q 55.078125 64.0625 55.078125 55.328125 
Q 55.078125 49.078125 51.53125 44.71875 
Q 48 40.375 41.703125 38.8125 
Q 48.828125 37.15625 52.796875 32.3125 
Q 56.78125 27.484375 56.78125 20.515625 
Q 56.78125 9.90625 50.3125 4.234375 
Q 43.84375 -1.421875 31.78125 -1.421875 
Q 19.734375 -1.421875 13.25 4.234375 
Q 6.78125 9.90625 6.78125 20.515625 
Q 6.78125 27.484375 10.78125 32.3125 
Q 14.796875 37.15625 21.921875 38.8125 
z
M 18.3125 54.390625 
Q 18.3125 48.734375 21.84375 45.5625 
Q 25.390625 42.390625 31.78125 42.390625 
Q 38.140625 42.390625 41.71875 45.5625 
Q 45.3125 48.734375 45.3125 54.390625 
Q 45.3125 60.0625 41.71875 63.234375 
Q 38.140625 66.40625 31.78125 66.40625 
Q 25.390625 66.40625 21.84375 63.234375 
Q 18.3125 60.0625 18.3125 54.390625 
z
" id="DejaVuSans-56"></path>
      </defs>
      <g style="fill:#262626;" transform="translate(209.937316 286.287957)scale(0.14 -0.14)">
       <use xlink:href="#DejaVuSans-49"></use>
       <use x="63.623047" xlink:href="#DejaVuSans-46"></use>
       <use x="95.410156" xlink:href="#DejaVuSans-56"></use>
      </g>
     </g>
    </g>
    <g id="xtick_4">
     <g id="line2d_7">
      <path clip-path="url(#pb9d202993e)" d="M 295.123414 269.150145 
L 295.123414 25.3575 
" style="fill:none;stroke:#ffffff;stroke-linecap:round;stroke-width:0.8;"></path>
     </g>
     <g id="line2d_8">
      <g>
       <use style="fill:#808080;stroke:#808080;" x="295.123414" xlink:href="#mcf1106d983" y="269.150145"></use>
      </g>
     </g>
     <g id="text_4">
      <!-- 2.0 -->
      <defs>
       <path d="M 19.1875 8.296875 
L 53.609375 8.296875 
L 53.609375 0 
L 7.328125 0 
L 7.328125 8.296875 
Q 12.9375 14.109375 22.625 23.890625 
Q 32.328125 33.6875 34.8125 36.53125 
Q 39.546875 41.84375 41.421875 45.53125 
Q 43.3125 49.21875 43.3125 52.78125 
Q 43.3125 58.59375 39.234375 62.25 
Q 35.15625 65.921875 28.609375 65.921875 
Q 23.96875 65.921875 18.8125 64.3125 
Q 13.671875 62.703125 7.8125 59.421875 
L 7.8125 69.390625 
Q 13.765625 71.78125 18.9375 73 
Q 24.125 74.21875 28.421875 74.21875 
Q 39.75 74.21875 46.484375 68.546875 
Q 53.21875 62.890625 53.21875 53.421875 
Q 53.21875 48.921875 51.53125 44.890625 
Q 49.859375 40.875 45.40625 35.40625 
Q 44.1875 33.984375 37.640625 27.21875 
Q 31.109375 20.453125 19.1875 8.296875 
z
" id="DejaVuSans-50"></path>
       <path d="M 31.78125 66.40625 
Q 24.171875 66.40625 20.328125 58.90625 
Q 16.5 51.421875 16.5 36.375 
Q 16.5 21.390625 20.328125 13.890625 
Q 24.171875 6.390625 31.78125 6.390625 
Q 39.453125 6.390625 43.28125 13.890625 
Q 47.125 21.390625 47.125 36.375 
Q 47.125 51.421875 43.28125 58.90625 
Q 39.453125 66.40625 31.78125 66.40625 
z
M 31.78125 74.21875 
Q 44.046875 74.21875 50.515625 64.515625 
Q 56.984375 54.828125 56.984375 36.375 
Q 56.984375 17.96875 50.515625 8.265625 
Q 44.046875 -1.421875 31.78125 -1.421875 
Q 19.53125 -1.421875 13.0625 8.265625 
Q 6.59375 17.96875 6.59375 36.375 
Q 6.59375 54.828125 13.0625 64.515625 
Q 19.53125 74.21875 31.78125 74.21875 
z
" id="DejaVuSans-48"></path>
      </defs>
      <g style="fill:#262626;" transform="translate(283.991227 286.287957)scale(0.14 -0.14)">
       <use xlink:href="#DejaVuSans-50"></use>
       <use x="63.623047" xlink:href="#DejaVuSans-46"></use>
       <use x="95.410156" xlink:href="#DejaVuSans-48"></use>
      </g>
     </g>
    </g>
    <g id="xtick_5">
     <g id="line2d_9">
      <path clip-path="url(#pb9d202993e)" d="M 369.177325 269.150145 
L 369.177325 25.3575 
" style="fill:none;stroke:#ffffff;stroke-linecap:round;stroke-width:0.8;"></path>
     </g>
     <g id="line2d_10">
      <g>
       <use style="fill:#808080;stroke:#808080;" x="369.177325" xlink:href="#mcf1106d983" y="269.150145"></use>
      </g>
     </g>
     <g id="text_5">
      <!-- 2.2 -->
      <g style="fill:#262626;" transform="translate(358.045137 286.287957)scale(0.14 -0.14)">
       <use xlink:href="#DejaVuSans-50"></use>
       <use x="63.623047" xlink:href="#DejaVuSans-46"></use>
       <use x="95.410156" xlink:href="#DejaVuSans-50"></use>
      </g>
     </g>
    </g>
   </g>
   <g id="matplotlib.axis_2"></g>
   <g id="PolyCollection_1">
    <defs>
     <path d="M 26.563615 -38.330859 
L 26.563615 -39.860057 
L 28.509706 -39.865714 
L 30.455798 -39.901228 
L 32.40189 -39.962114 
L 34.347982 -40.058054 
L 36.294074 -40.191948 
L 38.240166 -40.348722 
L 40.186258 -40.541464 
L 42.13235 -40.763625 
L 44.078442 -41.028526 
L 46.024534 -41.346489 
L 47.970626 -41.698948 
L 49.916718 -42.095814 
L 51.862809 -42.547208 
L 53.808901 -43.027119 
L 55.754993 -43.554479 
L 57.701085 -44.109013 
L 59.647177 -44.726658 
L 61.593269 -45.395644 
L 63.539361 -46.114273 
L 65.485453 -46.895247 
L 67.431545 -47.739054 
L 69.377637 -48.684279 
L 71.323729 -49.68589 
L 73.26982 -50.78655 
L 75.215912 -52.022618 
L 77.162004 -53.380986 
L 79.108096 -54.882365 
L 81.054188 -56.506243 
L 83.00028 -58.273944 
L 84.946372 -60.147546 
L 86.892464 -62.15815 
L 88.838556 -64.277792 
L 90.784648 -66.49885 
L 92.73074 -68.805268 
L 94.676832 -71.186764 
L 96.622923 -73.626956 
L 98.569015 -76.11799 
L 100.515107 -78.616357 
L 102.461199 -81.13237 
L 104.407291 -83.636302 
L 106.353383 -86.121813 
L 108.299475 -88.563284 
L 110.245567 -90.995368 
L 112.191659 -93.401766 
L 114.137751 -95.803192 
L 116.083843 -98.156566 
L 118.029935 -100.462632 
L 119.976026 -102.792347 
L 121.922118 -105.151067 
L 123.86821 -107.550293 
L 125.814302 -109.981225 
L 127.760394 -112.493706 
L 129.706486 -115.116713 
L 131.652578 -117.870623 
L 133.59867 -120.807943 
L 135.544762 -123.928031 
L 137.490854 -127.267353 
L 139.436946 -130.827126 
L 141.383037 -134.603562 
L 143.329129 -138.589188 
L 145.275221 -142.753992 
L 147.221313 -147.099007 
L 149.167405 -151.563528 
L 151.113497 -156.132021 
L 153.059589 -160.765968 
L 155.005681 -165.425313 
L 156.951773 -170.03473 
L 158.897865 -174.637641 
L 160.843957 -179.173753 
L 162.790049 -183.686919 
L 164.73614 -188.060872 
L 166.682232 -192.373577 
L 168.628324 -196.613513 
L 170.574416 -200.739017 
L 172.520508 -204.732565 
L 174.4666 -208.678059 
L 176.412692 -212.556364 
L 178.358784 -216.334452 
L 180.304876 -220.072401 
L 182.250968 -223.684868 
L 184.19706 -227.153599 
L 186.143152 -230.529456 
L 188.089243 -233.830203 
L 190.035335 -236.941199 
L 191.981427 -239.92728 
L 193.927519 -242.743637 
L 195.873611 -245.39966 
L 197.819703 -247.849964 
L 199.765795 -250.128777 
L 201.711887 -252.226506 
L 203.657979 -254.061404 
L 205.604071 -255.632261 
L 207.550163 -256.92981 
L 209.496254 -257.969663 
L 211.442346 -258.694771 
L 213.388438 -259.152735 
L 215.33453 -259.288717 
L 217.280622 -259.146446 
L 219.226714 -258.794988 
L 221.172806 -258.238141 
L 223.118898 -257.51435 
L 225.06499 -256.587808 
L 227.011082 -255.536706 
L 228.957174 -254.355507 
L 230.903266 -253.084901 
L 232.849357 -251.730077 
L 234.795449 -250.291183 
L 236.741541 -248.684273 
L 238.687633 -246.931267 
L 240.633725 -244.956438 
L 242.579817 -242.735661 
L 244.525909 -240.243738 
L 246.472001 -237.37924 
L 248.418093 -234.187585 
L 250.364185 -230.623018 
L 252.310277 -226.743835 
L 254.256368 -222.509953 
L 256.20246 -218.012049 
L 258.148552 -213.263303 
L 260.094644 -208.383083 
L 262.040736 -203.439643 
L 263.986828 -198.469459 
L 265.93292 -193.570583 
L 267.879012 -188.883346 
L 269.825104 -184.29554 
L 271.771196 -179.933919 
L 273.717288 -175.840421 
L 275.66338 -171.999422 
L 277.609471 -168.397899 
L 279.555563 -165.072701 
L 281.501655 -161.927525 
L 283.447747 -158.932461 
L 285.393839 -156.162155 
L 287.339931 -153.467717 
L 289.286023 -150.873353 
L 291.232115 -148.359045 
L 293.178207 -145.905279 
L 295.124299 -143.470736 
L 297.070391 -141.06071 
L 299.016483 -138.738659 
L 300.962574 -136.422117 
L 302.908666 -134.117844 
L 304.854758 -131.832063 
L 306.80085 -129.612246 
L 308.746942 -127.353154 
L 310.693034 -125.075099 
L 312.639126 -122.782441 
L 314.585218 -120.391368 
L 316.53131 -117.967102 
L 318.477402 -115.437741 
L 320.423494 -112.86586 
L 322.369585 -110.182574 
L 324.315677 -107.40003 
L 326.261769 -104.53133 
L 328.207861 -101.571476 
L 330.153953 -98.558417 
L 332.100045 -95.581717 
L 334.046137 -92.62049 
L 335.992229 -89.724323 
L 337.938321 -86.887806 
L 339.884413 -84.187363 
L 341.830505 -81.636626 
L 343.776597 -79.208657 
L 345.722688 -76.933002 
L 347.66878 -74.820249 
L 349.614872 -72.840279 
L 351.560964 -70.978005 
L 353.507056 -69.221672 
L 355.453148 -67.571577 
L 357.39924 -65.977144 
L 359.345332 -64.418835 
L 361.291424 -62.898416 
L 363.237516 -61.384996 
L 365.183608 -59.918685 
L 367.1297 -58.483404 
L 369.075791 -57.066472 
L 371.021883 -55.668356 
L 372.967975 -54.362735 
L 374.914067 -53.102386 
L 376.860159 -51.918837 
L 378.806251 -50.849897 
L 380.752343 -49.876583 
L 382.698435 -49.048614 
L 384.644527 -48.34796 
L 386.590619 -47.772161 
L 388.536711 -47.330522 
L 390.482802 -47.00726 
L 392.428894 -46.800794 
L 394.374986 -46.689453 
L 396.321078 -46.693052 
L 398.26717 -46.772053 
L 400.213262 -46.890248 
L 402.159354 -47.050972 
L 404.105446 -47.252139 
L 406.051538 -47.446068 
L 407.99763 -47.607002 
L 409.943722 -47.771583 
L 411.889814 -47.869955 
L 413.835905 -47.927936 
L 413.835905 -38.330859 
L 413.835905 -38.330859 
L 411.889814 -38.330859 
L 409.943722 -38.330859 
L 407.99763 -38.330859 
L 406.051538 -38.330859 
L 404.105446 -38.330859 
L 402.159354 -38.330859 
L 400.213262 -38.330859 
L 398.26717 -38.330859 
L 396.321078 -38.330859 
L 394.374986 -38.330859 
L 392.428894 -38.330859 
L 390.482802 -38.330859 
L 388.536711 -38.330859 
L 386.590619 -38.330859 
L 384.644527 -38.330859 
L 382.698435 -38.330859 
L 380.752343 -38.330859 
L 378.806251 -38.330859 
L 376.860159 -38.330859 
L 374.914067 -38.330859 
L 372.967975 -38.330859 
L 371.021883 -38.330859 
L 369.075791 -38.330859 
L 367.1297 -38.330859 
L 365.183608 -38.330859 
L 363.237516 -38.330859 
L 361.291424 -38.330859 
L 359.345332 -38.330859 
L 357.39924 -38.330859 
L 355.453148 -38.330859 
L 353.507056 -38.330859 
L 351.560964 -38.330859 
L 349.614872 -38.330859 
L 347.66878 -38.330859 
L 345.722688 -38.330859 
L 343.776597 -38.330859 
L 341.830505 -38.330859 
L 339.884413 -38.330859 
L 337.938321 -38.330859 
L 335.992229 -38.330859 
L 334.046137 -38.330859 
L 332.100045 -38.330859 
L 330.153953 -38.330859 
L 328.207861 -38.330859 
L 326.261769 -38.330859 
L 324.315677 -38.330859 
L 322.369585 -38.330859 
L 320.423494 -38.330859 
L 318.477402 -38.330859 
L 316.53131 -38.330859 
L 314.585218 -38.330859 
L 312.639126 -38.330859 
L 310.693034 -38.330859 
L 308.746942 -38.330859 
L 306.80085 -38.330859 
L 304.854758 -38.330859 
L 302.908666 -38.330859 
L 300.962574 -38.330859 
L 299.016483 -38.330859 
L 297.070391 -38.330859 
L 295.124299 -38.330859 
L 293.178207 -38.330859 
L 291.232115 -38.330859 
L 289.286023 -38.330859 
L 287.339931 -38.330859 
L 285.393839 -38.330859 
L 283.447747 -38.330859 
L 281.501655 -38.330859 
L 279.555563 -38.330859 
L 277.609471 -38.330859 
L 275.66338 -38.330859 
L 273.717288 -38.330859 
L 271.771196 -38.330859 
L 269.825104 -38.330859 
L 267.879012 -38.330859 
L 265.93292 -38.330859 
L 263.986828 -38.330859 
L 262.040736 -38.330859 
L 260.094644 -38.330859 
L 258.148552 -38.330859 
L 256.20246 -38.330859 
L 254.256368 -38.330859 
L 252.310277 -38.330859 
L 250.364185 -38.330859 
L 248.418093 -38.330859 
L 246.472001 -38.330859 
L 244.525909 -38.330859 
L 242.579817 -38.330859 
L 240.633725 -38.330859 
L 238.687633 -38.330859 
L 236.741541 -38.330859 
L 234.795449 -38.330859 
L 232.849357 -38.330859 
L 230.903266 -38.330859 
L 228.957174 -38.330859 
L 227.011082 -38.330859 
L 225.06499 -38.330859 
L 223.118898 -38.330859 
L 221.172806 -38.330859 
L 219.226714 -38.330859 
L 217.280622 -38.330859 
L 215.33453 -38.330859 
L 213.388438 -38.330859 
L 211.442346 -38.330859 
L 209.496254 -38.330859 
L 207.550163 -38.330859 
L 205.604071 -38.330859 
L 203.657979 -38.330859 
L 201.711887 -38.330859 
L 199.765795 -38.330859 
L 197.819703 -38.330859 
L 195.873611 -38.330859 
L 193.927519 -38.330859 
L 191.981427 -38.330859 
L 190.035335 -38.330859 
L 188.089243 -38.330859 
L 186.143152 -38.330859 
L 184.19706 -38.330859 
L 182.250968 -38.330859 
L 180.304876 -38.330859 
L 178.358784 -38.330859 
L 176.412692 -38.330859 
L 174.4666 -38.330859 
L 172.520508 -38.330859 
L 170.574416 -38.330859 
L 168.628324 -38.330859 
L 166.682232 -38.330859 
L 164.73614 -38.330859 
L 162.790049 -38.330859 
L 160.843957 -38.330859 
L 158.897865 -38.330859 
L 156.951773 -38.330859 
L 155.005681 -38.330859 
L 153.059589 -38.330859 
L 151.113497 -38.330859 
L 149.167405 -38.330859 
L 147.221313 -38.330859 
L 145.275221 -38.330859 
L 143.329129 -38.330859 
L 141.383037 -38.330859 
L 139.436946 -38.330859 
L 137.490854 -38.330859 
L 135.544762 -38.330859 
L 133.59867 -38.330859 
L 131.652578 -38.330859 
L 129.706486 -38.330859 
L 127.760394 -38.330859 
L 125.814302 -38.330859 
L 123.86821 -38.330859 
L 121.922118 -38.330859 
L 119.976026 -38.330859 
L 118.029935 -38.330859 
L 116.083843 -38.330859 
L 114.137751 -38.330859 
L 112.191659 -38.330859 
L 110.245567 -38.330859 
L 108.299475 -38.330859 
L 106.353383 -38.330859 
L 104.407291 -38.330859 
L 102.461199 -38.330859 
L 100.515107 -38.330859 
L 98.569015 -38.330859 
L 96.622923 -38.330859 
L 94.676832 -38.330859 
L 92.73074 -38.330859 
L 90.784648 -38.330859 
L 88.838556 -38.330859 
L 86.892464 -38.330859 
L 84.946372 -38.330859 
L 83.00028 -38.330859 
L 81.054188 -38.330859 
L 79.108096 -38.330859 
L 77.162004 -38.330859 
L 75.215912 -38.330859 
L 73.26982 -38.330859 
L 71.323729 -38.330859 
L 69.377637 -38.330859 
L 67.431545 -38.330859 
L 65.485453 -38.330859 
L 63.539361 -38.330859 
L 61.593269 -38.330859 
L 59.647177 -38.330859 
L 57.701085 -38.330859 
L 55.754993 -38.330859 
L 53.808901 -38.330859 
L 51.862809 -38.330859 
L 49.916718 -38.330859 
L 47.970626 -38.330859 
L 46.024534 -38.330859 
L 44.078442 -38.330859 
L 42.13235 -38.330859 
L 40.186258 -38.330859 
L 38.240166 -38.330859 
L 36.294074 -38.330859 
L 34.347982 -38.330859 
L 32.40189 -38.330859 
L 30.455798 -38.330859 
L 28.509706 -38.330859 
L 26.563615 -38.330859 
z
" id="m7abe0730fa" style="stroke:#2a2eec;stroke-opacity:0;"></path>
    </defs>
    <g clip-path="url(#pb9d202993e)">
     <use style="fill:#2a2eec;fill-opacity:0;stroke:#2a2eec;stroke-opacity:0;" x="0" xlink:href="#m7abe0730fa" y="296.39952"></use>
    </g>
   </g>
   <g id="line2d_11">
    <path clip-path="url(#pb9d202993e)" d="M 26.563615 256.539463 
L 32.40189 256.437406 
L 38.240166 256.050798 
L 44.078442 255.370994 
L 47.970626 254.700572 
L 51.862809 253.852312 
L 55.754993 252.845041 
L 59.647177 251.672862 
L 63.539361 250.285247 
L 67.431545 248.660466 
L 71.323729 246.71363 
L 73.26982 245.61297 
L 77.162004 243.018534 
L 81.054188 239.893277 
L 84.946372 236.251974 
L 88.838556 232.121728 
L 92.73074 227.594252 
L 98.569015 220.28153 
L 110.245567 205.404152 
L 118.029935 195.936888 
L 123.86821 188.849227 
L 127.760394 183.905814 
L 131.652578 178.528897 
L 135.544762 172.471489 
L 139.436946 165.572394 
L 143.329129 157.810332 
L 147.221313 149.300513 
L 153.059589 135.633552 
L 160.843957 117.225767 
L 164.73614 108.338648 
L 170.574416 95.660503 
L 176.412692 83.843156 
L 182.250968 72.714652 
L 186.143152 65.870064 
L 190.035335 59.458321 
L 193.927519 53.655883 
L 195.873611 50.99986 
L 199.765795 46.270743 
L 201.711887 44.173014 
L 203.657979 42.338116 
L 205.604071 40.767259 
L 207.550163 39.46971 
L 209.496254 38.429857 
L 211.442346 37.704749 
L 213.388438 37.246785 
L 215.33453 37.110803 
L 217.280622 37.253074 
L 219.226714 37.604532 
L 221.172806 38.161379 
L 223.118898 38.88517 
L 225.06499 39.811712 
L 227.011082 40.862814 
L 230.903266 43.314619 
L 234.795449 46.108337 
L 236.741541 47.715247 
L 238.687633 49.468253 
L 240.633725 51.443082 
L 242.579817 53.663859 
L 244.525909 56.155782 
L 246.472001 59.02028 
L 248.418093 62.211935 
L 250.364185 65.776502 
L 252.310277 69.655685 
L 256.20246 78.387471 
L 260.094644 88.016437 
L 267.879012 107.516174 
L 271.771196 116.465601 
L 275.66338 124.400098 
L 277.609471 128.001621 
L 281.501655 134.471995 
L 283.447747 137.467059 
L 287.339931 142.931803 
L 291.232115 148.040475 
L 297.070391 155.33881 
L 306.80085 166.787274 
L 312.639126 173.617079 
L 318.477402 180.961779 
L 322.369585 186.216946 
L 326.261769 191.86819 
L 337.938321 209.511714 
L 341.830505 214.762894 
L 345.722688 219.466518 
L 349.614872 223.559241 
L 353.507056 227.177848 
L 357.39924 230.422376 
L 363.237516 235.014524 
L 369.075791 239.333048 
L 372.967975 242.036785 
L 376.860159 244.480683 
L 380.752343 246.522937 
L 382.698435 247.350906 
L 384.644527 248.05156 
L 386.590619 248.627359 
L 388.536711 249.068998 
L 390.482802 249.39226 
L 394.374986 249.710067 
L 398.26717 249.627467 
L 402.159354 249.348548 
L 409.943722 248.627937 
L 413.835905 248.471584 
L 413.835905 248.471584 
" style="fill:none;stroke:#2a2eec;stroke-linecap:round;stroke-width:1.5;"></path>
   </g>
   <g id="line2d_12">
    <path clip-path="url(#pb9d202993e)" d="M 26.563615 256.37333 
L 56.227745 251.438537 
L 60.909011 250.012557 
L 64.938557 248.584141 
L 69.637347 246.655161 
L 73.615249 244.776831 
L 80.085448 241.184489 
L 83.886527 238.732804 
L 85.796402 237.398261 
L 93.66609 231.119717 
L 96.354366 228.67004 
L 100.369478 224.704636 
L 104.493262 220.235971 
L 109.021099 214.85256 
L 112.324416 210.603782 
L 116.535772 204.790374 
L 117.561002 203.307848 
L 123.542135 194.139606 
L 127.908421 186.90054 
L 131.347423 180.889613 
L 136.810578 170.819911 
L 141.865662 160.99306 
L 148.172898 148.170039 
L 155.257431 133.24827 
L 171.984739 97.786502 
L 177.31777 87.057412 
L 182.170342 77.806391 
L 186.295626 70.433404 
L 189.969672 64.319278 
L 193.356589 59.111399 
L 196.682683 54.438664 
L 199.709024 50.598575 
L 202.44837 47.482797 
L 204.884786 45.013531 
L 207.274193 42.878903 
L 209.698912 41.012656 
L 211.834738 39.625578 
L 213.973785 38.482497 
L 216.129739 37.583592 
L 218.103925 36.986141 
L 220.076743 36.606438 
L 222.012484 36.446146 
L 223.9695 36.498305 
L 225.942804 36.768818 
L 227.975872 37.275537 
L 229.822628 37.935071 
L 231.96993 38.938135 
L 234.245501 40.27447 
L 236.497634 41.86899 
L 238.538427 43.542456 
L 241.190642 46.033165 
L 243.927648 48.964986 
L 246.619765 52.191412 
L 249.627788 56.1774 
L 252.656248 60.571246 
L 256.020566 65.865704 
L 259.570138 71.878692 
L 263.445548 78.884617 
L 268.143852 87.89776 
L 273.469821 98.651795 
L 280.291503 112.973205 
L 298.80077 152.16988 
L 305.254858 165.103073 
L 310.602897 175.28037 
L 315.029389 183.267653 
L 319.483337 190.865035 
L 323.630691 197.518734 
L 327.640153 203.550981 
L 331.785035 209.365304 
L 334.732499 213.237727 
L 339.439984 218.97333 
L 344.77019 224.813539 
L 347.518673 227.561464 
L 351.706547 231.416708 
L 354.700976 233.936786 
L 358.638314 236.964657 
L 362.730317 239.785948 
L 367.508337 242.689522 
L 371.361368 244.747845 
L 377.075059 247.378536 
L 385.684041 250.513884 
L 394.445569 252.863897 
L 402.994786 254.517712 
L 412.151981 255.759035 
L 413.835905 255.939617 
L 413.835905 255.939617 
" style="fill:none;stroke:#2a2eec;stroke-dasharray:5.55,2.4;stroke-dashoffset:0;stroke-width:1.5;"></path>
   </g>
   <g id="patch_3">
    <path d="M 7.2 269.150145 
L 433.19952 269.150145 
" style="fill:none;"></path>
   </g>
   <g id="text_6">
    <!-- growth -->
    <defs>
     <path d="M 45.40625 27.984375 
Q 45.40625 37.75 41.375 43.109375 
Q 37.359375 48.484375 30.078125 48.484375 
Q 22.859375 48.484375 18.828125 43.109375 
Q 14.796875 37.75 14.796875 27.984375 
Q 14.796875 18.265625 18.828125 12.890625 
Q 22.859375 7.515625 30.078125 7.515625 
Q 37.359375 7.515625 41.375 12.890625 
Q 45.40625 18.265625 45.40625 27.984375 
z
M 54.390625 6.78125 
Q 54.390625 -7.171875 48.1875 -13.984375 
Q 42 -20.796875 29.203125 -20.796875 
Q 24.46875 -20.796875 20.265625 -20.09375 
Q 16.0625 -19.390625 12.109375 -17.921875 
L 12.109375 -9.1875 
Q 16.0625 -11.328125 19.921875 -12.34375 
Q 23.78125 -13.375 27.78125 -13.375 
Q 36.625 -13.375 41.015625 -8.765625 
Q 45.40625 -4.15625 45.40625 5.171875 
L 45.40625 9.625 
Q 42.625 4.78125 38.28125 2.390625 
Q 33.9375 0 27.875 0 
Q 17.828125 0 11.671875 7.65625 
Q 5.515625 15.328125 5.515625 27.984375 
Q 5.515625 40.671875 11.671875 48.328125 
Q 17.828125 56 27.875 56 
Q 33.9375 56 38.28125 53.609375 
Q 42.625 51.21875 45.40625 46.390625 
L 45.40625 54.6875 
L 54.390625 54.6875 
z
" id="DejaVuSans-103"></path>
     <path d="M 41.109375 46.296875 
Q 39.59375 47.171875 37.8125 47.578125 
Q 36.03125 48 33.890625 48 
Q 26.265625 48 22.1875 43.046875 
Q 18.109375 38.09375 18.109375 28.8125 
L 18.109375 0 
L 9.078125 0 
L 9.078125 54.6875 
L 18.109375 54.6875 
L 18.109375 46.1875 
Q 20.953125 51.171875 25.484375 53.578125 
Q 30.03125 56 36.53125 56 
Q 37.453125 56 38.578125 55.875 
Q 39.703125 55.765625 41.0625 55.515625 
z
" id="DejaVuSans-114"></path>
     <path d="M 30.609375 48.390625 
Q 23.390625 48.390625 19.1875 42.75 
Q 14.984375 37.109375 14.984375 27.296875 
Q 14.984375 17.484375 19.15625 11.84375 
Q 23.34375 6.203125 30.609375 6.203125 
Q 37.796875 6.203125 41.984375 11.859375 
Q 46.1875 17.53125 46.1875 27.296875 
Q 46.1875 37.015625 41.984375 42.703125 
Q 37.796875 48.390625 30.609375 48.390625 
z
M 30.609375 56 
Q 42.328125 56 49.015625 48.375 
Q 55.71875 40.765625 55.71875 27.296875 
Q 55.71875 13.875 49.015625 6.21875 
Q 42.328125 -1.421875 30.609375 -1.421875 
Q 18.84375 -1.421875 12.171875 6.21875 
Q 5.515625 13.875 5.515625 27.296875 
Q 5.515625 40.765625 12.171875 48.375 
Q 18.84375 56 30.609375 56 
z
" id="DejaVuSans-111"></path>
     <path d="M 4.203125 54.6875 
L 13.1875 54.6875 
L 24.421875 12.015625 
L 35.59375 54.6875 
L 46.1875 54.6875 
L 57.421875 12.015625 
L 68.609375 54.6875 
L 77.59375 54.6875 
L 63.28125 0 
L 52.6875 0 
L 40.921875 44.828125 
L 29.109375 0 
L 18.5 0 
z
" id="DejaVuSans-119"></path>
     <path d="M 18.3125 70.21875 
L 18.3125 54.6875 
L 36.8125 54.6875 
L 36.8125 47.703125 
L 18.3125 47.703125 
L 18.3125 18.015625 
Q 18.3125 11.328125 20.140625 9.421875 
Q 21.96875 7.515625 27.59375 7.515625 
L 36.8125 7.515625 
L 36.8125 0 
L 27.59375 0 
Q 17.1875 0 13.234375 3.875 
Q 9.28125 7.765625 9.28125 18.015625 
L 9.28125 47.703125 
L 2.6875 47.703125 
L 2.6875 54.6875 
L 9.28125 54.6875 
L 9.28125 70.21875 
z
" id="DejaVuSans-116"></path>
     <path d="M 54.890625 33.015625 
L 54.890625 0 
L 45.90625 0 
L 45.90625 32.71875 
Q 45.90625 40.484375 42.875 44.328125 
Q 39.84375 48.1875 33.796875 48.1875 
Q 26.515625 48.1875 22.3125 43.546875 
Q 18.109375 38.921875 18.109375 30.90625 
L 18.109375 0 
L 9.078125 0 
L 9.078125 75.984375 
L 18.109375 75.984375 
L 18.109375 46.1875 
Q 21.34375 51.125 25.703125 53.5625 
Q 30.078125 56 35.796875 56 
Q 45.21875 56 50.046875 50.171875 
Q 54.890625 44.34375 54.890625 33.015625 
z
" id="DejaVuSans-104"></path>
    </defs>
    <g style="fill:#262626;" transform="translate(192.36851 19.3575)scale(0.16 -0.16)">
     <use xlink:href="#DejaVuSans-103"></use>
     <use x="63.476562" xlink:href="#DejaVuSans-114"></use>
     <use x="102.339844" xlink:href="#DejaVuSans-111"></use>
     <use x="163.521484" xlink:href="#DejaVuSans-119"></use>
     <use x="245.308594" xlink:href="#DejaVuSans-116"></use>
     <use x="284.517578" xlink:href="#DejaVuSans-104"></use>
    </g>
   </g>
  </g>
 </g>
 <defs>
  <clipPath id="pb9d202993e">
   <rect height="243.792645" width="425.99952" x="7.2" y="25.3575"></rect>
  </clipPath>
 </defs>
</svg>