<?xml version="1.0" encoding="utf-8"?>
<svg height="248.889375pt" version="1.1" viewBox="0 0 401.686875 248.889375" width="401.686875pt" xmlns="http://www.w3.org/2000/svg" xmlns:xlink="http://www.w3.org/1999/xlink">
 <defs>
  <style type="text/css">
*{stroke-linecap:butt;stroke-linejoin:round;}
  </style>
 </defs>
 <g id="figure_1">
  <g id="patch_1">
   <path d="M 0 248.889375 
L 401.686875 248.889375 
L 401.686875 0 
L 0 0 
z
" style="fill:none;"></path>
  </g>
  <g id="axes_1">
   <g id="patch_2">
    <path d="M 59.686875 224.64 
L 394.486875 224.64 
L 394.486875 7.2 
L 59.686875 7.2 
z
" style="fill:#eeeeee;"></path>
   </g>
   <g id="matplotlib.axis_1">
    <g id="xtick_1">
     <g id="line2d_1">
      <path clip-path="url(#p5c496c71c5)" d="M 147.582879 224.64 
L 147.582879 7.2 
" style="fill:none;stroke:#ffffff;stroke-linecap:round;stroke-width:0.8;"></path>
     </g>
     <g id="line2d_2"></g>
     <g id="text_1">
      <!-- 100 -->
      <defs>
       <path d="M 12.40625 8.296875 
L 28.515625 8.296875 
L 28.515625 63.921875 
L 10.984375 60.40625 
L 10.984375 69.390625 
L 28.421875 72.90625 
L 38.28125 72.90625 
L 38.28125 8.296875 
L 54.390625 8.296875 
L 54.390625 0 
L 12.40625 0 
z
" id="DejaVuSans-49"></path>
       <path d="M 31.78125 66.40625 
Q 24.171875 66.40625 20.328125 58.90625 
Q 16.5 51.421875 16.5 36.375 
Q 16.5 21.390625 20.328125 13.890625 
Q 24.171875 6.390625 31.78125 6.390625 
Q 39.453125 6.390625 43.28125 13.890625 
Q 47.125 21.390625 47.125 36.375 
Q 47.125 51.421875 43.28125 58.90625 
Q 39.453125 66.40625 31.78125 66.40625 
z
M 31.78125 74.21875 
Q 44.046875 74.21875 50.515625 64.515625 
Q 56.984375 54.828125 56.984375 36.375 
Q 56.984375 17.96875 50.515625 8.265625 
Q 44.046875 -1.421875 31.78125 -1.421875 
Q 19.53125 -1.421875 13.0625 8.265625 
Q 6.59375 17.96875 6.59375 36.375 
Q 6.59375 54.828125 13.0625 64.515625 
Q 19.53125 74.21875 31.78125 74.21875 
z
" id="DejaVuSans-48"></path>
      </defs>
      <g style="fill:#262626;" transform="translate(134.221629 238.777812)scale(0.14 -0.14)">
       <use xlink:href="#DejaVuSans-49"></use>
       <use x="63.623047" xlink:href="#DejaVuSans-48"></use>
       <use x="127.246094" xlink:href="#DejaVuSans-48"></use>
      </g>
     </g>
    </g>
    <g id="xtick_2">
     <g id="line2d_3">
      <path clip-path="url(#p5c496c71c5)" d="M 242.71427 224.64 
L 242.71427 7.2 
" style="fill:none;stroke:#ffffff;stroke-linecap:round;stroke-width:0.8;"></path>
     </g>
     <g id="line2d_4"></g>
     <g id="text_2">
      <!-- 200 -->
      <defs>
       <path d="M 19.1875 8.296875 
L 53.609375 8.296875 
L 53.609375 0 
L 7.328125 0 
L 7.328125 8.296875 
Q 12.9375 14.109375 22.625 23.890625 
Q 32.328125 33.6875 34.8125 36.53125 
Q 39.546875 41.84375 41.421875 45.53125 
Q 43.3125 49.21875 43.3125 52.78125 
Q 43.3125 58.59375 39.234375 62.25 
Q 35.15625 65.921875 28.609375 65.921875 
Q 23.96875 65.921875 18.8125 64.3125 
Q 13.671875 62.703125 7.8125 59.421875 
L 7.8125 69.390625 
Q 13.765625 71.78125 18.9375 73 
Q 24.125 74.21875 28.421875 74.21875 
Q 39.75 74.21875 46.484375 68.546875 
Q 53.21875 62.890625 53.21875 53.421875 
Q 53.21875 48.921875 51.53125 44.890625 
Q 49.859375 40.875 45.40625 35.40625 
Q 44.1875 33.984375 37.640625 27.21875 
Q 31.109375 20.453125 19.1875 8.296875 
z
" id="DejaVuSans-50"></path>
      </defs>
      <g style="fill:#262626;" transform="translate(229.35302 238.777812)scale(0.14 -0.14)">
       <use xlink:href="#DejaVuSans-50"></use>
       <use x="63.623047" xlink:href="#DejaVuSans-48"></use>
       <use x="127.246094" xlink:href="#DejaVuSans-48"></use>
      </g>
     </g>
    </g>
    <g id="xtick_3">
     <g id="line2d_5">
      <path clip-path="url(#p5c496c71c5)" d="M 337.845661 224.64 
L 337.845661 7.2 
" style="fill:none;stroke:#ffffff;stroke-linecap:round;stroke-width:0.8;"></path>
     </g>
     <g id="line2d_6"></g>
     <g id="text_3">
      <!-- 300 -->
      <defs>
       <path d="M 40.578125 39.3125 
Q 47.65625 37.796875 51.625 33 
Q 55.609375 28.21875 55.609375 21.1875 
Q 55.609375 10.40625 48.1875 4.484375 
Q 40.765625 -1.421875 27.09375 -1.421875 
Q 22.515625 -1.421875 17.65625 -0.515625 
Q 12.796875 0.390625 7.625 2.203125 
L 7.625 11.71875 
Q 11.71875 9.328125 16.59375 8.109375 
Q 21.484375 6.890625 26.8125 6.890625 
Q 36.078125 6.890625 40.9375 10.546875 
Q 45.796875 14.203125 45.796875 21.1875 
Q 45.796875 27.640625 41.28125 31.265625 
Q 36.765625 34.90625 28.71875 34.90625 
L 20.21875 34.90625 
L 20.21875 43.015625 
L 29.109375 43.015625 
Q 36.375 43.015625 40.234375 45.921875 
Q 44.09375 48.828125 44.09375 54.296875 
Q 44.09375 59.90625 40.109375 62.90625 
Q 36.140625 65.921875 28.71875 65.921875 
Q 24.65625 65.921875 20.015625 65.03125 
Q 15.375 64.15625 9.8125 62.3125 
L 9.8125 71.09375 
Q 15.4375 72.65625 20.34375 73.4375 
Q 25.25 74.21875 29.59375 74.21875 
Q 40.828125 74.21875 47.359375 69.109375 
Q 53.90625 64.015625 53.90625 55.328125 
Q 53.90625 49.265625 50.4375 45.09375 
Q 46.96875 40.921875 40.578125 39.3125 
z
" id="DejaVuSans-51"></path>
      </defs>
      <g style="fill:#262626;" transform="translate(324.484411 238.777812)scale(0.14 -0.14)">
       <use xlink:href="#DejaVuSans-51"></use>
       <use x="63.623047" xlink:href="#DejaVuSans-48"></use>
       <use x="127.246094" xlink:href="#DejaVuSans-48"></use>
      </g>
     </g>
    </g>
   </g>
   <g id="matplotlib.axis_2">
    <g id="ytick_1">
     <g id="line2d_7">
      <path clip-path="url(#p5c496c71c5)" d="M 59.686875 214.756364 
L 394.486875 214.756364 
" style="fill:none;stroke:#ffffff;stroke-linecap:round;stroke-width:0.8;"></path>
     </g>
     <g id="line2d_8"></g>
     <g id="text_4">
      <!-- 0.0000 -->
      <defs>
       <path d="M 10.6875 12.40625 
L 21 12.40625 
L 21 0 
L 10.6875 0 
z
" id="DejaVuSans-46"></path>
      </defs>
      <g style="fill:#262626;" transform="translate(7.2 220.07527)scale(0.14 -0.14)">
       <use xlink:href="#DejaVuSans-48"></use>
       <use x="63.623047" xlink:href="#DejaVuSans-46"></use>
       <use x="95.410156" xlink:href="#DejaVuSans-48"></use>
       <use x="159.033203" xlink:href="#DejaVuSans-48"></use>
       <use x="222.65625" xlink:href="#DejaVuSans-48"></use>
       <use x="286.279297" xlink:href="#DejaVuSans-48"></use>
      </g>
     </g>
    </g>
    <g id="ytick_2">
     <g id="line2d_9">
      <path clip-path="url(#p5c496c71c5)" d="M 59.686875 178.257406 
L 394.486875 178.257406 
" style="fill:none;stroke:#ffffff;stroke-linecap:round;stroke-width:0.8;"></path>
     </g>
     <g id="line2d_10"></g>
     <g id="text_5">
      <!-- 0.0025 -->
      <defs>
       <path d="M 10.796875 72.90625 
L 49.515625 72.90625 
L 49.515625 64.59375 
L 19.828125 64.59375 
L 19.828125 46.734375 
Q 21.96875 47.46875 24.109375 47.828125 
Q 26.265625 48.1875 28.421875 48.1875 
Q 40.625 48.1875 47.75 41.5 
Q 54.890625 34.8125 54.890625 23.390625 
Q 54.890625 11.625 47.5625 5.09375 
Q 40.234375 -1.421875 26.90625 -1.421875 
Q 22.3125 -1.421875 17.546875 -0.640625 
Q 12.796875 0.140625 7.71875 1.703125 
L 7.71875 11.625 
Q 12.109375 9.234375 16.796875 8.0625 
Q 21.484375 6.890625 26.703125 6.890625 
Q 35.15625 6.890625 40.078125 11.328125 
Q 45.015625 15.765625 45.015625 23.390625 
Q 45.015625 31 40.078125 35.4375 
Q 35.15625 39.890625 26.703125 39.890625 
Q 22.75 39.890625 18.8125 39.015625 
Q 14.890625 38.140625 10.796875 36.28125 
z
" id="DejaVuSans-53"></path>
      </defs>
      <g style="fill:#262626;" transform="translate(7.2 183.576313)scale(0.14 -0.14)">
       <use xlink:href="#DejaVuSans-48"></use>
       <use x="63.623047" xlink:href="#DejaVuSans-46"></use>
       <use x="95.410156" xlink:href="#DejaVuSans-48"></use>
       <use x="159.033203" xlink:href="#DejaVuSans-48"></use>
       <use x="222.65625" xlink:href="#DejaVuSans-50"></use>
       <use x="286.279297" xlink:href="#DejaVuSans-53"></use>
      </g>
     </g>
    </g>
    <g id="ytick_3">
     <g id="line2d_11">
      <path clip-path="url(#p5c496c71c5)" d="M 59.686875 141.758449 
L 394.486875 141.758449 
" style="fill:none;stroke:#ffffff;stroke-linecap:round;stroke-width:0.8;"></path>
     </g>
     <g id="line2d_12"></g>
     <g id="text_6">
      <!-- 0.0050 -->
      <g style="fill:#262626;" transform="translate(7.2 147.077355)scale(0.14 -0.14)">
       <use xlink:href="#DejaVuSans-48"></use>
       <use x="63.623047" xlink:href="#DejaVuSans-46"></use>
       <use x="95.410156" xlink:href="#DejaVuSans-48"></use>
       <use x="159.033203" xlink:href="#DejaVuSans-48"></use>
       <use x="222.65625" xlink:href="#DejaVuSans-53"></use>
       <use x="286.279297" xlink:href="#DejaVuSans-48"></use>
      </g>
     </g>
    </g>
    <g id="ytick_4">
     <g id="line2d_13">
      <path clip-path="url(#p5c496c71c5)" d="M 59.686875 105.259491 
L 394.486875 105.259491 
" style="fill:none;stroke:#ffffff;stroke-linecap:round;stroke-width:0.8;"></path>
     </g>
     <g id="line2d_14"></g>
     <g id="text_7">
      <!-- 0.0075 -->
      <defs>
       <path d="M 8.203125 72.90625 
L 55.078125 72.90625 
L 55.078125 68.703125 
L 28.609375 0 
L 18.3125 0 
L 43.21875 64.59375 
L 8.203125 64.59375 
z
" id="DejaVuSans-55"></path>
      </defs>
      <g style="fill:#262626;" transform="translate(7.2 110.578398)scale(0.14 -0.14)">
       <use xlink:href="#DejaVuSans-48"></use>
       <use x="63.623047" xlink:href="#DejaVuSans-46"></use>
       <use x="95.410156" xlink:href="#DejaVuSans-48"></use>
       <use x="159.033203" xlink:href="#DejaVuSans-48"></use>
       <use x="222.65625" xlink:href="#DejaVuSans-55"></use>
       <use x="286.279297" xlink:href="#DejaVuSans-53"></use>
      </g>
     </g>
    </g>
    <g id="ytick_5">
     <g id="line2d_15">
      <path clip-path="url(#p5c496c71c5)" d="M 59.686875 68.760534 
L 394.486875 68.760534 
" style="fill:none;stroke:#ffffff;stroke-linecap:round;stroke-width:0.8;"></path>
     </g>
     <g id="line2d_16"></g>
     <g id="text_8">
      <!-- 0.0100 -->
      <g style="fill:#262626;" transform="translate(7.2 74.07944)scale(0.14 -0.14)">
       <use xlink:href="#DejaVuSans-48"></use>
       <use x="63.623047" xlink:href="#DejaVuSans-46"></use>
       <use x="95.410156" xlink:href="#DejaVuSans-48"></use>
       <use x="159.033203" xlink:href="#DejaVuSans-49"></use>
       <use x="222.65625" xlink:href="#DejaVuSans-48"></use>
       <use x="286.279297" xlink:href="#DejaVuSans-48"></use>
      </g>
     </g>
    </g>
    <g id="ytick_6">
     <g id="line2d_17">
      <path clip-path="url(#p5c496c71c5)" d="M 59.686875 32.261577 
L 394.486875 32.261577 
" style="fill:none;stroke:#ffffff;stroke-linecap:round;stroke-width:0.8;"></path>
     </g>
     <g id="line2d_18"></g>
     <g id="text_9">
      <!-- 0.0125 -->
      <g style="fill:#262626;" transform="translate(7.2 37.580483)scale(0.14 -0.14)">
       <use xlink:href="#DejaVuSans-48"></use>
       <use x="63.623047" xlink:href="#DejaVuSans-46"></use>
       <use x="95.410156" xlink:href="#DejaVuSans-48"></use>
       <use x="159.033203" xlink:href="#DejaVuSans-49"></use>
       <use x="222.65625" xlink:href="#DejaVuSans-50"></use>
       <use x="286.279297" xlink:href="#DejaVuSans-53"></use>
      </g>
     </g>
    </g>
   </g>
   <g id="PolyCollection_1">
    <defs>
     <path d="M 74.905057 -34.133011 
L 74.905057 -35.01143 
L 76.434522 -35.001866 
L 77.963988 -34.96841 
L 79.493453 -35.012378 
L 81.022919 -35.189414 
L 82.552384 -35.348903 
L 84.08185 -35.294187 
L 85.611315 -35.01143 
L 87.140781 -34.675835 
L 88.670246 -34.443389 
L 90.199712 -34.426534 
L 91.729177 -34.603571 
L 93.258643 -34.807027 
L 94.788108 -34.929602 
L 96.317574 -34.951555 
L 97.847039 -35.012378 
L 99.376505 -35.223125 
L 100.90597 -35.493431 
L 102.435436 -35.719849 
L 103.964901 -35.913995 
L 105.494367 -36.125375 
L 107.023833 -36.511297 
L 108.553298 -37.179645 
L 110.082764 -37.831944 
L 111.612229 -37.981632 
L 113.141695 -37.693478 
L 114.67116 -37.430148 
L 116.200626 -37.390647 
L 117.730091 -37.490576 
L 119.259557 -37.613783 
L 120.789022 -38.005059 
L 122.318488 -38.967367 
L 123.847953 -40.242045 
L 125.377419 -41.001829 
L 126.906884 -40.937776 
L 128.43635 -40.565646 
L 129.965815 -40.388724 
L 131.495281 -40.45117 
L 133.024746 -40.831934 
L 134.554212 -41.71073 
L 136.083677 -43.087119 
L 137.613143 -44.479099 
L 139.142608 -45.369653 
L 140.672074 -45.611679 
L 142.201539 -45.542117 
L 143.731005 -45.35708 
L 145.26047 -45.410505 
L 146.789936 -46.181747 
L 148.319401 -47.671025 
L 149.848867 -49.415832 
L 151.378332 -51.034126 
L 152.907798 -52.608398 
L 154.437263 -54.267735 
L 155.966729 -55.402337 
L 157.496194 -55.770228 
L 159.02566 -56.202471 
L 160.555125 -57.963572 
L 162.084591 -60.72272 
L 163.614056 -63.210122 
L 165.143522 -65.142144 
L 166.672987 -67.196723 
L 168.202453 -69.398836 
L 169.731918 -71.389785 
L 171.261384 -73.885092 
L 172.790849 -78.175599 
L 174.320315 -83.81051 
L 175.84978 -88.993227 
L 177.379246 -92.461824 
L 178.908711 -95.683359 
L 180.438177 -101.034346 
L 181.967642 -107.618698 
L 183.497108 -111.800825 
L 185.026573 -112.9531 
L 186.556039 -114.242611 
L 188.085505 -118.091513 
L 189.61497 -123.963678 
L 191.144436 -130.874924 
L 192.673901 -137.748318 
L 194.203367 -144.354038 
L 195.732832 -150.989021 
L 197.262298 -156.592201 
L 198.791763 -159.555067 
L 200.321229 -161.032857 
L 201.850694 -164.164718 
L 203.38016 -170.797332 
L 204.909625 -179.574372 
L 206.439091 -190.016485 
L 207.968556 -201.194156 
L 209.498022 -209.763564 
L 211.027487 -212.9178 
L 212.556953 -212.208274 
L 214.086418 -211.287159 
L 215.615884 -211.615642 
L 217.145349 -212.96714 
L 218.674815 -215.457789 
L 220.20428 -218.971611 
L 221.733746 -223.726071 
L 223.263211 -228.772593 
L 224.792677 -231.805739 
L 226.322142 -229.662386 
L 227.851608 -221.922057 
L 229.381073 -211.336448 
L 230.910539 -201.307466 
L 232.440004 -195.367553 
L 233.96947 -197.207296 
L 235.498935 -204.355017 
L 237.028401 -207.674927 
L 238.557866 -201.694615 
L 240.087332 -190.514965 
L 241.616797 -180.316951 
L 243.146263 -174.59751 
L 244.675728 -173.098587 
L 246.205194 -171.603338 
L 247.734659 -165.171542 
L 249.264125 -153.892199 
L 250.79359 -142.796482 
L 252.323056 -135.904745 
L 253.852521 -132.14012 
L 255.381987 -127.468818 
L 256.911452 -120.991593 
L 258.440918 -115.057608 
L 259.970383 -110.237005 
L 261.499849 -104.9105 
L 263.029314 -99.13677 
L 264.55878 -93.823913 
L 266.088245 -90.028757 
L 267.617711 -88.30919 
L 269.147177 -86.794278 
L 270.676642 -81.991009 
L 272.206108 -74.234346 
L 273.735573 -67.213748 
L 275.265039 -62.968589 
L 276.794504 -60.839732 
L 278.32397 -59.719944 
L 279.853435 -58.838543 
L 281.382901 -57.673595 
L 282.912366 -56.607363 
L 284.441832 -56.190485 
L 285.971297 -55.991846 
L 287.500763 -55.061845 
L 289.030228 -53.397451 
L 290.559694 -51.733499 
L 292.089159 -50.496592 
L 293.618625 -49.244 
L 295.14809 -47.74807 
L 296.677556 -46.308473 
L 298.207021 -45.54962 
L 299.736487 -45.454324 
L 301.265952 -45.501414 
L 302.795418 -44.916879 
L 304.324883 -43.656361 
L 305.854349 -42.507338 
L 307.383814 -42.098769 
L 308.91328 -42.125231 
L 310.442745 -41.995803 
L 311.972211 -41.474932 
L 313.501676 -40.531541 
L 315.031142 -39.209237 
L 316.560607 -37.806745 
L 318.090073 -36.734689 
L 319.619538 -36.302683 
L 321.149004 -36.483931 
L 322.678469 -36.802653 
L 324.207935 -36.720825 
L 325.7374 -36.190663 
L 327.266866 -35.782506 
L 328.796331 -35.980863 
L 330.325797 -36.543789 
L 331.855262 -36.808997 
L 333.384728 -36.504682 
L 334.914193 -36.062437 
L 336.443659 -35.82041 
L 337.973124 -35.576505 
L 339.50259 -35.11715 
L 341.032055 -34.630937 
L 342.561521 -34.383515 
L 344.090986 -34.443389 
L 345.620452 -34.718855 
L 347.149917 -35.000919 
L 348.679383 -35.056328 
L 350.208849 -34.923258 
L 351.738314 -34.791119 
L 353.26778 -34.691743 
L 354.797245 -34.531307 
L 356.326711 -34.35427 
L 357.856176 -34.27754 
L 359.385642 -34.35427 
L 360.915107 -34.514451 
L 362.444573 -34.619478 
L 363.974038 -34.586716 
L 365.503504 -34.541818 
L 367.032969 -34.586716 
L 368.562435 -34.619478 
L 370.0919 -34.514451 
L 371.621366 -34.337415 
L 373.150831 -34.222131 
L 374.680297 -34.238986 
L 376.209762 -34.409679 
L 377.739228 -34.718855 
L 379.268693 -34.984063 
L 379.268693 -34.133011 
L 379.268693 -34.133011 
L 377.739228 -34.133011 
L 376.209762 -34.133011 
L 374.680297 -34.133011 
L 373.150831 -34.133011 
L 371.621366 -34.133011 
L 370.0919 -34.133011 
L 368.562435 -34.133011 
L 367.032969 -34.133011 
L 365.503504 -34.133011 
L 363.974038 -34.133011 
L 362.444573 -34.133011 
L 360.915107 -34.133011 
L 359.385642 -34.133011 
L 357.856176 -34.133011 
L 356.326711 -34.133011 
L 354.797245 -34.133011 
L 353.26778 -34.133011 
L 351.738314 -34.133011 
L 350.208849 -34.133011 
L 348.679383 -34.133011 
L 347.149917 -34.133011 
L 345.620452 -34.133011 
L 344.090986 -34.133011 
L 342.561521 -34.133011 
L 341.032055 -34.133011 
L 339.50259 -34.133011 
L 337.973124 -34.133011 
L 336.443659 -34.133011 
L 334.914193 -34.133011 
L 333.384728 -34.133011 
L 331.855262 -34.133011 
L 330.325797 -34.133011 
L 328.796331 -34.133011 
L 327.266866 -34.133011 
L 325.7374 -34.133011 
L 324.207935 -34.133011 
L 322.678469 -34.133011 
L 321.149004 -34.133011 
L 319.619538 -34.133011 
L 318.090073 -34.133011 
L 316.560607 -34.133011 
L 315.031142 -34.133011 
L 313.501676 -34.133011 
L 311.972211 -34.133011 
L 310.442745 -34.133011 
L 308.91328 -34.133011 
L 307.383814 -34.133011 
L 305.854349 -34.133011 
L 304.324883 -34.133011 
L 302.795418 -34.133011 
L 301.265952 -34.133011 
L 299.736487 -34.133011 
L 298.207021 -34.133011 
L 296.677556 -34.133011 
L 295.14809 -34.133011 
L 293.618625 -34.133011 
L 292.089159 -34.133011 
L 290.559694 -34.133011 
L 289.030228 -34.133011 
L 287.500763 -34.133011 
L 285.971297 -34.133011 
L 284.441832 -34.133011 
L 282.912366 -34.133011 
L 281.382901 -34.133011 
L 279.853435 -34.133011 
L 278.32397 -34.133011 
L 276.794504 -34.133011 
L 275.265039 -34.133011 
L 273.735573 -34.133011 
L 272.206108 -34.133011 
L 270.676642 -34.133011 
L 269.147177 -34.133011 
L 267.617711 -34.133011 
L 266.088245 -34.133011 
L 264.55878 -34.133011 
L 263.029314 -34.133011 
L 261.499849 -34.133011 
L 259.970383 -34.133011 
L 258.440918 -34.133011 
L 256.911452 -34.133011 
L 255.381987 -34.133011 
L 253.852521 -34.133011 
L 252.323056 -34.133011 
L 250.79359 -34.133011 
L 249.264125 -34.133011 
L 247.734659 -34.133011 
L 246.205194 -34.133011 
L 244.675728 -34.133011 
L 243.146263 -34.133011 
L 241.616797 -34.133011 
L 240.087332 -34.133011 
L 238.557866 -34.133011 
L 237.028401 -34.133011 
L 235.498935 -34.133011 
L 233.96947 -34.133011 
L 232.440004 -34.133011 
L 230.910539 -34.133011 
L 229.381073 -34.133011 
L 227.851608 -34.133011 
L 226.322142 -34.133011 
L 224.792677 -34.133011 
L 223.263211 -34.133011 
L 221.733746 -34.133011 
L 220.20428 -34.133011 
L 218.674815 -34.133011 
L 217.145349 -34.133011 
L 215.615884 -34.133011 
L 214.086418 -34.133011 
L 212.556953 -34.133011 
L 211.027487 -34.133011 
L 209.498022 -34.133011 
L 207.968556 -34.133011 
L 206.439091 -34.133011 
L 204.909625 -34.133011 
L 203.38016 -34.133011 
L 201.850694 -34.133011 
L 200.321229 -34.133011 
L 198.791763 -34.133011 
L 197.262298 -34.133011 
L 195.732832 -34.133011 
L 194.203367 -34.133011 
L 192.673901 -34.133011 
L 191.144436 -34.133011 
L 189.61497 -34.133011 
L 188.085505 -34.133011 
L 186.556039 -34.133011 
L 185.026573 -34.133011 
L 183.497108 -34.133011 
L 181.967642 -34.133011 
L 180.438177 -34.133011 
L 178.908711 -34.133011 
L 177.379246 -34.133011 
L 175.84978 -34.133011 
L 174.320315 -34.133011 
L 172.790849 -34.133011 
L 171.261384 -34.133011 
L 169.731918 -34.133011 
L 168.202453 -34.133011 
L 166.672987 -34.133011 
L 165.143522 -34.133011 
L 163.614056 -34.133011 
L 162.084591 -34.133011 
L 160.555125 -34.133011 
L 159.02566 -34.133011 
L 157.496194 -34.133011 
L 155.966729 -34.133011 
L 154.437263 -34.133011 
L 152.907798 -34.133011 
L 151.378332 -34.133011 
L 149.848867 -34.133011 
L 148.319401 -34.133011 
L 146.789936 -34.133011 
L 145.26047 -34.133011 
L 143.731005 -34.133011 
L 142.201539 -34.133011 
L 140.672074 -34.133011 
L 139.142608 -34.133011 
L 137.613143 -34.133011 
L 136.083677 -34.133011 
L 134.554212 -34.133011 
L 133.024746 -34.133011 
L 131.495281 -34.133011 
L 129.965815 -34.133011 
L 128.43635 -34.133011 
L 126.906884 -34.133011 
L 125.377419 -34.133011 
L 123.847953 -34.133011 
L 122.318488 -34.133011 
L 120.789022 -34.133011 
L 119.259557 -34.133011 
L 117.730091 -34.133011 
L 116.200626 -34.133011 
L 114.67116 -34.133011 
L 113.141695 -34.133011 
L 111.612229 -34.133011 
L 110.082764 -34.133011 
L 108.553298 -34.133011 
L 107.023833 -34.133011 
L 105.494367 -34.133011 
L 103.964901 -34.133011 
L 102.435436 -34.133011 
L 100.90597 -34.133011 
L 99.376505 -34.133011 
L 97.847039 -34.133011 
L 96.317574 -34.133011 
L 94.788108 -34.133011 
L 93.258643 -34.133011 
L 91.729177 -34.133011 
L 90.199712 -34.133011 
L 88.670246 -34.133011 
L 87.140781 -34.133011 
L 85.611315 -34.133011 
L 84.08185 -34.133011 
L 82.552384 -34.133011 
L 81.022919 -34.133011 
L 79.493453 -34.133011 
L 77.963988 -34.133011 
L 76.434522 -34.133011 
L 74.905057 -34.133011 
z
" id="m69738a3cf8" style="stroke:#2a2eec;stroke-opacity:0;"></path>
    </defs>
    <g clip-path="url(#p5c496c71c5)">
     <use style="fill:#2a2eec;fill-opacity:0;stroke:#2a2eec;stroke-opacity:0;" x="0" xlink:href="#m69738a3cf8" y="248.889375"></use>
    </g>
   </g>
   <g id="line2d_19">
    <path clip-path="url(#p5c496c71c5)" d="M 74.905057 213.877945 
L 79.493453 213.876997 
L 82.552384 213.540472 
L 84.08185 213.595188 
L 88.670246 214.445986 
L 90.199712 214.462841 
L 94.788108 213.959773 
L 97.847039 213.876997 
L 105.494367 212.764 
L 107.023833 212.378078 
L 110.082764 211.057431 
L 111.612229 210.907743 
L 114.67116 211.459227 
L 116.200626 211.498728 
L 119.259557 211.275592 
L 120.789022 210.884316 
L 122.318488 209.922008 
L 123.847953 208.64733 
L 125.377419 207.887546 
L 126.906884 207.951599 
L 128.43635 208.323729 
L 129.965815 208.500651 
L 131.495281 208.438205 
L 133.024746 208.057441 
L 134.554212 207.178645 
L 137.613143 204.410276 
L 139.142608 203.519722 
L 140.672074 203.277696 
L 142.201539 203.347258 
L 143.731005 203.532295 
L 145.26047 203.47887 
L 146.789936 202.707628 
L 148.319401 201.21835 
L 151.378332 197.855249 
L 154.437263 194.62164 
L 155.966729 193.487038 
L 159.02566 192.686904 
L 160.555125 190.925803 
L 162.084591 188.166655 
L 163.614056 185.679253 
L 166.672987 181.692652 
L 168.202453 179.490539 
L 169.731918 177.49959 
L 171.261384 175.004283 
L 172.790849 170.713776 
L 174.320315 165.078865 
L 175.84978 159.896148 
L 178.908711 153.206016 
L 180.438177 147.855029 
L 181.967642 141.270677 
L 183.497108 137.08855 
L 186.556039 134.646764 
L 188.085505 130.797862 
L 189.61497 124.925697 
L 194.203367 104.535337 
L 195.732832 97.900354 
L 197.262298 92.297174 
L 198.791763 89.334308 
L 200.321229 87.856518 
L 201.850694 84.724657 
L 203.38016 78.092043 
L 204.909625 69.315003 
L 207.968556 47.695219 
L 209.498022 39.125811 
L 211.027487 35.971575 
L 212.556953 36.681101 
L 214.086418 37.602216 
L 215.615884 37.273733 
L 217.145349 35.922235 
L 218.674815 33.431586 
L 220.20428 29.917764 
L 223.263211 20.116782 
L 224.792677 17.083636 
L 226.322142 19.226989 
L 227.851608 26.967318 
L 230.910539 47.581909 
L 232.440004 53.521822 
L 233.96947 51.682079 
L 235.498935 44.534358 
L 237.028401 41.214448 
L 238.557866 47.19476 
L 240.087332 58.37441 
L 241.616797 68.572424 
L 243.146263 74.291865 
L 246.205194 77.286037 
L 247.734659 83.717833 
L 250.79359 106.092893 
L 252.323056 112.98463 
L 253.852521 116.749255 
L 255.381987 121.420557 
L 256.911452 127.897782 
L 258.440918 133.831767 
L 259.970383 138.65237 
L 261.499849 143.978875 
L 263.029314 149.752605 
L 264.55878 155.065462 
L 266.088245 158.860618 
L 267.617711 160.580185 
L 269.147177 162.095097 
L 270.676642 166.898366 
L 272.206108 174.655029 
L 273.735573 181.675627 
L 275.265039 185.920786 
L 276.794504 188.049643 
L 278.32397 189.169431 
L 279.853435 190.050832 
L 282.912366 192.282012 
L 284.441832 192.69889 
L 285.971297 192.897529 
L 287.500763 193.82753 
L 290.559694 197.155876 
L 293.618625 199.645375 
L 296.677556 202.580902 
L 298.207021 203.339755 
L 299.736487 203.435051 
L 301.265952 203.387961 
L 302.795418 203.972496 
L 305.854349 206.382037 
L 307.383814 206.790606 
L 308.91328 206.764144 
L 310.442745 206.893572 
L 311.972211 207.414443 
L 313.501676 208.357834 
L 316.560607 211.08263 
L 318.090073 212.154686 
L 319.619538 212.586692 
L 321.149004 212.405444 
L 322.678469 212.086722 
L 324.207935 212.16855 
L 325.7374 212.698712 
L 327.266866 213.106869 
L 328.796331 212.908512 
L 330.325797 212.345586 
L 331.855262 212.080378 
L 333.384728 212.384693 
L 334.914193 212.826938 
L 337.973124 213.31287 
L 341.032055 214.258438 
L 342.561521 214.50586 
L 344.090986 214.445986 
L 347.149917 213.888456 
L 348.679383 213.833047 
L 357.856176 214.611835 
L 360.915107 214.374924 
L 362.444573 214.269897 
L 367.032969 214.302659 
L 368.562435 214.269897 
L 374.680297 214.650389 
L 376.209762 214.479696 
L 379.268693 213.905312 
L 379.268693 213.905312 
" style="fill:none;stroke:#2a2eec;stroke-linecap:round;stroke-width:1.5;"></path>
   </g>
   <g id="patch_3">
    <path d="M 59.686875 224.64 
L 59.686875 7.2 
" style="fill:none;"></path>
   </g>
   <g id="patch_4">
    <path d="M 394.486875 224.64 
L 394.486875 7.2 
" style="fill:none;"></path>
   </g>
   <g id="patch_5">
    <path d="M 59.686875 224.64 
L 394.486875 224.64 
" style="fill:none;"></path>
   </g>
   <g id="patch_6">
    <path d="M 59.686875 7.2 
L 394.486875 7.2 
" style="fill:none;"></path>
   </g>
  </g>
 </g>
 <defs>
  <clipPath id="p5c496c71c5">
   <rect height="217.44" width="334.8" x="59.686875" y="7.2"></rect>
  </clipPath>
 </defs>
</svg>