<?xml version="1.0" encoding="utf-8"?>
<svg height="248.143437pt" version="1.1" viewBox="0 0 387.730625 248.143437" width="387.730625pt" xmlns="http://www.w3.org/2000/svg" xmlns:xlink="http://www.w3.org/1999/xlink">
 <defs>
  <style type="text/css">
*{stroke-linecap:butt;stroke-linejoin:round;}
  </style>
 </defs>
 <g id="figure_1">
  <g id="patch_1">
   <path d="M 0 248.143437 
L 387.730625 248.143437 
L 387.730625 0 
L 0 0 
z
" style="fill:none;"></path>
  </g>
  <g id="axes_1">
   <g id="patch_2">
    <path d="M 45.730625 224.64 
L 380.530625 224.64 
L 380.530625 7.2 
L 45.730625 7.2 
z
" style="fill:#eeeeee;"></path>
   </g>
   <g id="matplotlib.axis_1">
    <g id="xtick_1">
     <g id="line2d_1">
      <path clip-path="url(#pa0b0a9ad60)" d="M 60.948807 224.64 
L 60.948807 7.2 
" style="fill:none;stroke:#ffffff;stroke-linecap:round;stroke-width:0.8;"></path>
     </g>
     <g id="line2d_2"></g>
     <g id="text_1">
      <!-- 100 -->
      <defs>
       <path d="M 37.25 0 
L 28.46875 0 
L 28.46875 56 
Q 25.296875 52.984375 20.140625 49.953125 
Q 14.984375 46.921875 10.890625 45.40625 
L 10.890625 53.90625 
Q 18.265625 57.375 23.78125 62.296875 
Q 29.296875 67.234375 31.59375 71.875 
L 37.25 71.875 
z
" id="ArialMT-49"></path>
       <path d="M 4.15625 35.296875 
Q 4.15625 48 6.765625 55.734375 
Q 9.375 63.484375 14.515625 67.671875 
Q 19.671875 71.875 27.484375 71.875 
Q 33.25 71.875 37.59375 69.546875 
Q 41.9375 67.234375 44.765625 62.859375 
Q 47.609375 58.5 49.21875 52.21875 
Q 50.828125 45.953125 50.828125 35.296875 
Q 50.828125 22.703125 48.234375 14.96875 
Q 45.65625 7.234375 40.5 3 
Q 35.359375 -1.21875 27.484375 -1.21875 
Q 17.140625 -1.21875 11.234375 6.203125 
Q 4.15625 15.140625 4.15625 35.296875 
z
M 13.1875 35.296875 
Q 13.1875 17.671875 17.3125 11.828125 
Q 21.4375 6 27.484375 6 
Q 33.546875 6 37.671875 11.859375 
Q 41.796875 17.71875 41.796875 35.296875 
Q 41.796875 52.984375 37.671875 58.78125 
Q 33.546875 64.59375 27.390625 64.59375 
Q 21.34375 64.59375 17.71875 59.46875 
Q 13.1875 52.9375 13.1875 35.296875 
z
" id="ArialMT-48"></path>
      </defs>
      <g style="fill:#262626;" transform="translate(49.270838 238.160937)scale(0.14 -0.14)">
       <use xlink:href="#ArialMT-49"></use>
       <use x="55.615234" xlink:href="#ArialMT-48"></use>
       <use x="111.230469" xlink:href="#ArialMT-48"></use>
      </g>
     </g>
    </g>
    <g id="xtick_2">
     <g id="line2d_3">
      <path clip-path="url(#pa0b0a9ad60)" d="M 111.67608 224.64 
L 111.67608 7.2 
" style="fill:none;stroke:#ffffff;stroke-linecap:round;stroke-width:0.8;"></path>
     </g>
     <g id="line2d_4"></g>
     <g id="text_2">
      <!-- 125 -->
      <defs>
       <path d="M 50.34375 8.453125 
L 50.34375 0 
L 3.03125 0 
Q 2.9375 3.171875 4.046875 6.109375 
Q 5.859375 10.9375 9.828125 15.625 
Q 13.8125 20.3125 21.34375 26.46875 
Q 33.015625 36.03125 37.109375 41.625 
Q 41.21875 47.21875 41.21875 52.203125 
Q 41.21875 57.421875 37.46875 61 
Q 33.734375 64.59375 27.734375 64.59375 
Q 21.390625 64.59375 17.578125 60.78125 
Q 13.765625 56.984375 13.71875 50.25 
L 4.6875 51.171875 
Q 5.609375 61.28125 11.65625 66.578125 
Q 17.71875 71.875 27.9375 71.875 
Q 38.234375 71.875 44.234375 66.15625 
Q 50.25 60.453125 50.25 52 
Q 50.25 47.703125 48.484375 43.546875 
Q 46.734375 39.40625 42.65625 34.8125 
Q 38.578125 30.21875 29.109375 22.21875 
Q 21.1875 15.578125 18.9375 13.203125 
Q 16.703125 10.84375 15.234375 8.453125 
z
" id="ArialMT-50"></path>
       <path d="M 4.15625 18.75 
L 13.375 19.53125 
Q 14.40625 12.796875 18.140625 9.390625 
Q 21.875 6 27.15625 6 
Q 33.5 6 37.890625 10.78125 
Q 42.28125 15.578125 42.28125 23.484375 
Q 42.28125 31 38.0625 35.34375 
Q 33.84375 39.703125 27 39.703125 
Q 22.75 39.703125 19.328125 37.765625 
Q 15.921875 35.84375 13.96875 32.765625 
L 5.71875 33.84375 
L 12.640625 70.609375 
L 48.25 70.609375 
L 48.25 62.203125 
L 19.671875 62.203125 
L 15.828125 42.96875 
Q 22.265625 47.46875 29.34375 47.46875 
Q 38.71875 47.46875 45.15625 40.96875 
Q 51.609375 34.46875 51.609375 24.265625 
Q 51.609375 14.546875 45.953125 7.46875 
Q 39.0625 -1.21875 27.15625 -1.21875 
Q 17.390625 -1.21875 11.203125 4.25 
Q 5.03125 9.71875 4.15625 18.75 
z
" id="ArialMT-53"></path>
      </defs>
      <g style="fill:#262626;" transform="translate(99.998111 238.160937)scale(0.14 -0.14)">
       <use xlink:href="#ArialMT-49"></use>
       <use x="55.615234" xlink:href="#ArialMT-50"></use>
       <use x="111.230469" xlink:href="#ArialMT-53"></use>
      </g>
     </g>
    </g>
    <g id="xtick_3">
     <g id="line2d_5">
      <path clip-path="url(#pa0b0a9ad60)" d="M 162.403352 224.64 
L 162.403352 7.2 
" style="fill:none;stroke:#ffffff;stroke-linecap:round;stroke-width:0.8;"></path>
     </g>
     <g id="line2d_6"></g>
     <g id="text_3">
      <!-- 150 -->
      <g style="fill:#262626;" transform="translate(150.725384 238.160937)scale(0.14 -0.14)">
       <use xlink:href="#ArialMT-49"></use>
       <use x="55.615234" xlink:href="#ArialMT-53"></use>
       <use x="111.230469" xlink:href="#ArialMT-48"></use>
      </g>
     </g>
    </g>
    <g id="xtick_4">
     <g id="line2d_7">
      <path clip-path="url(#pa0b0a9ad60)" d="M 213.130625 224.64 
L 213.130625 7.2 
" style="fill:none;stroke:#ffffff;stroke-linecap:round;stroke-width:0.8;"></path>
     </g>
     <g id="line2d_8"></g>
     <g id="text_4">
      <!-- 175 -->
      <defs>
       <path d="M 4.734375 62.203125 
L 4.734375 70.65625 
L 51.078125 70.65625 
L 51.078125 63.8125 
Q 44.234375 56.546875 37.515625 44.484375 
Q 30.8125 32.421875 27.15625 19.671875 
Q 24.515625 10.6875 23.78125 0 
L 14.75 0 
Q 14.890625 8.453125 18.0625 20.40625 
Q 21.234375 32.375 27.171875 43.484375 
Q 33.109375 54.59375 39.796875 62.203125 
z
" id="ArialMT-55"></path>
      </defs>
      <g style="fill:#262626;" transform="translate(201.452656 238.160937)scale(0.14 -0.14)">
       <use xlink:href="#ArialMT-49"></use>
       <use x="55.615234" xlink:href="#ArialMT-55"></use>
       <use x="111.230469" xlink:href="#ArialMT-53"></use>
      </g>
     </g>
    </g>
    <g id="xtick_5">
     <g id="line2d_9">
      <path clip-path="url(#pa0b0a9ad60)" d="M 263.857898 224.64 
L 263.857898 7.2 
" style="fill:none;stroke:#ffffff;stroke-linecap:round;stroke-width:0.8;"></path>
     </g>
     <g id="line2d_10"></g>
     <g id="text_5">
      <!-- 200 -->
      <g style="fill:#262626;" transform="translate(252.179929 238.160937)scale(0.14 -0.14)">
       <use xlink:href="#ArialMT-50"></use>
       <use x="55.615234" xlink:href="#ArialMT-48"></use>
       <use x="111.230469" xlink:href="#ArialMT-48"></use>
      </g>
     </g>
    </g>
    <g id="xtick_6">
     <g id="line2d_11">
      <path clip-path="url(#pa0b0a9ad60)" d="M 314.58517 224.64 
L 314.58517 7.2 
" style="fill:none;stroke:#ffffff;stroke-linecap:round;stroke-width:0.8;"></path>
     </g>
     <g id="line2d_12"></g>
     <g id="text_6">
      <!-- 225 -->
      <g style="fill:#262626;" transform="translate(302.907202 238.160937)scale(0.14 -0.14)">
       <use xlink:href="#ArialMT-50"></use>
       <use x="55.615234" xlink:href="#ArialMT-50"></use>
       <use x="111.230469" xlink:href="#ArialMT-53"></use>
      </g>
     </g>
    </g>
    <g id="xtick_7">
     <g id="line2d_13">
      <path clip-path="url(#pa0b0a9ad60)" d="M 365.312443 224.64 
L 365.312443 7.2 
" style="fill:none;stroke:#ffffff;stroke-linecap:round;stroke-width:0.8;"></path>
     </g>
     <g id="line2d_14"></g>
     <g id="text_7">
      <!-- 250 -->
      <g style="fill:#262626;" transform="translate(353.634474 238.160937)scale(0.14 -0.14)">
       <use xlink:href="#ArialMT-50"></use>
       <use x="55.615234" xlink:href="#ArialMT-53"></use>
       <use x="111.230469" xlink:href="#ArialMT-48"></use>
      </g>
     </g>
    </g>
   </g>
   <g id="matplotlib.axis_2">
    <g id="ytick_1">
     <g id="line2d_15">
      <path clip-path="url(#pa0b0a9ad60)" d="M 45.730625 214.854845 
L 380.530625 214.854845 
" style="fill:none;stroke:#ffffff;stroke-linecap:round;stroke-width:0.8;"></path>
     </g>
     <g id="line2d_16"></g>
     <g id="text_8">
      <!-- 0.000 -->
      <defs>
       <path d="M 9.078125 0 
L 9.078125 10.015625 
L 19.09375 10.015625 
L 19.09375 0 
z
" id="ArialMT-46"></path>
      </defs>
      <g style="fill:#262626;" transform="translate(7.2 219.865314)scale(0.14 -0.14)">
       <use xlink:href="#ArialMT-48"></use>
       <use x="55.615234" xlink:href="#ArialMT-46"></use>
       <use x="83.398438" xlink:href="#ArialMT-48"></use>
       <use x="139.013672" xlink:href="#ArialMT-48"></use>
       <use x="194.628906" xlink:href="#ArialMT-48"></use>
      </g>
     </g>
    </g>
    <g id="ytick_2">
     <g id="line2d_17">
      <path clip-path="url(#pa0b0a9ad60)" d="M 45.730625 165.280958 
L 380.530625 165.280958 
" style="fill:none;stroke:#ffffff;stroke-linecap:round;stroke-width:0.8;"></path>
     </g>
     <g id="line2d_18"></g>
     <g id="text_9">
      <!-- 0.005 -->
      <g style="fill:#262626;" transform="translate(7.2 170.291427)scale(0.14 -0.14)">
       <use xlink:href="#ArialMT-48"></use>
       <use x="55.615234" xlink:href="#ArialMT-46"></use>
       <use x="83.398438" xlink:href="#ArialMT-48"></use>
       <use x="139.013672" xlink:href="#ArialMT-48"></use>
       <use x="194.628906" xlink:href="#ArialMT-53"></use>
      </g>
     </g>
    </g>
    <g id="ytick_3">
     <g id="line2d_19">
      <path clip-path="url(#pa0b0a9ad60)" d="M 45.730625 115.707071 
L 380.530625 115.707071 
" style="fill:none;stroke:#ffffff;stroke-linecap:round;stroke-width:0.8;"></path>
     </g>
     <g id="line2d_20"></g>
     <g id="text_10">
      <!-- 0.010 -->
      <g style="fill:#262626;" transform="translate(7.2 120.717539)scale(0.14 -0.14)">
       <use xlink:href="#ArialMT-48"></use>
       <use x="55.615234" xlink:href="#ArialMT-46"></use>
       <use x="83.398438" xlink:href="#ArialMT-48"></use>
       <use x="139.013672" xlink:href="#ArialMT-49"></use>
       <use x="194.628906" xlink:href="#ArialMT-48"></use>
      </g>
     </g>
    </g>
    <g id="ytick_4">
     <g id="line2d_21">
      <path clip-path="url(#pa0b0a9ad60)" d="M 45.730625 66.133184 
L 380.530625 66.133184 
" style="fill:none;stroke:#ffffff;stroke-linecap:round;stroke-width:0.8;"></path>
     </g>
     <g id="line2d_22"></g>
     <g id="text_11">
      <!-- 0.015 -->
      <g style="fill:#262626;" transform="translate(7.2 71.143652)scale(0.14 -0.14)">
       <use xlink:href="#ArialMT-48"></use>
       <use x="55.615234" xlink:href="#ArialMT-46"></use>
       <use x="83.398438" xlink:href="#ArialMT-48"></use>
       <use x="139.013672" xlink:href="#ArialMT-49"></use>
       <use x="194.628906" xlink:href="#ArialMT-53"></use>
      </g>
     </g>
    </g>
    <g id="ytick_5">
     <g id="line2d_23">
      <path clip-path="url(#pa0b0a9ad60)" d="M 45.730625 16.559297 
L 380.530625 16.559297 
" style="fill:none;stroke:#ffffff;stroke-linecap:round;stroke-width:0.8;"></path>
     </g>
     <g id="line2d_24"></g>
     <g id="text_12">
      <!-- 0.020 -->
      <g style="fill:#262626;" transform="translate(7.2 21.569765)scale(0.14 -0.14)">
       <use xlink:href="#ArialMT-48"></use>
       <use x="55.615234" xlink:href="#ArialMT-46"></use>
       <use x="83.398438" xlink:href="#ArialMT-48"></use>
       <use x="139.013672" xlink:href="#ArialMT-50"></use>
       <use x="194.628906" xlink:href="#ArialMT-48"></use>
      </g>
     </g>
    </g>
   </g>
   <g id="line2d_25">
    <path clip-path="url(#pa0b0a9ad60)" d="M 60.948807 214.756364 
L 63.992443 214.723273 
L 67.03608 214.680049 
L 70.079716 214.623929 
L 73.123352 214.551501 
L 76.166989 214.458592 
L 79.210625 214.340129 
L 82.254261 214.19 
L 85.297898 214.0009 
L 88.341534 213.764167 
L 91.38517 213.469623 
L 94.428807 213.105401 
L 97.472443 212.657806 
L 100.51608 212.111169 
L 103.559716 211.447747 
L 106.603352 210.64764 
L 109.646989 209.688783 
L 112.690625 208.546974 
L 115.734261 207.195998 
L 118.777898 205.607848 
L 121.821534 203.753009 
L 124.86517 201.600858 
L 127.908807 199.120268 
L 130.952443 196.28018 
L 133.99608 193.050458 
L 137.039716 189.402748 
L 140.083352 185.311434 
L 143.126989 180.754819 
L 146.170625 175.716181 
L 149.214261 170.185004 
L 152.257898 164.15815 
L 155.301534 157.640876 
L 158.34517 150.647947 
L 161.388807 143.204467 
L 164.432443 135.34658 
L 167.47608 127.121827 
L 170.519716 118.589264 
L 173.563352 109.819363 
L 176.606989 100.89329 
L 179.650625 91.902303 
L 182.694261 82.946026 
L 185.737898 74.13111 
L 188.781534 65.569331 
L 191.82517 57.374865 
L 194.868807 49.662453 
L 197.912443 42.544277 
L 200.95608 36.127578 
L 203.999716 30.511805 
L 207.043352 25.786084 
L 210.086989 22.02687 
L 213.130625 19.296087 
L 216.174261 17.639053 
L 219.217898 17.083636 
L 222.261534 17.639053 
L 225.30517 19.296087 
L 228.348807 22.02687 
L 231.392443 25.786084 
L 234.43608 30.511805 
L 237.479716 36.127578 
L 240.523352 42.544277 
L 243.566989 49.662453 
L 246.610625 57.374865 
L 249.654261 65.569331 
L 252.697898 74.13111 
L 255.741534 82.946026 
L 258.78517 91.902303 
L 261.828807 100.89329 
L 264.872443 109.819363 
L 267.91608 118.589264 
L 270.959716 127.121827 
L 274.003352 135.34658 
L 277.046989 143.204467 
L 280.090625 150.647947 
L 283.134261 157.640876 
L 286.177898 164.15815 
L 289.221534 170.185004 
L 292.26517 175.716181 
L 295.308807 180.754819 
L 298.352443 185.311434 
L 301.39608 189.402748 
L 304.439716 193.050458 
L 307.483352 196.28018 
L 310.526989 199.120268 
L 313.570625 201.600858 
L 316.614261 203.753009 
L 319.657898 205.607848 
L 322.701534 207.195998 
L 325.74517 208.546974 
L 328.788807 209.688783 
L 331.832443 210.64764 
L 334.87608 211.447747 
L 337.919716 212.111169 
L 340.963352 212.657806 
L 344.006989 213.105401 
L 347.050625 213.469623 
L 350.094261 213.764167 
L 353.137898 214.0009 
L 356.181534 214.19 
L 359.22517 214.340129 
L 362.268807 214.458592 
L 365.312443 214.551501 
" style="fill:none;stroke:#2a2eec;stroke-linecap:round;stroke-width:1.5;"></path>
   </g>
   <g id="patch_3">
    <path d="M 45.730625 224.64 
L 45.730625 7.2 
" style="fill:none;"></path>
   </g>
   <g id="patch_4">
    <path d="M 380.530625 224.64 
L 380.530625 7.2 
" style="fill:none;"></path>
   </g>
   <g id="patch_5">
    <path d="M 45.730625 224.64 
L 380.530625 224.64 
" style="fill:none;"></path>
   </g>
   <g id="patch_6">
    <path d="M 45.730625 7.2 
L 380.530625 7.2 
" style="fill:none;"></path>
   </g>
  </g>
 </g>
 <defs>
  <clipPath id="pa0b0a9ad60">
   <rect height="217.44" width="334.8" x="45.730625" y="7.2"></rect>
  </clipPath>
 </defs>
</svg>