<?xml version="1.0" encoding="utf-8"?>
<svg height="353.99952pt" version="1.1" viewBox="0 0 526.79952 353.99952" width="526.79952pt" xmlns="http://www.w3.org/2000/svg" xmlns:xlink="http://www.w3.org/1999/xlink"><defs><style type="text/css">
*{stroke-linecap:butt;stroke-linejoin:round;}
  </style></defs><g id="figure_1"><g id="patch_1"><path d="M 0 353.99952 
L 526.79952 353.99952 
L 526.79952 0 
L 0 0 
z
" style="fill:#ffffff;"></path></g><g id="axes_1"><g id="patch_2"><path d="M 55.939688 311.232957 
L 519.59952 311.232957 
L 519.59952 7.2 
L 55.939688 7.2 
z
" style="fill:#eeeeee;"></path></g><g id="matplotlib.axis_1"><g id="xtick_1"><g id="line2d_1"><path clip-path="url(#pa0b9f56694)" d="M 62.872395 311.232957 
L 62.872395 7.2 
" style="fill:none;stroke:#ffffff;stroke-linecap:round;stroke-width:0.8;"></path></g><g id="line2d_2"></g><g id="text_1"><!-- 30 --><defs><path d="M 40.578125 39.3125 
Q 47.65625 37.796875 51.625 33 
Q 55.609375 28.21875 55.609375 21.1875 
Q 55.609375 10.40625 48.1875 4.484375 
Q 40.765625 -1.421875 27.09375 -1.421875 
Q 22.515625 -1.421875 17.65625 -0.515625 
Q 12.796875 0.390625 7.625 2.203125 
L 7.625 11.71875 
Q 11.71875 9.328125 16.59375 8.109375 
Q 21.484375 6.890625 26.8125 6.890625 
Q 36.078125 6.890625 40.9375 10.546875 
Q 45.796875 14.203125 45.796875 21.1875 
Q 45.796875 27.640625 41.28125 31.265625 
Q 36.765625 34.90625 28.71875 34.90625 
L 20.21875 34.90625 
L 20.21875 43.015625 
L 29.109375 43.015625 
Q 36.375 43.015625 40.234375 45.921875 
Q 44.09375 48.828125 44.09375 54.296875 
Q 44.09375 59.90625 40.109375 62.90625 
Q 36.140625 65.921875 28.71875 65.921875 
Q 24.65625 65.921875 20.015625 65.03125 
Q 15.375 64.15625 9.8125 62.3125 
L 9.8125 71.09375 
Q 15.4375 72.65625 20.34375 73.4375 
Q 25.25 74.21875 29.59375 74.21875 
Q 40.828125 74.21875 47.359375 69.109375 
Q 53.90625 64.015625 53.90625 55.328125 
Q 53.90625 49.265625 50.4375 45.09375 
Q 46.96875 40.921875 40.578125 39.3125 
z
" id="DejaVuSans-51"></path><path d="M 31.78125 66.40625 
Q 24.171875 66.40625 20.328125 58.90625 
Q 16.5 51.421875 16.5 36.375 
Q 16.5 21.390625 20.328125 13.890625 
Q 24.171875 6.390625 31.78125 6.390625 
Q 39.453125 6.390625 43.28125 13.890625 
Q 47.125 21.390625 47.125 36.375 
Q 47.125 51.421875 43.28125 58.90625 
Q 39.453125 66.40625 31.78125 66.40625 
z
M 31.78125 74.21875 
Q 44.046875 74.21875 50.515625 64.515625 
Q 56.984375 54.828125 56.984375 36.375 
Q 56.984375 17.96875 50.515625 8.265625 
Q 44.046875 -1.421875 31.78125 -1.421875 
Q 19.53125 -1.421875 13.0625 8.265625 
Q 6.59375 17.96875 6.59375 36.375 
Q 6.59375 54.828125 13.0625 64.515625 
Q 19.53125 74.21875 31.78125 74.21875 
z
" id="DejaVuSans-48"></path></defs><g style="fill:#262626;" transform="translate(53.964895 325.37077)scale(0.14 -0.14)"><use xlink:href="#DejaVuSans-51"></use><use x="63.623047" xlink:href="#DejaVuSans-48"></use></g></g></g><g id="xtick_2"><g id="line2d_3"><path clip-path="url(#pa0b9f56694)" d="M 128.895052 311.232957 
L 128.895052 7.2 
" style="fill:none;stroke:#ffffff;stroke-linecap:round;stroke-width:0.8;"></path></g><g id="line2d_4"></g><g id="text_2"><!-- 35 --><defs><path d="M 10.796875 72.90625 
L 49.515625 72.90625 
L 49.515625 64.59375 
L 19.828125 64.59375 
L 19.828125 46.734375 
Q 21.96875 47.46875 24.109375 47.828125 
Q 26.265625 48.1875 28.421875 48.1875 
Q 40.625 48.1875 47.75 41.5 
Q 54.890625 34.8125 54.890625 23.390625 
Q 54.890625 11.625 47.5625 5.09375 
Q 40.234375 -1.421875 26.90625 -1.421875 
Q 22.3125 -1.421875 17.546875 -0.640625 
Q 12.796875 0.140625 7.71875 1.703125 
L 7.71875 11.625 
Q 12.109375 9.234375 16.796875 8.0625 
Q 21.484375 6.890625 26.703125 6.890625 
Q 35.15625 6.890625 40.078125 11.328125 
Q 45.015625 15.765625 45.015625 23.390625 
Q 45.015625 31 40.078125 35.4375 
Q 35.15625 39.890625 26.703125 39.890625 
Q 22.75 39.890625 18.8125 39.015625 
Q 14.890625 38.140625 10.796875 36.28125 
z
" id="DejaVuSans-53"></path></defs><g style="fill:#262626;" transform="translate(119.987552 325.37077)scale(0.14 -0.14)"><use xlink:href="#DejaVuSans-51"></use><use x="63.623047" xlink:href="#DejaVuSans-53"></use></g></g></g><g id="xtick_3"><g id="line2d_5"><path clip-path="url(#pa0b9f56694)" d="M 194.917709 311.232957 
L 194.917709 7.2 
" style="fill:none;stroke:#ffffff;stroke-linecap:round;stroke-width:0.8;"></path></g><g id="line2d_6"></g><g id="text_3"><!-- 40 --><defs><path d="M 37.796875 64.3125 
L 12.890625 25.390625 
L 37.796875 25.390625 
z
M 35.203125 72.90625 
L 47.609375 72.90625 
L 47.609375 25.390625 
L 58.015625 25.390625 
L 58.015625 17.1875 
L 47.609375 17.1875 
L 47.609375 0 
L 37.796875 0 
L 37.796875 17.1875 
L 4.890625 17.1875 
L 4.890625 26.703125 
z
" id="DejaVuSans-52"></path></defs><g style="fill:#262626;" transform="translate(186.010209 325.37077)scale(0.14 -0.14)"><use xlink:href="#DejaVuSans-52"></use><use x="63.623047" xlink:href="#DejaVuSans-48"></use></g></g></g><g id="xtick_4"><g id="line2d_7"><path clip-path="url(#pa0b9f56694)" d="M 260.940366 311.232957 
L 260.940366 7.2 
" style="fill:none;stroke:#ffffff;stroke-linecap:round;stroke-width:0.8;"></path></g><g id="line2d_8"></g><g id="text_4"><!-- 45 --><g style="fill:#262626;" transform="translate(252.032866 325.37077)scale(0.14 -0.14)"><use xlink:href="#DejaVuSans-52"></use><use x="63.623047" xlink:href="#DejaVuSans-53"></use></g></g></g><g id="xtick_5"><g id="line2d_9"><path clip-path="url(#pa0b9f56694)" d="M 326.963023 311.232957 
L 326.963023 7.2 
" style="fill:none;stroke:#ffffff;stroke-linecap:round;stroke-width:0.8;"></path></g><g id="line2d_10"></g><g id="text_5"><!-- 50 --><g style="fill:#262626;" transform="translate(318.055523 325.37077)scale(0.14 -0.14)"><use xlink:href="#DejaVuSans-53"></use><use x="63.623047" xlink:href="#DejaVuSans-48"></use></g></g></g><g id="xtick_6"><g id="line2d_11"><path clip-path="url(#pa0b9f56694)" d="M 392.98568 311.232957 
L 392.98568 7.2 
" style="fill:none;stroke:#ffffff;stroke-linecap:round;stroke-width:0.8;"></path></g><g id="line2d_12"></g><g id="text_6"><!-- 55 --><g style="fill:#262626;" transform="translate(384.07818 325.37077)scale(0.14 -0.14)"><use xlink:href="#DejaVuSans-53"></use><use x="63.623047" xlink:href="#DejaVuSans-53"></use></g></g></g><g id="xtick_7"><g id="line2d_13"><path clip-path="url(#pa0b9f56694)" d="M 459.008338 311.232957 
L 459.008338 7.2 
" style="fill:none;stroke:#ffffff;stroke-linecap:round;stroke-width:0.8;"></path></g><g id="line2d_14"></g><g id="text_7"><!-- 60 --><defs><path d="M 33.015625 40.375 
Q 26.375 40.375 22.484375 35.828125 
Q 18.609375 31.296875 18.609375 23.390625 
Q 18.609375 15.53125 22.484375 10.953125 
Q 26.375 6.390625 33.015625 6.390625 
Q 39.65625 6.390625 43.53125 10.953125 
Q 47.40625 15.53125 47.40625 23.390625 
Q 47.40625 31.296875 43.53125 35.828125 
Q 39.65625 40.375 33.015625 40.375 
z
M 52.59375 71.296875 
L 52.59375 62.3125 
Q 48.875 64.0625 45.09375 64.984375 
Q 41.3125 65.921875 37.59375 65.921875 
Q 27.828125 65.921875 22.671875 59.328125 
Q 17.53125 52.734375 16.796875 39.40625 
Q 19.671875 43.65625 24.015625 45.921875 
Q 28.375 48.1875 33.59375 48.1875 
Q 44.578125 48.1875 50.953125 41.515625 
Q 57.328125 34.859375 57.328125 23.390625 
Q 57.328125 12.15625 50.6875 5.359375 
Q 44.046875 -1.421875 33.015625 -1.421875 
Q 20.359375 -1.421875 13.671875 8.265625 
Q 6.984375 17.96875 6.984375 36.375 
Q 6.984375 53.65625 15.1875 63.9375 
Q 23.390625 74.21875 37.203125 74.21875 
Q 40.921875 74.21875 44.703125 73.484375 
Q 48.484375 72.75 52.59375 71.296875 
z
" id="DejaVuSans-54"></path></defs><g style="fill:#262626;" transform="translate(450.100838 325.37077)scale(0.14 -0.14)"><use xlink:href="#DejaVuSans-54"></use><use x="63.623047" xlink:href="#DejaVuSans-48"></use></g></g></g><g id="text_8"><!-- weight --><defs><path d="M 4.203125 54.6875 
L 13.1875 54.6875 
L 24.421875 12.015625 
L 35.59375 54.6875 
L 46.1875 54.6875 
L 57.421875 12.015625 
L 68.609375 54.6875 
L 77.59375 54.6875 
L 63.28125 0 
L 52.6875 0 
L 40.921875 44.828125 
L 29.109375 0 
L 18.5 0 
z
" id="DejaVuSans-119"></path><path d="M 56.203125 29.59375 
L 56.203125 25.203125 
L 14.890625 25.203125 
Q 15.484375 15.921875 20.484375 11.0625 
Q 25.484375 6.203125 34.421875 6.203125 
Q 39.59375 6.203125 44.453125 7.46875 
Q 49.3125 8.734375 54.109375 11.28125 
L 54.109375 2.78125 
Q 49.265625 0.734375 44.1875 -0.34375 
Q 39.109375 -1.421875 33.890625 -1.421875 
Q 20.796875 -1.421875 13.15625 6.1875 
Q 5.515625 13.8125 5.515625 26.8125 
Q 5.515625 40.234375 12.765625 48.109375 
Q 20.015625 56 32.328125 56 
Q 43.359375 56 49.78125 48.890625 
Q 56.203125 41.796875 56.203125 29.59375 
z
M 47.21875 32.234375 
Q 47.125 39.59375 43.09375 43.984375 
Q 39.0625 48.390625 32.421875 48.390625 
Q 24.90625 48.390625 20.390625 44.140625 
Q 15.875 39.890625 15.1875 32.171875 
z
" id="DejaVuSans-101"></path><path d="M 9.421875 54.6875 
L 18.40625 54.6875 
L 18.40625 0 
L 9.421875 0 
z
M 9.421875 75.984375 
L 18.40625 75.984375 
L 18.40625 64.59375 
L 9.421875 64.59375 
z
" id="DejaVuSans-105"></path><path d="M 45.40625 27.984375 
Q 45.40625 37.75 41.375 43.109375 
Q 37.359375 48.484375 30.078125 48.484375 
Q 22.859375 48.484375 18.828125 43.109375 
Q 14.796875 37.75 14.796875 27.984375 
Q 14.796875 18.265625 18.828125 12.890625 
Q 22.859375 7.515625 30.078125 7.515625 
Q 37.359375 7.515625 41.375 12.890625 
Q 45.40625 18.265625 45.40625 27.984375 
z
M 54.390625 6.78125 
Q 54.390625 -7.171875 48.1875 -13.984375 
Q 42 -20.796875 29.203125 -20.796875 
Q 24.46875 -20.796875 20.265625 -20.09375 
Q 16.0625 -19.390625 12.109375 -17.921875 
L 12.109375 -9.1875 
Q 16.0625 -11.328125 19.921875 -12.34375 
Q 23.78125 -13.375 27.78125 -13.375 
Q 36.625 -13.375 41.015625 -8.765625 
Q 45.40625 -4.15625 45.40625 5.171875 
L 45.40625 9.625 
Q 42.625 4.78125 38.28125 2.390625 
Q 33.9375 0 27.875 0 
Q 17.828125 0 11.671875 7.65625 
Q 5.515625 15.328125 5.515625 27.984375 
Q 5.515625 40.671875 11.671875 48.328125 
Q 17.828125 56 27.875 56 
Q 33.9375 56 38.28125 53.609375 
Q 42.625 51.21875 45.40625 46.390625 
L 45.40625 54.6875 
L 54.390625 54.6875 
z
" id="DejaVuSans-103"></path><path d="M 54.890625 33.015625 
L 54.890625 0 
L 45.90625 0 
L 45.90625 32.71875 
Q 45.90625 40.484375 42.875 44.328125 
Q 39.84375 48.1875 33.796875 48.1875 
Q 26.515625 48.1875 22.3125 43.546875 
Q 18.109375 38.921875 18.109375 30.90625 
L 18.109375 0 
L 9.078125 0 
L 9.078125 75.984375 
L 18.109375 75.984375 
L 18.109375 46.1875 
Q 21.34375 51.125 25.703125 53.5625 
Q 30.078125 56 35.796875 56 
Q 45.21875 56 50.046875 50.171875 
Q 54.890625 44.34375 54.890625 33.015625 
z
" id="DejaVuSans-104"></path><path d="M 18.3125 70.21875 
L 18.3125 54.6875 
L 36.8125 54.6875 
L 36.8125 47.703125 
L 18.3125 47.703125 
L 18.3125 18.015625 
Q 18.3125 11.328125 20.140625 9.421875 
Q 21.96875 7.515625 27.59375 7.515625 
L 36.8125 7.515625 
L 36.8125 0 
L 27.59375 0 
Q 17.1875 0 13.234375 3.875 
Q 9.28125 7.765625 9.28125 18.015625 
L 9.28125 47.703125 
L 2.6875 47.703125 
L 2.6875 54.6875 
L 9.28125 54.6875 
L 9.28125 70.21875 
z
" id="DejaVuSans-116"></path></defs><g style="fill:#262626;" transform="translate(262.482885 343.679989)scale(0.15 -0.15)"><use xlink:href="#DejaVuSans-119"></use><use x="81.787109" xlink:href="#DejaVuSans-101"></use><use x="143.310547" xlink:href="#DejaVuSans-105"></use><use x="171.09375" xlink:href="#DejaVuSans-103"></use><use x="234.570312" xlink:href="#DejaVuSans-104"></use><use x="297.949219" xlink:href="#DejaVuSans-116"></use></g></g></g><g id="matplotlib.axis_2"><g id="ytick_1"><g id="line2d_15"><path clip-path="url(#pa0b9f56694)" d="M 55.939688 274.83794 
L 519.59952 274.83794 
" style="fill:none;stroke:#ffffff;stroke-linecap:round;stroke-width:0.8;"></path></g><g id="line2d_16"></g><g id="text_9"><!-- 140 --><defs><path d="M 12.40625 8.296875 
L 28.515625 8.296875 
L 28.515625 63.921875 
L 10.984375 60.40625 
L 10.984375 69.390625 
L 28.421875 72.90625 
L 38.28125 72.90625 
L 38.28125 8.296875 
L 54.390625 8.296875 
L 54.390625 0 
L 12.40625 0 
z
" id="DejaVuSans-49"></path></defs><g style="fill:#262626;" transform="translate(25.717188 280.156846)scale(0.14 -0.14)"><use xlink:href="#DejaVuSans-49"></use><use x="63.623047" xlink:href="#DejaVuSans-52"></use><use x="127.246094" xlink:href="#DejaVuSans-48"></use></g></g></g><g id="ytick_2"><g id="line2d_17"><path clip-path="url(#pa0b9f56694)" d="M 55.939688 209.872938 
L 519.59952 209.872938 
" style="fill:none;stroke:#ffffff;stroke-linecap:round;stroke-width:0.8;"></path></g><g id="line2d_18"></g><g id="text_10"><!-- 150 --><g style="fill:#262626;" transform="translate(25.717188 215.191845)scale(0.14 -0.14)"><use xlink:href="#DejaVuSans-49"></use><use x="63.623047" xlink:href="#DejaVuSans-53"></use><use x="127.246094" xlink:href="#DejaVuSans-48"></use></g></g></g><g id="ytick_3"><g id="line2d_19"><path clip-path="url(#pa0b9f56694)" d="M 55.939688 144.907937 
L 519.59952 144.907937 
" style="fill:none;stroke:#ffffff;stroke-linecap:round;stroke-width:0.8;"></path></g><g id="line2d_20"></g><g id="text_11"><!-- 160 --><g style="fill:#262626;" transform="translate(25.717188 150.226843)scale(0.14 -0.14)"><use xlink:href="#DejaVuSans-49"></use><use x="63.623047" xlink:href="#DejaVuSans-54"></use><use x="127.246094" xlink:href="#DejaVuSans-48"></use></g></g></g><g id="ytick_4"><g id="line2d_21"><path clip-path="url(#pa0b9f56694)" d="M 55.939688 79.942936 
L 519.59952 79.942936 
" style="fill:none;stroke:#ffffff;stroke-linecap:round;stroke-width:0.8;"></path></g><g id="line2d_22"></g><g id="text_12"><!-- 170 --><defs><path d="M 8.203125 72.90625 
L 55.078125 72.90625 
L 55.078125 68.703125 
L 28.609375 0 
L 18.3125 0 
L 43.21875 64.59375 
L 8.203125 64.59375 
z
" id="DejaVuSans-55"></path></defs><g style="fill:#262626;" transform="translate(25.717188 85.261842)scale(0.14 -0.14)"><use xlink:href="#DejaVuSans-49"></use><use x="63.623047" xlink:href="#DejaVuSans-55"></use><use x="127.246094" xlink:href="#DejaVuSans-48"></use></g></g></g><g id="ytick_5"><g id="line2d_23"><path clip-path="url(#pa0b9f56694)" d="M 55.939688 14.977935 
L 519.59952 14.977935 
" style="fill:none;stroke:#ffffff;stroke-linecap:round;stroke-width:0.8;"></path></g><g id="line2d_24"></g><g id="text_13"><!-- 180 --><defs><path d="M 31.78125 34.625 
Q 24.75 34.625 20.71875 30.859375 
Q 16.703125 27.09375 16.703125 20.515625 
Q 16.703125 13.921875 20.71875 10.15625 
Q 24.75 6.390625 31.78125 6.390625 
Q 38.8125 6.390625 42.859375 10.171875 
Q 46.921875 13.96875 46.921875 20.515625 
Q 46.921875 27.09375 42.890625 30.859375 
Q 38.875 34.625 31.78125 34.625 
z
M 21.921875 38.8125 
Q 15.578125 40.375 12.03125 44.71875 
Q 8.5 49.078125 8.5 55.328125 
Q 8.5 64.0625 14.71875 69.140625 
Q 20.953125 74.21875 31.78125 74.21875 
Q 42.671875 74.21875 48.875 69.140625 
Q 55.078125 64.0625 55.078125 55.328125 
Q 55.078125 49.078125 51.53125 44.71875 
Q 48 40.375 41.703125 38.8125 
Q 48.828125 37.15625 52.796875 32.3125 
Q 56.78125 27.484375 56.78125 20.515625 
Q 56.78125 9.90625 50.3125 4.234375 
Q 43.84375 -1.421875 31.78125 -1.421875 
Q 19.734375 -1.421875 13.25 4.234375 
Q 6.78125 9.90625 6.78125 20.515625 
Q 6.78125 27.484375 10.78125 32.3125 
Q 14.796875 37.15625 21.921875 38.8125 
z
M 18.3125 54.390625 
Q 18.3125 48.734375 21.84375 45.5625 
Q 25.390625 42.390625 31.78125 42.390625 
Q 38.140625 42.390625 41.71875 45.5625 
Q 45.3125 48.734375 45.3125 54.390625 
Q 45.3125 60.0625 41.71875 63.234375 
Q 38.140625 66.40625 31.78125 66.40625 
Q 25.390625 66.40625 21.84375 63.234375 
Q 18.3125 60.0625 18.3125 54.390625 
z
" id="DejaVuSans-56"></path></defs><g style="fill:#262626;" transform="translate(25.717188 20.296841)scale(0.14 -0.14)"><use xlink:href="#DejaVuSans-49"></use><use x="63.623047" xlink:href="#DejaVuSans-56"></use><use x="127.246094" xlink:href="#DejaVuSans-48"></use></g></g></g><g id="text_14"><!-- height --><g style="fill:#262626;" transform="translate(18.597656 183.122729)rotate(-90)scale(0.15 -0.15)"><use xlink:href="#DejaVuSans-104"></use><use x="63.378906" xlink:href="#DejaVuSans-101"></use><use x="124.902344" xlink:href="#DejaVuSans-105"></use><use x="152.685547" xlink:href="#DejaVuSans-103"></use><use x="216.162109" xlink:href="#DejaVuSans-104"></use><use x="279.541016" xlink:href="#DejaVuSans-116"></use></g></g></g><g id="line2d_25"><path clip-path="url(#pa0b9f56694)" d="M 298.251176 198.406616 
L 148.51443 276.78689 
L 87.496707 297.413278 
L 367.130079 165.404395 
L 211.778205 239.659392 
L 498.524073 120.026342 
L 171.723626 214.907726 
L 399.323479 87.024121 
L 127.176944 223.158281 
L 386.221514 111.775787 
L 325.578132 181.905505 
L 211.029522 202.531893 
L 142.524961 243.784669 
L 296.592601 210.522588 
L 113.700637 206.657171 
L 307.984064 124.151619 
L 225.628854 161.279118 
L 173.220993 249.230036 
L 313.599192 136.527452 
L 230.86964 169.529673 
L 135.412465 233.260339 
L 167.231524 219.033004 
L 135.038123 227.283559 
L 199.050582 223.158281 
L 394.457035 132.402174 
L 161.990738 235.534114 
L 175.092703 235.534114 
L 282.154476 192.301205 
L 179.584805 256.160502 
L 136.535491 256.160502 
L 292.636048 223.158281 
L 298.99986 140.65273 
L 319.21432 198.406616 
L 318.839978 126.296764 
L 413.54847 70.523011 
L 183.328224 227.283559 
L 325.578132 223.158281 
L 211.403864 181.905505 
L 175.841386 252.035224 
L 226.608584 231.311389 
L 256.324887 161.279118 
L 440.501084 107.650509 
L 283.651843 194.281338 
L 250.709759 264.411057 
L 338.847102 152.703737 
L 383.975463 173.65495 
L 272.795929 115.901064 
L 300.871569 198.406616 
L 356.274165 136.527452 
L 295.630783 181.905505 
L 269.426852 239.659392 
L 226.75188 239.659392 
L 148.51443 194.281338 
L 405.312949 120.026342 
L 157.872977 247.909947 
L 304.614988 186.030783 
L 159.744686 256.160502 
L 289.641313 99.399954 
L 291.138681 155.173707 
L 426.650435 107.650509 
L 167.605865 210.782448 
L 290.015655 177.780228 
L 237.233452 138.672596 
L 330.444576 132.402174 
L 186.697301 223.158281 
L 336.060945 148.903285 
L 187.445984 219.033004 
L 145.894037 297.413278 
L 277.662373 157.15384 
L 224.880171 243.784669 
L 295.630783 165.404395 
L 402.318214 21.01968 
L 307.984064 78.773566 
L 231.992666 235.534114 
L 129.797337 227.283559 
L 416.168863 128.276897 
L 343.546541 194.281338 
L 290.389997 144.778007 
L 207.286103 210.782448 
L 98.726963 256.160502 
L 420.286624 99.399954 
L 234.238717 148.903285 
L 194.184138 177.780228 
L 273.544613 128.276897 
L 209.532154 194.281338 
L 295.256441 78.773566 
L 161.990738 235.534114 
L 261.191331 148.903285 
L 224.880171 202.531893 
L 391.087958 140.65273 
L 373.493891 82.898844 
L 355.899823 153.028562 
L 226.75188 210.782448 
L 321.460371 190.156061 
L 217.767675 132.402174 
L 406.435975 128.276897 
L 223.382803 214.907726 
L 367.878763 124.151619 
L 330.070234 132.402174 
L 228.249247 239.659392 
L 315.09656 124.151619 
L 175.092703 202.531893 
L 324.455106 206.657171 
L 455.849101 74.648288 
L 299.748543 161.279118 
L 185.574275 194.281338 
L 153.755217 227.283559 
L 223.008461 239.659392 
L 255.201862 161.279118 
L 298.625518 181.905505 
L 395.580061 99.399954 
L 102.470381 256.160502 
L 206.537419 194.281338 
L 342.808461 144.907937 
L 314.347876 148.903285 
L 372.370865 210.782448 
L 380.980728 140.65273 
L 397.826112 140.65273 
L 224.505829 214.907726 
L 207.286103 268.536335 
L 322.957739 177.780228 
L 252.207127 264.411057 
L 273.544613 144.778007 
L 220.76241 208.802315 
L 346.541276 173.65495 
L 249.212392 169.529673 
L 91.988809 190.156061 
L 416.168863 99.399954 
L 362.263635 210.782448 
L 148.51443 223.158281 
L 311.727483 148.903285 
L 418.789256 132.402174 
L 222.634119 173.65495 
L 329.321551 148.903285 
L 281.405792 231.408836 
L 482.801715 62.272456 
L 313.599192 103.525231 
L 83.004604 264.411057 
L 132.792072 198.406616 
L 269.426852 165.404395 
L 246.217657 219.033004 
L 268.303827 161.279118 
L 181.830856 210.782448 
L 210.280838 223.158281 
L 264.186066 190.156061 
L 374.991258 140.65273 
L 357.39719 214.907726 
L 182.953882 285.037445 
L 270.175536 128.276897 
L 200.173608 214.907726 
L 346.541276 153.028562 
L 177.338754 210.782448 
L 184.825591 157.15384 
L 252.207127 169.529673 
L 188.56901 219.033004 
L 77.015134 252.035224 
L 284.400527 181.905505 
L 203.168343 161.279118 
L 329.321551 161.279118 
L 211.778205 181.905505 
L 387.703868 91.149399 
L 260.81699 239.659392 
L 139.530226 214.907726 
L 263.811724 177.780228 
L 301.994595 128.276897 
L 269.801194 165.404395 
L 306.112355 138.342574 
L 210.65518 243.784669 
L 173.969677 252.035224 
L 223.008461 214.907726 
L 171.723626 210.782448 
L 304.989329 107.650509 
L 180.707831 247.909947 
L 195.307163 161.279118 
L 329.695892 181.905505 
L 383.601121 120.026342 
L 268.863085 169.529673 
L 187.445984 247.909947 
L 237.233452 128.276897 
L 87.496707 235.534114 
L 266.806459 177.780228 
L 169.103233 243.784669 
L 143.273644 231.408836 
L 206.537419 194.281338 
L 299.374202 120.026342 
L 296.753808 107.650509 
L 279.159741 169.529673 
L 210.280838 194.281338 
L 150.011798 272.661612 
L 302.368936 124.151619 
L 151.509165 202.531893 
L 413.54847 72.668155 
L 177.713096 210.782448 
L 293.759074 120.026342 
L 144.771012 264.411057 
L 211.778205 214.907726 
L 257.822255 235.534114 
L 332.690627 136.527452 
L 396.703086 128.276897 
L 167.605865 239.659392 
L 438.629375 74.648288 
L 253.330152 148.903285 
L 253.017647 148.805837 
L 255.201862 186.030783 
L 255.950545 144.778007 
L 201.296633 206.657171 
L 248.83805 214.907726 
L 121.187474 256.160502 
L 99.475646 261.110835 
L 141.401935 227.283559 
L 321.085686 128.276897 
L 369.001788 115.901064 
L 156.37561 144.778007 
L 201.670975 186.030783 
L 334.936679 99.399954 
L 247.340682 202.531893 
L 325.510525 190.156061 
L 110.33156 280.912167 
L 245.843315 194.281338 
L 302.368936 177.780228 
L 231.243982 223.158281 
L 114.449321 247.909947 
L 191.189403 173.65495 
L 141.401935 206.657171 
L 339.054439 173.65495 
L 270.92422 181.905505 
L 316.593927 161.279118 
L 443.495819 87.024121 
L 240.602529 206.657171 
L 352.905088 144.778007 
L 336.059704 95.274676 
L 118.941423 247.909947 
L 186.697301 239.659392 
L 453.228708 144.778007 
L 355.525481 115.901064 
L 194.55848 190.156061 
L 246.966341 214.907726 
L 387.718881 144.778007 
L 261.940015 214.907726 
L 212.526889 186.030783 
L 220.013726 206.657171 
L 228.245946 198.406616 
L 236.484768 157.15384 
L 205.788736 214.907726 
L 232.74135 198.406616 
L 276.91369 177.780228 
L 298.625518 136.527452 
L 228.249247 219.033004 
L 307.235381 140.65273 
L 272.421587 161.279118 
L 365.25837 99.399954 
L 294.882099 161.279118 
L 241.725555 194.281338 
L 240.228187 194.281338 
L 369.37613 132.402174 
L 256.699229 194.281338 
L 290.015655 148.903285 
L 84.876314 260.285779 
L 412.051103 87.024121 
L 403.44124 144.778007 
L 293.759074 157.15384 
L 263.063041 194.281338 
L 267.929485 173.65495 
L 312.101825 181.905505 
L 281.780134 165.404395 
L 246.217657 169.529673 
L 406.810316 91.149399 
L 196.055847 223.158281 
L 337.557072 161.279118 
L 278.106257 140.360387 
L 318.465637 136.527452 
L 249.212392 206.657171 
L 340.551807 124.151619 
L 205.040052 219.033004 
L 162.739421 219.033004 
L 348.038644 132.402174 
L 258.570938 186.030783 
L 239.853845 202.531893 
L 283.651843 120.026342 
L 188.943352 190.156061 
L 126.053919 198.406616 
L 185.574275 169.529673 
L 161.242054 272.661612 
L 309.481432 153.028562 
L 136.909833 256.160502 
L 243.971606 197.251538 
L 303.11762 136.527452 
L 339.803123 138.507585 
L 247.715024 243.784669 
L 303.11762 144.778007 
L 283.277501 138.507585 
L 411.676761 106.000398 
L 308.358406 157.978895 
L 303.491962 177.780228 
L 293.759074 140.65273 
L 136.161149 227.283559 
L 150.022302 231.311389 
L 313.22485 227.283559 
L 343.546541 60.457334 
L 281.03145 157.15384 
L 154.878242 227.283559 
L 309.10709 106.000398 
L 169.103233 210.782448 
L 291.138681 132.402174 
L 398.200454 120.026342 
L 382.478095 144.778007 
L 306.861039 177.780228 
L 235.361743 194.281338 
L 118.192739 235.534114 
L 326.326816 196.921516 
L 252.207127 198.406616 
L 108.459851 243.784669 
L 291.138681 140.65273 
L 275.790664 202.531893 
L 292.636048 186.030783 
L 206.163077 227.283559 
L 331.567602 276.78689 
L 262.688699 161.279118 
L 224.505829 177.780228 
L 216.64465 252.035224 
L 263.811724 157.15384 
L 343.546541 227.283559 
L 317.342611 144.778007 
L 342.797858 111.775787 
L 245.843315 177.780228 
L 135.786807 186.030783 
L 233.018328 264.411057 
L 284.400527 120.026342 
L 219.639385 136.527452 
L 171.149552 178.040088 
L 238.492663 136.462487 
L 374.991258 78.773566 
L 234.238717 210.782448 
L 191.938087 140.65273 
L 239.105161 177.780228 
L 362.263635 103.525231 
L 174.344019 221.013137 
L 231.992666 198.406616 
L 140.653251 219.033004 
L 250.709759 186.030783 
L 169.477575 231.408836 
L 249.212392 177.780228 
L 248.089366 169.529673 
L 298.99986 140.65273 
L 187.071642 235.534114 
L 208.78347 169.529673 
L 205.788736 194.281338 
L 287.769604 128.276897 
L 118.941423 256.160502 
L 355.525481 128.276897 
L 380.606386 169.529673 
L 360.391925 153.028562 
L 360.391925 153.028562 
" style="fill:none;"></path><defs><path d="M 0 1.5 
C 0.397805 1.5 0.77937 1.341951 1.06066 1.06066 
C 1.341951 0.77937 1.5 0.397805 1.5 0 
C 1.5 -0.397805 1.341951 -0.77937 1.06066 -1.06066 
C 0.77937 -1.341951 0.397805 -1.5 0 -1.5 
C -0.397805 -1.5 -0.77937 -1.341951 -1.06066 -1.06066 
C -1.341951 -0.77937 -1.5 -0.397805 -1.5 0 
C -1.5 0.397805 -1.341951 0.77937 -1.06066 1.06066 
C -0.77937 1.341951 -0.397805 1.5 0 1.5 
z
" id="m9aec85703a" style="stroke:#2a2eec;"></path></defs><g clip-path="url(#pa0b9f56694)"><use style="fill:#2a2eec;stroke:#2a2eec;" x="298.251176" xlink:href="#m9aec85703a" y="198.406616"></use><use style="fill:#2a2eec;stroke:#2a2eec;" x="148.51443" xlink:href="#m9aec85703a" y="276.78689"></use><use style="fill:#2a2eec;stroke:#2a2eec;" x="87.496707" xlink:href="#m9aec85703a" y="297.413278"></use><use style="fill:#2a2eec;stroke:#2a2eec;" x="367.130079" xlink:href="#m9aec85703a" y="165.404395"></use><use style="fill:#2a2eec;stroke:#2a2eec;" x="211.778205" xlink:href="#m9aec85703a" y="239.659392"></use><use style="fill:#2a2eec;stroke:#2a2eec;" x="498.524073" xlink:href="#m9aec85703a" y="120.026342"></use><use style="fill:#2a2eec;stroke:#2a2eec;" x="171.723626" xlink:href="#m9aec85703a" y="214.907726"></use><use style="fill:#2a2eec;stroke:#2a2eec;" x="399.323479" xlink:href="#m9aec85703a" y="87.024121"></use><use style="fill:#2a2eec;stroke:#2a2eec;" x="127.176944" xlink:href="#m9aec85703a" y="223.158281"></use><use style="fill:#2a2eec;stroke:#2a2eec;" x="386.221514" xlink:href="#m9aec85703a" y="111.775787"></use><use style="fill:#2a2eec;stroke:#2a2eec;" x="325.578132" xlink:href="#m9aec85703a" y="181.905505"></use><use style="fill:#2a2eec;stroke:#2a2eec;" x="211.029522" xlink:href="#m9aec85703a" y="202.531893"></use><use style="fill:#2a2eec;stroke:#2a2eec;" x="142.524961" xlink:href="#m9aec85703a" y="243.784669"></use><use style="fill:#2a2eec;stroke:#2a2eec;" x="296.592601" xlink:href="#m9aec85703a" y="210.522588"></use><use style="fill:#2a2eec;stroke:#2a2eec;" x="113.700637" xlink:href="#m9aec85703a" y="206.657171"></use><use style="fill:#2a2eec;stroke:#2a2eec;" x="307.984064" xlink:href="#m9aec85703a" y="124.151619"></use><use style="fill:#2a2eec;stroke:#2a2eec;" x="225.628854" xlink:href="#m9aec85703a" y="161.279118"></use><use style="fill:#2a2eec;stroke:#2a2eec;" x="173.220993" xlink:href="#m9aec85703a" y="249.230036"></use><use style="fill:#2a2eec;stroke:#2a2eec;" x="313.599192" xlink:href="#m9aec85703a" y="136.527452"></use><use style="fill:#2a2eec;stroke:#2a2eec;" x="230.86964" xlink:href="#m9aec85703a" y="169.529673"></use><use style="fill:#2a2eec;stroke:#2a2eec;" x="135.412465" xlink:href="#m9aec85703a" y="233.260339"></use><use style="fill:#2a2eec;stroke:#2a2eec;" x="167.231524" xlink:href="#m9aec85703a" y="219.033004"></use><use style="fill:#2a2eec;stroke:#2a2eec;" x="135.038123" xlink:href="#m9aec85703a" y="227.283559"></use><use style="fill:#2a2eec;stroke:#2a2eec;" x="199.050582" xlink:href="#m9aec85703a" y="223.158281"></use><use style="fill:#2a2eec;stroke:#2a2eec;" x="394.457035" xlink:href="#m9aec85703a" y="132.402174"></use><use style="fill:#2a2eec;stroke:#2a2eec;" x="161.990738" xlink:href="#m9aec85703a" y="235.534114"></use><use style="fill:#2a2eec;stroke:#2a2eec;" x="175.092703" xlink:href="#m9aec85703a" y="235.534114"></use><use style="fill:#2a2eec;stroke:#2a2eec;" x="282.154476" xlink:href="#m9aec85703a" y="192.301205"></use><use style="fill:#2a2eec;stroke:#2a2eec;" x="179.584805" xlink:href="#m9aec85703a" y="256.160502"></use><use style="fill:#2a2eec;stroke:#2a2eec;" x="136.535491" xlink:href="#m9aec85703a" y="256.160502"></use><use style="fill:#2a2eec;stroke:#2a2eec;" x="292.636048" xlink:href="#m9aec85703a" y="223.158281"></use><use style="fill:#2a2eec;stroke:#2a2eec;" x="298.99986" xlink:href="#m9aec85703a" y="140.65273"></use><use style="fill:#2a2eec;stroke:#2a2eec;" x="319.21432" xlink:href="#m9aec85703a" y="198.406616"></use><use style="fill:#2a2eec;stroke:#2a2eec;" x="318.839978" xlink:href="#m9aec85703a" y="126.296764"></use><use style="fill:#2a2eec;stroke:#2a2eec;" x="413.54847" xlink:href="#m9aec85703a" y="70.523011"></use><use style="fill:#2a2eec;stroke:#2a2eec;" x="183.328224" xlink:href="#m9aec85703a" y="227.283559"></use><use style="fill:#2a2eec;stroke:#2a2eec;" x="325.578132" xlink:href="#m9aec85703a" y="223.158281"></use><use style="fill:#2a2eec;stroke:#2a2eec;" x="211.403864" xlink:href="#m9aec85703a" y="181.905505"></use><use style="fill:#2a2eec;stroke:#2a2eec;" x="175.841386" xlink:href="#m9aec85703a" y="252.035224"></use><use style="fill:#2a2eec;stroke:#2a2eec;" x="226.608584" xlink:href="#m9aec85703a" y="231.311389"></use><use style="fill:#2a2eec;stroke:#2a2eec;" x="256.324887" xlink:href="#m9aec85703a" y="161.279118"></use><use style="fill:#2a2eec;stroke:#2a2eec;" x="440.501084" xlink:href="#m9aec85703a" y="107.650509"></use><use style="fill:#2a2eec;stroke:#2a2eec;" x="283.651843" xlink:href="#m9aec85703a" y="194.281338"></use><use style="fill:#2a2eec;stroke:#2a2eec;" x="250.709759" xlink:href="#m9aec85703a" y="264.411057"></use><use style="fill:#2a2eec;stroke:#2a2eec;" x="338.847102" xlink:href="#m9aec85703a" y="152.703737"></use><use style="fill:#2a2eec;stroke:#2a2eec;" x="383.975463" xlink:href="#m9aec85703a" y="173.65495"></use><use style="fill:#2a2eec;stroke:#2a2eec;" x="272.795929" xlink:href="#m9aec85703a" y="115.901064"></use><use style="fill:#2a2eec;stroke:#2a2eec;" x="300.871569" xlink:href="#m9aec85703a" y="198.406616"></use><use style="fill:#2a2eec;stroke:#2a2eec;" x="356.274165" xlink:href="#m9aec85703a" y="136.527452"></use><use style="fill:#2a2eec;stroke:#2a2eec;" x="295.630783" xlink:href="#m9aec85703a" y="181.905505"></use><use style="fill:#2a2eec;stroke:#2a2eec;" x="269.426852" xlink:href="#m9aec85703a" y="239.659392"></use><use style="fill:#2a2eec;stroke:#2a2eec;" x="226.75188" xlink:href="#m9aec85703a" y="239.659392"></use><use style="fill:#2a2eec;stroke:#2a2eec;" x="148.51443" xlink:href="#m9aec85703a" y="194.281338"></use><use style="fill:#2a2eec;stroke:#2a2eec;" x="405.312949" xlink:href="#m9aec85703a" y="120.026342"></use><use style="fill:#2a2eec;stroke:#2a2eec;" x="157.872977" xlink:href="#m9aec85703a" y="247.909947"></use><use style="fill:#2a2eec;stroke:#2a2eec;" x="304.614988" xlink:href="#m9aec85703a" y="186.030783"></use><use style="fill:#2a2eec;stroke:#2a2eec;" x="159.744686" xlink:href="#m9aec85703a" y="256.160502"></use><use style="fill:#2a2eec;stroke:#2a2eec;" x="289.641313" xlink:href="#m9aec85703a" y="99.399954"></use><use style="fill:#2a2eec;stroke:#2a2eec;" x="291.138681" xlink:href="#m9aec85703a" y="155.173707"></use><use style="fill:#2a2eec;stroke:#2a2eec;" x="426.650435" xlink:href="#m9aec85703a" y="107.650509"></use><use style="fill:#2a2eec;stroke:#2a2eec;" x="167.605865" xlink:href="#m9aec85703a" y="210.782448"></use><use style="fill:#2a2eec;stroke:#2a2eec;" x="290.015655" xlink:href="#m9aec85703a" y="177.780228"></use><use style="fill:#2a2eec;stroke:#2a2eec;" x="237.233452" xlink:href="#m9aec85703a" y="138.672596"></use><use style="fill:#2a2eec;stroke:#2a2eec;" x="330.444576" xlink:href="#m9aec85703a" y="132.402174"></use><use style="fill:#2a2eec;stroke:#2a2eec;" x="186.697301" xlink:href="#m9aec85703a" y="223.158281"></use><use style="fill:#2a2eec;stroke:#2a2eec;" x="336.060945" xlink:href="#m9aec85703a" y="148.903285"></use><use style="fill:#2a2eec;stroke:#2a2eec;" x="187.445984" xlink:href="#m9aec85703a" y="219.033004"></use><use style="fill:#2a2eec;stroke:#2a2eec;" x="145.894037" xlink:href="#m9aec85703a" y="297.413278"></use><use style="fill:#2a2eec;stroke:#2a2eec;" x="277.662373" xlink:href="#m9aec85703a" y="157.15384"></use><use style="fill:#2a2eec;stroke:#2a2eec;" x="224.880171" xlink:href="#m9aec85703a" y="243.784669"></use><use style="fill:#2a2eec;stroke:#2a2eec;" x="295.630783" xlink:href="#m9aec85703a" y="165.404395"></use><use style="fill:#2a2eec;stroke:#2a2eec;" x="402.318214" xlink:href="#m9aec85703a" y="21.01968"></use><use style="fill:#2a2eec;stroke:#2a2eec;" x="307.984064" xlink:href="#m9aec85703a" y="78.773566"></use><use style="fill:#2a2eec;stroke:#2a2eec;" x="231.992666" xlink:href="#m9aec85703a" y="235.534114"></use><use style="fill:#2a2eec;stroke:#2a2eec;" x="129.797337" xlink:href="#m9aec85703a" y="227.283559"></use><use style="fill:#2a2eec;stroke:#2a2eec;" x="416.168863" xlink:href="#m9aec85703a" y="128.276897"></use><use style="fill:#2a2eec;stroke:#2a2eec;" x="343.546541" xlink:href="#m9aec85703a" y="194.281338"></use><use style="fill:#2a2eec;stroke:#2a2eec;" x="290.389997" xlink:href="#m9aec85703a" y="144.778007"></use><use style="fill:#2a2eec;stroke:#2a2eec;" x="207.286103" xlink:href="#m9aec85703a" y="210.782448"></use><use style="fill:#2a2eec;stroke:#2a2eec;" x="98.726963" xlink:href="#m9aec85703a" y="256.160502"></use><use style="fill:#2a2eec;stroke:#2a2eec;" x="420.286624" xlink:href="#m9aec85703a" y="99.399954"></use><use style="fill:#2a2eec;stroke:#2a2eec;" x="234.238717" xlink:href="#m9aec85703a" y="148.903285"></use><use style="fill:#2a2eec;stroke:#2a2eec;" x="194.184138" xlink:href="#m9aec85703a" y="177.780228"></use><use style="fill:#2a2eec;stroke:#2a2eec;" x="273.544613" xlink:href="#m9aec85703a" y="128.276897"></use><use style="fill:#2a2eec;stroke:#2a2eec;" x="209.532154" xlink:href="#m9aec85703a" y="194.281338"></use><use style="fill:#2a2eec;stroke:#2a2eec;" x="295.256441" xlink:href="#m9aec85703a" y="78.773566"></use><use style="fill:#2a2eec;stroke:#2a2eec;" x="161.990738" xlink:href="#m9aec85703a" y="235.534114"></use><use style="fill:#2a2eec;stroke:#2a2eec;" x="261.191331" xlink:href="#m9aec85703a" y="148.903285"></use><use style="fill:#2a2eec;stroke:#2a2eec;" x="224.880171" xlink:href="#m9aec85703a" y="202.531893"></use><use style="fill:#2a2eec;stroke:#2a2eec;" x="391.087958" xlink:href="#m9aec85703a" y="140.65273"></use><use style="fill:#2a2eec;stroke:#2a2eec;" x="373.493891" xlink:href="#m9aec85703a" y="82.898844"></use><use style="fill:#2a2eec;stroke:#2a2eec;" x="355.899823" xlink:href="#m9aec85703a" y="153.028562"></use><use style="fill:#2a2eec;stroke:#2a2eec;" x="226.75188" xlink:href="#m9aec85703a" y="210.782448"></use><use style="fill:#2a2eec;stroke:#2a2eec;" x="321.460371" xlink:href="#m9aec85703a" y="190.156061"></use><use style="fill:#2a2eec;stroke:#2a2eec;" x="217.767675" xlink:href="#m9aec85703a" y="132.402174"></use><use style="fill:#2a2eec;stroke:#2a2eec;" x="406.435975" xlink:href="#m9aec85703a" y="128.276897"></use><use style="fill:#2a2eec;stroke:#2a2eec;" x="223.382803" xlink:href="#m9aec85703a" y="214.907726"></use><use style="fill:#2a2eec;stroke:#2a2eec;" x="367.878763" xlink:href="#m9aec85703a" y="124.151619"></use><use style="fill:#2a2eec;stroke:#2a2eec;" x="330.070234" xlink:href="#m9aec85703a" y="132.402174"></use><use style="fill:#2a2eec;stroke:#2a2eec;" x="228.249247" xlink:href="#m9aec85703a" y="239.659392"></use><use style="fill:#2a2eec;stroke:#2a2eec;" x="315.09656" xlink:href="#m9aec85703a" y="124.151619"></use><use style="fill:#2a2eec;stroke:#2a2eec;" x="175.092703" xlink:href="#m9aec85703a" y="202.531893"></use><use style="fill:#2a2eec;stroke:#2a2eec;" x="324.455106" xlink:href="#m9aec85703a" y="206.657171"></use><use style="fill:#2a2eec;stroke:#2a2eec;" x="455.849101" xlink:href="#m9aec85703a" y="74.648288"></use><use style="fill:#2a2eec;stroke:#2a2eec;" x="299.748543" xlink:href="#m9aec85703a" y="161.279118"></use><use style="fill:#2a2eec;stroke:#2a2eec;" x="185.574275" xlink:href="#m9aec85703a" y="194.281338"></use><use style="fill:#2a2eec;stroke:#2a2eec;" x="153.755217" xlink:href="#m9aec85703a" y="227.283559"></use><use style="fill:#2a2eec;stroke:#2a2eec;" x="223.008461" xlink:href="#m9aec85703a" y="239.659392"></use><use style="fill:#2a2eec;stroke:#2a2eec;" x="255.201862" xlink:href="#m9aec85703a" y="161.279118"></use><use style="fill:#2a2eec;stroke:#2a2eec;" x="298.625518" xlink:href="#m9aec85703a" y="181.905505"></use><use style="fill:#2a2eec;stroke:#2a2eec;" x="395.580061" xlink:href="#m9aec85703a" y="99.399954"></use><use style="fill:#2a2eec;stroke:#2a2eec;" x="102.470381" xlink:href="#m9aec85703a" y="256.160502"></use><use style="fill:#2a2eec;stroke:#2a2eec;" x="206.537419" xlink:href="#m9aec85703a" y="194.281338"></use><use style="fill:#2a2eec;stroke:#2a2eec;" x="342.808461" xlink:href="#m9aec85703a" y="144.907937"></use><use style="fill:#2a2eec;stroke:#2a2eec;" x="314.347876" xlink:href="#m9aec85703a" y="148.903285"></use><use style="fill:#2a2eec;stroke:#2a2eec;" x="372.370865" xlink:href="#m9aec85703a" y="210.782448"></use><use style="fill:#2a2eec;stroke:#2a2eec;" x="380.980728" xlink:href="#m9aec85703a" y="140.65273"></use><use style="fill:#2a2eec;stroke:#2a2eec;" x="397.826112" xlink:href="#m9aec85703a" y="140.65273"></use><use style="fill:#2a2eec;stroke:#2a2eec;" x="224.505829" xlink:href="#m9aec85703a" y="214.907726"></use><use style="fill:#2a2eec;stroke:#2a2eec;" x="207.286103" xlink:href="#m9aec85703a" y="268.536335"></use><use style="fill:#2a2eec;stroke:#2a2eec;" x="322.957739" xlink:href="#m9aec85703a" y="177.780228"></use><use style="fill:#2a2eec;stroke:#2a2eec;" x="252.207127" xlink:href="#m9aec85703a" y="264.411057"></use><use style="fill:#2a2eec;stroke:#2a2eec;" x="273.544613" xlink:href="#m9aec85703a" y="144.778007"></use><use style="fill:#2a2eec;stroke:#2a2eec;" x="220.76241" xlink:href="#m9aec85703a" y="208.802315"></use><use style="fill:#2a2eec;stroke:#2a2eec;" x="346.541276" xlink:href="#m9aec85703a" y="173.65495"></use><use style="fill:#2a2eec;stroke:#2a2eec;" x="249.212392" xlink:href="#m9aec85703a" y="169.529673"></use><use style="fill:#2a2eec;stroke:#2a2eec;" x="91.988809" xlink:href="#m9aec85703a" y="190.156061"></use><use style="fill:#2a2eec;stroke:#2a2eec;" x="416.168863" xlink:href="#m9aec85703a" y="99.399954"></use><use style="fill:#2a2eec;stroke:#2a2eec;" x="362.263635" xlink:href="#m9aec85703a" y="210.782448"></use><use style="fill:#2a2eec;stroke:#2a2eec;" x="148.51443" xlink:href="#m9aec85703a" y="223.158281"></use><use style="fill:#2a2eec;stroke:#2a2eec;" x="311.727483" xlink:href="#m9aec85703a" y="148.903285"></use><use style="fill:#2a2eec;stroke:#2a2eec;" x="418.789256" xlink:href="#m9aec85703a" y="132.402174"></use><use style="fill:#2a2eec;stroke:#2a2eec;" x="222.634119" xlink:href="#m9aec85703a" y="173.65495"></use><use style="fill:#2a2eec;stroke:#2a2eec;" x="329.321551" xlink:href="#m9aec85703a" y="148.903285"></use><use style="fill:#2a2eec;stroke:#2a2eec;" x="281.405792" xlink:href="#m9aec85703a" y="231.408836"></use><use style="fill:#2a2eec;stroke:#2a2eec;" x="482.801715" xlink:href="#m9aec85703a" y="62.272456"></use><use style="fill:#2a2eec;stroke:#2a2eec;" x="313.599192" xlink:href="#m9aec85703a" y="103.525231"></use><use style="fill:#2a2eec;stroke:#2a2eec;" x="83.004604" xlink:href="#m9aec85703a" y="264.411057"></use><use style="fill:#2a2eec;stroke:#2a2eec;" x="132.792072" xlink:href="#m9aec85703a" y="198.406616"></use><use style="fill:#2a2eec;stroke:#2a2eec;" x="269.426852" xlink:href="#m9aec85703a" y="165.404395"></use><use style="fill:#2a2eec;stroke:#2a2eec;" x="246.217657" xlink:href="#m9aec85703a" y="219.033004"></use><use style="fill:#2a2eec;stroke:#2a2eec;" x="268.303827" xlink:href="#m9aec85703a" y="161.279118"></use><use style="fill:#2a2eec;stroke:#2a2eec;" x="181.830856" xlink:href="#m9aec85703a" y="210.782448"></use><use style="fill:#2a2eec;stroke:#2a2eec;" x="210.280838" xlink:href="#m9aec85703a" y="223.158281"></use><use style="fill:#2a2eec;stroke:#2a2eec;" x="264.186066" xlink:href="#m9aec85703a" y="190.156061"></use><use style="fill:#2a2eec;stroke:#2a2eec;" x="374.991258" xlink:href="#m9aec85703a" y="140.65273"></use><use style="fill:#2a2eec;stroke:#2a2eec;" x="357.39719" xlink:href="#m9aec85703a" y="214.907726"></use><use style="fill:#2a2eec;stroke:#2a2eec;" x="182.953882" xlink:href="#m9aec85703a" y="285.037445"></use><use style="fill:#2a2eec;stroke:#2a2eec;" x="270.175536" xlink:href="#m9aec85703a" y="128.276897"></use><use style="fill:#2a2eec;stroke:#2a2eec;" x="200.173608" xlink:href="#m9aec85703a" y="214.907726"></use><use style="fill:#2a2eec;stroke:#2a2eec;" x="346.541276" xlink:href="#m9aec85703a" y="153.028562"></use><use style="fill:#2a2eec;stroke:#2a2eec;" x="177.338754" xlink:href="#m9aec85703a" y="210.782448"></use><use style="fill:#2a2eec;stroke:#2a2eec;" x="184.825591" xlink:href="#m9aec85703a" y="157.15384"></use><use style="fill:#2a2eec;stroke:#2a2eec;" x="252.207127" xlink:href="#m9aec85703a" y="169.529673"></use><use style="fill:#2a2eec;stroke:#2a2eec;" x="188.56901" xlink:href="#m9aec85703a" y="219.033004"></use><use style="fill:#2a2eec;stroke:#2a2eec;" x="77.015134" xlink:href="#m9aec85703a" y="252.035224"></use><use style="fill:#2a2eec;stroke:#2a2eec;" x="284.400527" xlink:href="#m9aec85703a" y="181.905505"></use><use style="fill:#2a2eec;stroke:#2a2eec;" x="203.168343" xlink:href="#m9aec85703a" y="161.279118"></use><use style="fill:#2a2eec;stroke:#2a2eec;" x="329.321551" xlink:href="#m9aec85703a" y="161.279118"></use><use style="fill:#2a2eec;stroke:#2a2eec;" x="211.778205" xlink:href="#m9aec85703a" y="181.905505"></use><use style="fill:#2a2eec;stroke:#2a2eec;" x="387.703868" xlink:href="#m9aec85703a" y="91.149399"></use><use style="fill:#2a2eec;stroke:#2a2eec;" x="260.81699" xlink:href="#m9aec85703a" y="239.659392"></use><use style="fill:#2a2eec;stroke:#2a2eec;" x="139.530226" xlink:href="#m9aec85703a" y="214.907726"></use><use style="fill:#2a2eec;stroke:#2a2eec;" x="263.811724" xlink:href="#m9aec85703a" y="177.780228"></use><use style="fill:#2a2eec;stroke:#2a2eec;" x="301.994595" xlink:href="#m9aec85703a" y="128.276897"></use><use style="fill:#2a2eec;stroke:#2a2eec;" x="269.801194" xlink:href="#m9aec85703a" y="165.404395"></use><use style="fill:#2a2eec;stroke:#2a2eec;" x="306.112355" xlink:href="#m9aec85703a" y="138.342574"></use><use style="fill:#2a2eec;stroke:#2a2eec;" x="210.65518" xlink:href="#m9aec85703a" y="243.784669"></use><use style="fill:#2a2eec;stroke:#2a2eec;" x="173.969677" xlink:href="#m9aec85703a" y="252.035224"></use><use style="fill:#2a2eec;stroke:#2a2eec;" x="223.008461" xlink:href="#m9aec85703a" y="214.907726"></use><use style="fill:#2a2eec;stroke:#2a2eec;" x="171.723626" xlink:href="#m9aec85703a" y="210.782448"></use><use style="fill:#2a2eec;stroke:#2a2eec;" x="304.989329" xlink:href="#m9aec85703a" y="107.650509"></use><use style="fill:#2a2eec;stroke:#2a2eec;" x="180.707831" xlink:href="#m9aec85703a" y="247.909947"></use><use style="fill:#2a2eec;stroke:#2a2eec;" x="195.307163" xlink:href="#m9aec85703a" y="161.279118"></use><use style="fill:#2a2eec;stroke:#2a2eec;" x="329.695892" xlink:href="#m9aec85703a" y="181.905505"></use><use style="fill:#2a2eec;stroke:#2a2eec;" x="383.601121" xlink:href="#m9aec85703a" y="120.026342"></use><use style="fill:#2a2eec;stroke:#2a2eec;" x="268.863085" xlink:href="#m9aec85703a" y="169.529673"></use><use style="fill:#2a2eec;stroke:#2a2eec;" x="187.445984" xlink:href="#m9aec85703a" y="247.909947"></use><use style="fill:#2a2eec;stroke:#2a2eec;" x="237.233452" xlink:href="#m9aec85703a" y="128.276897"></use><use style="fill:#2a2eec;stroke:#2a2eec;" x="87.496707" xlink:href="#m9aec85703a" y="235.534114"></use><use style="fill:#2a2eec;stroke:#2a2eec;" x="266.806459" xlink:href="#m9aec85703a" y="177.780228"></use><use style="fill:#2a2eec;stroke:#2a2eec;" x="169.103233" xlink:href="#m9aec85703a" y="243.784669"></use><use style="fill:#2a2eec;stroke:#2a2eec;" x="143.273644" xlink:href="#m9aec85703a" y="231.408836"></use><use style="fill:#2a2eec;stroke:#2a2eec;" x="206.537419" xlink:href="#m9aec85703a" y="194.281338"></use><use style="fill:#2a2eec;stroke:#2a2eec;" x="299.374202" xlink:href="#m9aec85703a" y="120.026342"></use><use style="fill:#2a2eec;stroke:#2a2eec;" x="296.753808" xlink:href="#m9aec85703a" y="107.650509"></use><use style="fill:#2a2eec;stroke:#2a2eec;" x="279.159741" xlink:href="#m9aec85703a" y="169.529673"></use><use style="fill:#2a2eec;stroke:#2a2eec;" x="210.280838" xlink:href="#m9aec85703a" y="194.281338"></use><use style="fill:#2a2eec;stroke:#2a2eec;" x="150.011798" xlink:href="#m9aec85703a" y="272.661612"></use><use style="fill:#2a2eec;stroke:#2a2eec;" x="302.368936" xlink:href="#m9aec85703a" y="124.151619"></use><use style="fill:#2a2eec;stroke:#2a2eec;" x="151.509165" xlink:href="#m9aec85703a" y="202.531893"></use><use style="fill:#2a2eec;stroke:#2a2eec;" x="413.54847" xlink:href="#m9aec85703a" y="72.668155"></use><use style="fill:#2a2eec;stroke:#2a2eec;" x="177.713096" xlink:href="#m9aec85703a" y="210.782448"></use><use style="fill:#2a2eec;stroke:#2a2eec;" x="293.759074" xlink:href="#m9aec85703a" y="120.026342"></use><use style="fill:#2a2eec;stroke:#2a2eec;" x="144.771012" xlink:href="#m9aec85703a" y="264.411057"></use><use style="fill:#2a2eec;stroke:#2a2eec;" x="211.778205" xlink:href="#m9aec85703a" y="214.907726"></use><use style="fill:#2a2eec;stroke:#2a2eec;" x="257.822255" xlink:href="#m9aec85703a" y="235.534114"></use><use style="fill:#2a2eec;stroke:#2a2eec;" x="332.690627" xlink:href="#m9aec85703a" y="136.527452"></use><use style="fill:#2a2eec;stroke:#2a2eec;" x="396.703086" xlink:href="#m9aec85703a" y="128.276897"></use><use style="fill:#2a2eec;stroke:#2a2eec;" x="167.605865" xlink:href="#m9aec85703a" y="239.659392"></use><use style="fill:#2a2eec;stroke:#2a2eec;" x="438.629375" xlink:href="#m9aec85703a" y="74.648288"></use><use style="fill:#2a2eec;stroke:#2a2eec;" x="253.330152" xlink:href="#m9aec85703a" y="148.903285"></use><use style="fill:#2a2eec;stroke:#2a2eec;" x="253.017647" xlink:href="#m9aec85703a" y="148.805837"></use><use style="fill:#2a2eec;stroke:#2a2eec;" x="255.201862" xlink:href="#m9aec85703a" y="186.030783"></use><use style="fill:#2a2eec;stroke:#2a2eec;" x="255.950545" xlink:href="#m9aec85703a" y="144.778007"></use><use style="fill:#2a2eec;stroke:#2a2eec;" x="201.296633" xlink:href="#m9aec85703a" y="206.657171"></use><use style="fill:#2a2eec;stroke:#2a2eec;" x="248.83805" xlink:href="#m9aec85703a" y="214.907726"></use><use style="fill:#2a2eec;stroke:#2a2eec;" x="121.187474" xlink:href="#m9aec85703a" y="256.160502"></use><use style="fill:#2a2eec;stroke:#2a2eec;" x="99.475646" xlink:href="#m9aec85703a" y="261.110835"></use><use style="fill:#2a2eec;stroke:#2a2eec;" x="141.401935" xlink:href="#m9aec85703a" y="227.283559"></use><use style="fill:#2a2eec;stroke:#2a2eec;" x="321.085686" xlink:href="#m9aec85703a" y="128.276897"></use><use style="fill:#2a2eec;stroke:#2a2eec;" x="369.001788" xlink:href="#m9aec85703a" y="115.901064"></use><use style="fill:#2a2eec;stroke:#2a2eec;" x="156.37561" xlink:href="#m9aec85703a" y="144.778007"></use><use style="fill:#2a2eec;stroke:#2a2eec;" x="201.670975" xlink:href="#m9aec85703a" y="186.030783"></use><use style="fill:#2a2eec;stroke:#2a2eec;" x="334.936679" xlink:href="#m9aec85703a" y="99.399954"></use><use style="fill:#2a2eec;stroke:#2a2eec;" x="247.340682" xlink:href="#m9aec85703a" y="202.531893"></use><use style="fill:#2a2eec;stroke:#2a2eec;" x="325.510525" xlink:href="#m9aec85703a" y="190.156061"></use><use style="fill:#2a2eec;stroke:#2a2eec;" x="110.33156" xlink:href="#m9aec85703a" y="280.912167"></use><use style="fill:#2a2eec;stroke:#2a2eec;" x="245.843315" xlink:href="#m9aec85703a" y="194.281338"></use><use style="fill:#2a2eec;stroke:#2a2eec;" x="302.368936" xlink:href="#m9aec85703a" y="177.780228"></use><use style="fill:#2a2eec;stroke:#2a2eec;" x="231.243982" xlink:href="#m9aec85703a" y="223.158281"></use><use style="fill:#2a2eec;stroke:#2a2eec;" x="114.449321" xlink:href="#m9aec85703a" y="247.909947"></use><use style="fill:#2a2eec;stroke:#2a2eec;" x="191.189403" xlink:href="#m9aec85703a" y="173.65495"></use><use style="fill:#2a2eec;stroke:#2a2eec;" x="141.401935" xlink:href="#m9aec85703a" y="206.657171"></use><use style="fill:#2a2eec;stroke:#2a2eec;" x="339.054439" xlink:href="#m9aec85703a" y="173.65495"></use><use style="fill:#2a2eec;stroke:#2a2eec;" x="270.92422" xlink:href="#m9aec85703a" y="181.905505"></use><use style="fill:#2a2eec;stroke:#2a2eec;" x="316.593927" xlink:href="#m9aec85703a" y="161.279118"></use><use style="fill:#2a2eec;stroke:#2a2eec;" x="443.495819" xlink:href="#m9aec85703a" y="87.024121"></use><use style="fill:#2a2eec;stroke:#2a2eec;" x="240.602529" xlink:href="#m9aec85703a" y="206.657171"></use><use style="fill:#2a2eec;stroke:#2a2eec;" x="352.905088" xlink:href="#m9aec85703a" y="144.778007"></use><use style="fill:#2a2eec;stroke:#2a2eec;" x="336.059704" xlink:href="#m9aec85703a" y="95.274676"></use><use style="fill:#2a2eec;stroke:#2a2eec;" x="118.941423" xlink:href="#m9aec85703a" y="247.909947"></use><use style="fill:#2a2eec;stroke:#2a2eec;" x="186.697301" xlink:href="#m9aec85703a" y="239.659392"></use><use style="fill:#2a2eec;stroke:#2a2eec;" x="453.228708" xlink:href="#m9aec85703a" y="144.778007"></use><use style="fill:#2a2eec;stroke:#2a2eec;" x="355.525481" xlink:href="#m9aec85703a" y="115.901064"></use><use style="fill:#2a2eec;stroke:#2a2eec;" x="194.55848" xlink:href="#m9aec85703a" y="190.156061"></use><use style="fill:#2a2eec;stroke:#2a2eec;" x="246.966341" xlink:href="#m9aec85703a" y="214.907726"></use><use style="fill:#2a2eec;stroke:#2a2eec;" x="387.718881" xlink:href="#m9aec85703a" y="144.778007"></use><use style="fill:#2a2eec;stroke:#2a2eec;" x="261.940015" xlink:href="#m9aec85703a" y="214.907726"></use><use style="fill:#2a2eec;stroke:#2a2eec;" x="212.526889" xlink:href="#m9aec85703a" y="186.030783"></use><use style="fill:#2a2eec;stroke:#2a2eec;" x="220.013726" xlink:href="#m9aec85703a" y="206.657171"></use><use style="fill:#2a2eec;stroke:#2a2eec;" x="228.245946" xlink:href="#m9aec85703a" y="198.406616"></use><use style="fill:#2a2eec;stroke:#2a2eec;" x="236.484768" xlink:href="#m9aec85703a" y="157.15384"></use><use style="fill:#2a2eec;stroke:#2a2eec;" x="205.788736" xlink:href="#m9aec85703a" y="214.907726"></use><use style="fill:#2a2eec;stroke:#2a2eec;" x="232.74135" xlink:href="#m9aec85703a" y="198.406616"></use><use style="fill:#2a2eec;stroke:#2a2eec;" x="276.91369" xlink:href="#m9aec85703a" y="177.780228"></use><use style="fill:#2a2eec;stroke:#2a2eec;" x="298.625518" xlink:href="#m9aec85703a" y="136.527452"></use><use style="fill:#2a2eec;stroke:#2a2eec;" x="228.249247" xlink:href="#m9aec85703a" y="219.033004"></use><use style="fill:#2a2eec;stroke:#2a2eec;" x="307.235381" xlink:href="#m9aec85703a" y="140.65273"></use><use style="fill:#2a2eec;stroke:#2a2eec;" x="272.421587" xlink:href="#m9aec85703a" y="161.279118"></use><use style="fill:#2a2eec;stroke:#2a2eec;" x="365.25837" xlink:href="#m9aec85703a" y="99.399954"></use><use style="fill:#2a2eec;stroke:#2a2eec;" x="294.882099" xlink:href="#m9aec85703a" y="161.279118"></use><use style="fill:#2a2eec;stroke:#2a2eec;" x="241.725555" xlink:href="#m9aec85703a" y="194.281338"></use><use style="fill:#2a2eec;stroke:#2a2eec;" x="240.228187" xlink:href="#m9aec85703a" y="194.281338"></use><use style="fill:#2a2eec;stroke:#2a2eec;" x="369.37613" xlink:href="#m9aec85703a" y="132.402174"></use><use style="fill:#2a2eec;stroke:#2a2eec;" x="256.699229" xlink:href="#m9aec85703a" y="194.281338"></use><use style="fill:#2a2eec;stroke:#2a2eec;" x="290.015655" xlink:href="#m9aec85703a" y="148.903285"></use><use style="fill:#2a2eec;stroke:#2a2eec;" x="84.876314" xlink:href="#m9aec85703a" y="260.285779"></use><use style="fill:#2a2eec;stroke:#2a2eec;" x="412.051103" xlink:href="#m9aec85703a" y="87.024121"></use><use style="fill:#2a2eec;stroke:#2a2eec;" x="403.44124" xlink:href="#m9aec85703a" y="144.778007"></use><use style="fill:#2a2eec;stroke:#2a2eec;" x="293.759074" xlink:href="#m9aec85703a" y="157.15384"></use><use style="fill:#2a2eec;stroke:#2a2eec;" x="263.063041" xlink:href="#m9aec85703a" y="194.281338"></use><use style="fill:#2a2eec;stroke:#2a2eec;" x="267.929485" xlink:href="#m9aec85703a" y="173.65495"></use><use style="fill:#2a2eec;stroke:#2a2eec;" x="312.101825" xlink:href="#m9aec85703a" y="181.905505"></use><use style="fill:#2a2eec;stroke:#2a2eec;" x="281.780134" xlink:href="#m9aec85703a" y="165.404395"></use><use style="fill:#2a2eec;stroke:#2a2eec;" x="246.217657" xlink:href="#m9aec85703a" y="169.529673"></use><use style="fill:#2a2eec;stroke:#2a2eec;" x="406.810316" xlink:href="#m9aec85703a" y="91.149399"></use><use style="fill:#2a2eec;stroke:#2a2eec;" x="196.055847" xlink:href="#m9aec85703a" y="223.158281"></use><use style="fill:#2a2eec;stroke:#2a2eec;" x="337.557072" xlink:href="#m9aec85703a" y="161.279118"></use><use style="fill:#2a2eec;stroke:#2a2eec;" x="278.106257" xlink:href="#m9aec85703a" y="140.360387"></use><use style="fill:#2a2eec;stroke:#2a2eec;" x="318.465637" xlink:href="#m9aec85703a" y="136.527452"></use><use style="fill:#2a2eec;stroke:#2a2eec;" x="249.212392" xlink:href="#m9aec85703a" y="206.657171"></use><use style="fill:#2a2eec;stroke:#2a2eec;" x="340.551807" xlink:href="#m9aec85703a" y="124.151619"></use><use style="fill:#2a2eec;stroke:#2a2eec;" x="205.040052" xlink:href="#m9aec85703a" y="219.033004"></use><use style="fill:#2a2eec;stroke:#2a2eec;" x="162.739421" xlink:href="#m9aec85703a" y="219.033004"></use><use style="fill:#2a2eec;stroke:#2a2eec;" x="348.038644" xlink:href="#m9aec85703a" y="132.402174"></use><use style="fill:#2a2eec;stroke:#2a2eec;" x="258.570938" xlink:href="#m9aec85703a" y="186.030783"></use><use style="fill:#2a2eec;stroke:#2a2eec;" x="239.853845" xlink:href="#m9aec85703a" y="202.531893"></use><use style="fill:#2a2eec;stroke:#2a2eec;" x="283.651843" xlink:href="#m9aec85703a" y="120.026342"></use><use style="fill:#2a2eec;stroke:#2a2eec;" x="188.943352" xlink:href="#m9aec85703a" y="190.156061"></use><use style="fill:#2a2eec;stroke:#2a2eec;" x="126.053919" xlink:href="#m9aec85703a" y="198.406616"></use><use style="fill:#2a2eec;stroke:#2a2eec;" x="185.574275" xlink:href="#m9aec85703a" y="169.529673"></use><use style="fill:#2a2eec;stroke:#2a2eec;" x="161.242054" xlink:href="#m9aec85703a" y="272.661612"></use><use style="fill:#2a2eec;stroke:#2a2eec;" x="309.481432" xlink:href="#m9aec85703a" y="153.028562"></use><use style="fill:#2a2eec;stroke:#2a2eec;" x="136.909833" xlink:href="#m9aec85703a" y="256.160502"></use><use style="fill:#2a2eec;stroke:#2a2eec;" x="243.971606" xlink:href="#m9aec85703a" y="197.251538"></use><use style="fill:#2a2eec;stroke:#2a2eec;" x="303.11762" xlink:href="#m9aec85703a" y="136.527452"></use><use style="fill:#2a2eec;stroke:#2a2eec;" x="339.803123" xlink:href="#m9aec85703a" y="138.507585"></use><use style="fill:#2a2eec;stroke:#2a2eec;" x="247.715024" xlink:href="#m9aec85703a" y="243.784669"></use><use style="fill:#2a2eec;stroke:#2a2eec;" x="303.11762" xlink:href="#m9aec85703a" y="144.778007"></use><use style="fill:#2a2eec;stroke:#2a2eec;" x="283.277501" xlink:href="#m9aec85703a" y="138.507585"></use><use style="fill:#2a2eec;stroke:#2a2eec;" x="411.676761" xlink:href="#m9aec85703a" y="106.000398"></use><use style="fill:#2a2eec;stroke:#2a2eec;" x="308.358406" xlink:href="#m9aec85703a" y="157.978895"></use><use style="fill:#2a2eec;stroke:#2a2eec;" x="303.491962" xlink:href="#m9aec85703a" y="177.780228"></use><use style="fill:#2a2eec;stroke:#2a2eec;" x="293.759074" xlink:href="#m9aec85703a" y="140.65273"></use><use style="fill:#2a2eec;stroke:#2a2eec;" x="136.161149" xlink:href="#m9aec85703a" y="227.283559"></use><use style="fill:#2a2eec;stroke:#2a2eec;" x="150.022302" xlink:href="#m9aec85703a" y="231.311389"></use><use style="fill:#2a2eec;stroke:#2a2eec;" x="313.22485" xlink:href="#m9aec85703a" y="227.283559"></use><use style="fill:#2a2eec;stroke:#2a2eec;" x="343.546541" xlink:href="#m9aec85703a" y="60.457334"></use><use style="fill:#2a2eec;stroke:#2a2eec;" x="281.03145" xlink:href="#m9aec85703a" y="157.15384"></use><use style="fill:#2a2eec;stroke:#2a2eec;" x="154.878242" xlink:href="#m9aec85703a" y="227.283559"></use><use style="fill:#2a2eec;stroke:#2a2eec;" x="309.10709" xlink:href="#m9aec85703a" y="106.000398"></use><use style="fill:#2a2eec;stroke:#2a2eec;" x="169.103233" xlink:href="#m9aec85703a" y="210.782448"></use><use style="fill:#2a2eec;stroke:#2a2eec;" x="291.138681" xlink:href="#m9aec85703a" y="132.402174"></use><use style="fill:#2a2eec;stroke:#2a2eec;" x="398.200454" xlink:href="#m9aec85703a" y="120.026342"></use><use style="fill:#2a2eec;stroke:#2a2eec;" x="382.478095" xlink:href="#m9aec85703a" y="144.778007"></use><use style="fill:#2a2eec;stroke:#2a2eec;" x="306.861039" xlink:href="#m9aec85703a" y="177.780228"></use><use style="fill:#2a2eec;stroke:#2a2eec;" x="235.361743" xlink:href="#m9aec85703a" y="194.281338"></use><use style="fill:#2a2eec;stroke:#2a2eec;" x="118.192739" xlink:href="#m9aec85703a" y="235.534114"></use><use style="fill:#2a2eec;stroke:#2a2eec;" x="326.326816" xlink:href="#m9aec85703a" y="196.921516"></use><use style="fill:#2a2eec;stroke:#2a2eec;" x="252.207127" xlink:href="#m9aec85703a" y="198.406616"></use><use style="fill:#2a2eec;stroke:#2a2eec;" x="108.459851" xlink:href="#m9aec85703a" y="243.784669"></use><use style="fill:#2a2eec;stroke:#2a2eec;" x="291.138681" xlink:href="#m9aec85703a" y="140.65273"></use><use style="fill:#2a2eec;stroke:#2a2eec;" x="275.790664" xlink:href="#m9aec85703a" y="202.531893"></use><use style="fill:#2a2eec;stroke:#2a2eec;" x="292.636048" xlink:href="#m9aec85703a" y="186.030783"></use><use style="fill:#2a2eec;stroke:#2a2eec;" x="206.163077" xlink:href="#m9aec85703a" y="227.283559"></use><use style="fill:#2a2eec;stroke:#2a2eec;" x="331.567602" xlink:href="#m9aec85703a" y="276.78689"></use><use style="fill:#2a2eec;stroke:#2a2eec;" x="262.688699" xlink:href="#m9aec85703a" y="161.279118"></use><use style="fill:#2a2eec;stroke:#2a2eec;" x="224.505829" xlink:href="#m9aec85703a" y="177.780228"></use><use style="fill:#2a2eec;stroke:#2a2eec;" x="216.64465" xlink:href="#m9aec85703a" y="252.035224"></use><use style="fill:#2a2eec;stroke:#2a2eec;" x="263.811724" xlink:href="#m9aec85703a" y="157.15384"></use><use style="fill:#2a2eec;stroke:#2a2eec;" x="343.546541" xlink:href="#m9aec85703a" y="227.283559"></use><use style="fill:#2a2eec;stroke:#2a2eec;" x="317.342611" xlink:href="#m9aec85703a" y="144.778007"></use><use style="fill:#2a2eec;stroke:#2a2eec;" x="342.797858" xlink:href="#m9aec85703a" y="111.775787"></use><use style="fill:#2a2eec;stroke:#2a2eec;" x="245.843315" xlink:href="#m9aec85703a" y="177.780228"></use><use style="fill:#2a2eec;stroke:#2a2eec;" x="135.786807" xlink:href="#m9aec85703a" y="186.030783"></use><use style="fill:#2a2eec;stroke:#2a2eec;" x="233.018328" xlink:href="#m9aec85703a" y="264.411057"></use><use style="fill:#2a2eec;stroke:#2a2eec;" x="284.400527" xlink:href="#m9aec85703a" y="120.026342"></use><use style="fill:#2a2eec;stroke:#2a2eec;" x="219.639385" xlink:href="#m9aec85703a" y="136.527452"></use><use style="fill:#2a2eec;stroke:#2a2eec;" x="171.149552" xlink:href="#m9aec85703a" y="178.040088"></use><use style="fill:#2a2eec;stroke:#2a2eec;" x="238.492663" xlink:href="#m9aec85703a" y="136.462487"></use><use style="fill:#2a2eec;stroke:#2a2eec;" x="374.991258" xlink:href="#m9aec85703a" y="78.773566"></use><use style="fill:#2a2eec;stroke:#2a2eec;" x="234.238717" xlink:href="#m9aec85703a" y="210.782448"></use><use style="fill:#2a2eec;stroke:#2a2eec;" x="191.938087" xlink:href="#m9aec85703a" y="140.65273"></use><use style="fill:#2a2eec;stroke:#2a2eec;" x="239.105161" xlink:href="#m9aec85703a" y="177.780228"></use><use style="fill:#2a2eec;stroke:#2a2eec;" x="362.263635" xlink:href="#m9aec85703a" y="103.525231"></use><use style="fill:#2a2eec;stroke:#2a2eec;" x="174.344019" xlink:href="#m9aec85703a" y="221.013137"></use><use style="fill:#2a2eec;stroke:#2a2eec;" x="231.992666" xlink:href="#m9aec85703a" y="198.406616"></use><use style="fill:#2a2eec;stroke:#2a2eec;" x="140.653251" xlink:href="#m9aec85703a" y="219.033004"></use><use style="fill:#2a2eec;stroke:#2a2eec;" x="250.709759" xlink:href="#m9aec85703a" y="186.030783"></use><use style="fill:#2a2eec;stroke:#2a2eec;" x="169.477575" xlink:href="#m9aec85703a" y="231.408836"></use><use style="fill:#2a2eec;stroke:#2a2eec;" x="249.212392" xlink:href="#m9aec85703a" y="177.780228"></use><use style="fill:#2a2eec;stroke:#2a2eec;" x="248.089366" xlink:href="#m9aec85703a" y="169.529673"></use><use style="fill:#2a2eec;stroke:#2a2eec;" x="298.99986" xlink:href="#m9aec85703a" y="140.65273"></use><use style="fill:#2a2eec;stroke:#2a2eec;" x="187.071642" xlink:href="#m9aec85703a" y="235.534114"></use><use style="fill:#2a2eec;stroke:#2a2eec;" x="208.78347" xlink:href="#m9aec85703a" y="169.529673"></use><use style="fill:#2a2eec;stroke:#2a2eec;" x="205.788736" xlink:href="#m9aec85703a" y="194.281338"></use><use style="fill:#2a2eec;stroke:#2a2eec;" x="287.769604" xlink:href="#m9aec85703a" y="128.276897"></use><use style="fill:#2a2eec;stroke:#2a2eec;" x="118.941423" xlink:href="#m9aec85703a" y="256.160502"></use><use style="fill:#2a2eec;stroke:#2a2eec;" x="355.525481" xlink:href="#m9aec85703a" y="128.276897"></use><use style="fill:#2a2eec;stroke:#2a2eec;" x="380.606386" xlink:href="#m9aec85703a" y="169.529673"></use><use style="fill:#2a2eec;stroke:#2a2eec;" x="360.391925" xlink:href="#m9aec85703a" y="153.028562"></use></g></g><g id="line2d_26"><path clip-path="url(#pa0b9f56694)" d="M 77.015142 261.764447 
L 81.230236 259.886156 
L 85.445331 258.007865 
L 89.660401 256.129673 
L 93.875521 254.251382 
L 98.09059 252.37319 
L 102.30566 250.494899 
L 106.52078 248.616608 
L 110.735849 246.738416 
L 114.950969 244.860125 
L 119.166039 242.981833 
L 123.381108 241.103642 
L 127.596228 239.22535 
L 131.811298 237.347059 
L 136.026418 235.468867 
L 140.241487 233.590576 
L 144.456557 231.712384 
L 148.671677 229.834093 
L 152.886746 227.955802 
L 157.101816 226.07761 
L 161.316936 224.199319 
L 165.532005 222.321028 
L 169.747125 220.442836 
L 173.962195 218.564545 
L 178.177264 216.686254 
L 182.392384 214.808062 
L 186.607454 212.929771 
L 190.822523 211.051579 
L 195.037643 209.173288 
L 199.252713 207.294997 
L 203.467832 205.416706 
L 207.682902 203.538514 
L 211.897972 201.660223 
L 216.113091 199.782031 
L 220.328161 197.90374 
L 224.543281 196.025449 
L 228.75835 194.147257 
L 232.97342 192.268966 
L 237.18854 190.390674 
L 241.403609 188.512483 
L 245.618729 186.634191 
L 249.833799 184.7559 
L 254.048868 182.877708 
L 258.263988 180.999417 
L 262.479058 179.121225 
L 266.694178 177.242934 
L 270.909247 175.364643 
L 275.124317 173.486451 
L 279.339437 171.60816 
L 283.554506 169.729869 
L 287.769626 167.851677 
L 291.984696 165.973386 
L 296.199765 164.095095 
L 300.414835 162.216903 
L 304.629955 160.338612 
L 308.845075 158.460321 
L 313.060144 156.582129 
L 317.275214 154.703838 
L 321.490283 152.825646 
L 325.705403 150.947355 
L 329.920523 149.069064 
L 334.135593 147.190872 
L 338.350662 145.312581 
L 342.565732 143.43429 
L 346.780852 141.556098 
L 350.995972 139.677807 
L 355.211041 137.799515 
L 359.426111 135.921324 
L 363.64118 134.043032 
L 367.8563 132.164741 
L 372.07142 130.286549 
L 376.28649 128.408258 
L 380.501559 126.530066 
L 384.716629 124.651775 
L 388.931749 122.773484 
L 393.146869 120.895193 
L 397.361938 119.017001 
L 401.577008 117.13871 
L 405.792077 115.260518 
L 410.007197 113.382227 
L 414.222267 111.503936 
L 418.437387 109.625744 
L 422.652456 107.747453 
L 426.867526 105.869261 
L 431.082646 103.99097 
L 435.297715 102.112679 
L 439.512835 100.234388 
L 443.727905 98.356196 
L 447.942974 96.477905 
L 452.158094 94.599713 
L 456.373164 92.721422 
L 460.588283 90.843131 
L 464.803353 88.964939 
L 469.018423 87.086648 
L 473.233492 85.208456 
L 477.448612 83.330165 
L 481.663732 81.451873 
L 485.878801 79.573582 
L 490.093871 77.69539 
L 494.308941 75.817099 
L 498.52406 73.938907 
" style="fill:none;stroke:#000000;stroke-linecap:round;stroke-width:1.5;"></path></g><g id="patch_3"><path d="M 55.939688 311.232958 
L 55.939688 7.2 
" style="fill:none;"></path></g><g id="patch_4"><path d="M 519.59952 311.232958 
L 519.59952 7.2 
" style="fill:none;"></path></g><g id="patch_5"><path d="M 55.939687 311.232957 
L 519.59952 311.232957 
" style="fill:none;"></path></g><g id="patch_6"><path d="M 55.939687 7.2 
L 519.59952 7.2 
" style="fill:none;"></path></g></g></g><defs><clipPath id="pa0b9f56694"><rect height="304.032957" width="463.659832" x="55.939688" y="7.2"></rect></clipPath></defs></svg>