<?xml version="1.0" encoding="utf-8"?>
<svg height="248.889375pt" version="1.1" viewBox="0 0 374.964375 248.889375" width="374.964375pt" xmlns="http://www.w3.org/2000/svg" xmlns:xlink="http://www.w3.org/1999/xlink">
 <defs>
  <style type="text/css">
*{stroke-linecap:butt;stroke-linejoin:round;}
  </style>
 </defs>
 <g id="figure_1">
  <g id="patch_1">
   <path d="M 0 248.889375 
L 374.964375 248.889375 
L 374.964375 0 
L 0 0 
z
" style="fill:none;"></path>
  </g>
  <g id="axes_1">
   <g id="patch_2">
    <path d="M 32.964375 224.64 
L 367.764375 224.64 
L 367.764375 7.2 
L 32.964375 7.2 
z
" style="fill:#eeeeee;"></path>
   </g>
   <g id="matplotlib.axis_1">
    <g id="xtick_1">
     <g id="line2d_1">
      <path clip-path="url(#pa0ce69f245)" d="M 75.160082 224.64 
L 75.160082 7.2 
" style="fill:none;stroke:#ffffff;stroke-linecap:round;stroke-width:0.8;"></path>
     </g>
     <g id="line2d_2"></g>
     <g id="text_1">
      <!-- 158.0 -->
      <defs>
       <path d="M 12.40625 8.296875 
L 28.515625 8.296875 
L 28.515625 63.921875 
L 10.984375 60.40625 
L 10.984375 69.390625 
L 28.421875 72.90625 
L 38.28125 72.90625 
L 38.28125 8.296875 
L 54.390625 8.296875 
L 54.390625 0 
L 12.40625 0 
z
" id="DejaVuSans-49"></path>
       <path d="M 10.796875 72.90625 
L 49.515625 72.90625 
L 49.515625 64.59375 
L 19.828125 64.59375 
L 19.828125 46.734375 
Q 21.96875 47.46875 24.109375 47.828125 
Q 26.265625 48.1875 28.421875 48.1875 
Q 40.625 48.1875 47.75 41.5 
Q 54.890625 34.8125 54.890625 23.390625 
Q 54.890625 11.625 47.5625 5.09375 
Q 40.234375 -1.421875 26.90625 -1.421875 
Q 22.3125 -1.421875 17.546875 -0.640625 
Q 12.796875 0.140625 7.71875 1.703125 
L 7.71875 11.625 
Q 12.109375 9.234375 16.796875 8.0625 
Q 21.484375 6.890625 26.703125 6.890625 
Q 35.15625 6.890625 40.078125 11.328125 
Q 45.015625 15.765625 45.015625 23.390625 
Q 45.015625 31 40.078125 35.4375 
Q 35.15625 39.890625 26.703125 39.890625 
Q 22.75 39.890625 18.8125 39.015625 
Q 14.890625 38.140625 10.796875 36.28125 
z
" id="DejaVuSans-53"></path>
       <path d="M 31.78125 34.625 
Q 24.75 34.625 20.71875 30.859375 
Q 16.703125 27.09375 16.703125 20.515625 
Q 16.703125 13.921875 20.71875 10.15625 
Q 24.75 6.390625 31.78125 6.390625 
Q 38.8125 6.390625 42.859375 10.171875 
Q 46.921875 13.96875 46.921875 20.515625 
Q 46.921875 27.09375 42.890625 30.859375 
Q 38.875 34.625 31.78125 34.625 
z
M 21.921875 38.8125 
Q 15.578125 40.375 12.03125 44.71875 
Q 8.5 49.078125 8.5 55.328125 
Q 8.5 64.0625 14.71875 69.140625 
Q 20.953125 74.21875 31.78125 74.21875 
Q 42.671875 74.21875 48.875 69.140625 
Q 55.078125 64.0625 55.078125 55.328125 
Q 55.078125 49.078125 51.53125 44.71875 
Q 48 40.375 41.703125 38.8125 
Q 48.828125 37.15625 52.796875 32.3125 
Q 56.78125 27.484375 56.78125 20.515625 
Q 56.78125 9.90625 50.3125 4.234375 
Q 43.84375 -1.421875 31.78125 -1.421875 
Q 19.734375 -1.421875 13.25 4.234375 
Q 6.78125 9.90625 6.78125 20.515625 
Q 6.78125 27.484375 10.78125 32.3125 
Q 14.796875 37.15625 21.921875 38.8125 
z
M 18.3125 54.390625 
Q 18.3125 48.734375 21.84375 45.5625 
Q 25.390625 42.390625 31.78125 42.390625 
Q 38.140625 42.390625 41.71875 45.5625 
Q 45.3125 48.734375 45.3125 54.390625 
Q 45.3125 60.0625 41.71875 63.234375 
Q 38.140625 66.40625 31.78125 66.40625 
Q 25.390625 66.40625 21.84375 63.234375 
Q 18.3125 60.0625 18.3125 54.390625 
z
" id="DejaVuSans-56"></path>
       <path d="M 10.6875 12.40625 
L 21 12.40625 
L 21 0 
L 10.6875 0 
z
" id="DejaVuSans-46"></path>
       <path d="M 31.78125 66.40625 
Q 24.171875 66.40625 20.328125 58.90625 
Q 16.5 51.421875 16.5 36.375 
Q 16.5 21.390625 20.328125 13.890625 
Q 24.171875 6.390625 31.78125 6.390625 
Q 39.453125 6.390625 43.28125 13.890625 
Q 47.125 21.390625 47.125 36.375 
Q 47.125 51.421875 43.28125 58.90625 
Q 39.453125 66.40625 31.78125 66.40625 
z
M 31.78125 74.21875 
Q 44.046875 74.21875 50.515625 64.515625 
Q 56.984375 54.828125 56.984375 36.375 
Q 56.984375 17.96875 50.515625 8.265625 
Q 44.046875 -1.421875 31.78125 -1.421875 
Q 19.53125 -1.421875 13.0625 8.265625 
Q 6.59375 17.96875 6.59375 36.375 
Q 6.59375 54.828125 13.0625 64.515625 
Q 19.53125 74.21875 31.78125 74.21875 
z
" id="DejaVuSans-48"></path>
      </defs>
      <g style="fill:#262626;" transform="translate(55.120395 238.777812)scale(0.14 -0.14)">
       <use xlink:href="#DejaVuSans-49"></use>
       <use x="63.623047" xlink:href="#DejaVuSans-53"></use>
       <use x="127.246094" xlink:href="#DejaVuSans-56"></use>
       <use x="190.869141" xlink:href="#DejaVuSans-46"></use>
       <use x="222.65625" xlink:href="#DejaVuSans-48"></use>
      </g>
     </g>
    </g>
    <g id="xtick_2">
     <g id="line2d_3">
      <path clip-path="url(#pa0ce69f245)" d="M 128.90846 224.64 
L 128.90846 7.2 
" style="fill:none;stroke:#ffffff;stroke-linecap:round;stroke-width:0.8;"></path>
     </g>
     <g id="line2d_4"></g>
     <g id="text_2">
      <!-- 158.5 -->
      <g style="fill:#262626;" transform="translate(108.868772 238.777812)scale(0.14 -0.14)">
       <use xlink:href="#DejaVuSans-49"></use>
       <use x="63.623047" xlink:href="#DejaVuSans-53"></use>
       <use x="127.246094" xlink:href="#DejaVuSans-56"></use>
       <use x="190.869141" xlink:href="#DejaVuSans-46"></use>
       <use x="222.65625" xlink:href="#DejaVuSans-53"></use>
      </g>
     </g>
    </g>
    <g id="xtick_3">
     <g id="line2d_5">
      <path clip-path="url(#pa0ce69f245)" d="M 182.656837 224.64 
L 182.656837 7.2 
" style="fill:none;stroke:#ffffff;stroke-linecap:round;stroke-width:0.8;"></path>
     </g>
     <g id="line2d_6"></g>
     <g id="text_3">
      <!-- 159.0 -->
      <defs>
       <path d="M 10.984375 1.515625 
L 10.984375 10.5 
Q 14.703125 8.734375 18.5 7.8125 
Q 22.3125 6.890625 25.984375 6.890625 
Q 35.75 6.890625 40.890625 13.453125 
Q 46.046875 20.015625 46.78125 33.40625 
Q 43.953125 29.203125 39.59375 26.953125 
Q 35.25 24.703125 29.984375 24.703125 
Q 19.046875 24.703125 12.671875 31.3125 
Q 6.296875 37.9375 6.296875 49.421875 
Q 6.296875 60.640625 12.9375 67.421875 
Q 19.578125 74.21875 30.609375 74.21875 
Q 43.265625 74.21875 49.921875 64.515625 
Q 56.59375 54.828125 56.59375 36.375 
Q 56.59375 19.140625 48.40625 8.859375 
Q 40.234375 -1.421875 26.421875 -1.421875 
Q 22.703125 -1.421875 18.890625 -0.6875 
Q 15.09375 0.046875 10.984375 1.515625 
z
M 30.609375 32.421875 
Q 37.25 32.421875 41.125 36.953125 
Q 45.015625 41.5 45.015625 49.421875 
Q 45.015625 57.28125 41.125 61.84375 
Q 37.25 66.40625 30.609375 66.40625 
Q 23.96875 66.40625 20.09375 61.84375 
Q 16.21875 57.28125 16.21875 49.421875 
Q 16.21875 41.5 20.09375 36.953125 
Q 23.96875 32.421875 30.609375 32.421875 
z
" id="DejaVuSans-57"></path>
      </defs>
      <g style="fill:#262626;" transform="translate(162.617149 238.777812)scale(0.14 -0.14)">
       <use xlink:href="#DejaVuSans-49"></use>
       <use x="63.623047" xlink:href="#DejaVuSans-53"></use>
       <use x="127.246094" xlink:href="#DejaVuSans-57"></use>
       <use x="190.869141" xlink:href="#DejaVuSans-46"></use>
       <use x="222.65625" xlink:href="#DejaVuSans-48"></use>
      </g>
     </g>
    </g>
    <g id="xtick_4">
     <g id="line2d_7">
      <path clip-path="url(#pa0ce69f245)" d="M 236.405214 224.64 
L 236.405214 7.2 
" style="fill:none;stroke:#ffffff;stroke-linecap:round;stroke-width:0.8;"></path>
     </g>
     <g id="line2d_8"></g>
     <g id="text_4">
      <!-- 159.5 -->
      <g style="fill:#262626;" transform="translate(216.365527 238.777812)scale(0.14 -0.14)">
       <use xlink:href="#DejaVuSans-49"></use>
       <use x="63.623047" xlink:href="#DejaVuSans-53"></use>
       <use x="127.246094" xlink:href="#DejaVuSans-57"></use>
       <use x="190.869141" xlink:href="#DejaVuSans-46"></use>
       <use x="222.65625" xlink:href="#DejaVuSans-53"></use>
      </g>
     </g>
    </g>
    <g id="xtick_5">
     <g id="line2d_9">
      <path clip-path="url(#pa0ce69f245)" d="M 290.153591 224.64 
L 290.153591 7.2 
" style="fill:none;stroke:#ffffff;stroke-linecap:round;stroke-width:0.8;"></path>
     </g>
     <g id="line2d_10"></g>
     <g id="text_5">
      <!-- 160.0 -->
      <defs>
       <path d="M 33.015625 40.375 
Q 26.375 40.375 22.484375 35.828125 
Q 18.609375 31.296875 18.609375 23.390625 
Q 18.609375 15.53125 22.484375 10.953125 
Q 26.375 6.390625 33.015625 6.390625 
Q 39.65625 6.390625 43.53125 10.953125 
Q 47.40625 15.53125 47.40625 23.390625 
Q 47.40625 31.296875 43.53125 35.828125 
Q 39.65625 40.375 33.015625 40.375 
z
M 52.59375 71.296875 
L 52.59375 62.3125 
Q 48.875 64.0625 45.09375 64.984375 
Q 41.3125 65.921875 37.59375 65.921875 
Q 27.828125 65.921875 22.671875 59.328125 
Q 17.53125 52.734375 16.796875 39.40625 
Q 19.671875 43.65625 24.015625 45.921875 
Q 28.375 48.1875 33.59375 48.1875 
Q 44.578125 48.1875 50.953125 41.515625 
Q 57.328125 34.859375 57.328125 23.390625 
Q 57.328125 12.15625 50.6875 5.359375 
Q 44.046875 -1.421875 33.015625 -1.421875 
Q 20.359375 -1.421875 13.671875 8.265625 
Q 6.984375 17.96875 6.984375 36.375 
Q 6.984375 53.65625 15.1875 63.9375 
Q 23.390625 74.21875 37.203125 74.21875 
Q 40.921875 74.21875 44.703125 73.484375 
Q 48.484375 72.75 52.59375 71.296875 
z
" id="DejaVuSans-54"></path>
      </defs>
      <g style="fill:#262626;" transform="translate(270.113904 238.777812)scale(0.14 -0.14)">
       <use xlink:href="#DejaVuSans-49"></use>
       <use x="63.623047" xlink:href="#DejaVuSans-54"></use>
       <use x="127.246094" xlink:href="#DejaVuSans-48"></use>
       <use x="190.869141" xlink:href="#DejaVuSans-46"></use>
       <use x="222.65625" xlink:href="#DejaVuSans-48"></use>
      </g>
     </g>
    </g>
    <g id="xtick_6">
     <g id="line2d_11">
      <path clip-path="url(#pa0ce69f245)" d="M 343.901969 224.64 
L 343.901969 7.2 
" style="fill:none;stroke:#ffffff;stroke-linecap:round;stroke-width:0.8;"></path>
     </g>
     <g id="line2d_12"></g>
     <g id="text_6">
      <!-- 160.5 -->
      <g style="fill:#262626;" transform="translate(323.862281 238.777812)scale(0.14 -0.14)">
       <use xlink:href="#DejaVuSans-49"></use>
       <use x="63.623047" xlink:href="#DejaVuSans-54"></use>
       <use x="127.246094" xlink:href="#DejaVuSans-48"></use>
       <use x="190.869141" xlink:href="#DejaVuSans-46"></use>
       <use x="222.65625" xlink:href="#DejaVuSans-53"></use>
      </g>
     </g>
    </g>
   </g>
   <g id="matplotlib.axis_2">
    <g id="ytick_1">
     <g id="line2d_13">
      <path clip-path="url(#pa0ce69f245)" d="M 32.964375 214.756364 
L 367.764375 214.756364 
" style="fill:none;stroke:#ffffff;stroke-linecap:round;stroke-width:0.8;"></path>
     </g>
     <g id="line2d_14"></g>
     <g id="text_7">
      <!-- 0.0 -->
      <g style="fill:#262626;" transform="translate(7.2 220.07527)scale(0.14 -0.14)">
       <use xlink:href="#DejaVuSans-48"></use>
       <use x="63.623047" xlink:href="#DejaVuSans-46"></use>
       <use x="95.410156" xlink:href="#DejaVuSans-48"></use>
      </g>
     </g>
    </g>
    <g id="ytick_2">
     <g id="line2d_15">
      <path clip-path="url(#pa0ce69f245)" d="M 32.964375 181.535567 
L 367.764375 181.535567 
" style="fill:none;stroke:#ffffff;stroke-linecap:round;stroke-width:0.8;"></path>
     </g>
     <g id="line2d_16"></g>
     <g id="text_8">
      <!-- 0.2 -->
      <defs>
       <path d="M 19.1875 8.296875 
L 53.609375 8.296875 
L 53.609375 0 
L 7.328125 0 
L 7.328125 8.296875 
Q 12.9375 14.109375 22.625 23.890625 
Q 32.328125 33.6875 34.8125 36.53125 
Q 39.546875 41.84375 41.421875 45.53125 
Q 43.3125 49.21875 43.3125 52.78125 
Q 43.3125 58.59375 39.234375 62.25 
Q 35.15625 65.921875 28.609375 65.921875 
Q 23.96875 65.921875 18.8125 64.3125 
Q 13.671875 62.703125 7.8125 59.421875 
L 7.8125 69.390625 
Q 13.765625 71.78125 18.9375 73 
Q 24.125 74.21875 28.421875 74.21875 
Q 39.75 74.21875 46.484375 68.546875 
Q 53.21875 62.890625 53.21875 53.421875 
Q 53.21875 48.921875 51.53125 44.890625 
Q 49.859375 40.875 45.40625 35.40625 
Q 44.1875 33.984375 37.640625 27.21875 
Q 31.109375 20.453125 19.1875 8.296875 
z
" id="DejaVuSans-50"></path>
      </defs>
      <g style="fill:#262626;" transform="translate(7.2 186.854473)scale(0.14 -0.14)">
       <use xlink:href="#DejaVuSans-48"></use>
       <use x="63.623047" xlink:href="#DejaVuSans-46"></use>
       <use x="95.410156" xlink:href="#DejaVuSans-50"></use>
      </g>
     </g>
    </g>
    <g id="ytick_3">
     <g id="line2d_17">
      <path clip-path="url(#pa0ce69f245)" d="M 32.964375 148.31477 
L 367.764375 148.31477 
" style="fill:none;stroke:#ffffff;stroke-linecap:round;stroke-width:0.8;"></path>
     </g>
     <g id="line2d_18"></g>
     <g id="text_9">
      <!-- 0.4 -->
      <defs>
       <path d="M 37.796875 64.3125 
L 12.890625 25.390625 
L 37.796875 25.390625 
z
M 35.203125 72.90625 
L 47.609375 72.90625 
L 47.609375 25.390625 
L 58.015625 25.390625 
L 58.015625 17.1875 
L 47.609375 17.1875 
L 47.609375 0 
L 37.796875 0 
L 37.796875 17.1875 
L 4.890625 17.1875 
L 4.890625 26.703125 
z
" id="DejaVuSans-52"></path>
      </defs>
      <g style="fill:#262626;" transform="translate(7.2 153.633677)scale(0.14 -0.14)">
       <use xlink:href="#DejaVuSans-48"></use>
       <use x="63.623047" xlink:href="#DejaVuSans-46"></use>
       <use x="95.410156" xlink:href="#DejaVuSans-52"></use>
      </g>
     </g>
    </g>
    <g id="ytick_4">
     <g id="line2d_19">
      <path clip-path="url(#pa0ce69f245)" d="M 32.964375 115.093974 
L 367.764375 115.093974 
" style="fill:none;stroke:#ffffff;stroke-linecap:round;stroke-width:0.8;"></path>
     </g>
     <g id="line2d_20"></g>
     <g id="text_10">
      <!-- 0.6 -->
      <g style="fill:#262626;" transform="translate(7.2 120.41288)scale(0.14 -0.14)">
       <use xlink:href="#DejaVuSans-48"></use>
       <use x="63.623047" xlink:href="#DejaVuSans-46"></use>
       <use x="95.410156" xlink:href="#DejaVuSans-54"></use>
      </g>
     </g>
    </g>
    <g id="ytick_5">
     <g id="line2d_21">
      <path clip-path="url(#pa0ce69f245)" d="M 32.964375 81.873177 
L 367.764375 81.873177 
" style="fill:none;stroke:#ffffff;stroke-linecap:round;stroke-width:0.8;"></path>
     </g>
     <g id="line2d_22"></g>
     <g id="text_11">
      <!-- 0.8 -->
      <g style="fill:#262626;" transform="translate(7.2 87.192084)scale(0.14 -0.14)">
       <use xlink:href="#DejaVuSans-48"></use>
       <use x="63.623047" xlink:href="#DejaVuSans-46"></use>
       <use x="95.410156" xlink:href="#DejaVuSans-56"></use>
      </g>
     </g>
    </g>
    <g id="ytick_6">
     <g id="line2d_23">
      <path clip-path="url(#pa0ce69f245)" d="M 32.964375 48.652381 
L 367.764375 48.652381 
" style="fill:none;stroke:#ffffff;stroke-linecap:round;stroke-width:0.8;"></path>
     </g>
     <g id="line2d_24"></g>
     <g id="text_12">
      <!-- 1.0 -->
      <g style="fill:#262626;" transform="translate(7.2 53.971287)scale(0.14 -0.14)">
       <use xlink:href="#DejaVuSans-49"></use>
       <use x="63.623047" xlink:href="#DejaVuSans-46"></use>
       <use x="95.410156" xlink:href="#DejaVuSans-48"></use>
      </g>
     </g>
    </g>
    <g id="ytick_7">
     <g id="line2d_25">
      <path clip-path="url(#pa0ce69f245)" d="M 32.964375 15.431584 
L 367.764375 15.431584 
" style="fill:none;stroke:#ffffff;stroke-linecap:round;stroke-width:0.8;"></path>
     </g>
     <g id="line2d_26"></g>
     <g id="text_13">
      <!-- 1.2 -->
      <g style="fill:#262626;" transform="translate(7.2 20.75049)scale(0.14 -0.14)">
       <use xlink:href="#DejaVuSans-49"></use>
       <use x="63.623047" xlink:href="#DejaVuSans-46"></use>
       <use x="95.410156" xlink:href="#DejaVuSans-50"></use>
      </g>
     </g>
    </g>
   </g>
   <g id="PolyCollection_1">
    <path clip-path="url(#pa0ce69f245)" d="M 48.182557 214.756364 
L 48.182557 214.675049 
L 49.712022 214.699238 
L 51.241488 214.729389 
L 52.770953 214.725755 
L 54.300419 214.714343 
L 55.829884 214.7154 
L 57.35935 214.691153 
L 58.888815 214.617617 
L 60.418281 214.550292 
L 61.947746 214.527709 
L 63.477212 214.529581 
L 65.006677 214.541144 
L 66.536143 214.532002 
L 68.065608 214.491496 
L 69.595074 214.436392 
L 71.124539 214.351835 
L 72.654005 214.173383 
L 74.18347 213.943789 
L 75.712936 213.864896 
L 77.242401 213.948115 
L 78.771867 213.983272 
L 80.301333 213.871597 
L 81.830798 213.616328 
L 83.360264 213.278782 
L 84.889729 212.919506 
L 86.419195 212.616426 
L 87.94866 212.461799 
L 89.478126 212.247372 
L 91.007591 211.753004 
L 92.537057 211.192742 
L 94.066522 210.898056 
L 95.595988 210.763587 
L 97.125453 210.479367 
L 98.654919 209.939041 
L 100.184384 209.294353 
L 101.71385 208.605386 
L 103.243315 207.805969 
L 104.772781 207.057879 
L 106.302246 206.091532 
L 107.831712 204.430339 
L 109.361177 202.503672 
L 110.890643 201.211387 
L 112.420108 200.754718 
L 113.949574 200.194437 
L 115.479039 198.620625 
L 117.008505 196.280965 
L 118.53797 194.292321 
L 120.067436 192.663225 
L 121.596901 190.526734 
L 123.126367 187.852462 
L 124.655832 185.340784 
L 126.185298 183.4991 
L 127.714763 181.707991 
L 129.244229 179.567492 
L 130.773694 177.311015 
L 132.30316 174.673439 
L 133.832625 171.533151 
L 135.362091 168.094206 
L 136.891556 164.523214 
L 138.421022 161.523791 
L 139.950487 158.772976 
L 141.479953 154.709642 
L 143.009418 150.035969 
L 144.538884 145.868949 
L 146.068349 141.273863 
L 147.597815 136.338063 
L 149.12728 132.336577 
L 150.656746 129.500352 
L 152.186211 125.99224 
L 153.715677 120.890983 
L 155.245142 115.39869 
L 156.774608 109.985551 
L 158.304073 104.927401 
L 159.833539 100.203289 
L 161.363005 95.500167 
L 162.89247 90.003245 
L 164.421936 83.305538 
L 165.951401 78.461887 
L 167.480867 76.393155 
L 169.010332 74.11471 
L 170.539798 69.44729 
L 172.069263 62.765883 
L 173.598729 56.48227 
L 175.128194 52.329347 
L 176.65766 49.589318 
L 178.187125 46.527943 
L 179.716591 42.91103 
L 181.246056 40.070792 
L 182.775522 38.357677 
L 184.304987 35.771116 
L 185.834453 32.337969 
L 187.363918 29.440293 
L 188.893384 26.619571 
L 190.422849 23.447525 
L 191.952315 21.390445 
L 193.48178 21.579786 
L 195.011246 21.117736 
L 196.540711 18.597404 
L 198.070177 17.083636 
L 199.599642 19.307708 
L 201.129108 22.740933 
L 202.658573 23.655758 
L 204.188039 23.05061 
L 205.717504 23.912552 
L 207.24697 26.419766 
L 208.776435 29.208124 
L 210.305901 31.961669 
L 211.835366 35.08124 
L 213.364832 39.128906 
L 214.894297 43.618016 
L 216.423763 48.069124 
L 217.953228 53.19691 
L 219.482694 57.104458 
L 221.012159 58.679088 
L 222.541625 60.691348 
L 224.07109 64.476105 
L 225.600556 69.664245 
L 227.130021 76.074846 
L 228.659487 82.035444 
L 230.188952 86.360545 
L 231.718418 90.89019 
L 233.247883 96.544425 
L 234.777349 101.488118 
L 236.306814 105.294258 
L 237.83628 108.567678 
L 239.365745 112.422239 
L 240.895211 117.711289 
L 242.424677 122.564067 
L 243.954142 126.1956 
L 245.483608 129.957689 
L 247.013073 133.970123 
L 248.542539 138.250733 
L 250.072004 142.9064 
L 251.60147 147.634409 
L 253.130935 152.347425 
L 254.660401 156.340381 
L 256.189866 159.50958 
L 257.719332 162.006603 
L 259.248797 164.120898 
L 260.778263 167.273764 
L 262.307728 171.651704 
L 263.837194 175.638137 
L 265.366659 178.292828 
L 266.896125 180.593408 
L 268.42559 183.400054 
L 269.955056 186.182208 
L 271.484521 188.572938 
L 273.013987 190.897999 
L 274.543452 193.289033 
L 276.072918 195.451928 
L 277.602383 196.914421 
L 279.131849 197.684596 
L 280.661314 198.192474 
L 282.19078 199.002417 
L 283.720245 200.525742 
L 285.249711 202.482121 
L 286.779176 204.065715 
L 288.308642 204.765727 
L 289.838107 205.217269 
L 291.367573 206.092796 
L 292.897038 207.214902 
L 294.426504 208.23723 
L 295.955969 208.88288 
L 297.485435 209.234155 
L 299.0149 209.731115 
L 300.544366 210.450931 
L 302.073831 211.077399 
L 303.603297 211.516982 
L 305.132762 211.867823 
L 306.662228 212.175304 
L 308.191693 212.385985 
L 309.721159 212.648914 
L 311.250624 213.024942 
L 312.78009 213.150025 
L 314.309555 213.155769 
L 315.839021 213.349886 
L 317.368486 213.560211 
L 318.897952 213.713263 
L 320.427417 213.86973 
L 321.956883 213.967155 
L 323.486349 214.002631 
L 325.015814 214.112531 
L 326.54528 214.272987 
L 328.074745 214.400485 
L 329.604211 214.530789 
L 331.133676 214.613316 
L 332.663142 214.610648 
L 334.192607 214.582108 
L 335.722073 214.552712 
L 337.251538 214.531096 
L 338.781004 214.526195 
L 340.310469 214.541451 
L 341.839935 214.588221 
L 343.3694 214.641655 
L 344.898866 214.65676 
L 346.428331 214.648225 
L 347.957797 214.649589 
L 349.487262 214.667115 
L 351.016728 214.681255 
L 352.546193 214.676106 
L 352.546193 214.756364 
L 352.546193 214.756364 
L 351.016728 214.756364 
L 349.487262 214.756364 
L 347.957797 214.756364 
L 346.428331 214.756364 
L 344.898866 214.756364 
L 343.3694 214.756364 
L 341.839935 214.756364 
L 340.310469 214.756364 
L 338.781004 214.756364 
L 337.251538 214.756364 
L 335.722073 214.756364 
L 334.192607 214.756364 
L 332.663142 214.756364 
L 331.133676 214.756364 
L 329.604211 214.756364 
L 328.074745 214.756364 
L 326.54528 214.756364 
L 325.015814 214.756364 
L 323.486349 214.756364 
L 321.956883 214.756364 
L 320.427417 214.756364 
L 318.897952 214.756364 
L 317.368486 214.756364 
L 315.839021 214.756364 
L 314.309555 214.756364 
L 312.78009 214.756364 
L 311.250624 214.756364 
L 309.721159 214.756364 
L 308.191693 214.756364 
L 306.662228 214.756364 
L 305.132762 214.756364 
L 303.603297 214.756364 
L 302.073831 214.756364 
L 300.544366 214.756364 
L 299.0149 214.756364 
L 297.485435 214.756364 
L 295.955969 214.756364 
L 294.426504 214.756364 
L 292.897038 214.756364 
L 291.367573 214.756364 
L 289.838107 214.756364 
L 288.308642 214.756364 
L 286.779176 214.756364 
L 285.249711 214.756364 
L 283.720245 214.756364 
L 282.19078 214.756364 
L 280.661314 214.756364 
L 279.131849 214.756364 
L 277.602383 214.756364 
L 276.072918 214.756364 
L 274.543452 214.756364 
L 273.013987 214.756364 
L 271.484521 214.756364 
L 269.955056 214.756364 
L 268.42559 214.756364 
L 266.896125 214.756364 
L 265.366659 214.756364 
L 263.837194 214.756364 
L 262.307728 214.756364 
L 260.778263 214.756364 
L 259.248797 214.756364 
L 257.719332 214.756364 
L 256.189866 214.756364 
L 254.660401 214.756364 
L 253.130935 214.756364 
L 251.60147 214.756364 
L 250.072004 214.756364 
L 248.542539 214.756364 
L 247.013073 214.756364 
L 245.483608 214.756364 
L 243.954142 214.756364 
L 242.424677 214.756364 
L 240.895211 214.756364 
L 239.365745 214.756364 
L 237.83628 214.756364 
L 236.306814 214.756364 
L 234.777349 214.756364 
L 233.247883 214.756364 
L 231.718418 214.756364 
L 230.188952 214.756364 
L 228.659487 214.756364 
L 227.130021 214.756364 
L 225.600556 214.756364 
L 224.07109 214.756364 
L 222.541625 214.756364 
L 221.012159 214.756364 
L 219.482694 214.756364 
L 217.953228 214.756364 
L 216.423763 214.756364 
L 214.894297 214.756364 
L 213.364832 214.756364 
L 211.835366 214.756364 
L 210.305901 214.756364 
L 208.776435 214.756364 
L 207.24697 214.756364 
L 205.717504 214.756364 
L 204.188039 214.756364 
L 202.658573 214.756364 
L 201.129108 214.756364 
L 199.599642 214.756364 
L 198.070177 214.756364 
L 196.540711 214.756364 
L 195.011246 214.756364 
L 193.48178 214.756364 
L 191.952315 214.756364 
L 190.422849 214.756364 
L 188.893384 214.756364 
L 187.363918 214.756364 
L 185.834453 214.756364 
L 184.304987 214.756364 
L 182.775522 214.756364 
L 181.246056 214.756364 
L 179.716591 214.756364 
L 178.187125 214.756364 
L 176.65766 214.756364 
L 175.128194 214.756364 
L 173.598729 214.756364 
L 172.069263 214.756364 
L 170.539798 214.756364 
L 169.010332 214.756364 
L 167.480867 214.756364 
L 165.951401 214.756364 
L 164.421936 214.756364 
L 162.89247 214.756364 
L 161.363005 214.756364 
L 159.833539 214.756364 
L 158.304073 214.756364 
L 156.774608 214.756364 
L 155.245142 214.756364 
L 153.715677 214.756364 
L 152.186211 214.756364 
L 150.656746 214.756364 
L 149.12728 214.756364 
L 147.597815 214.756364 
L 146.068349 214.756364 
L 144.538884 214.756364 
L 143.009418 214.756364 
L 141.479953 214.756364 
L 139.950487 214.756364 
L 138.421022 214.756364 
L 136.891556 214.756364 
L 135.362091 214.756364 
L 133.832625 214.756364 
L 132.30316 214.756364 
L 130.773694 214.756364 
L 129.244229 214.756364 
L 127.714763 214.756364 
L 126.185298 214.756364 
L 124.655832 214.756364 
L 123.126367 214.756364 
L 121.596901 214.756364 
L 120.067436 214.756364 
L 118.53797 214.756364 
L 117.008505 214.756364 
L 115.479039 214.756364 
L 113.949574 214.756364 
L 112.420108 214.756364 
L 110.890643 214.756364 
L 109.361177 214.756364 
L 107.831712 214.756364 
L 106.302246 214.756364 
L 104.772781 214.756364 
L 103.243315 214.756364 
L 101.71385 214.756364 
L 100.184384 214.756364 
L 98.654919 214.756364 
L 97.125453 214.756364 
L 95.595988 214.756364 
L 94.066522 214.756364 
L 92.537057 214.756364 
L 91.007591 214.756364 
L 89.478126 214.756364 
L 87.94866 214.756364 
L 86.419195 214.756364 
L 84.889729 214.756364 
L 83.360264 214.756364 
L 81.830798 214.756364 
L 80.301333 214.756364 
L 78.771867 214.756364 
L 77.242401 214.756364 
L 75.712936 214.756364 
L 74.18347 214.756364 
L 72.654005 214.756364 
L 71.124539 214.756364 
L 69.595074 214.756364 
L 68.065608 214.756364 
L 66.536143 214.756364 
L 65.006677 214.756364 
L 63.477212 214.756364 
L 61.947746 214.756364 
L 60.418281 214.756364 
L 58.888815 214.756364 
L 57.35935 214.756364 
L 55.829884 214.756364 
L 54.300419 214.756364 
L 52.770953 214.756364 
L 51.241488 214.756364 
L 49.712022 214.756364 
L 48.182557 214.756364 
z
" style="fill:none;"></path>
   </g>
   <g id="line2d_27">
    <path clip-path="url(#pa0ce69f245)" d="M 48.182557 214.675049 
L 55.829884 214.7154 
L 69.595074 214.436392 
L 72.654005 214.173383 
L 74.18347 213.943789 
L 75.712936 213.864896 
L 78.771867 213.983272 
L 80.301333 213.871597 
L 83.360264 213.278782 
L 86.419195 212.616426 
L 89.478126 212.247372 
L 92.537057 211.192742 
L 94.066522 210.898056 
L 95.595988 210.763587 
L 97.125453 210.479367 
L 100.184384 209.294353 
L 103.243315 207.805969 
L 104.772781 207.057879 
L 106.302246 206.091532 
L 107.831712 204.430339 
L 109.361177 202.503672 
L 110.890643 201.211387 
L 113.949574 200.194437 
L 115.479039 198.620625 
L 117.008505 196.280965 
L 118.53797 194.292321 
L 120.067436 192.663225 
L 121.596901 190.526734 
L 124.655832 185.340784 
L 127.714763 181.707991 
L 130.773694 177.311015 
L 132.30316 174.673439 
L 133.832625 171.533151 
L 136.891556 164.523214 
L 138.421022 161.523791 
L 139.950487 158.772976 
L 141.479953 154.709642 
L 143.009418 150.035969 
L 144.538884 145.868949 
L 149.12728 132.336577 
L 150.656746 129.500352 
L 152.186211 125.99224 
L 153.715677 120.890983 
L 156.774608 109.985551 
L 159.833539 100.203289 
L 161.363005 95.500167 
L 162.89247 90.003245 
L 164.421936 83.305538 
L 165.951401 78.461887 
L 167.480867 76.393155 
L 169.010332 74.11471 
L 170.539798 69.44729 
L 173.598729 56.48227 
L 175.128194 52.329347 
L 176.65766 49.589318 
L 178.187125 46.527943 
L 179.716591 42.91103 
L 181.246056 40.070792 
L 182.775522 38.357677 
L 184.304987 35.771116 
L 185.834453 32.337969 
L 190.422849 23.447525 
L 191.952315 21.390445 
L 193.48178 21.579786 
L 195.011246 21.117736 
L 196.540711 18.597404 
L 198.070177 17.083636 
L 199.599642 19.307708 
L 201.129108 22.740933 
L 202.658573 23.655758 
L 204.188039 23.05061 
L 205.717504 23.912552 
L 207.24697 26.419766 
L 210.305901 31.961669 
L 211.835366 35.08124 
L 213.364832 39.128906 
L 216.423763 48.069124 
L 217.953228 53.19691 
L 219.482694 57.104458 
L 221.012159 58.679088 
L 222.541625 60.691348 
L 224.07109 64.476105 
L 225.600556 69.664245 
L 228.659487 82.035444 
L 231.718418 90.89019 
L 233.247883 96.544425 
L 234.777349 101.488118 
L 236.306814 105.294258 
L 237.83628 108.567678 
L 239.365745 112.422239 
L 240.895211 117.711289 
L 242.424677 122.564067 
L 245.483608 129.957689 
L 248.542539 138.250733 
L 253.130935 152.347425 
L 254.660401 156.340381 
L 256.189866 159.50958 
L 257.719332 162.006603 
L 259.248797 164.120898 
L 260.778263 167.273764 
L 262.307728 171.651704 
L 263.837194 175.638137 
L 265.366659 178.292828 
L 266.896125 180.593408 
L 269.955056 186.182208 
L 274.543452 193.289033 
L 276.072918 195.451928 
L 277.602383 196.914421 
L 279.131849 197.684596 
L 280.661314 198.192474 
L 282.19078 199.002417 
L 283.720245 200.525742 
L 285.249711 202.482121 
L 286.779176 204.065715 
L 288.308642 204.765727 
L 289.838107 205.217269 
L 291.367573 206.092796 
L 294.426504 208.23723 
L 295.955969 208.88288 
L 297.485435 209.234155 
L 299.0149 209.731115 
L 302.073831 211.077399 
L 305.132762 211.867823 
L 308.191693 212.385985 
L 309.721159 212.648914 
L 311.250624 213.024942 
L 312.78009 213.150025 
L 314.309555 213.155769 
L 320.427417 213.86973 
L 332.663142 214.610648 
L 340.310469 214.541451 
L 346.428331 214.648225 
L 352.546193 214.676106 
L 352.546193 214.676106 
" style="fill:none;stroke:#2a2eec;stroke-linecap:round;stroke-width:1.5;"></path>
   </g>
   <g id="patch_3">
    <path d="M 32.964375 224.64 
L 32.964375 7.2 
" style="fill:none;"></path>
   </g>
   <g id="patch_4">
    <path d="M 367.764375 224.64 
L 367.764375 7.2 
" style="fill:none;"></path>
   </g>
   <g id="patch_5">
    <path d="M 32.964375 224.64 
L 367.764375 224.64 
" style="fill:none;"></path>
   </g>
   <g id="patch_6">
    <path d="M 32.964375 7.2 
L 367.764375 7.2 
" style="fill:none;"></path>
   </g>
   <g id="legend_1">
    <g id="line2d_28">
     <path d="M 128.777344 203.839062 
L 156.777344 203.839062 
" style="fill:none;stroke:#2a2eec;stroke-linecap:round;stroke-width:1.5;"></path>
    </g>
    <g id="line2d_29"></g>
    <g id="text_14">
     <!-- mu|weight=50 -->
     <defs>
      <path d="M 52 44.1875 
Q 55.375 50.25 60.0625 53.125 
Q 64.75 56 71.09375 56 
Q 79.640625 56 84.28125 50.015625 
Q 88.921875 44.046875 88.921875 33.015625 
L 88.921875 0 
L 79.890625 0 
L 79.890625 32.71875 
Q 79.890625 40.578125 77.09375 44.375 
Q 74.3125 48.1875 68.609375 48.1875 
Q 61.625 48.1875 57.5625 43.546875 
Q 53.515625 38.921875 53.515625 30.90625 
L 53.515625 0 
L 44.484375 0 
L 44.484375 32.71875 
Q 44.484375 40.625 41.703125 44.40625 
Q 38.921875 48.1875 33.109375 48.1875 
Q 26.21875 48.1875 22.15625 43.53125 
Q 18.109375 38.875 18.109375 30.90625 
L 18.109375 0 
L 9.078125 0 
L 9.078125 54.6875 
L 18.109375 54.6875 
L 18.109375 46.1875 
Q 21.1875 51.21875 25.484375 53.609375 
Q 29.78125 56 35.6875 56 
Q 41.65625 56 45.828125 52.96875 
Q 50 49.953125 52 44.1875 
z
" id="DejaVuSans-109"></path>
      <path d="M 8.5 21.578125 
L 8.5 54.6875 
L 17.484375 54.6875 
L 17.484375 21.921875 
Q 17.484375 14.15625 20.5 10.265625 
Q 23.53125 6.390625 29.59375 6.390625 
Q 36.859375 6.390625 41.078125 11.03125 
Q 45.3125 15.671875 45.3125 23.6875 
L 45.3125 54.6875 
L 54.296875 54.6875 
L 54.296875 0 
L 45.3125 0 
L 45.3125 8.40625 
Q 42.046875 3.421875 37.71875 1 
Q 33.40625 -1.421875 27.6875 -1.421875 
Q 18.265625 -1.421875 13.375 4.4375 
Q 8.5 10.296875 8.5 21.578125 
z
M 31.109375 56 
z
" id="DejaVuSans-117"></path>
      <path d="M 21 76.421875 
L 21 -23.578125 
L 12.703125 -23.578125 
L 12.703125 76.421875 
z
" id="DejaVuSans-124"></path>
      <path d="M 4.203125 54.6875 
L 13.1875 54.6875 
L 24.421875 12.015625 
L 35.59375 54.6875 
L 46.1875 54.6875 
L 57.421875 12.015625 
L 68.609375 54.6875 
L 77.59375 54.6875 
L 63.28125 0 
L 52.6875 0 
L 40.921875 44.828125 
L 29.109375 0 
L 18.5 0 
z
" id="DejaVuSans-119"></path>
      <path d="M 56.203125 29.59375 
L 56.203125 25.203125 
L 14.890625 25.203125 
Q 15.484375 15.921875 20.484375 11.0625 
Q 25.484375 6.203125 34.421875 6.203125 
Q 39.59375 6.203125 44.453125 7.46875 
Q 49.3125 8.734375 54.109375 11.28125 
L 54.109375 2.78125 
Q 49.265625 0.734375 44.1875 -0.34375 
Q 39.109375 -1.421875 33.890625 -1.421875 
Q 20.796875 -1.421875 13.15625 6.1875 
Q 5.515625 13.8125 5.515625 26.8125 
Q 5.515625 40.234375 12.765625 48.109375 
Q 20.015625 56 32.328125 56 
Q 43.359375 56 49.78125 48.890625 
Q 56.203125 41.796875 56.203125 29.59375 
z
M 47.21875 32.234375 
Q 47.125 39.59375 43.09375 43.984375 
Q 39.0625 48.390625 32.421875 48.390625 
Q 24.90625 48.390625 20.390625 44.140625 
Q 15.875 39.890625 15.1875 32.171875 
z
" id="DejaVuSans-101"></path>
      <path d="M 9.421875 54.6875 
L 18.40625 54.6875 
L 18.40625 0 
L 9.421875 0 
z
M 9.421875 75.984375 
L 18.40625 75.984375 
L 18.40625 64.59375 
L 9.421875 64.59375 
z
" id="DejaVuSans-105"></path>
      <path d="M 45.40625 27.984375 
Q 45.40625 37.75 41.375 43.109375 
Q 37.359375 48.484375 30.078125 48.484375 
Q 22.859375 48.484375 18.828125 43.109375 
Q 14.796875 37.75 14.796875 27.984375 
Q 14.796875 18.265625 18.828125 12.890625 
Q 22.859375 7.515625 30.078125 7.515625 
Q 37.359375 7.515625 41.375 12.890625 
Q 45.40625 18.265625 45.40625 27.984375 
z
M 54.390625 6.78125 
Q 54.390625 -7.171875 48.1875 -13.984375 
Q 42 -20.796875 29.203125 -20.796875 
Q 24.46875 -20.796875 20.265625 -20.09375 
Q 16.0625 -19.390625 12.109375 -17.921875 
L 12.109375 -9.1875 
Q 16.0625 -11.328125 19.921875 -12.34375 
Q 23.78125 -13.375 27.78125 -13.375 
Q 36.625 -13.375 41.015625 -8.765625 
Q 45.40625 -4.15625 45.40625 5.171875 
L 45.40625 9.625 
Q 42.625 4.78125 38.28125 2.390625 
Q 33.9375 0 27.875 0 
Q 17.828125 0 11.671875 7.65625 
Q 5.515625 15.328125 5.515625 27.984375 
Q 5.515625 40.671875 11.671875 48.328125 
Q 17.828125 56 27.875 56 
Q 33.9375 56 38.28125 53.609375 
Q 42.625 51.21875 45.40625 46.390625 
L 45.40625 54.6875 
L 54.390625 54.6875 
z
" id="DejaVuSans-103"></path>
      <path d="M 54.890625 33.015625 
L 54.890625 0 
L 45.90625 0 
L 45.90625 32.71875 
Q 45.90625 40.484375 42.875 44.328125 
Q 39.84375 48.1875 33.796875 48.1875 
Q 26.515625 48.1875 22.3125 43.546875 
Q 18.109375 38.921875 18.109375 30.90625 
L 18.109375 0 
L 9.078125 0 
L 9.078125 75.984375 
L 18.109375 75.984375 
L 18.109375 46.1875 
Q 21.34375 51.125 25.703125 53.5625 
Q 30.078125 56 35.796875 56 
Q 45.21875 56 50.046875 50.171875 
Q 54.890625 44.34375 54.890625 33.015625 
z
" id="DejaVuSans-104"></path>
      <path d="M 18.3125 70.21875 
L 18.3125 54.6875 
L 36.8125 54.6875 
L 36.8125 47.703125 
L 18.3125 47.703125 
L 18.3125 18.015625 
Q 18.3125 11.328125 20.140625 9.421875 
Q 21.96875 7.515625 27.59375 7.515625 
L 36.8125 7.515625 
L 36.8125 0 
L 27.59375 0 
Q 17.1875 0 13.234375 3.875 
Q 9.28125 7.765625 9.28125 18.015625 
L 9.28125 47.703125 
L 2.6875 47.703125 
L 2.6875 54.6875 
L 9.28125 54.6875 
L 9.28125 70.21875 
z
" id="DejaVuSans-116"></path>
      <path d="M 10.59375 45.40625 
L 73.1875 45.40625 
L 73.1875 37.203125 
L 10.59375 37.203125 
z
M 10.59375 25.484375 
L 73.1875 25.484375 
L 73.1875 17.1875 
L 10.59375 17.1875 
z
" id="DejaVuSans-61"></path>
     </defs>
     <g style="fill:#262626;" transform="translate(167.977344 208.739062)scale(0.14 -0.14)">
      <use xlink:href="#DejaVuSans-109"></use>
      <use x="97.412109" xlink:href="#DejaVuSans-117"></use>
      <use x="160.791016" xlink:href="#DejaVuSans-124"></use>
      <use x="194.482422" xlink:href="#DejaVuSans-119"></use>
      <use x="276.269531" xlink:href="#DejaVuSans-101"></use>
      <use x="337.792969" xlink:href="#DejaVuSans-105"></use>
      <use x="365.576172" xlink:href="#DejaVuSans-103"></use>
      <use x="429.052734" xlink:href="#DejaVuSans-104"></use>
      <use x="492.431641" xlink:href="#DejaVuSans-116"></use>
      <use x="531.640625" xlink:href="#DejaVuSans-61"></use>
      <use x="615.429688" xlink:href="#DejaVuSans-53"></use>
      <use x="679.052734" xlink:href="#DejaVuSans-48"></use>
     </g>
    </g>
   </g>
  </g>
 </g>
 <defs>
  <clipPath id="pa0ce69f245">
   <rect height="217.44" width="334.8" x="32.964375" y="7.2"></rect>
  </clipPath>
 </defs>
</svg>