<?xml version="1.0" encoding="utf-8"?>
<svg height="353.99952pt" version="1.1" viewBox="0 0 526.79952 353.99952" width="526.79952pt" xmlns="http://www.w3.org/2000/svg" xmlns:xlink="http://www.w3.org/1999/xlink"><defs><style type="text/css">
*{stroke-linecap:butt;stroke-linejoin:round;}
  </style></defs><g id="figure_1"><g id="patch_1"><path d="M 0 353.99952 
L 526.79952 353.99952 
L 526.79952 0 
L 0 0 
z
" style="fill:#ffffff;"></path></g><g id="axes_1"><g id="patch_2"><path d="M 55.939688 311.232957 
L 519.59952 311.232957 
L 519.59952 7.2 
L 55.939688 7.2 
z
" style="fill:#eeeeee;"></path></g><g id="matplotlib.axis_1"><g id="xtick_1"><g id="line2d_1"><path clip-path="url(#p193a8a6987)" d="M 123.849461 311.232957 
L 123.849461 7.2 
" style="fill:none;stroke:#ffffff;stroke-linecap:round;stroke-width:0.8;"></path></g><g id="line2d_2"></g><g id="text_1"><!-- 30 --><defs><path d="M 40.578125 39.3125 
Q 47.65625 37.796875 51.625 33 
Q 55.609375 28.21875 55.609375 21.1875 
Q 55.609375 10.40625 48.1875 4.484375 
Q 40.765625 -1.421875 27.09375 -1.421875 
Q 22.515625 -1.421875 17.65625 -0.515625 
Q 12.796875 0.390625 7.625 2.203125 
L 7.625 11.71875 
Q 11.71875 9.328125 16.59375 8.109375 
Q 21.484375 6.890625 26.8125 6.890625 
Q 36.078125 6.890625 40.9375 10.546875 
Q 45.796875 14.203125 45.796875 21.1875 
Q 45.796875 27.640625 41.28125 31.265625 
Q 36.765625 34.90625 28.71875 34.90625 
L 20.21875 34.90625 
L 20.21875 43.015625 
L 29.109375 43.015625 
Q 36.375 43.015625 40.234375 45.921875 
Q 44.09375 48.828125 44.09375 54.296875 
Q 44.09375 59.90625 40.109375 62.90625 
Q 36.140625 65.921875 28.71875 65.921875 
Q 24.65625 65.921875 20.015625 65.03125 
Q 15.375 64.15625 9.8125 62.3125 
L 9.8125 71.09375 
Q 15.4375 72.65625 20.34375 73.4375 
Q 25.25 74.21875 29.59375 74.21875 
Q 40.828125 74.21875 47.359375 69.109375 
Q 53.90625 64.015625 53.90625 55.328125 
Q 53.90625 49.265625 50.4375 45.09375 
Q 46.96875 40.921875 40.578125 39.3125 
z
" id="DejaVuSans-51"></path><path d="M 31.78125 66.40625 
Q 24.171875 66.40625 20.328125 58.90625 
Q 16.5 51.421875 16.5 36.375 
Q 16.5 21.390625 20.328125 13.890625 
Q 24.171875 6.390625 31.78125 6.390625 
Q 39.453125 6.390625 43.28125 13.890625 
Q 47.125 21.390625 47.125 36.375 
Q 47.125 51.421875 43.28125 58.90625 
Q 39.453125 66.40625 31.78125 66.40625 
z
M 31.78125 74.21875 
Q 44.046875 74.21875 50.515625 64.515625 
Q 56.984375 54.828125 56.984375 36.375 
Q 56.984375 17.96875 50.515625 8.265625 
Q 44.046875 -1.421875 31.78125 -1.421875 
Q 19.53125 -1.421875 13.0625 8.265625 
Q 6.59375 17.96875 6.59375 36.375 
Q 6.59375 54.828125 13.0625 64.515625 
Q 19.53125 74.21875 31.78125 74.21875 
z
" id="DejaVuSans-48"></path></defs><g style="fill:#262626;" transform="translate(114.941961 325.37077)scale(0.14 -0.14)"><use xlink:href="#DejaVuSans-51"></use><use x="63.623047" xlink:href="#DejaVuSans-48"></use></g></g></g><g id="xtick_2"><g id="line2d_3"><path clip-path="url(#p193a8a6987)" d="M 217.518114 311.232957 
L 217.518114 7.2 
" style="fill:none;stroke:#ffffff;stroke-linecap:round;stroke-width:0.8;"></path></g><g id="line2d_4"></g><g id="text_2"><!-- 40 --><defs><path d="M 37.796875 64.3125 
L 12.890625 25.390625 
L 37.796875 25.390625 
z
M 35.203125 72.90625 
L 47.609375 72.90625 
L 47.609375 25.390625 
L 58.015625 25.390625 
L 58.015625 17.1875 
L 47.609375 17.1875 
L 47.609375 0 
L 37.796875 0 
L 37.796875 17.1875 
L 4.890625 17.1875 
L 4.890625 26.703125 
z
" id="DejaVuSans-52"></path></defs><g style="fill:#262626;" transform="translate(208.610614 325.37077)scale(0.14 -0.14)"><use xlink:href="#DejaVuSans-52"></use><use x="63.623047" xlink:href="#DejaVuSans-48"></use></g></g></g><g id="xtick_3"><g id="line2d_5"><path clip-path="url(#p193a8a6987)" d="M 311.186767 311.232957 
L 311.186767 7.2 
" style="fill:none;stroke:#ffffff;stroke-linecap:round;stroke-width:0.8;"></path></g><g id="line2d_6"></g><g id="text_3"><!-- 50 --><defs><path d="M 10.796875 72.90625 
L 49.515625 72.90625 
L 49.515625 64.59375 
L 19.828125 64.59375 
L 19.828125 46.734375 
Q 21.96875 47.46875 24.109375 47.828125 
Q 26.265625 48.1875 28.421875 48.1875 
Q 40.625 48.1875 47.75 41.5 
Q 54.890625 34.8125 54.890625 23.390625 
Q 54.890625 11.625 47.5625 5.09375 
Q 40.234375 -1.421875 26.90625 -1.421875 
Q 22.3125 -1.421875 17.546875 -0.640625 
Q 12.796875 0.140625 7.71875 1.703125 
L 7.71875 11.625 
Q 12.109375 9.234375 16.796875 8.0625 
Q 21.484375 6.890625 26.703125 6.890625 
Q 35.15625 6.890625 40.078125 11.328125 
Q 45.015625 15.765625 45.015625 23.390625 
Q 45.015625 31 40.078125 35.4375 
Q 35.15625 39.890625 26.703125 39.890625 
Q 22.75 39.890625 18.8125 39.015625 
Q 14.890625 38.140625 10.796875 36.28125 
z
" id="DejaVuSans-53"></path></defs><g style="fill:#262626;" transform="translate(302.279267 325.37077)scale(0.14 -0.14)"><use xlink:href="#DejaVuSans-53"></use><use x="63.623047" xlink:href="#DejaVuSans-48"></use></g></g></g><g id="xtick_4"><g id="line2d_7"><path clip-path="url(#p193a8a6987)" d="M 404.85542 311.232957 
L 404.85542 7.2 
" style="fill:none;stroke:#ffffff;stroke-linecap:round;stroke-width:0.8;"></path></g><g id="line2d_8"></g><g id="text_4"><!-- 60 --><defs><path d="M 33.015625 40.375 
Q 26.375 40.375 22.484375 35.828125 
Q 18.609375 31.296875 18.609375 23.390625 
Q 18.609375 15.53125 22.484375 10.953125 
Q 26.375 6.390625 33.015625 6.390625 
Q 39.65625 6.390625 43.53125 10.953125 
Q 47.40625 15.53125 47.40625 23.390625 
Q 47.40625 31.296875 43.53125 35.828125 
Q 39.65625 40.375 33.015625 40.375 
z
M 52.59375 71.296875 
L 52.59375 62.3125 
Q 48.875 64.0625 45.09375 64.984375 
Q 41.3125 65.921875 37.59375 65.921875 
Q 27.828125 65.921875 22.671875 59.328125 
Q 17.53125 52.734375 16.796875 39.40625 
Q 19.671875 43.65625 24.015625 45.921875 
Q 28.375 48.1875 33.59375 48.1875 
Q 44.578125 48.1875 50.953125 41.515625 
Q 57.328125 34.859375 57.328125 23.390625 
Q 57.328125 12.15625 50.6875 5.359375 
Q 44.046875 -1.421875 33.015625 -1.421875 
Q 20.359375 -1.421875 13.671875 8.265625 
Q 6.984375 17.96875 6.984375 36.375 
Q 6.984375 53.65625 15.1875 63.9375 
Q 23.390625 74.21875 37.203125 74.21875 
Q 40.921875 74.21875 44.703125 73.484375 
Q 48.484375 72.75 52.59375 71.296875 
z
" id="DejaVuSans-54"></path></defs><g style="fill:#262626;" transform="translate(395.94792 325.37077)scale(0.14 -0.14)"><use xlink:href="#DejaVuSans-54"></use><use x="63.623047" xlink:href="#DejaVuSans-48"></use></g></g></g><g id="xtick_5"><g id="line2d_9"><path clip-path="url(#p193a8a6987)" d="M 498.524073 311.232957 
L 498.524073 7.2 
" style="fill:none;stroke:#ffffff;stroke-linecap:round;stroke-width:0.8;"></path></g><g id="line2d_10"></g><g id="text_5"><!-- 70 --><defs><path d="M 8.203125 72.90625 
L 55.078125 72.90625 
L 55.078125 68.703125 
L 28.609375 0 
L 18.3125 0 
L 43.21875 64.59375 
L 8.203125 64.59375 
z
" id="DejaVuSans-55"></path></defs><g style="fill:#262626;" transform="translate(489.616573 325.37077)scale(0.14 -0.14)"><use xlink:href="#DejaVuSans-55"></use><use x="63.623047" xlink:href="#DejaVuSans-48"></use></g></g></g><g id="text_6"><!-- weight --><defs><path d="M 4.203125 54.6875 
L 13.1875 54.6875 
L 24.421875 12.015625 
L 35.59375 54.6875 
L 46.1875 54.6875 
L 57.421875 12.015625 
L 68.609375 54.6875 
L 77.59375 54.6875 
L 63.28125 0 
L 52.6875 0 
L 40.921875 44.828125 
L 29.109375 0 
L 18.5 0 
z
" id="DejaVuSans-119"></path><path d="M 56.203125 29.59375 
L 56.203125 25.203125 
L 14.890625 25.203125 
Q 15.484375 15.921875 20.484375 11.0625 
Q 25.484375 6.203125 34.421875 6.203125 
Q 39.59375 6.203125 44.453125 7.46875 
Q 49.3125 8.734375 54.109375 11.28125 
L 54.109375 2.78125 
Q 49.265625 0.734375 44.1875 -0.34375 
Q 39.109375 -1.421875 33.890625 -1.421875 
Q 20.796875 -1.421875 13.15625 6.1875 
Q 5.515625 13.8125 5.515625 26.8125 
Q 5.515625 40.234375 12.765625 48.109375 
Q 20.015625 56 32.328125 56 
Q 43.359375 56 49.78125 48.890625 
Q 56.203125 41.796875 56.203125 29.59375 
z
M 47.21875 32.234375 
Q 47.125 39.59375 43.09375 43.984375 
Q 39.0625 48.390625 32.421875 48.390625 
Q 24.90625 48.390625 20.390625 44.140625 
Q 15.875 39.890625 15.1875 32.171875 
z
" id="DejaVuSans-101"></path><path d="M 9.421875 54.6875 
L 18.40625 54.6875 
L 18.40625 0 
L 9.421875 0 
z
M 9.421875 75.984375 
L 18.40625 75.984375 
L 18.40625 64.59375 
L 9.421875 64.59375 
z
" id="DejaVuSans-105"></path><path d="M 45.40625 27.984375 
Q 45.40625 37.75 41.375 43.109375 
Q 37.359375 48.484375 30.078125 48.484375 
Q 22.859375 48.484375 18.828125 43.109375 
Q 14.796875 37.75 14.796875 27.984375 
Q 14.796875 18.265625 18.828125 12.890625 
Q 22.859375 7.515625 30.078125 7.515625 
Q 37.359375 7.515625 41.375 12.890625 
Q 45.40625 18.265625 45.40625 27.984375 
z
M 54.390625 6.78125 
Q 54.390625 -7.171875 48.1875 -13.984375 
Q 42 -20.796875 29.203125 -20.796875 
Q 24.46875 -20.796875 20.265625 -20.09375 
Q 16.0625 -19.390625 12.109375 -17.921875 
L 12.109375 -9.1875 
Q 16.0625 -11.328125 19.921875 -12.34375 
Q 23.78125 -13.375 27.78125 -13.375 
Q 36.625 -13.375 41.015625 -8.765625 
Q 45.40625 -4.15625 45.40625 5.171875 
L 45.40625 9.625 
Q 42.625 4.78125 38.28125 2.390625 
Q 33.9375 0 27.875 0 
Q 17.828125 0 11.671875 7.65625 
Q 5.515625 15.328125 5.515625 27.984375 
Q 5.515625 40.671875 11.671875 48.328125 
Q 17.828125 56 27.875 56 
Q 33.9375 56 38.28125 53.609375 
Q 42.625 51.21875 45.40625 46.390625 
L 45.40625 54.6875 
L 54.390625 54.6875 
z
" id="DejaVuSans-103"></path><path d="M 54.890625 33.015625 
L 54.890625 0 
L 45.90625 0 
L 45.90625 32.71875 
Q 45.90625 40.484375 42.875 44.328125 
Q 39.84375 48.1875 33.796875 48.1875 
Q 26.515625 48.1875 22.3125 43.546875 
Q 18.109375 38.921875 18.109375 30.90625 
L 18.109375 0 
L 9.078125 0 
L 9.078125 75.984375 
L 18.109375 75.984375 
L 18.109375 46.1875 
Q 21.34375 51.125 25.703125 53.5625 
Q 30.078125 56 35.796875 56 
Q 45.21875 56 50.046875 50.171875 
Q 54.890625 44.34375 54.890625 33.015625 
z
" id="DejaVuSans-104"></path><path d="M 18.3125 70.21875 
L 18.3125 54.6875 
L 36.8125 54.6875 
L 36.8125 47.703125 
L 18.3125 47.703125 
L 18.3125 18.015625 
Q 18.3125 11.328125 20.140625 9.421875 
Q 21.96875 7.515625 27.59375 7.515625 
L 36.8125 7.515625 
L 36.8125 0 
L 27.59375 0 
Q 17.1875 0 13.234375 3.875 
Q 9.28125 7.765625 9.28125 18.015625 
L 9.28125 47.703125 
L 2.6875 47.703125 
L 2.6875 54.6875 
L 9.28125 54.6875 
L 9.28125 70.21875 
z
" id="DejaVuSans-116"></path></defs><g style="fill:#262626;" transform="translate(262.482885 343.679989)scale(0.15 -0.15)"><use xlink:href="#DejaVuSans-119"></use><use x="81.787109" xlink:href="#DejaVuSans-101"></use><use x="143.310547" xlink:href="#DejaVuSans-105"></use><use x="171.09375" xlink:href="#DejaVuSans-103"></use><use x="234.570312" xlink:href="#DejaVuSans-104"></use><use x="297.949219" xlink:href="#DejaVuSans-116"></use></g></g></g><g id="matplotlib.axis_2"><g id="ytick_1"><g id="line2d_11"><path clip-path="url(#p193a8a6987)" d="M 55.939688 290.463978 
L 519.59952 290.463978 
" style="fill:none;stroke:#ffffff;stroke-linecap:round;stroke-width:0.8;"></path></g><g id="line2d_12"></g><g id="text_7"><!-- 130 --><defs><path d="M 12.40625 8.296875 
L 28.515625 8.296875 
L 28.515625 63.921875 
L 10.984375 60.40625 
L 10.984375 69.390625 
L 28.421875 72.90625 
L 38.28125 72.90625 
L 38.28125 8.296875 
L 54.390625 8.296875 
L 54.390625 0 
L 12.40625 0 
z
" id="DejaVuSans-49"></path></defs><g style="fill:#262626;" transform="translate(25.717188 295.782884)scale(0.14 -0.14)"><use xlink:href="#DejaVuSans-49"></use><use x="63.623047" xlink:href="#DejaVuSans-51"></use><use x="127.246094" xlink:href="#DejaVuSans-48"></use></g></g></g><g id="ytick_2"><g id="line2d_13"><path clip-path="url(#p193a8a6987)" d="M 55.939688 241.810638 
L 519.59952 241.810638 
" style="fill:none;stroke:#ffffff;stroke-linecap:round;stroke-width:0.8;"></path></g><g id="line2d_14"></g><g id="text_8"><!-- 140 --><g style="fill:#262626;" transform="translate(25.717188 247.129544)scale(0.14 -0.14)"><use xlink:href="#DejaVuSans-49"></use><use x="63.623047" xlink:href="#DejaVuSans-52"></use><use x="127.246094" xlink:href="#DejaVuSans-48"></use></g></g></g><g id="ytick_3"><g id="line2d_15"><path clip-path="url(#p193a8a6987)" d="M 55.939688 193.157298 
L 519.59952 193.157298 
" style="fill:none;stroke:#ffffff;stroke-linecap:round;stroke-width:0.8;"></path></g><g id="line2d_16"></g><g id="text_9"><!-- 150 --><g style="fill:#262626;" transform="translate(25.717188 198.476205)scale(0.14 -0.14)"><use xlink:href="#DejaVuSans-49"></use><use x="63.623047" xlink:href="#DejaVuSans-53"></use><use x="127.246094" xlink:href="#DejaVuSans-48"></use></g></g></g><g id="ytick_4"><g id="line2d_17"><path clip-path="url(#p193a8a6987)" d="M 55.939688 144.503959 
L 519.59952 144.503959 
" style="fill:none;stroke:#ffffff;stroke-linecap:round;stroke-width:0.8;"></path></g><g id="line2d_18"></g><g id="text_10"><!-- 160 --><g style="fill:#262626;" transform="translate(25.717188 149.822865)scale(0.14 -0.14)"><use xlink:href="#DejaVuSans-49"></use><use x="63.623047" xlink:href="#DejaVuSans-54"></use><use x="127.246094" xlink:href="#DejaVuSans-48"></use></g></g></g><g id="ytick_5"><g id="line2d_19"><path clip-path="url(#p193a8a6987)" d="M 55.939688 95.850619 
L 519.59952 95.850619 
" style="fill:none;stroke:#ffffff;stroke-linecap:round;stroke-width:0.8;"></path></g><g id="line2d_20"></g><g id="text_11"><!-- 170 --><g style="fill:#262626;" transform="translate(25.717188 101.169525)scale(0.14 -0.14)"><use xlink:href="#DejaVuSans-49"></use><use x="63.623047" xlink:href="#DejaVuSans-55"></use><use x="127.246094" xlink:href="#DejaVuSans-48"></use></g></g></g><g id="ytick_6"><g id="line2d_21"><path clip-path="url(#p193a8a6987)" d="M 55.939688 47.197279 
L 519.59952 47.197279 
" style="fill:none;stroke:#ffffff;stroke-linecap:round;stroke-width:0.8;"></path></g><g id="line2d_22"></g><g id="text_12"><!-- 180 --><defs><path d="M 31.78125 34.625 
Q 24.75 34.625 20.71875 30.859375 
Q 16.703125 27.09375 16.703125 20.515625 
Q 16.703125 13.921875 20.71875 10.15625 
Q 24.75 6.390625 31.78125 6.390625 
Q 38.8125 6.390625 42.859375 10.171875 
Q 46.921875 13.96875 46.921875 20.515625 
Q 46.921875 27.09375 42.890625 30.859375 
Q 38.875 34.625 31.78125 34.625 
z
M 21.921875 38.8125 
Q 15.578125 40.375 12.03125 44.71875 
Q 8.5 49.078125 8.5 55.328125 
Q 8.5 64.0625 14.71875 69.140625 
Q 20.953125 74.21875 31.78125 74.21875 
Q 42.671875 74.21875 48.875 69.140625 
Q 55.078125 64.0625 55.078125 55.328125 
Q 55.078125 49.078125 51.53125 44.71875 
Q 48 40.375 41.703125 38.8125 
Q 48.828125 37.15625 52.796875 32.3125 
Q 56.78125 27.484375 56.78125 20.515625 
Q 56.78125 9.90625 50.3125 4.234375 
Q 43.84375 -1.421875 31.78125 -1.421875 
Q 19.734375 -1.421875 13.25 4.234375 
Q 6.78125 9.90625 6.78125 20.515625 
Q 6.78125 27.484375 10.78125 32.3125 
Q 14.796875 37.15625 21.921875 38.8125 
z
M 18.3125 54.390625 
Q 18.3125 48.734375 21.84375 45.5625 
Q 25.390625 42.390625 31.78125 42.390625 
Q 38.140625 42.390625 41.71875 45.5625 
Q 45.3125 48.734375 45.3125 54.390625 
Q 45.3125 60.0625 41.71875 63.234375 
Q 38.140625 66.40625 31.78125 66.40625 
Q 25.390625 66.40625 21.84375 63.234375 
Q 18.3125 60.0625 18.3125 54.390625 
z
" id="DejaVuSans-56"></path></defs><g style="fill:#262626;" transform="translate(25.717188 52.516185)scale(0.14 -0.14)"><use xlink:href="#DejaVuSans-49"></use><use x="63.623047" xlink:href="#DejaVuSans-56"></use><use x="127.246094" xlink:href="#DejaVuSans-48"></use></g></g></g><g id="text_13"><!-- height --><g style="fill:#262626;" transform="translate(18.597656 183.122729)rotate(-90)scale(0.15 -0.15)"><use xlink:href="#DejaVuSans-104"></use><use x="63.378906" xlink:href="#DejaVuSans-101"></use><use x="124.902344" xlink:href="#DejaVuSans-105"></use><use x="152.685547" xlink:href="#DejaVuSans-103"></use><use x="216.162109" xlink:href="#DejaVuSans-104"></use><use x="279.541016" xlink:href="#DejaVuSans-116"></use></g></g></g><g id="PolyCollection_1"><defs><path d="M 77.015134 -102.045519 
L 77.015134 -88.492873 
L 86.382 -93.249892 
L 95.748865 -97.926659 
L 105.11573 -102.693329 
L 114.482596 -107.465716 
L 123.849461 -112.153693 
L 133.216326 -116.698833 
L 142.583192 -121.640782 
L 151.950057 -126.278128 
L 161.316922 -130.625421 
L 170.683787 -135.278357 
L 180.050653 -140.060915 
L 189.417518 -144.6895 
L 198.784383 -149.073987 
L 208.151249 -153.736574 
L 217.518114 -158.603764 
L 226.884979 -163.157294 
L 236.251845 -167.733986 
L 245.61871 -172.377642 
L 254.985575 -176.709346 
L 264.35244 -181.149883 
L 273.719306 -185.540681 
L 283.086171 -190.092058 
L 292.453036 -194.372833 
L 301.819902 -198.622948 
L 311.186767 -202.995334 
L 320.553632 -207.241143 
L 329.920498 -211.303729 
L 339.287363 -215.373443 
L 348.654228 -219.723112 
L 358.021094 -223.535216 
L 367.387959 -227.73752 
L 376.754824 -231.915029 
L 386.121689 -235.526687 
L 395.488555 -239.691055 
L 404.85542 -243.878883 
L 414.222285 -247.961217 
L 423.589151 -251.957879 
L 432.956016 -256.604431 
L 442.322881 -260.763157 
L 451.689747 -264.807406 
L 461.056612 -268.847127 
L 470.423477 -272.920553 
L 479.790342 -276.948544 
L 489.157208 -281.489676 
L 498.524073 -285.548847 
L 498.524073 -302.611518 
L 498.524073 -302.611518 
L 489.157208 -297.911588 
L 479.790342 -292.725987 
L 470.423477 -288.021826 
L 461.056612 -283.326722 
L 451.689747 -278.639117 
L 442.322881 -273.951511 
L 432.956016 -269.15277 
L 423.589151 -263.854622 
L 414.222285 -259.137321 
L 404.85542 -254.472581 
L 395.488555 -249.722614 
L 386.121689 -245.041468 
L 376.754824 -240.920826 
L 367.387959 -236.06492 
L 358.021094 -231.350366 
L 348.654228 -227.005745 
L 339.287363 -222.12586 
L 329.920498 -217.488069 
L 320.553632 -212.922735 
L 311.186767 -208.282494 
L 301.819902 -203.5914 
L 292.453036 -199.0447 
L 283.086171 -194.556649 
L 273.719306 -189.864886 
L 264.35244 -185.359983 
L 254.985575 -180.963692 
L 245.61871 -176.737482 
L 236.251845 -172.407115 
L 226.884979 -168.172814 
L 217.518114 -164.001838 
L 208.151249 -159.484982 
L 198.784383 -155.2391 
L 189.417518 -151.342215 
L 180.050653 -147.259287 
L 170.683787 -143.038051 
L 161.316922 -138.986229 
L 151.950057 -135.202114 
L 142.583192 -131.176869 
L 133.216326 -126.788744 
L 123.849461 -122.736626 
L 114.482596 -118.612049 
L 105.11573 -114.445231 
L 95.748865 -110.253469 
L 86.382 -106.157549 
L 77.015134 -102.045519 
z
" id="m4d51e66343" style="stroke:#000000;stroke-opacity:0.2;"></path></defs><g clip-path="url(#p193a8a6987)"><use style="fill-opacity:0.2;stroke:#000000;stroke-opacity:0.2;" x="0" xlink:href="#m4d51e66343" y="353.99952"></use></g></g><g id="PolyCollection_2"><defs><path d="M 77.015134 -135.937749 
L 77.015134 -56.586242 
L 86.382 -61.405177 
L 95.748865 -66.004735 
L 105.11573 -68.962198 
L 114.482596 -73.307339 
L 123.849461 -76.33429 
L 133.216326 -78.737484 
L 142.583192 -88.294878 
L 151.950057 -89.525465 
L 161.316922 -96.365559 
L 170.683787 -97.681744 
L 180.050653 -104.117829 
L 189.417518 -112.107293 
L 198.784383 -113.248645 
L 208.151249 -117.026376 
L 217.518114 -122.901288 
L 226.884979 -125.805744 
L 236.251845 -129.338783 
L 245.61871 -136.998774 
L 254.985575 -140.213253 
L 264.35244 -145.211624 
L 273.719306 -145.742136 
L 283.086171 -152.157137 
L 292.453036 -155.417348 
L 301.819902 -161.721064 
L 311.186767 -169.164425 
L 320.553632 -167.755738 
L 329.920498 -176.627534 
L 339.287363 -178.755227 
L 348.654228 -182.522267 
L 358.021094 -189.432666 
L 367.387959 -193.026433 
L 376.754824 -196.987534 
L 386.121689 -201.094961 
L 395.488555 -205.93008 
L 404.85542 -207.935946 
L 414.222285 -208.825999 
L 423.589151 -220.01695 
L 432.956016 -220.983024 
L 442.322881 -224.594162 
L 451.689747 -228.454299 
L 461.056612 -234.716813 
L 470.423477 -238.278359 
L 479.790342 -245.04659 
L 489.157208 -253.001162 
L 498.524073 -252.936574 
L 498.524073 -332.97984 
L 498.524073 -332.97984 
L 489.157208 -332.079468 
L 479.790342 -325.25979 
L 470.423477 -320.021404 
L 461.056612 -313.580197 
L 451.689747 -311.867872 
L 442.322881 -308.022064 
L 432.956016 -302.528073 
L 423.589151 -295.80394 
L 414.222285 -295.761475 
L 404.85542 -288.280846 
L 395.488555 -282.867479 
L 386.121689 -279.488115 
L 376.754824 -275.406672 
L 367.387959 -271.877865 
L 358.021094 -265.035246 
L 348.654228 -263.270286 
L 339.287363 -257.938211 
L 329.920498 -254.990324 
L 320.553632 -249.53182 
L 311.186767 -248.240059 
L 301.819902 -241.685415 
L 292.453036 -237.866035 
L 283.086171 -229.958531 
L 273.719306 -225.73982 
L 264.35244 -221.7024 
L 254.985575 -219.713015 
L 245.61871 -216.34939 
L 236.251845 -212.746046 
L 226.884979 -205.955915 
L 217.518114 -202.384643 
L 208.151249 -198.090653 
L 198.784383 -192.93987 
L 189.417518 -190.527173 
L 180.050653 -182.3605 
L 170.683787 -181.067701 
L 161.316922 -174.888632 
L 151.950057 -171.503551 
L 142.583192 -167.240074 
L 133.216326 -163.123367 
L 123.849461 -160.960262 
L 114.482596 -154.746672 
L 105.11573 -147.261291 
L 95.748865 -145.358766 
L 86.382 -140.404419 
L 77.015134 -135.937749 
z
" id="m80fef73aef" style="stroke:#000000;stroke-opacity:0.15;"></path></defs><g clip-path="url(#p193a8a6987)"><use style="fill-opacity:0.15;stroke:#000000;stroke-opacity:0.15;" x="0" xlink:href="#m80fef73aef" y="353.99952"></use></g></g><g id="line2d_23"><path clip-path="url(#p193a8a6987)" d="M 290.819516 184.569984 
L 184.601137 243.270238 
L 141.317147 258.717674 
L 339.67997 159.854087 
L 229.478402 215.464855 
L 432.886598 125.869729 
L 201.064986 196.927932 
L 362.516922 101.153833 
L 169.465018 203.106906 
L 353.222814 119.690755 
L 310.20437 172.212036 
L 228.94731 187.659471 
L 180.352402 218.554342 
L 289.642977 193.643832 
L 159.905364 190.748958 
L 297.723711 128.959217 
L 239.303602 156.7646 
L 202.127169 222.632465 
L 301.7069 138.227678 
L 243.021245 162.943574 
L 175.307029 210.672501 
L 197.878434 200.017419 
L 175.041483 206.196393 
L 220.44984 203.106906 
L 359.064825 135.138191 
L 194.160791 212.375367 
L 203.454899 212.375367 
L 279.40104 179.997543 
L 206.64145 227.822803 
L 176.103666 227.822803 
L 286.836327 203.106906 
L 291.350608 141.317165 
L 305.690089 184.569984 
L 305.424543 130.56575 
L 372.607668 88.795885 
L 209.29691 206.196393 
L 310.20437 203.106906 
L 229.212856 172.212036 
L 203.985991 224.733316 
L 239.998591 209.2129 
L 261.07837 156.7646 
L 391.726976 116.601268 
L 280.463224 181.480497 
L 257.095181 234.001777 
L 319.616946 150.342359 
L 351.629538 166.033061 
L 272.762392 122.780242 
L 292.678338 184.569984 
L 331.979138 138.227678 
L 288.960694 172.212036 
L 270.372478 215.464855 
L 240.10024 215.464855 
L 184.601137 181.480497 
L 366.765657 125.869729 
L 191.239786 221.643829 
L 295.333797 175.301523 
L 192.567515 227.822803 
L 284.711959 110.422294 
L 285.774143 152.192159 
L 381.901776 116.601268 
L 198.14398 193.838445 
L 284.977505 169.122548 
L 247.535526 139.834211 
L 313.656467 135.138191 
L 211.686824 203.106906 
L 317.640537 147.496139 
L 212.217915 200.017419 
L 182.742315 258.717674 
L 276.214489 153.675113 
L 238.77251 218.554342 
L 288.960694 159.854087 
L 364.641289 51.72204 
L 297.723711 94.974859 
L 243.817883 212.375367 
L 171.323839 206.196393 
L 374.46649 132.048704 
L 322.950576 181.480497 
L 285.243051 144.406652 
L 226.291851 193.838445 
L 149.283526 227.822803 
L 377.387495 110.422294 
L 245.411159 147.496139 
L 216.997742 169.122548 
L 273.293483 132.048704 
L 227.885126 181.480497 
L 288.695148 94.974859 
L 194.160791 212.375367 
L 264.530467 147.496139 
L 238.77251 187.659471 
L 356.674911 141.317165 
L 344.194252 98.064346 
L 331.713592 150.585626 
L 240.10024 193.838445 
L 307.283365 178.39101 
L 233.727137 135.138191 
L 367.562295 132.048704 
L 237.710326 196.927932 
L 340.211062 128.959217 
L 313.390922 135.138191 
L 241.162424 215.464855 
L 302.769084 128.959217 
L 203.454899 187.659471 
L 309.407732 190.748958 
L 402.61436 91.885372 
L 291.8817 156.7646 
L 210.890186 181.480497 
L 188.31878 206.196393 
L 237.44478 215.464855 
L 260.281732 156.7646 
L 291.085062 172.212036 
L 359.861462 110.422294 
L 151.938985 227.822803 
L 225.760759 181.480497 
L 322.427005 144.503959 
L 302.237992 147.496139 
L 343.397614 193.838445 
L 349.50517 141.317165 
L 361.454738 141.317165 
L 238.506964 196.927932 
L 226.291851 237.091264 
L 308.345549 169.122548 
L 258.157364 234.001777 
L 273.293483 144.406652 
L 235.851505 192.355491 
L 325.074943 166.033061 
L 256.032997 162.943574 
L 144.503699 178.39101 
L 374.46649 110.422294 
L 336.227873 193.838445 
L 184.601137 203.106906 
L 300.37917 147.496139 
L 376.325311 135.138191 
L 237.179234 166.033061 
L 312.85983 147.496139 
L 278.869948 209.28588 
L 421.733668 82.61691 
L 301.7069 113.511781 
L 138.130596 234.001777 
L 173.448207 184.569984 
L 270.372478 159.854087 
L 253.908629 200.017419 
L 269.57584 156.7646 
L 208.234726 193.838445 
L 228.416218 203.106906 
L 266.654835 178.39101 
L 345.256435 141.317165 
L 332.775776 196.927932 
L 209.031364 249.449212 
L 270.90357 132.048704 
L 221.246478 196.927932 
L 325.074943 150.585626 
L 205.048175 193.838445 
L 210.359094 153.675113 
L 258.157364 162.943574 
L 213.014553 200.017419 
L 133.881861 224.733316 
L 280.994316 172.212036 
L 223.370845 156.7646 
L 312.85983 156.7646 
L 229.478402 172.212036 
L 354.274347 104.24332 
L 264.264921 215.464855 
L 178.228034 196.927932 
L 266.389289 169.122548 
L 293.474975 132.048704 
L 270.638024 159.854087 
L 296.395981 139.587052 
L 228.681764 218.554342 
L 202.658261 224.733316 
L 237.44478 196.927932 
L 201.064986 193.838445 
L 295.599343 116.601268 
L 207.438088 221.643829 
L 217.79438 156.7646 
L 313.125376 172.212036 
L 351.363992 125.869729 
L 269.97256 162.943574 
L 212.217915 221.643829 
L 247.535526 132.048704 
L 141.317147 212.375367 
L 268.513656 169.122548 
L 199.206164 218.554342 
L 180.883494 209.28588 
L 225.760759 181.480497 
L 291.616154 125.869729 
L 289.757332 116.601268 
L 277.276673 162.943574 
L 228.416218 181.480497 
L 185.663321 240.180751 
L 293.740521 128.959217 
L 186.725504 187.659471 
L 372.607668 90.402418 
L 205.313721 193.838445 
L 287.632965 125.869729 
L 181.945677 234.001777 
L 229.478402 196.927932 
L 262.140554 212.375367 
L 315.249743 138.227678 
L 360.6581 132.048704 
L 198.14398 215.464855 
L 390.399246 91.885372 
L 258.954002 147.496139 
L 258.732321 147.423159 
L 260.281732 175.301523 
L 260.812824 144.406652 
L 222.043115 190.748958 
L 255.767451 196.927932 
L 165.216283 227.822803 
L 149.814618 231.530187 
L 179.555764 206.196393 
L 307.017575 132.048704 
L 341.0077 122.780242 
L 190.177602 144.406652 
L 222.308661 175.301523 
L 316.843019 110.422294 
L 254.705267 187.659471 
L 310.156412 178.39101 
L 157.51545 246.359725 
L 253.643083 181.480497 
L 293.740521 169.122548 
L 243.286791 203.106906 
L 160.436456 221.643829 
L 214.873375 166.033061 
L 179.555764 190.748958 
L 319.764024 166.033061 
L 271.434662 172.212036 
L 303.831267 156.7646 
L 393.851344 101.153833 
L 249.92544 190.748958 
L 329.589224 144.406652 
L 317.639657 107.332807 
L 163.623007 221.643829 
L 211.686824 215.464855 
L 400.755538 144.406652 
L 331.448046 122.780242 
L 217.263288 178.39101 
L 254.439721 196.927932 
L 354.284998 144.406652 
L 265.061559 196.927932 
L 230.009494 175.301523 
L 235.320413 190.748958 
L 241.160082 184.569984 
L 247.004435 153.675113 
L 225.229667 196.927932 
L 244.348975 184.569984 
L 275.683397 169.122548 
L 291.085062 138.227678 
L 241.162424 200.017419 
L 297.192619 141.317165 
L 272.496846 156.7646 
L 338.352241 110.422294 
L 288.429602 156.7646 
L 250.722078 181.480497 
L 249.659894 181.480497 
L 341.273246 135.138191 
L 261.343916 181.480497 
L 284.977505 147.496139 
L 139.458326 230.91229 
L 371.545484 101.153833 
L 365.437927 144.406652 
L 287.632965 153.675113 
L 265.858197 181.480497 
L 269.310294 166.033061 
L 300.644716 172.212036 
L 279.135494 159.854087 
L 253.908629 162.943574 
L 367.827841 104.24332 
L 218.325472 203.106906 
L 318.701841 156.7646 
L 276.529365 141.098225 
L 305.158997 138.227678 
L 256.032997 190.748958 
L 320.826208 128.959217 
L 224.698575 200.017419 
L 194.691883 200.017419 
L 326.137127 135.138191 
L 262.671645 175.301523 
L 249.394348 187.659471 
L 280.463224 125.869729 
L 213.280099 178.39101 
L 168.66838 184.569984 
L 210.890186 162.943574 
L 193.629699 240.180751 
L 298.785894 150.585626 
L 176.369212 227.822803 
L 252.315354 183.704927 
L 294.271613 138.227678 
L 320.295116 139.710632 
L 254.970813 218.554342 
L 294.271613 144.406652 
L 280.197678 139.710632 
L 371.279938 115.365473 
L 297.989257 154.293011 
L 294.537159 169.122548 
L 287.632965 141.317165 
L 175.838121 206.196393 
L 185.670772 209.2129 
L 301.441354 206.196393 
L 322.950576 81.257536 
L 278.604402 153.675113 
L 189.115418 206.196393 
L 298.520348 115.365473 
L 199.206164 193.838445 
L 285.774143 135.138191 
L 361.720284 125.869729 
L 350.567354 144.406652 
L 296.927073 169.122548 
L 246.207797 181.480497 
L 163.091915 212.375367 
L 310.735462 183.457768 
L 258.157364 184.569984 
L 156.18772 218.554342 
L 285.774143 141.317165 
L 274.886759 187.659471 
L 286.836327 175.301523 
L 225.495213 206.196393 
L 314.453105 243.270238 
L 265.592651 156.7646 
L 238.506964 169.122548 
L 232.930499 224.733316 
L 266.389289 153.675113 
L 322.950576 206.196393 
L 304.362359 144.406652 
L 322.419484 119.690755 
L 253.643083 169.122548 
L 175.572575 175.301523 
L 244.545454 234.001777 
L 280.994316 125.869729 
L 235.054867 138.227678 
L 200.657756 169.317162 
L 248.428769 138.179024 
L 345.256435 94.974859 
L 245.411159 193.838445 
L 215.404467 141.317165 
L 248.863256 169.122548 
L 336.227873 113.511781 
L 202.923807 201.500373 
L 243.817883 184.569984 
L 179.024672 200.017419 
L 257.095181 175.301523 
L 199.47171 209.28588 
L 256.032997 169.122548 
L 255.236359 162.943574 
L 291.350608 141.317165 
L 211.952369 212.375367 
L 227.354034 162.943574 
L 225.229667 181.480497 
L 283.384229 132.048704 
L 163.623007 227.822803 
L 331.448046 132.048704 
L 349.239625 162.943574 
L 334.900143 150.585626 
L 334.900143 150.585626 
" style="fill:none;"></path><defs><path d="M 0 1.5 
C 0.397805 1.5 0.77937 1.341951 1.06066 1.06066 
C 1.341951 0.77937 1.5 0.397805 1.5 0 
C 1.5 -0.397805 1.341951 -0.77937 1.06066 -1.06066 
C 0.77937 -1.341951 0.397805 -1.5 0 -1.5 
C -0.397805 -1.5 -0.77937 -1.341951 -1.06066 -1.06066 
C -1.341951 -0.77937 -1.5 -0.397805 -1.5 0 
C -1.5 0.397805 -1.341951 0.77937 -1.06066 1.06066 
C -0.77937 1.341951 -0.397805 1.5 0 1.5 
z
" id="m3cb1a36ed9" style="stroke:#2a2eec;stroke-opacity:0.5;"></path></defs><g clip-path="url(#p193a8a6987)"><use style="fill:#2a2eec;fill-opacity:0.5;stroke:#2a2eec;stroke-opacity:0.5;" x="290.819516" xlink:href="#m3cb1a36ed9" y="184.569984"></use><use style="fill:#2a2eec;fill-opacity:0.5;stroke:#2a2eec;stroke-opacity:0.5;" x="184.601137" xlink:href="#m3cb1a36ed9" y="243.270238"></use><use style="fill:#2a2eec;fill-opacity:0.5;stroke:#2a2eec;stroke-opacity:0.5;" x="141.317147" xlink:href="#m3cb1a36ed9" y="258.717674"></use><use style="fill:#2a2eec;fill-opacity:0.5;stroke:#2a2eec;stroke-opacity:0.5;" x="339.67997" xlink:href="#m3cb1a36ed9" y="159.854087"></use><use style="fill:#2a2eec;fill-opacity:0.5;stroke:#2a2eec;stroke-opacity:0.5;" x="229.478402" xlink:href="#m3cb1a36ed9" y="215.464855"></use><use style="fill:#2a2eec;fill-opacity:0.5;stroke:#2a2eec;stroke-opacity:0.5;" x="432.886598" xlink:href="#m3cb1a36ed9" y="125.869729"></use><use style="fill:#2a2eec;fill-opacity:0.5;stroke:#2a2eec;stroke-opacity:0.5;" x="201.064986" xlink:href="#m3cb1a36ed9" y="196.927932"></use><use style="fill:#2a2eec;fill-opacity:0.5;stroke:#2a2eec;stroke-opacity:0.5;" x="362.516922" xlink:href="#m3cb1a36ed9" y="101.153833"></use><use style="fill:#2a2eec;fill-opacity:0.5;stroke:#2a2eec;stroke-opacity:0.5;" x="169.465018" xlink:href="#m3cb1a36ed9" y="203.106906"></use><use style="fill:#2a2eec;fill-opacity:0.5;stroke:#2a2eec;stroke-opacity:0.5;" x="353.222814" xlink:href="#m3cb1a36ed9" y="119.690755"></use><use style="fill:#2a2eec;fill-opacity:0.5;stroke:#2a2eec;stroke-opacity:0.5;" x="310.20437" xlink:href="#m3cb1a36ed9" y="172.212036"></use><use style="fill:#2a2eec;fill-opacity:0.5;stroke:#2a2eec;stroke-opacity:0.5;" x="228.94731" xlink:href="#m3cb1a36ed9" y="187.659471"></use><use style="fill:#2a2eec;fill-opacity:0.5;stroke:#2a2eec;stroke-opacity:0.5;" x="180.352402" xlink:href="#m3cb1a36ed9" y="218.554342"></use><use style="fill:#2a2eec;fill-opacity:0.5;stroke:#2a2eec;stroke-opacity:0.5;" x="289.642977" xlink:href="#m3cb1a36ed9" y="193.643832"></use><use style="fill:#2a2eec;fill-opacity:0.5;stroke:#2a2eec;stroke-opacity:0.5;" x="159.905364" xlink:href="#m3cb1a36ed9" y="190.748958"></use><use style="fill:#2a2eec;fill-opacity:0.5;stroke:#2a2eec;stroke-opacity:0.5;" x="297.723711" xlink:href="#m3cb1a36ed9" y="128.959217"></use><use style="fill:#2a2eec;fill-opacity:0.5;stroke:#2a2eec;stroke-opacity:0.5;" x="239.303602" xlink:href="#m3cb1a36ed9" y="156.7646"></use><use style="fill:#2a2eec;fill-opacity:0.5;stroke:#2a2eec;stroke-opacity:0.5;" x="202.127169" xlink:href="#m3cb1a36ed9" y="222.632465"></use><use style="fill:#2a2eec;fill-opacity:0.5;stroke:#2a2eec;stroke-opacity:0.5;" x="301.7069" xlink:href="#m3cb1a36ed9" y="138.227678"></use><use style="fill:#2a2eec;fill-opacity:0.5;stroke:#2a2eec;stroke-opacity:0.5;" x="243.021245" xlink:href="#m3cb1a36ed9" y="162.943574"></use><use style="fill:#2a2eec;fill-opacity:0.5;stroke:#2a2eec;stroke-opacity:0.5;" x="175.307029" xlink:href="#m3cb1a36ed9" y="210.672501"></use><use style="fill:#2a2eec;fill-opacity:0.5;stroke:#2a2eec;stroke-opacity:0.5;" x="197.878434" xlink:href="#m3cb1a36ed9" y="200.017419"></use><use style="fill:#2a2eec;fill-opacity:0.5;stroke:#2a2eec;stroke-opacity:0.5;" x="175.041483" xlink:href="#m3cb1a36ed9" y="206.196393"></use><use style="fill:#2a2eec;fill-opacity:0.5;stroke:#2a2eec;stroke-opacity:0.5;" x="220.44984" xlink:href="#m3cb1a36ed9" y="203.106906"></use><use style="fill:#2a2eec;fill-opacity:0.5;stroke:#2a2eec;stroke-opacity:0.5;" x="359.064825" xlink:href="#m3cb1a36ed9" y="135.138191"></use><use style="fill:#2a2eec;fill-opacity:0.5;stroke:#2a2eec;stroke-opacity:0.5;" x="194.160791" xlink:href="#m3cb1a36ed9" y="212.375367"></use><use style="fill:#2a2eec;fill-opacity:0.5;stroke:#2a2eec;stroke-opacity:0.5;" x="203.454899" xlink:href="#m3cb1a36ed9" y="212.375367"></use><use style="fill:#2a2eec;fill-opacity:0.5;stroke:#2a2eec;stroke-opacity:0.5;" x="279.40104" xlink:href="#m3cb1a36ed9" y="179.997543"></use><use style="fill:#2a2eec;fill-opacity:0.5;stroke:#2a2eec;stroke-opacity:0.5;" x="206.64145" xlink:href="#m3cb1a36ed9" y="227.822803"></use><use style="fill:#2a2eec;fill-opacity:0.5;stroke:#2a2eec;stroke-opacity:0.5;" x="176.103666" xlink:href="#m3cb1a36ed9" y="227.822803"></use><use style="fill:#2a2eec;fill-opacity:0.5;stroke:#2a2eec;stroke-opacity:0.5;" x="286.836327" xlink:href="#m3cb1a36ed9" y="203.106906"></use><use style="fill:#2a2eec;fill-opacity:0.5;stroke:#2a2eec;stroke-opacity:0.5;" x="291.350608" xlink:href="#m3cb1a36ed9" y="141.317165"></use><use style="fill:#2a2eec;fill-opacity:0.5;stroke:#2a2eec;stroke-opacity:0.5;" x="305.690089" xlink:href="#m3cb1a36ed9" y="184.569984"></use><use style="fill:#2a2eec;fill-opacity:0.5;stroke:#2a2eec;stroke-opacity:0.5;" x="305.424543" xlink:href="#m3cb1a36ed9" y="130.56575"></use><use style="fill:#2a2eec;fill-opacity:0.5;stroke:#2a2eec;stroke-opacity:0.5;" x="372.607668" xlink:href="#m3cb1a36ed9" y="88.795885"></use><use style="fill:#2a2eec;fill-opacity:0.5;stroke:#2a2eec;stroke-opacity:0.5;" x="209.29691" xlink:href="#m3cb1a36ed9" y="206.196393"></use><use style="fill:#2a2eec;fill-opacity:0.5;stroke:#2a2eec;stroke-opacity:0.5;" x="310.20437" xlink:href="#m3cb1a36ed9" y="203.106906"></use><use style="fill:#2a2eec;fill-opacity:0.5;stroke:#2a2eec;stroke-opacity:0.5;" x="229.212856" xlink:href="#m3cb1a36ed9" y="172.212036"></use><use style="fill:#2a2eec;fill-opacity:0.5;stroke:#2a2eec;stroke-opacity:0.5;" x="203.985991" xlink:href="#m3cb1a36ed9" y="224.733316"></use><use style="fill:#2a2eec;fill-opacity:0.5;stroke:#2a2eec;stroke-opacity:0.5;" x="239.998591" xlink:href="#m3cb1a36ed9" y="209.2129"></use><use style="fill:#2a2eec;fill-opacity:0.5;stroke:#2a2eec;stroke-opacity:0.5;" x="261.07837" xlink:href="#m3cb1a36ed9" y="156.7646"></use><use style="fill:#2a2eec;fill-opacity:0.5;stroke:#2a2eec;stroke-opacity:0.5;" x="391.726976" xlink:href="#m3cb1a36ed9" y="116.601268"></use><use style="fill:#2a2eec;fill-opacity:0.5;stroke:#2a2eec;stroke-opacity:0.5;" x="280.463224" xlink:href="#m3cb1a36ed9" y="181.480497"></use><use style="fill:#2a2eec;fill-opacity:0.5;stroke:#2a2eec;stroke-opacity:0.5;" x="257.095181" xlink:href="#m3cb1a36ed9" y="234.001777"></use><use style="fill:#2a2eec;fill-opacity:0.5;stroke:#2a2eec;stroke-opacity:0.5;" x="319.616946" xlink:href="#m3cb1a36ed9" y="150.342359"></use><use style="fill:#2a2eec;fill-opacity:0.5;stroke:#2a2eec;stroke-opacity:0.5;" x="351.629538" xlink:href="#m3cb1a36ed9" y="166.033061"></use><use style="fill:#2a2eec;fill-opacity:0.5;stroke:#2a2eec;stroke-opacity:0.5;" x="272.762392" xlink:href="#m3cb1a36ed9" y="122.780242"></use><use style="fill:#2a2eec;fill-opacity:0.5;stroke:#2a2eec;stroke-opacity:0.5;" x="292.678338" xlink:href="#m3cb1a36ed9" y="184.569984"></use><use style="fill:#2a2eec;fill-opacity:0.5;stroke:#2a2eec;stroke-opacity:0.5;" x="331.979138" xlink:href="#m3cb1a36ed9" y="138.227678"></use><use style="fill:#2a2eec;fill-opacity:0.5;stroke:#2a2eec;stroke-opacity:0.5;" x="288.960694" xlink:href="#m3cb1a36ed9" y="172.212036"></use><use style="fill:#2a2eec;fill-opacity:0.5;stroke:#2a2eec;stroke-opacity:0.5;" x="270.372478" xlink:href="#m3cb1a36ed9" y="215.464855"></use><use style="fill:#2a2eec;fill-opacity:0.5;stroke:#2a2eec;stroke-opacity:0.5;" x="240.10024" xlink:href="#m3cb1a36ed9" y="215.464855"></use><use style="fill:#2a2eec;fill-opacity:0.5;stroke:#2a2eec;stroke-opacity:0.5;" x="184.601137" xlink:href="#m3cb1a36ed9" y="181.480497"></use><use style="fill:#2a2eec;fill-opacity:0.5;stroke:#2a2eec;stroke-opacity:0.5;" x="366.765657" xlink:href="#m3cb1a36ed9" y="125.869729"></use><use style="fill:#2a2eec;fill-opacity:0.5;stroke:#2a2eec;stroke-opacity:0.5;" x="191.239786" xlink:href="#m3cb1a36ed9" y="221.643829"></use><use style="fill:#2a2eec;fill-opacity:0.5;stroke:#2a2eec;stroke-opacity:0.5;" x="295.333797" xlink:href="#m3cb1a36ed9" y="175.301523"></use><use style="fill:#2a2eec;fill-opacity:0.5;stroke:#2a2eec;stroke-opacity:0.5;" x="192.567515" xlink:href="#m3cb1a36ed9" y="227.822803"></use><use style="fill:#2a2eec;fill-opacity:0.5;stroke:#2a2eec;stroke-opacity:0.5;" x="284.711959" xlink:href="#m3cb1a36ed9" y="110.422294"></use><use style="fill:#2a2eec;fill-opacity:0.5;stroke:#2a2eec;stroke-opacity:0.5;" x="285.774143" xlink:href="#m3cb1a36ed9" y="152.192159"></use><use style="fill:#2a2eec;fill-opacity:0.5;stroke:#2a2eec;stroke-opacity:0.5;" x="381.901776" xlink:href="#m3cb1a36ed9" y="116.601268"></use><use style="fill:#2a2eec;fill-opacity:0.5;stroke:#2a2eec;stroke-opacity:0.5;" x="198.14398" xlink:href="#m3cb1a36ed9" y="193.838445"></use><use style="fill:#2a2eec;fill-opacity:0.5;stroke:#2a2eec;stroke-opacity:0.5;" x="284.977505" xlink:href="#m3cb1a36ed9" y="169.122548"></use><use style="fill:#2a2eec;fill-opacity:0.5;stroke:#2a2eec;stroke-opacity:0.5;" x="247.535526" xlink:href="#m3cb1a36ed9" y="139.834211"></use><use style="fill:#2a2eec;fill-opacity:0.5;stroke:#2a2eec;stroke-opacity:0.5;" x="313.656467" xlink:href="#m3cb1a36ed9" y="135.138191"></use><use style="fill:#2a2eec;fill-opacity:0.5;stroke:#2a2eec;stroke-opacity:0.5;" x="211.686824" xlink:href="#m3cb1a36ed9" y="203.106906"></use><use style="fill:#2a2eec;fill-opacity:0.5;stroke:#2a2eec;stroke-opacity:0.5;" x="317.640537" xlink:href="#m3cb1a36ed9" y="147.496139"></use><use style="fill:#2a2eec;fill-opacity:0.5;stroke:#2a2eec;stroke-opacity:0.5;" x="212.217915" xlink:href="#m3cb1a36ed9" y="200.017419"></use><use style="fill:#2a2eec;fill-opacity:0.5;stroke:#2a2eec;stroke-opacity:0.5;" x="182.742315" xlink:href="#m3cb1a36ed9" y="258.717674"></use><use style="fill:#2a2eec;fill-opacity:0.5;stroke:#2a2eec;stroke-opacity:0.5;" x="276.214489" xlink:href="#m3cb1a36ed9" y="153.675113"></use><use style="fill:#2a2eec;fill-opacity:0.5;stroke:#2a2eec;stroke-opacity:0.5;" x="238.77251" xlink:href="#m3cb1a36ed9" y="218.554342"></use><use style="fill:#2a2eec;fill-opacity:0.5;stroke:#2a2eec;stroke-opacity:0.5;" x="288.960694" xlink:href="#m3cb1a36ed9" y="159.854087"></use><use style="fill:#2a2eec;fill-opacity:0.5;stroke:#2a2eec;stroke-opacity:0.5;" x="364.641289" xlink:href="#m3cb1a36ed9" y="51.72204"></use><use style="fill:#2a2eec;fill-opacity:0.5;stroke:#2a2eec;stroke-opacity:0.5;" x="297.723711" xlink:href="#m3cb1a36ed9" y="94.974859"></use><use style="fill:#2a2eec;fill-opacity:0.5;stroke:#2a2eec;stroke-opacity:0.5;" x="243.817883" xlink:href="#m3cb1a36ed9" y="212.375367"></use><use style="fill:#2a2eec;fill-opacity:0.5;stroke:#2a2eec;stroke-opacity:0.5;" x="171.323839" xlink:href="#m3cb1a36ed9" y="206.196393"></use><use style="fill:#2a2eec;fill-opacity:0.5;stroke:#2a2eec;stroke-opacity:0.5;" x="374.46649" xlink:href="#m3cb1a36ed9" y="132.048704"></use><use style="fill:#2a2eec;fill-opacity:0.5;stroke:#2a2eec;stroke-opacity:0.5;" x="322.950576" xlink:href="#m3cb1a36ed9" y="181.480497"></use><use style="fill:#2a2eec;fill-opacity:0.5;stroke:#2a2eec;stroke-opacity:0.5;" x="285.243051" xlink:href="#m3cb1a36ed9" y="144.406652"></use><use style="fill:#2a2eec;fill-opacity:0.5;stroke:#2a2eec;stroke-opacity:0.5;" x="226.291851" xlink:href="#m3cb1a36ed9" y="193.838445"></use><use style="fill:#2a2eec;fill-opacity:0.5;stroke:#2a2eec;stroke-opacity:0.5;" x="149.283526" xlink:href="#m3cb1a36ed9" y="227.822803"></use><use style="fill:#2a2eec;fill-opacity:0.5;stroke:#2a2eec;stroke-opacity:0.5;" x="377.387495" xlink:href="#m3cb1a36ed9" y="110.422294"></use><use style="fill:#2a2eec;fill-opacity:0.5;stroke:#2a2eec;stroke-opacity:0.5;" x="245.411159" xlink:href="#m3cb1a36ed9" y="147.496139"></use><use style="fill:#2a2eec;fill-opacity:0.5;stroke:#2a2eec;stroke-opacity:0.5;" x="216.997742" xlink:href="#m3cb1a36ed9" y="169.122548"></use><use style="fill:#2a2eec;fill-opacity:0.5;stroke:#2a2eec;stroke-opacity:0.5;" x="273.293483" xlink:href="#m3cb1a36ed9" y="132.048704"></use><use style="fill:#2a2eec;fill-opacity:0.5;stroke:#2a2eec;stroke-opacity:0.5;" x="227.885126" xlink:href="#m3cb1a36ed9" y="181.480497"></use><use style="fill:#2a2eec;fill-opacity:0.5;stroke:#2a2eec;stroke-opacity:0.5;" x="288.695148" xlink:href="#m3cb1a36ed9" y="94.974859"></use><use style="fill:#2a2eec;fill-opacity:0.5;stroke:#2a2eec;stroke-opacity:0.5;" x="194.160791" xlink:href="#m3cb1a36ed9" y="212.375367"></use><use style="fill:#2a2eec;fill-opacity:0.5;stroke:#2a2eec;stroke-opacity:0.5;" x="264.530467" xlink:href="#m3cb1a36ed9" y="147.496139"></use><use style="fill:#2a2eec;fill-opacity:0.5;stroke:#2a2eec;stroke-opacity:0.5;" x="238.77251" xlink:href="#m3cb1a36ed9" y="187.659471"></use><use style="fill:#2a2eec;fill-opacity:0.5;stroke:#2a2eec;stroke-opacity:0.5;" x="356.674911" xlink:href="#m3cb1a36ed9" y="141.317165"></use><use style="fill:#2a2eec;fill-opacity:0.5;stroke:#2a2eec;stroke-opacity:0.5;" x="344.194252" xlink:href="#m3cb1a36ed9" y="98.064346"></use><use style="fill:#2a2eec;fill-opacity:0.5;stroke:#2a2eec;stroke-opacity:0.5;" x="331.713592" xlink:href="#m3cb1a36ed9" y="150.585626"></use><use style="fill:#2a2eec;fill-opacity:0.5;stroke:#2a2eec;stroke-opacity:0.5;" x="240.10024" xlink:href="#m3cb1a36ed9" y="193.838445"></use><use style="fill:#2a2eec;fill-opacity:0.5;stroke:#2a2eec;stroke-opacity:0.5;" x="307.283365" xlink:href="#m3cb1a36ed9" y="178.39101"></use><use style="fill:#2a2eec;fill-opacity:0.5;stroke:#2a2eec;stroke-opacity:0.5;" x="233.727137" xlink:href="#m3cb1a36ed9" y="135.138191"></use><use style="fill:#2a2eec;fill-opacity:0.5;stroke:#2a2eec;stroke-opacity:0.5;" x="367.562295" xlink:href="#m3cb1a36ed9" y="132.048704"></use><use style="fill:#2a2eec;fill-opacity:0.5;stroke:#2a2eec;stroke-opacity:0.5;" x="237.710326" xlink:href="#m3cb1a36ed9" y="196.927932"></use><use style="fill:#2a2eec;fill-opacity:0.5;stroke:#2a2eec;stroke-opacity:0.5;" x="340.211062" xlink:href="#m3cb1a36ed9" y="128.959217"></use><use style="fill:#2a2eec;fill-opacity:0.5;stroke:#2a2eec;stroke-opacity:0.5;" x="313.390922" xlink:href="#m3cb1a36ed9" y="135.138191"></use><use style="fill:#2a2eec;fill-opacity:0.5;stroke:#2a2eec;stroke-opacity:0.5;" x="241.162424" xlink:href="#m3cb1a36ed9" y="215.464855"></use><use style="fill:#2a2eec;fill-opacity:0.5;stroke:#2a2eec;stroke-opacity:0.5;" x="302.769084" xlink:href="#m3cb1a36ed9" y="128.959217"></use><use style="fill:#2a2eec;fill-opacity:0.5;stroke:#2a2eec;stroke-opacity:0.5;" x="203.454899" xlink:href="#m3cb1a36ed9" y="187.659471"></use><use style="fill:#2a2eec;fill-opacity:0.5;stroke:#2a2eec;stroke-opacity:0.5;" x="309.407732" xlink:href="#m3cb1a36ed9" y="190.748958"></use><use style="fill:#2a2eec;fill-opacity:0.5;stroke:#2a2eec;stroke-opacity:0.5;" x="402.61436" xlink:href="#m3cb1a36ed9" y="91.885372"></use><use style="fill:#2a2eec;fill-opacity:0.5;stroke:#2a2eec;stroke-opacity:0.5;" x="291.8817" xlink:href="#m3cb1a36ed9" y="156.7646"></use><use style="fill:#2a2eec;fill-opacity:0.5;stroke:#2a2eec;stroke-opacity:0.5;" x="210.890186" xlink:href="#m3cb1a36ed9" y="181.480497"></use><use style="fill:#2a2eec;fill-opacity:0.5;stroke:#2a2eec;stroke-opacity:0.5;" x="188.31878" xlink:href="#m3cb1a36ed9" y="206.196393"></use><use style="fill:#2a2eec;fill-opacity:0.5;stroke:#2a2eec;stroke-opacity:0.5;" x="237.44478" xlink:href="#m3cb1a36ed9" y="215.464855"></use><use style="fill:#2a2eec;fill-opacity:0.5;stroke:#2a2eec;stroke-opacity:0.5;" x="260.281732" xlink:href="#m3cb1a36ed9" y="156.7646"></use><use style="fill:#2a2eec;fill-opacity:0.5;stroke:#2a2eec;stroke-opacity:0.5;" x="291.085062" xlink:href="#m3cb1a36ed9" y="172.212036"></use><use style="fill:#2a2eec;fill-opacity:0.5;stroke:#2a2eec;stroke-opacity:0.5;" x="359.861462" xlink:href="#m3cb1a36ed9" y="110.422294"></use><use style="fill:#2a2eec;fill-opacity:0.5;stroke:#2a2eec;stroke-opacity:0.5;" x="151.938985" xlink:href="#m3cb1a36ed9" y="227.822803"></use><use style="fill:#2a2eec;fill-opacity:0.5;stroke:#2a2eec;stroke-opacity:0.5;" x="225.760759" xlink:href="#m3cb1a36ed9" y="181.480497"></use><use style="fill:#2a2eec;fill-opacity:0.5;stroke:#2a2eec;stroke-opacity:0.5;" x="322.427005" xlink:href="#m3cb1a36ed9" y="144.503959"></use><use style="fill:#2a2eec;fill-opacity:0.5;stroke:#2a2eec;stroke-opacity:0.5;" x="302.237992" xlink:href="#m3cb1a36ed9" y="147.496139"></use><use style="fill:#2a2eec;fill-opacity:0.5;stroke:#2a2eec;stroke-opacity:0.5;" x="343.397614" xlink:href="#m3cb1a36ed9" y="193.838445"></use><use style="fill:#2a2eec;fill-opacity:0.5;stroke:#2a2eec;stroke-opacity:0.5;" x="349.50517" xlink:href="#m3cb1a36ed9" y="141.317165"></use><use style="fill:#2a2eec;fill-opacity:0.5;stroke:#2a2eec;stroke-opacity:0.5;" x="361.454738" xlink:href="#m3cb1a36ed9" y="141.317165"></use><use style="fill:#2a2eec;fill-opacity:0.5;stroke:#2a2eec;stroke-opacity:0.5;" x="238.506964" xlink:href="#m3cb1a36ed9" y="196.927932"></use><use style="fill:#2a2eec;fill-opacity:0.5;stroke:#2a2eec;stroke-opacity:0.5;" x="226.291851" xlink:href="#m3cb1a36ed9" y="237.091264"></use><use style="fill:#2a2eec;fill-opacity:0.5;stroke:#2a2eec;stroke-opacity:0.5;" x="308.345549" xlink:href="#m3cb1a36ed9" y="169.122548"></use><use style="fill:#2a2eec;fill-opacity:0.5;stroke:#2a2eec;stroke-opacity:0.5;" x="258.157364" xlink:href="#m3cb1a36ed9" y="234.001777"></use><use style="fill:#2a2eec;fill-opacity:0.5;stroke:#2a2eec;stroke-opacity:0.5;" x="273.293483" xlink:href="#m3cb1a36ed9" y="144.406652"></use><use style="fill:#2a2eec;fill-opacity:0.5;stroke:#2a2eec;stroke-opacity:0.5;" x="235.851505" xlink:href="#m3cb1a36ed9" y="192.355491"></use><use style="fill:#2a2eec;fill-opacity:0.5;stroke:#2a2eec;stroke-opacity:0.5;" x="325.074943" xlink:href="#m3cb1a36ed9" y="166.033061"></use><use style="fill:#2a2eec;fill-opacity:0.5;stroke:#2a2eec;stroke-opacity:0.5;" x="256.032997" xlink:href="#m3cb1a36ed9" y="162.943574"></use><use style="fill:#2a2eec;fill-opacity:0.5;stroke:#2a2eec;stroke-opacity:0.5;" x="144.503699" xlink:href="#m3cb1a36ed9" y="178.39101"></use><use style="fill:#2a2eec;fill-opacity:0.5;stroke:#2a2eec;stroke-opacity:0.5;" x="374.46649" xlink:href="#m3cb1a36ed9" y="110.422294"></use><use style="fill:#2a2eec;fill-opacity:0.5;stroke:#2a2eec;stroke-opacity:0.5;" x="336.227873" xlink:href="#m3cb1a36ed9" y="193.838445"></use><use style="fill:#2a2eec;fill-opacity:0.5;stroke:#2a2eec;stroke-opacity:0.5;" x="184.601137" xlink:href="#m3cb1a36ed9" y="203.106906"></use><use style="fill:#2a2eec;fill-opacity:0.5;stroke:#2a2eec;stroke-opacity:0.5;" x="300.37917" xlink:href="#m3cb1a36ed9" y="147.496139"></use><use style="fill:#2a2eec;fill-opacity:0.5;stroke:#2a2eec;stroke-opacity:0.5;" x="376.325311" xlink:href="#m3cb1a36ed9" y="135.138191"></use><use style="fill:#2a2eec;fill-opacity:0.5;stroke:#2a2eec;stroke-opacity:0.5;" x="237.179234" xlink:href="#m3cb1a36ed9" y="166.033061"></use><use style="fill:#2a2eec;fill-opacity:0.5;stroke:#2a2eec;stroke-opacity:0.5;" x="312.85983" xlink:href="#m3cb1a36ed9" y="147.496139"></use><use style="fill:#2a2eec;fill-opacity:0.5;stroke:#2a2eec;stroke-opacity:0.5;" x="278.869948" xlink:href="#m3cb1a36ed9" y="209.28588"></use><use style="fill:#2a2eec;fill-opacity:0.5;stroke:#2a2eec;stroke-opacity:0.5;" x="421.733668" xlink:href="#m3cb1a36ed9" y="82.61691"></use><use style="fill:#2a2eec;fill-opacity:0.5;stroke:#2a2eec;stroke-opacity:0.5;" x="301.7069" xlink:href="#m3cb1a36ed9" y="113.511781"></use><use style="fill:#2a2eec;fill-opacity:0.5;stroke:#2a2eec;stroke-opacity:0.5;" x="138.130596" xlink:href="#m3cb1a36ed9" y="234.001777"></use><use style="fill:#2a2eec;fill-opacity:0.5;stroke:#2a2eec;stroke-opacity:0.5;" x="173.448207" xlink:href="#m3cb1a36ed9" y="184.569984"></use><use style="fill:#2a2eec;fill-opacity:0.5;stroke:#2a2eec;stroke-opacity:0.5;" x="270.372478" xlink:href="#m3cb1a36ed9" y="159.854087"></use><use style="fill:#2a2eec;fill-opacity:0.5;stroke:#2a2eec;stroke-opacity:0.5;" x="253.908629" xlink:href="#m3cb1a36ed9" y="200.017419"></use><use style="fill:#2a2eec;fill-opacity:0.5;stroke:#2a2eec;stroke-opacity:0.5;" x="269.57584" xlink:href="#m3cb1a36ed9" y="156.7646"></use><use style="fill:#2a2eec;fill-opacity:0.5;stroke:#2a2eec;stroke-opacity:0.5;" x="208.234726" xlink:href="#m3cb1a36ed9" y="193.838445"></use><use style="fill:#2a2eec;fill-opacity:0.5;stroke:#2a2eec;stroke-opacity:0.5;" x="228.416218" xlink:href="#m3cb1a36ed9" y="203.106906"></use><use style="fill:#2a2eec;fill-opacity:0.5;stroke:#2a2eec;stroke-opacity:0.5;" x="266.654835" xlink:href="#m3cb1a36ed9" y="178.39101"></use><use style="fill:#2a2eec;fill-opacity:0.5;stroke:#2a2eec;stroke-opacity:0.5;" x="345.256435" xlink:href="#m3cb1a36ed9" y="141.317165"></use><use style="fill:#2a2eec;fill-opacity:0.5;stroke:#2a2eec;stroke-opacity:0.5;" x="332.775776" xlink:href="#m3cb1a36ed9" y="196.927932"></use><use style="fill:#2a2eec;fill-opacity:0.5;stroke:#2a2eec;stroke-opacity:0.5;" x="209.031364" xlink:href="#m3cb1a36ed9" y="249.449212"></use><use style="fill:#2a2eec;fill-opacity:0.5;stroke:#2a2eec;stroke-opacity:0.5;" x="270.90357" xlink:href="#m3cb1a36ed9" y="132.048704"></use><use style="fill:#2a2eec;fill-opacity:0.5;stroke:#2a2eec;stroke-opacity:0.5;" x="221.246478" xlink:href="#m3cb1a36ed9" y="196.927932"></use><use style="fill:#2a2eec;fill-opacity:0.5;stroke:#2a2eec;stroke-opacity:0.5;" x="325.074943" xlink:href="#m3cb1a36ed9" y="150.585626"></use><use style="fill:#2a2eec;fill-opacity:0.5;stroke:#2a2eec;stroke-opacity:0.5;" x="205.048175" xlink:href="#m3cb1a36ed9" y="193.838445"></use><use style="fill:#2a2eec;fill-opacity:0.5;stroke:#2a2eec;stroke-opacity:0.5;" x="210.359094" xlink:href="#m3cb1a36ed9" y="153.675113"></use><use style="fill:#2a2eec;fill-opacity:0.5;stroke:#2a2eec;stroke-opacity:0.5;" x="258.157364" xlink:href="#m3cb1a36ed9" y="162.943574"></use><use style="fill:#2a2eec;fill-opacity:0.5;stroke:#2a2eec;stroke-opacity:0.5;" x="213.014553" xlink:href="#m3cb1a36ed9" y="200.017419"></use><use style="fill:#2a2eec;fill-opacity:0.5;stroke:#2a2eec;stroke-opacity:0.5;" x="133.881861" xlink:href="#m3cb1a36ed9" y="224.733316"></use><use style="fill:#2a2eec;fill-opacity:0.5;stroke:#2a2eec;stroke-opacity:0.5;" x="280.994316" xlink:href="#m3cb1a36ed9" y="172.212036"></use><use style="fill:#2a2eec;fill-opacity:0.5;stroke:#2a2eec;stroke-opacity:0.5;" x="223.370845" xlink:href="#m3cb1a36ed9" y="156.7646"></use><use style="fill:#2a2eec;fill-opacity:0.5;stroke:#2a2eec;stroke-opacity:0.5;" x="312.85983" xlink:href="#m3cb1a36ed9" y="156.7646"></use><use style="fill:#2a2eec;fill-opacity:0.5;stroke:#2a2eec;stroke-opacity:0.5;" x="229.478402" xlink:href="#m3cb1a36ed9" y="172.212036"></use><use style="fill:#2a2eec;fill-opacity:0.5;stroke:#2a2eec;stroke-opacity:0.5;" x="354.274347" xlink:href="#m3cb1a36ed9" y="104.24332"></use><use style="fill:#2a2eec;fill-opacity:0.5;stroke:#2a2eec;stroke-opacity:0.5;" x="264.264921" xlink:href="#m3cb1a36ed9" y="215.464855"></use><use style="fill:#2a2eec;fill-opacity:0.5;stroke:#2a2eec;stroke-opacity:0.5;" x="178.228034" xlink:href="#m3cb1a36ed9" y="196.927932"></use><use style="fill:#2a2eec;fill-opacity:0.5;stroke:#2a2eec;stroke-opacity:0.5;" x="266.389289" xlink:href="#m3cb1a36ed9" y="169.122548"></use><use style="fill:#2a2eec;fill-opacity:0.5;stroke:#2a2eec;stroke-opacity:0.5;" x="293.474975" xlink:href="#m3cb1a36ed9" y="132.048704"></use><use style="fill:#2a2eec;fill-opacity:0.5;stroke:#2a2eec;stroke-opacity:0.5;" x="270.638024" xlink:href="#m3cb1a36ed9" y="159.854087"></use><use style="fill:#2a2eec;fill-opacity:0.5;stroke:#2a2eec;stroke-opacity:0.5;" x="296.395981" xlink:href="#m3cb1a36ed9" y="139.587052"></use><use style="fill:#2a2eec;fill-opacity:0.5;stroke:#2a2eec;stroke-opacity:0.5;" x="228.681764" xlink:href="#m3cb1a36ed9" y="218.554342"></use><use style="fill:#2a2eec;fill-opacity:0.5;stroke:#2a2eec;stroke-opacity:0.5;" x="202.658261" xlink:href="#m3cb1a36ed9" y="224.733316"></use><use style="fill:#2a2eec;fill-opacity:0.5;stroke:#2a2eec;stroke-opacity:0.5;" x="237.44478" xlink:href="#m3cb1a36ed9" y="196.927932"></use><use style="fill:#2a2eec;fill-opacity:0.5;stroke:#2a2eec;stroke-opacity:0.5;" x="201.064986" xlink:href="#m3cb1a36ed9" y="193.838445"></use><use style="fill:#2a2eec;fill-opacity:0.5;stroke:#2a2eec;stroke-opacity:0.5;" x="295.599343" xlink:href="#m3cb1a36ed9" y="116.601268"></use><use style="fill:#2a2eec;fill-opacity:0.5;stroke:#2a2eec;stroke-opacity:0.5;" x="207.438088" xlink:href="#m3cb1a36ed9" y="221.643829"></use><use style="fill:#2a2eec;fill-opacity:0.5;stroke:#2a2eec;stroke-opacity:0.5;" x="217.79438" xlink:href="#m3cb1a36ed9" y="156.7646"></use><use style="fill:#2a2eec;fill-opacity:0.5;stroke:#2a2eec;stroke-opacity:0.5;" x="313.125376" xlink:href="#m3cb1a36ed9" y="172.212036"></use><use style="fill:#2a2eec;fill-opacity:0.5;stroke:#2a2eec;stroke-opacity:0.5;" x="351.363992" xlink:href="#m3cb1a36ed9" y="125.869729"></use><use style="fill:#2a2eec;fill-opacity:0.5;stroke:#2a2eec;stroke-opacity:0.5;" x="269.97256" xlink:href="#m3cb1a36ed9" y="162.943574"></use><use style="fill:#2a2eec;fill-opacity:0.5;stroke:#2a2eec;stroke-opacity:0.5;" x="212.217915" xlink:href="#m3cb1a36ed9" y="221.643829"></use><use style="fill:#2a2eec;fill-opacity:0.5;stroke:#2a2eec;stroke-opacity:0.5;" x="247.535526" xlink:href="#m3cb1a36ed9" y="132.048704"></use><use style="fill:#2a2eec;fill-opacity:0.5;stroke:#2a2eec;stroke-opacity:0.5;" x="141.317147" xlink:href="#m3cb1a36ed9" y="212.375367"></use><use style="fill:#2a2eec;fill-opacity:0.5;stroke:#2a2eec;stroke-opacity:0.5;" x="268.513656" xlink:href="#m3cb1a36ed9" y="169.122548"></use><use style="fill:#2a2eec;fill-opacity:0.5;stroke:#2a2eec;stroke-opacity:0.5;" x="199.206164" xlink:href="#m3cb1a36ed9" y="218.554342"></use><use style="fill:#2a2eec;fill-opacity:0.5;stroke:#2a2eec;stroke-opacity:0.5;" x="180.883494" xlink:href="#m3cb1a36ed9" y="209.28588"></use><use style="fill:#2a2eec;fill-opacity:0.5;stroke:#2a2eec;stroke-opacity:0.5;" x="225.760759" xlink:href="#m3cb1a36ed9" y="181.480497"></use><use style="fill:#2a2eec;fill-opacity:0.5;stroke:#2a2eec;stroke-opacity:0.5;" x="291.616154" xlink:href="#m3cb1a36ed9" y="125.869729"></use><use style="fill:#2a2eec;fill-opacity:0.5;stroke:#2a2eec;stroke-opacity:0.5;" x="289.757332" xlink:href="#m3cb1a36ed9" y="116.601268"></use><use style="fill:#2a2eec;fill-opacity:0.5;stroke:#2a2eec;stroke-opacity:0.5;" x="277.276673" xlink:href="#m3cb1a36ed9" y="162.943574"></use><use style="fill:#2a2eec;fill-opacity:0.5;stroke:#2a2eec;stroke-opacity:0.5;" x="228.416218" xlink:href="#m3cb1a36ed9" y="181.480497"></use><use style="fill:#2a2eec;fill-opacity:0.5;stroke:#2a2eec;stroke-opacity:0.5;" x="185.663321" xlink:href="#m3cb1a36ed9" y="240.180751"></use><use style="fill:#2a2eec;fill-opacity:0.5;stroke:#2a2eec;stroke-opacity:0.5;" x="293.740521" xlink:href="#m3cb1a36ed9" y="128.959217"></use><use style="fill:#2a2eec;fill-opacity:0.5;stroke:#2a2eec;stroke-opacity:0.5;" x="186.725504" xlink:href="#m3cb1a36ed9" y="187.659471"></use><use style="fill:#2a2eec;fill-opacity:0.5;stroke:#2a2eec;stroke-opacity:0.5;" x="372.607668" xlink:href="#m3cb1a36ed9" y="90.402418"></use><use style="fill:#2a2eec;fill-opacity:0.5;stroke:#2a2eec;stroke-opacity:0.5;" x="205.313721" xlink:href="#m3cb1a36ed9" y="193.838445"></use><use style="fill:#2a2eec;fill-opacity:0.5;stroke:#2a2eec;stroke-opacity:0.5;" x="287.632965" xlink:href="#m3cb1a36ed9" y="125.869729"></use><use style="fill:#2a2eec;fill-opacity:0.5;stroke:#2a2eec;stroke-opacity:0.5;" x="181.945677" xlink:href="#m3cb1a36ed9" y="234.001777"></use><use style="fill:#2a2eec;fill-opacity:0.5;stroke:#2a2eec;stroke-opacity:0.5;" x="229.478402" xlink:href="#m3cb1a36ed9" y="196.927932"></use><use style="fill:#2a2eec;fill-opacity:0.5;stroke:#2a2eec;stroke-opacity:0.5;" x="262.140554" xlink:href="#m3cb1a36ed9" y="212.375367"></use><use style="fill:#2a2eec;fill-opacity:0.5;stroke:#2a2eec;stroke-opacity:0.5;" x="315.249743" xlink:href="#m3cb1a36ed9" y="138.227678"></use><use style="fill:#2a2eec;fill-opacity:0.5;stroke:#2a2eec;stroke-opacity:0.5;" x="360.6581" xlink:href="#m3cb1a36ed9" y="132.048704"></use><use style="fill:#2a2eec;fill-opacity:0.5;stroke:#2a2eec;stroke-opacity:0.5;" x="198.14398" xlink:href="#m3cb1a36ed9" y="215.464855"></use><use style="fill:#2a2eec;fill-opacity:0.5;stroke:#2a2eec;stroke-opacity:0.5;" x="390.399246" xlink:href="#m3cb1a36ed9" y="91.885372"></use><use style="fill:#2a2eec;fill-opacity:0.5;stroke:#2a2eec;stroke-opacity:0.5;" x="258.954002" xlink:href="#m3cb1a36ed9" y="147.496139"></use><use style="fill:#2a2eec;fill-opacity:0.5;stroke:#2a2eec;stroke-opacity:0.5;" x="258.732321" xlink:href="#m3cb1a36ed9" y="147.423159"></use><use style="fill:#2a2eec;fill-opacity:0.5;stroke:#2a2eec;stroke-opacity:0.5;" x="260.281732" xlink:href="#m3cb1a36ed9" y="175.301523"></use><use style="fill:#2a2eec;fill-opacity:0.5;stroke:#2a2eec;stroke-opacity:0.5;" x="260.812824" xlink:href="#m3cb1a36ed9" y="144.406652"></use><use style="fill:#2a2eec;fill-opacity:0.5;stroke:#2a2eec;stroke-opacity:0.5;" x="222.043115" xlink:href="#m3cb1a36ed9" y="190.748958"></use><use style="fill:#2a2eec;fill-opacity:0.5;stroke:#2a2eec;stroke-opacity:0.5;" x="255.767451" xlink:href="#m3cb1a36ed9" y="196.927932"></use><use style="fill:#2a2eec;fill-opacity:0.5;stroke:#2a2eec;stroke-opacity:0.5;" x="165.216283" xlink:href="#m3cb1a36ed9" y="227.822803"></use><use style="fill:#2a2eec;fill-opacity:0.5;stroke:#2a2eec;stroke-opacity:0.5;" x="149.814618" xlink:href="#m3cb1a36ed9" y="231.530187"></use><use style="fill:#2a2eec;fill-opacity:0.5;stroke:#2a2eec;stroke-opacity:0.5;" x="179.555764" xlink:href="#m3cb1a36ed9" y="206.196393"></use><use style="fill:#2a2eec;fill-opacity:0.5;stroke:#2a2eec;stroke-opacity:0.5;" x="307.017575" xlink:href="#m3cb1a36ed9" y="132.048704"></use><use style="fill:#2a2eec;fill-opacity:0.5;stroke:#2a2eec;stroke-opacity:0.5;" x="341.0077" xlink:href="#m3cb1a36ed9" y="122.780242"></use><use style="fill:#2a2eec;fill-opacity:0.5;stroke:#2a2eec;stroke-opacity:0.5;" x="190.177602" xlink:href="#m3cb1a36ed9" y="144.406652"></use><use style="fill:#2a2eec;fill-opacity:0.5;stroke:#2a2eec;stroke-opacity:0.5;" x="222.308661" xlink:href="#m3cb1a36ed9" y="175.301523"></use><use style="fill:#2a2eec;fill-opacity:0.5;stroke:#2a2eec;stroke-opacity:0.5;" x="316.843019" xlink:href="#m3cb1a36ed9" y="110.422294"></use><use style="fill:#2a2eec;fill-opacity:0.5;stroke:#2a2eec;stroke-opacity:0.5;" x="254.705267" xlink:href="#m3cb1a36ed9" y="187.659471"></use><use style="fill:#2a2eec;fill-opacity:0.5;stroke:#2a2eec;stroke-opacity:0.5;" x="310.156412" xlink:href="#m3cb1a36ed9" y="178.39101"></use><use style="fill:#2a2eec;fill-opacity:0.5;stroke:#2a2eec;stroke-opacity:0.5;" x="157.51545" xlink:href="#m3cb1a36ed9" y="246.359725"></use><use style="fill:#2a2eec;fill-opacity:0.5;stroke:#2a2eec;stroke-opacity:0.5;" x="253.643083" xlink:href="#m3cb1a36ed9" y="181.480497"></use><use style="fill:#2a2eec;fill-opacity:0.5;stroke:#2a2eec;stroke-opacity:0.5;" x="293.740521" xlink:href="#m3cb1a36ed9" y="169.122548"></use><use style="fill:#2a2eec;fill-opacity:0.5;stroke:#2a2eec;stroke-opacity:0.5;" x="243.286791" xlink:href="#m3cb1a36ed9" y="203.106906"></use><use style="fill:#2a2eec;fill-opacity:0.5;stroke:#2a2eec;stroke-opacity:0.5;" x="160.436456" xlink:href="#m3cb1a36ed9" y="221.643829"></use><use style="fill:#2a2eec;fill-opacity:0.5;stroke:#2a2eec;stroke-opacity:0.5;" x="214.873375" xlink:href="#m3cb1a36ed9" y="166.033061"></use><use style="fill:#2a2eec;fill-opacity:0.5;stroke:#2a2eec;stroke-opacity:0.5;" x="179.555764" xlink:href="#m3cb1a36ed9" y="190.748958"></use><use style="fill:#2a2eec;fill-opacity:0.5;stroke:#2a2eec;stroke-opacity:0.5;" x="319.764024" xlink:href="#m3cb1a36ed9" y="166.033061"></use><use style="fill:#2a2eec;fill-opacity:0.5;stroke:#2a2eec;stroke-opacity:0.5;" x="271.434662" xlink:href="#m3cb1a36ed9" y="172.212036"></use><use style="fill:#2a2eec;fill-opacity:0.5;stroke:#2a2eec;stroke-opacity:0.5;" x="303.831267" xlink:href="#m3cb1a36ed9" y="156.7646"></use><use style="fill:#2a2eec;fill-opacity:0.5;stroke:#2a2eec;stroke-opacity:0.5;" x="393.851344" xlink:href="#m3cb1a36ed9" y="101.153833"></use><use style="fill:#2a2eec;fill-opacity:0.5;stroke:#2a2eec;stroke-opacity:0.5;" x="249.92544" xlink:href="#m3cb1a36ed9" y="190.748958"></use><use style="fill:#2a2eec;fill-opacity:0.5;stroke:#2a2eec;stroke-opacity:0.5;" x="329.589224" xlink:href="#m3cb1a36ed9" y="144.406652"></use><use style="fill:#2a2eec;fill-opacity:0.5;stroke:#2a2eec;stroke-opacity:0.5;" x="317.639657" xlink:href="#m3cb1a36ed9" y="107.332807"></use><use style="fill:#2a2eec;fill-opacity:0.5;stroke:#2a2eec;stroke-opacity:0.5;" x="163.623007" xlink:href="#m3cb1a36ed9" y="221.643829"></use><use style="fill:#2a2eec;fill-opacity:0.5;stroke:#2a2eec;stroke-opacity:0.5;" x="211.686824" xlink:href="#m3cb1a36ed9" y="215.464855"></use><use style="fill:#2a2eec;fill-opacity:0.5;stroke:#2a2eec;stroke-opacity:0.5;" x="400.755538" xlink:href="#m3cb1a36ed9" y="144.406652"></use><use style="fill:#2a2eec;fill-opacity:0.5;stroke:#2a2eec;stroke-opacity:0.5;" x="331.448046" xlink:href="#m3cb1a36ed9" y="122.780242"></use><use style="fill:#2a2eec;fill-opacity:0.5;stroke:#2a2eec;stroke-opacity:0.5;" x="217.263288" xlink:href="#m3cb1a36ed9" y="178.39101"></use><use style="fill:#2a2eec;fill-opacity:0.5;stroke:#2a2eec;stroke-opacity:0.5;" x="254.439721" xlink:href="#m3cb1a36ed9" y="196.927932"></use><use style="fill:#2a2eec;fill-opacity:0.5;stroke:#2a2eec;stroke-opacity:0.5;" x="354.284998" xlink:href="#m3cb1a36ed9" y="144.406652"></use><use style="fill:#2a2eec;fill-opacity:0.5;stroke:#2a2eec;stroke-opacity:0.5;" x="265.061559" xlink:href="#m3cb1a36ed9" y="196.927932"></use><use style="fill:#2a2eec;fill-opacity:0.5;stroke:#2a2eec;stroke-opacity:0.5;" x="230.009494" xlink:href="#m3cb1a36ed9" y="175.301523"></use><use style="fill:#2a2eec;fill-opacity:0.5;stroke:#2a2eec;stroke-opacity:0.5;" x="235.320413" xlink:href="#m3cb1a36ed9" y="190.748958"></use><use style="fill:#2a2eec;fill-opacity:0.5;stroke:#2a2eec;stroke-opacity:0.5;" x="241.160082" xlink:href="#m3cb1a36ed9" y="184.569984"></use><use style="fill:#2a2eec;fill-opacity:0.5;stroke:#2a2eec;stroke-opacity:0.5;" x="247.004435" xlink:href="#m3cb1a36ed9" y="153.675113"></use><use style="fill:#2a2eec;fill-opacity:0.5;stroke:#2a2eec;stroke-opacity:0.5;" x="225.229667" xlink:href="#m3cb1a36ed9" y="196.927932"></use><use style="fill:#2a2eec;fill-opacity:0.5;stroke:#2a2eec;stroke-opacity:0.5;" x="244.348975" xlink:href="#m3cb1a36ed9" y="184.569984"></use><use style="fill:#2a2eec;fill-opacity:0.5;stroke:#2a2eec;stroke-opacity:0.5;" x="275.683397" xlink:href="#m3cb1a36ed9" y="169.122548"></use><use style="fill:#2a2eec;fill-opacity:0.5;stroke:#2a2eec;stroke-opacity:0.5;" x="291.085062" xlink:href="#m3cb1a36ed9" y="138.227678"></use><use style="fill:#2a2eec;fill-opacity:0.5;stroke:#2a2eec;stroke-opacity:0.5;" x="241.162424" xlink:href="#m3cb1a36ed9" y="200.017419"></use><use style="fill:#2a2eec;fill-opacity:0.5;stroke:#2a2eec;stroke-opacity:0.5;" x="297.192619" xlink:href="#m3cb1a36ed9" y="141.317165"></use><use style="fill:#2a2eec;fill-opacity:0.5;stroke:#2a2eec;stroke-opacity:0.5;" x="272.496846" xlink:href="#m3cb1a36ed9" y="156.7646"></use><use style="fill:#2a2eec;fill-opacity:0.5;stroke:#2a2eec;stroke-opacity:0.5;" x="338.352241" xlink:href="#m3cb1a36ed9" y="110.422294"></use><use style="fill:#2a2eec;fill-opacity:0.5;stroke:#2a2eec;stroke-opacity:0.5;" x="288.429602" xlink:href="#m3cb1a36ed9" y="156.7646"></use><use style="fill:#2a2eec;fill-opacity:0.5;stroke:#2a2eec;stroke-opacity:0.5;" x="250.722078" xlink:href="#m3cb1a36ed9" y="181.480497"></use><use style="fill:#2a2eec;fill-opacity:0.5;stroke:#2a2eec;stroke-opacity:0.5;" x="249.659894" xlink:href="#m3cb1a36ed9" y="181.480497"></use><use style="fill:#2a2eec;fill-opacity:0.5;stroke:#2a2eec;stroke-opacity:0.5;" x="341.273246" xlink:href="#m3cb1a36ed9" y="135.138191"></use><use style="fill:#2a2eec;fill-opacity:0.5;stroke:#2a2eec;stroke-opacity:0.5;" x="261.343916" xlink:href="#m3cb1a36ed9" y="181.480497"></use><use style="fill:#2a2eec;fill-opacity:0.5;stroke:#2a2eec;stroke-opacity:0.5;" x="284.977505" xlink:href="#m3cb1a36ed9" y="147.496139"></use><use style="fill:#2a2eec;fill-opacity:0.5;stroke:#2a2eec;stroke-opacity:0.5;" x="139.458326" xlink:href="#m3cb1a36ed9" y="230.91229"></use><use style="fill:#2a2eec;fill-opacity:0.5;stroke:#2a2eec;stroke-opacity:0.5;" x="371.545484" xlink:href="#m3cb1a36ed9" y="101.153833"></use><use style="fill:#2a2eec;fill-opacity:0.5;stroke:#2a2eec;stroke-opacity:0.5;" x="365.437927" xlink:href="#m3cb1a36ed9" y="144.406652"></use><use style="fill:#2a2eec;fill-opacity:0.5;stroke:#2a2eec;stroke-opacity:0.5;" x="287.632965" xlink:href="#m3cb1a36ed9" y="153.675113"></use><use style="fill:#2a2eec;fill-opacity:0.5;stroke:#2a2eec;stroke-opacity:0.5;" x="265.858197" xlink:href="#m3cb1a36ed9" y="181.480497"></use><use style="fill:#2a2eec;fill-opacity:0.5;stroke:#2a2eec;stroke-opacity:0.5;" x="269.310294" xlink:href="#m3cb1a36ed9" y="166.033061"></use><use style="fill:#2a2eec;fill-opacity:0.5;stroke:#2a2eec;stroke-opacity:0.5;" x="300.644716" xlink:href="#m3cb1a36ed9" y="172.212036"></use><use style="fill:#2a2eec;fill-opacity:0.5;stroke:#2a2eec;stroke-opacity:0.5;" x="279.135494" xlink:href="#m3cb1a36ed9" y="159.854087"></use><use style="fill:#2a2eec;fill-opacity:0.5;stroke:#2a2eec;stroke-opacity:0.5;" x="253.908629" xlink:href="#m3cb1a36ed9" y="162.943574"></use><use style="fill:#2a2eec;fill-opacity:0.5;stroke:#2a2eec;stroke-opacity:0.5;" x="367.827841" xlink:href="#m3cb1a36ed9" y="104.24332"></use><use style="fill:#2a2eec;fill-opacity:0.5;stroke:#2a2eec;stroke-opacity:0.5;" x="218.325472" xlink:href="#m3cb1a36ed9" y="203.106906"></use><use style="fill:#2a2eec;fill-opacity:0.5;stroke:#2a2eec;stroke-opacity:0.5;" x="318.701841" xlink:href="#m3cb1a36ed9" y="156.7646"></use><use style="fill:#2a2eec;fill-opacity:0.5;stroke:#2a2eec;stroke-opacity:0.5;" x="276.529365" xlink:href="#m3cb1a36ed9" y="141.098225"></use><use style="fill:#2a2eec;fill-opacity:0.5;stroke:#2a2eec;stroke-opacity:0.5;" x="305.158997" xlink:href="#m3cb1a36ed9" y="138.227678"></use><use style="fill:#2a2eec;fill-opacity:0.5;stroke:#2a2eec;stroke-opacity:0.5;" x="256.032997" xlink:href="#m3cb1a36ed9" y="190.748958"></use><use style="fill:#2a2eec;fill-opacity:0.5;stroke:#2a2eec;stroke-opacity:0.5;" x="320.826208" xlink:href="#m3cb1a36ed9" y="128.959217"></use><use style="fill:#2a2eec;fill-opacity:0.5;stroke:#2a2eec;stroke-opacity:0.5;" x="224.698575" xlink:href="#m3cb1a36ed9" y="200.017419"></use><use style="fill:#2a2eec;fill-opacity:0.5;stroke:#2a2eec;stroke-opacity:0.5;" x="194.691883" xlink:href="#m3cb1a36ed9" y="200.017419"></use><use style="fill:#2a2eec;fill-opacity:0.5;stroke:#2a2eec;stroke-opacity:0.5;" x="326.137127" xlink:href="#m3cb1a36ed9" y="135.138191"></use><use style="fill:#2a2eec;fill-opacity:0.5;stroke:#2a2eec;stroke-opacity:0.5;" x="262.671645" xlink:href="#m3cb1a36ed9" y="175.301523"></use><use style="fill:#2a2eec;fill-opacity:0.5;stroke:#2a2eec;stroke-opacity:0.5;" x="249.394348" xlink:href="#m3cb1a36ed9" y="187.659471"></use><use style="fill:#2a2eec;fill-opacity:0.5;stroke:#2a2eec;stroke-opacity:0.5;" x="280.463224" xlink:href="#m3cb1a36ed9" y="125.869729"></use><use style="fill:#2a2eec;fill-opacity:0.5;stroke:#2a2eec;stroke-opacity:0.5;" x="213.280099" xlink:href="#m3cb1a36ed9" y="178.39101"></use><use style="fill:#2a2eec;fill-opacity:0.5;stroke:#2a2eec;stroke-opacity:0.5;" x="168.66838" xlink:href="#m3cb1a36ed9" y="184.569984"></use><use style="fill:#2a2eec;fill-opacity:0.5;stroke:#2a2eec;stroke-opacity:0.5;" x="210.890186" xlink:href="#m3cb1a36ed9" y="162.943574"></use><use style="fill:#2a2eec;fill-opacity:0.5;stroke:#2a2eec;stroke-opacity:0.5;" x="193.629699" xlink:href="#m3cb1a36ed9" y="240.180751"></use><use style="fill:#2a2eec;fill-opacity:0.5;stroke:#2a2eec;stroke-opacity:0.5;" x="298.785894" xlink:href="#m3cb1a36ed9" y="150.585626"></use><use style="fill:#2a2eec;fill-opacity:0.5;stroke:#2a2eec;stroke-opacity:0.5;" x="176.369212" xlink:href="#m3cb1a36ed9" y="227.822803"></use><use style="fill:#2a2eec;fill-opacity:0.5;stroke:#2a2eec;stroke-opacity:0.5;" x="252.315354" xlink:href="#m3cb1a36ed9" y="183.704927"></use><use style="fill:#2a2eec;fill-opacity:0.5;stroke:#2a2eec;stroke-opacity:0.5;" x="294.271613" xlink:href="#m3cb1a36ed9" y="138.227678"></use><use style="fill:#2a2eec;fill-opacity:0.5;stroke:#2a2eec;stroke-opacity:0.5;" x="320.295116" xlink:href="#m3cb1a36ed9" y="139.710632"></use><use style="fill:#2a2eec;fill-opacity:0.5;stroke:#2a2eec;stroke-opacity:0.5;" x="254.970813" xlink:href="#m3cb1a36ed9" y="218.554342"></use><use style="fill:#2a2eec;fill-opacity:0.5;stroke:#2a2eec;stroke-opacity:0.5;" x="294.271613" xlink:href="#m3cb1a36ed9" y="144.406652"></use><use style="fill:#2a2eec;fill-opacity:0.5;stroke:#2a2eec;stroke-opacity:0.5;" x="280.197678" xlink:href="#m3cb1a36ed9" y="139.710632"></use><use style="fill:#2a2eec;fill-opacity:0.5;stroke:#2a2eec;stroke-opacity:0.5;" x="371.279938" xlink:href="#m3cb1a36ed9" y="115.365473"></use><use style="fill:#2a2eec;fill-opacity:0.5;stroke:#2a2eec;stroke-opacity:0.5;" x="297.989257" xlink:href="#m3cb1a36ed9" y="154.293011"></use><use style="fill:#2a2eec;fill-opacity:0.5;stroke:#2a2eec;stroke-opacity:0.5;" x="294.537159" xlink:href="#m3cb1a36ed9" y="169.122548"></use><use style="fill:#2a2eec;fill-opacity:0.5;stroke:#2a2eec;stroke-opacity:0.5;" x="287.632965" xlink:href="#m3cb1a36ed9" y="141.317165"></use><use style="fill:#2a2eec;fill-opacity:0.5;stroke:#2a2eec;stroke-opacity:0.5;" x="175.838121" xlink:href="#m3cb1a36ed9" y="206.196393"></use><use style="fill:#2a2eec;fill-opacity:0.5;stroke:#2a2eec;stroke-opacity:0.5;" x="185.670772" xlink:href="#m3cb1a36ed9" y="209.2129"></use><use style="fill:#2a2eec;fill-opacity:0.5;stroke:#2a2eec;stroke-opacity:0.5;" x="301.441354" xlink:href="#m3cb1a36ed9" y="206.196393"></use><use style="fill:#2a2eec;fill-opacity:0.5;stroke:#2a2eec;stroke-opacity:0.5;" x="322.950576" xlink:href="#m3cb1a36ed9" y="81.257536"></use><use style="fill:#2a2eec;fill-opacity:0.5;stroke:#2a2eec;stroke-opacity:0.5;" x="278.604402" xlink:href="#m3cb1a36ed9" y="153.675113"></use><use style="fill:#2a2eec;fill-opacity:0.5;stroke:#2a2eec;stroke-opacity:0.5;" x="189.115418" xlink:href="#m3cb1a36ed9" y="206.196393"></use><use style="fill:#2a2eec;fill-opacity:0.5;stroke:#2a2eec;stroke-opacity:0.5;" x="298.520348" xlink:href="#m3cb1a36ed9" y="115.365473"></use><use style="fill:#2a2eec;fill-opacity:0.5;stroke:#2a2eec;stroke-opacity:0.5;" x="199.206164" xlink:href="#m3cb1a36ed9" y="193.838445"></use><use style="fill:#2a2eec;fill-opacity:0.5;stroke:#2a2eec;stroke-opacity:0.5;" x="285.774143" xlink:href="#m3cb1a36ed9" y="135.138191"></use><use style="fill:#2a2eec;fill-opacity:0.5;stroke:#2a2eec;stroke-opacity:0.5;" x="361.720284" xlink:href="#m3cb1a36ed9" y="125.869729"></use><use style="fill:#2a2eec;fill-opacity:0.5;stroke:#2a2eec;stroke-opacity:0.5;" x="350.567354" xlink:href="#m3cb1a36ed9" y="144.406652"></use><use style="fill:#2a2eec;fill-opacity:0.5;stroke:#2a2eec;stroke-opacity:0.5;" x="296.927073" xlink:href="#m3cb1a36ed9" y="169.122548"></use><use style="fill:#2a2eec;fill-opacity:0.5;stroke:#2a2eec;stroke-opacity:0.5;" x="246.207797" xlink:href="#m3cb1a36ed9" y="181.480497"></use><use style="fill:#2a2eec;fill-opacity:0.5;stroke:#2a2eec;stroke-opacity:0.5;" x="163.091915" xlink:href="#m3cb1a36ed9" y="212.375367"></use><use style="fill:#2a2eec;fill-opacity:0.5;stroke:#2a2eec;stroke-opacity:0.5;" x="310.735462" xlink:href="#m3cb1a36ed9" y="183.457768"></use><use style="fill:#2a2eec;fill-opacity:0.5;stroke:#2a2eec;stroke-opacity:0.5;" x="258.157364" xlink:href="#m3cb1a36ed9" y="184.569984"></use><use style="fill:#2a2eec;fill-opacity:0.5;stroke:#2a2eec;stroke-opacity:0.5;" x="156.18772" xlink:href="#m3cb1a36ed9" y="218.554342"></use><use style="fill:#2a2eec;fill-opacity:0.5;stroke:#2a2eec;stroke-opacity:0.5;" x="285.774143" xlink:href="#m3cb1a36ed9" y="141.317165"></use><use style="fill:#2a2eec;fill-opacity:0.5;stroke:#2a2eec;stroke-opacity:0.5;" x="274.886759" xlink:href="#m3cb1a36ed9" y="187.659471"></use><use style="fill:#2a2eec;fill-opacity:0.5;stroke:#2a2eec;stroke-opacity:0.5;" x="286.836327" xlink:href="#m3cb1a36ed9" y="175.301523"></use><use style="fill:#2a2eec;fill-opacity:0.5;stroke:#2a2eec;stroke-opacity:0.5;" x="225.495213" xlink:href="#m3cb1a36ed9" y="206.196393"></use><use style="fill:#2a2eec;fill-opacity:0.5;stroke:#2a2eec;stroke-opacity:0.5;" x="314.453105" xlink:href="#m3cb1a36ed9" y="243.270238"></use><use style="fill:#2a2eec;fill-opacity:0.5;stroke:#2a2eec;stroke-opacity:0.5;" x="265.592651" xlink:href="#m3cb1a36ed9" y="156.7646"></use><use style="fill:#2a2eec;fill-opacity:0.5;stroke:#2a2eec;stroke-opacity:0.5;" x="238.506964" xlink:href="#m3cb1a36ed9" y="169.122548"></use><use style="fill:#2a2eec;fill-opacity:0.5;stroke:#2a2eec;stroke-opacity:0.5;" x="232.930499" xlink:href="#m3cb1a36ed9" y="224.733316"></use><use style="fill:#2a2eec;fill-opacity:0.5;stroke:#2a2eec;stroke-opacity:0.5;" x="266.389289" xlink:href="#m3cb1a36ed9" y="153.675113"></use><use style="fill:#2a2eec;fill-opacity:0.5;stroke:#2a2eec;stroke-opacity:0.5;" x="322.950576" xlink:href="#m3cb1a36ed9" y="206.196393"></use><use style="fill:#2a2eec;fill-opacity:0.5;stroke:#2a2eec;stroke-opacity:0.5;" x="304.362359" xlink:href="#m3cb1a36ed9" y="144.406652"></use><use style="fill:#2a2eec;fill-opacity:0.5;stroke:#2a2eec;stroke-opacity:0.5;" x="322.419484" xlink:href="#m3cb1a36ed9" y="119.690755"></use><use style="fill:#2a2eec;fill-opacity:0.5;stroke:#2a2eec;stroke-opacity:0.5;" x="253.643083" xlink:href="#m3cb1a36ed9" y="169.122548"></use><use style="fill:#2a2eec;fill-opacity:0.5;stroke:#2a2eec;stroke-opacity:0.5;" x="175.572575" xlink:href="#m3cb1a36ed9" y="175.301523"></use><use style="fill:#2a2eec;fill-opacity:0.5;stroke:#2a2eec;stroke-opacity:0.5;" x="244.545454" xlink:href="#m3cb1a36ed9" y="234.001777"></use><use style="fill:#2a2eec;fill-opacity:0.5;stroke:#2a2eec;stroke-opacity:0.5;" x="280.994316" xlink:href="#m3cb1a36ed9" y="125.869729"></use><use style="fill:#2a2eec;fill-opacity:0.5;stroke:#2a2eec;stroke-opacity:0.5;" x="235.054867" xlink:href="#m3cb1a36ed9" y="138.227678"></use><use style="fill:#2a2eec;fill-opacity:0.5;stroke:#2a2eec;stroke-opacity:0.5;" x="200.657756" xlink:href="#m3cb1a36ed9" y="169.317162"></use><use style="fill:#2a2eec;fill-opacity:0.5;stroke:#2a2eec;stroke-opacity:0.5;" x="248.428769" xlink:href="#m3cb1a36ed9" y="138.179024"></use><use style="fill:#2a2eec;fill-opacity:0.5;stroke:#2a2eec;stroke-opacity:0.5;" x="345.256435" xlink:href="#m3cb1a36ed9" y="94.974859"></use><use style="fill:#2a2eec;fill-opacity:0.5;stroke:#2a2eec;stroke-opacity:0.5;" x="245.411159" xlink:href="#m3cb1a36ed9" y="193.838445"></use><use style="fill:#2a2eec;fill-opacity:0.5;stroke:#2a2eec;stroke-opacity:0.5;" x="215.404467" xlink:href="#m3cb1a36ed9" y="141.317165"></use><use style="fill:#2a2eec;fill-opacity:0.5;stroke:#2a2eec;stroke-opacity:0.5;" x="248.863256" xlink:href="#m3cb1a36ed9" y="169.122548"></use><use style="fill:#2a2eec;fill-opacity:0.5;stroke:#2a2eec;stroke-opacity:0.5;" x="336.227873" xlink:href="#m3cb1a36ed9" y="113.511781"></use><use style="fill:#2a2eec;fill-opacity:0.5;stroke:#2a2eec;stroke-opacity:0.5;" x="202.923807" xlink:href="#m3cb1a36ed9" y="201.500373"></use><use style="fill:#2a2eec;fill-opacity:0.5;stroke:#2a2eec;stroke-opacity:0.5;" x="243.817883" xlink:href="#m3cb1a36ed9" y="184.569984"></use><use style="fill:#2a2eec;fill-opacity:0.5;stroke:#2a2eec;stroke-opacity:0.5;" x="179.024672" xlink:href="#m3cb1a36ed9" y="200.017419"></use><use style="fill:#2a2eec;fill-opacity:0.5;stroke:#2a2eec;stroke-opacity:0.5;" x="257.095181" xlink:href="#m3cb1a36ed9" y="175.301523"></use><use style="fill:#2a2eec;fill-opacity:0.5;stroke:#2a2eec;stroke-opacity:0.5;" x="199.47171" xlink:href="#m3cb1a36ed9" y="209.28588"></use><use style="fill:#2a2eec;fill-opacity:0.5;stroke:#2a2eec;stroke-opacity:0.5;" x="256.032997" xlink:href="#m3cb1a36ed9" y="169.122548"></use><use style="fill:#2a2eec;fill-opacity:0.5;stroke:#2a2eec;stroke-opacity:0.5;" x="255.236359" xlink:href="#m3cb1a36ed9" y="162.943574"></use><use style="fill:#2a2eec;fill-opacity:0.5;stroke:#2a2eec;stroke-opacity:0.5;" x="291.350608" xlink:href="#m3cb1a36ed9" y="141.317165"></use><use style="fill:#2a2eec;fill-opacity:0.5;stroke:#2a2eec;stroke-opacity:0.5;" x="211.952369" xlink:href="#m3cb1a36ed9" y="212.375367"></use><use style="fill:#2a2eec;fill-opacity:0.5;stroke:#2a2eec;stroke-opacity:0.5;" x="227.354034" xlink:href="#m3cb1a36ed9" y="162.943574"></use><use style="fill:#2a2eec;fill-opacity:0.5;stroke:#2a2eec;stroke-opacity:0.5;" x="225.229667" xlink:href="#m3cb1a36ed9" y="181.480497"></use><use style="fill:#2a2eec;fill-opacity:0.5;stroke:#2a2eec;stroke-opacity:0.5;" x="283.384229" xlink:href="#m3cb1a36ed9" y="132.048704"></use><use style="fill:#2a2eec;fill-opacity:0.5;stroke:#2a2eec;stroke-opacity:0.5;" x="163.623007" xlink:href="#m3cb1a36ed9" y="227.822803"></use><use style="fill:#2a2eec;fill-opacity:0.5;stroke:#2a2eec;stroke-opacity:0.5;" x="331.448046" xlink:href="#m3cb1a36ed9" y="132.048704"></use><use style="fill:#2a2eec;fill-opacity:0.5;stroke:#2a2eec;stroke-opacity:0.5;" x="349.239625" xlink:href="#m3cb1a36ed9" y="162.943574"></use><use style="fill:#2a2eec;fill-opacity:0.5;stroke:#2a2eec;stroke-opacity:0.5;" x="334.900143" xlink:href="#m3cb1a36ed9" y="150.585626"></use></g></g><g id="line2d_24"><path clip-path="url(#p193a8a6987)" d="M 77.015134 258.772343 
L 86.382 254.365733 
L 95.748865 249.959196 
L 105.11573 245.552512 
L 114.482596 241.145901 
L 123.849461 236.739365 
L 133.216326 232.332828 
L 142.583192 227.926069 
L 151.950057 223.519607 
L 161.316922 219.112923 
L 170.683787 214.706312 
L 180.050653 210.299627 
L 189.417518 205.893091 
L 198.784383 201.48648 
L 208.151249 197.079944 
L 217.518114 192.673185 
L 226.884979 188.266649 
L 236.251845 183.860038 
L 245.61871 179.453502 
L 254.985575 175.046817 
L 264.35244 170.640207 
L 273.719306 166.233522 
L 283.086171 161.827134 
L 292.453036 157.420375 
L 301.819902 153.013764 
L 311.186767 148.607228 
L 320.553632 144.200618 
L 329.920498 139.794007 
L 339.287363 135.387471 
L 348.654228 130.980786 
L 358.021094 126.57425 
L 367.387959 122.167491 
L 376.754824 117.76088 
L 386.121689 113.354492 
L 395.488555 108.947807 
L 404.85542 104.541197 
L 414.222285 100.134586 
L 423.589151 95.727902 
L 432.956016 91.321217 
L 442.322881 86.914755 
L 451.689747 82.507996 
L 461.056612 78.101534 
L 470.423477 73.694997 
L 479.790342 69.288313 
L 489.157208 64.881702 
L 498.524073 60.475166 
" style="fill:none;stroke:#000000;stroke-linecap:round;stroke-width:1.5;"></path></g><g id="patch_3"><path d="M 55.939688 311.232957 
L 55.939688 7.2 
" style="fill:none;"></path></g><g id="patch_4"><path d="M 519.59952 311.232957 
L 519.59952 7.2 
" style="fill:none;"></path></g><g id="patch_5"><path d="M 55.939687 311.232957 
L 519.59952 311.232957 
" style="fill:none;"></path></g><g id="patch_6"><path d="M 55.939687 7.2 
L 519.59952 7.2 
" style="fill:none;"></path></g></g></g><defs><clipPath id="p193a8a6987"><rect height="304.032957" width="463.659832" x="55.939688" y="7.2"></rect></clipPath></defs></svg>