<?xml version="1.0" encoding="utf-8"?>
<svg height="339.924062pt" version="1.1" viewBox="0 0 728.281562 339.924062" width="728.281562pt" xmlns="http://www.w3.org/2000/svg" xmlns:xlink="http://www.w3.org/1999/xlink">
 <defs>
  <style type="text/css">
*{stroke-linecap:butt;stroke-linejoin:round;}
  </style>
 </defs>
 <g id="figure_1">
  <g id="patch_1">
   <path d="M 0 339.924062 
L 728.281562 339.924062 
L 728.281562 0 
L 0 0 
z
" style="fill:none;"></path>
  </g>
  <g id="axes_1">
   <g id="patch_2">
    <path d="M 51.481562 297.1575 
L 721.081563 297.1575 
L 721.081563 25.3575 
L 51.481562 25.3575 
z
" style="fill:#eeeeee;"></path>
   </g>
   <g id="matplotlib.axis_1">
    <g id="xtick_1">
     <g id="line2d_1">
      <path clip-path="url(#pe2e5f81019)" d="M 93.480707 297.1575 
L 93.480707 25.3575 
" style="fill:none;stroke:#ffffff;stroke-linecap:round;stroke-width:0.8;"></path>
     </g>
     <g id="line2d_2"></g>
     <g id="text_1">
      <!-- 800 -->
      <defs>
       <path d="M 31.78125 34.625 
Q 24.75 34.625 20.71875 30.859375 
Q 16.703125 27.09375 16.703125 20.515625 
Q 16.703125 13.921875 20.71875 10.15625 
Q 24.75 6.390625 31.78125 6.390625 
Q 38.8125 6.390625 42.859375 10.171875 
Q 46.921875 13.96875 46.921875 20.515625 
Q 46.921875 27.09375 42.890625 30.859375 
Q 38.875 34.625 31.78125 34.625 
z
M 21.921875 38.8125 
Q 15.578125 40.375 12.03125 44.71875 
Q 8.5 49.078125 8.5 55.328125 
Q 8.5 64.0625 14.71875 69.140625 
Q 20.953125 74.21875 31.78125 74.21875 
Q 42.671875 74.21875 48.875 69.140625 
Q 55.078125 64.0625 55.078125 55.328125 
Q 55.078125 49.078125 51.53125 44.71875 
Q 48 40.375 41.703125 38.8125 
Q 48.828125 37.15625 52.796875 32.3125 
Q 56.78125 27.484375 56.78125 20.515625 
Q 56.78125 9.90625 50.3125 4.234375 
Q 43.84375 -1.421875 31.78125 -1.421875 
Q 19.734375 -1.421875 13.25 4.234375 
Q 6.78125 9.90625 6.78125 20.515625 
Q 6.78125 27.484375 10.78125 32.3125 
Q 14.796875 37.15625 21.921875 38.8125 
z
M 18.3125 54.390625 
Q 18.3125 48.734375 21.84375 45.5625 
Q 25.390625 42.390625 31.78125 42.390625 
Q 38.140625 42.390625 41.71875 45.5625 
Q 45.3125 48.734375 45.3125 54.390625 
Q 45.3125 60.0625 41.71875 63.234375 
Q 38.140625 66.40625 31.78125 66.40625 
Q 25.390625 66.40625 21.84375 63.234375 
Q 18.3125 60.0625 18.3125 54.390625 
z
" id="DejaVuSans-56"></path>
       <path d="M 31.78125 66.40625 
Q 24.171875 66.40625 20.328125 58.90625 
Q 16.5 51.421875 16.5 36.375 
Q 16.5 21.390625 20.328125 13.890625 
Q 24.171875 6.390625 31.78125 6.390625 
Q 39.453125 6.390625 43.28125 13.890625 
Q 47.125 21.390625 47.125 36.375 
Q 47.125 51.421875 43.28125 58.90625 
Q 39.453125 66.40625 31.78125 66.40625 
z
M 31.78125 74.21875 
Q 44.046875 74.21875 50.515625 64.515625 
Q 56.984375 54.828125 56.984375 36.375 
Q 56.984375 17.96875 50.515625 8.265625 
Q 44.046875 -1.421875 31.78125 -1.421875 
Q 19.53125 -1.421875 13.0625 8.265625 
Q 6.59375 17.96875 6.59375 36.375 
Q 6.59375 54.828125 13.0625 64.515625 
Q 19.53125 74.21875 31.78125 74.21875 
z
" id="DejaVuSans-48"></path>
      </defs>
      <g style="fill:#262626;" transform="translate(80.119457 311.295313)scale(0.14 -0.14)">
       <use xlink:href="#DejaVuSans-56"></use>
       <use x="63.623047" xlink:href="#DejaVuSans-48"></use>
       <use x="127.246094" xlink:href="#DejaVuSans-48"></use>
      </g>
     </g>
    </g>
    <g id="xtick_2">
     <g id="line2d_3">
      <path clip-path="url(#pe2e5f81019)" d="M 188.933309 297.1575 
L 188.933309 25.3575 
" style="fill:none;stroke:#ffffff;stroke-linecap:round;stroke-width:0.8;"></path>
     </g>
     <g id="line2d_4"></g>
     <g id="text_2">
      <!-- 1000 -->
      <defs>
       <path d="M 12.40625 8.296875 
L 28.515625 8.296875 
L 28.515625 63.921875 
L 10.984375 60.40625 
L 10.984375 69.390625 
L 28.421875 72.90625 
L 38.28125 72.90625 
L 38.28125 8.296875 
L 54.390625 8.296875 
L 54.390625 0 
L 12.40625 0 
z
" id="DejaVuSans-49"></path>
      </defs>
      <g style="fill:#262626;" transform="translate(171.118309 311.295313)scale(0.14 -0.14)">
       <use xlink:href="#DejaVuSans-49"></use>
       <use x="63.623047" xlink:href="#DejaVuSans-48"></use>
       <use x="127.246094" xlink:href="#DejaVuSans-48"></use>
       <use x="190.869141" xlink:href="#DejaVuSans-48"></use>
      </g>
     </g>
    </g>
    <g id="xtick_3">
     <g id="line2d_5">
      <path clip-path="url(#pe2e5f81019)" d="M 284.38591 297.1575 
L 284.38591 25.3575 
" style="fill:none;stroke:#ffffff;stroke-linecap:round;stroke-width:0.8;"></path>
     </g>
     <g id="line2d_6"></g>
     <g id="text_3">
      <!-- 1200 -->
      <defs>
       <path d="M 19.1875 8.296875 
L 53.609375 8.296875 
L 53.609375 0 
L 7.328125 0 
L 7.328125 8.296875 
Q 12.9375 14.109375 22.625 23.890625 
Q 32.328125 33.6875 34.8125 36.53125 
Q 39.546875 41.84375 41.421875 45.53125 
Q 43.3125 49.21875 43.3125 52.78125 
Q 43.3125 58.59375 39.234375 62.25 
Q 35.15625 65.921875 28.609375 65.921875 
Q 23.96875 65.921875 18.8125 64.3125 
Q 13.671875 62.703125 7.8125 59.421875 
L 7.8125 69.390625 
Q 13.765625 71.78125 18.9375 73 
Q 24.125 74.21875 28.421875 74.21875 
Q 39.75 74.21875 46.484375 68.546875 
Q 53.21875 62.890625 53.21875 53.421875 
Q 53.21875 48.921875 51.53125 44.890625 
Q 49.859375 40.875 45.40625 35.40625 
Q 44.1875 33.984375 37.640625 27.21875 
Q 31.109375 20.453125 19.1875 8.296875 
z
" id="DejaVuSans-50"></path>
      </defs>
      <g style="fill:#262626;" transform="translate(266.57091 311.295313)scale(0.14 -0.14)">
       <use xlink:href="#DejaVuSans-49"></use>
       <use x="63.623047" xlink:href="#DejaVuSans-50"></use>
       <use x="127.246094" xlink:href="#DejaVuSans-48"></use>
       <use x="190.869141" xlink:href="#DejaVuSans-48"></use>
      </g>
     </g>
    </g>
    <g id="xtick_4">
     <g id="line2d_7">
      <path clip-path="url(#pe2e5f81019)" d="M 379.838512 297.1575 
L 379.838512 25.3575 
" style="fill:none;stroke:#ffffff;stroke-linecap:round;stroke-width:0.8;"></path>
     </g>
     <g id="line2d_8"></g>
     <g id="text_4">
      <!-- 1400 -->
      <defs>
       <path d="M 37.796875 64.3125 
L 12.890625 25.390625 
L 37.796875 25.390625 
z
M 35.203125 72.90625 
L 47.609375 72.90625 
L 47.609375 25.390625 
L 58.015625 25.390625 
L 58.015625 17.1875 
L 47.609375 17.1875 
L 47.609375 0 
L 37.796875 0 
L 37.796875 17.1875 
L 4.890625 17.1875 
L 4.890625 26.703125 
z
" id="DejaVuSans-52"></path>
      </defs>
      <g style="fill:#262626;" transform="translate(362.023512 311.295313)scale(0.14 -0.14)">
       <use xlink:href="#DejaVuSans-49"></use>
       <use x="63.623047" xlink:href="#DejaVuSans-52"></use>
       <use x="127.246094" xlink:href="#DejaVuSans-48"></use>
       <use x="190.869141" xlink:href="#DejaVuSans-48"></use>
      </g>
     </g>
    </g>
    <g id="xtick_5">
     <g id="line2d_9">
      <path clip-path="url(#pe2e5f81019)" d="M 475.291113 297.1575 
L 475.291113 25.3575 
" style="fill:none;stroke:#ffffff;stroke-linecap:round;stroke-width:0.8;"></path>
     </g>
     <g id="line2d_10"></g>
     <g id="text_5">
      <!-- 1600 -->
      <defs>
       <path d="M 33.015625 40.375 
Q 26.375 40.375 22.484375 35.828125 
Q 18.609375 31.296875 18.609375 23.390625 
Q 18.609375 15.53125 22.484375 10.953125 
Q 26.375 6.390625 33.015625 6.390625 
Q 39.65625 6.390625 43.53125 10.953125 
Q 47.40625 15.53125 47.40625 23.390625 
Q 47.40625 31.296875 43.53125 35.828125 
Q 39.65625 40.375 33.015625 40.375 
z
M 52.59375 71.296875 
L 52.59375 62.3125 
Q 48.875 64.0625 45.09375 64.984375 
Q 41.3125 65.921875 37.59375 65.921875 
Q 27.828125 65.921875 22.671875 59.328125 
Q 17.53125 52.734375 16.796875 39.40625 
Q 19.671875 43.65625 24.015625 45.921875 
Q 28.375 48.1875 33.59375 48.1875 
Q 44.578125 48.1875 50.953125 41.515625 
Q 57.328125 34.859375 57.328125 23.390625 
Q 57.328125 12.15625 50.6875 5.359375 
Q 44.046875 -1.421875 33.015625 -1.421875 
Q 20.359375 -1.421875 13.671875 8.265625 
Q 6.984375 17.96875 6.984375 36.375 
Q 6.984375 53.65625 15.1875 63.9375 
Q 23.390625 74.21875 37.203125 74.21875 
Q 40.921875 74.21875 44.703125 73.484375 
Q 48.484375 72.75 52.59375 71.296875 
z
" id="DejaVuSans-54"></path>
      </defs>
      <g style="fill:#262626;" transform="translate(457.476113 311.295313)scale(0.14 -0.14)">
       <use xlink:href="#DejaVuSans-49"></use>
       <use x="63.623047" xlink:href="#DejaVuSans-54"></use>
       <use x="127.246094" xlink:href="#DejaVuSans-48"></use>
       <use x="190.869141" xlink:href="#DejaVuSans-48"></use>
      </g>
     </g>
    </g>
    <g id="xtick_6">
     <g id="line2d_11">
      <path clip-path="url(#pe2e5f81019)" d="M 570.743715 297.1575 
L 570.743715 25.3575 
" style="fill:none;stroke:#ffffff;stroke-linecap:round;stroke-width:0.8;"></path>
     </g>
     <g id="line2d_12"></g>
     <g id="text_6">
      <!-- 1800 -->
      <g style="fill:#262626;" transform="translate(552.928715 311.295313)scale(0.14 -0.14)">
       <use xlink:href="#DejaVuSans-49"></use>
       <use x="63.623047" xlink:href="#DejaVuSans-56"></use>
       <use x="127.246094" xlink:href="#DejaVuSans-48"></use>
       <use x="190.869141" xlink:href="#DejaVuSans-48"></use>
      </g>
     </g>
    </g>
    <g id="xtick_7">
     <g id="line2d_13">
      <path clip-path="url(#pe2e5f81019)" d="M 666.196317 297.1575 
L 666.196317 25.3575 
" style="fill:none;stroke:#ffffff;stroke-linecap:round;stroke-width:0.8;"></path>
     </g>
     <g id="line2d_14"></g>
     <g id="text_7">
      <!-- 2000 -->
      <g style="fill:#262626;" transform="translate(648.381317 311.295313)scale(0.14 -0.14)">
       <use xlink:href="#DejaVuSans-50"></use>
       <use x="63.623047" xlink:href="#DejaVuSans-48"></use>
       <use x="127.246094" xlink:href="#DejaVuSans-48"></use>
       <use x="190.869141" xlink:href="#DejaVuSans-48"></use>
      </g>
     </g>
    </g>
    <g id="text_8">
     <!-- year -->
     <defs>
      <path d="M 32.171875 -5.078125 
Q 28.375 -14.84375 24.75 -17.8125 
Q 21.140625 -20.796875 15.09375 -20.796875 
L 7.90625 -20.796875 
L 7.90625 -13.28125 
L 13.1875 -13.28125 
Q 16.890625 -13.28125 18.9375 -11.515625 
Q 21 -9.765625 23.484375 -3.21875 
L 25.09375 0.875 
L 2.984375 54.6875 
L 12.5 54.6875 
L 29.59375 11.921875 
L 46.6875 54.6875 
L 56.203125 54.6875 
z
" id="DejaVuSans-121"></path>
      <path d="M 56.203125 29.59375 
L 56.203125 25.203125 
L 14.890625 25.203125 
Q 15.484375 15.921875 20.484375 11.0625 
Q 25.484375 6.203125 34.421875 6.203125 
Q 39.59375 6.203125 44.453125 7.46875 
Q 49.3125 8.734375 54.109375 11.28125 
L 54.109375 2.78125 
Q 49.265625 0.734375 44.1875 -0.34375 
Q 39.109375 -1.421875 33.890625 -1.421875 
Q 20.796875 -1.421875 13.15625 6.1875 
Q 5.515625 13.8125 5.515625 26.8125 
Q 5.515625 40.234375 12.765625 48.109375 
Q 20.015625 56 32.328125 56 
Q 43.359375 56 49.78125 48.890625 
Q 56.203125 41.796875 56.203125 29.59375 
z
M 47.21875 32.234375 
Q 47.125 39.59375 43.09375 43.984375 
Q 39.0625 48.390625 32.421875 48.390625 
Q 24.90625 48.390625 20.390625 44.140625 
Q 15.875 39.890625 15.1875 32.171875 
z
" id="DejaVuSans-101"></path>
      <path d="M 34.28125 27.484375 
Q 23.390625 27.484375 19.1875 25 
Q 14.984375 22.515625 14.984375 16.5 
Q 14.984375 11.71875 18.140625 8.90625 
Q 21.296875 6.109375 26.703125 6.109375 
Q 34.1875 6.109375 38.703125 11.40625 
Q 43.21875 16.703125 43.21875 25.484375 
L 43.21875 27.484375 
z
M 52.203125 31.203125 
L 52.203125 0 
L 43.21875 0 
L 43.21875 8.296875 
Q 40.140625 3.328125 35.546875 0.953125 
Q 30.953125 -1.421875 24.3125 -1.421875 
Q 15.921875 -1.421875 10.953125 3.296875 
Q 6 8.015625 6 15.921875 
Q 6 25.140625 12.171875 29.828125 
Q 18.359375 34.515625 30.609375 34.515625 
L 43.21875 34.515625 
L 43.21875 35.40625 
Q 43.21875 41.609375 39.140625 45 
Q 35.0625 48.390625 27.6875 48.390625 
Q 23 48.390625 18.546875 47.265625 
Q 14.109375 46.140625 10.015625 43.890625 
L 10.015625 52.203125 
Q 14.9375 54.109375 19.578125 55.046875 
Q 24.21875 56 28.609375 56 
Q 40.484375 56 46.34375 49.84375 
Q 52.203125 43.703125 52.203125 31.203125 
z
" id="DejaVuSans-97"></path>
      <path d="M 41.109375 46.296875 
Q 39.59375 47.171875 37.8125 47.578125 
Q 36.03125 48 33.890625 48 
Q 26.265625 48 22.1875 43.046875 
Q 18.109375 38.09375 18.109375 28.8125 
L 18.109375 0 
L 9.078125 0 
L 9.078125 54.6875 
L 18.109375 54.6875 
L 18.109375 46.1875 
Q 20.953125 51.171875 25.484375 53.578125 
Q 30.03125 56 36.53125 56 
Q 37.453125 56 38.578125 55.875 
Q 39.703125 55.765625 41.0625 55.515625 
z
" id="DejaVuSans-114"></path>
     </defs>
     <g style="fill:#262626;" transform="translate(369.548359 329.604531)scale(0.15 -0.15)">
      <use xlink:href="#DejaVuSans-121"></use>
      <use x="59.179688" xlink:href="#DejaVuSans-101"></use>
      <use x="120.703125" xlink:href="#DejaVuSans-97"></use>
      <use x="181.982422" xlink:href="#DejaVuSans-114"></use>
     </g>
    </g>
   </g>
   <g id="matplotlib.axis_2">
    <g id="ytick_1">
     <g id="line2d_15">
      <path clip-path="url(#pe2e5f81019)" d="M 51.481562 297.1575 
L 721.081563 297.1575 
" style="fill:none;stroke:#ffffff;stroke-linecap:round;stroke-width:0.8;"></path>
     </g>
     <g id="line2d_16"></g>
     <g id="text_9">
      <!-- 0.0 -->
      <defs>
       <path d="M 10.6875 12.40625 
L 21 12.40625 
L 21 0 
L 10.6875 0 
z
" id="DejaVuSans-46"></path>
      </defs>
      <g style="fill:#262626;" transform="translate(25.717187 302.476406)scale(0.14 -0.14)">
       <use xlink:href="#DejaVuSans-48"></use>
       <use x="63.623047" xlink:href="#DejaVuSans-46"></use>
       <use x="95.410156" xlink:href="#DejaVuSans-48"></use>
      </g>
     </g>
    </g>
    <g id="ytick_2">
     <g id="line2d_17">
      <path clip-path="url(#pe2e5f81019)" d="M 51.481562 242.7975 
L 721.081563 242.7975 
" style="fill:none;stroke:#ffffff;stroke-linecap:round;stroke-width:0.8;"></path>
     </g>
     <g id="line2d_18"></g>
     <g id="text_10">
      <!-- 0.2 -->
      <g style="fill:#262626;" transform="translate(25.717187 248.116406)scale(0.14 -0.14)">
       <use xlink:href="#DejaVuSans-48"></use>
       <use x="63.623047" xlink:href="#DejaVuSans-46"></use>
       <use x="95.410156" xlink:href="#DejaVuSans-50"></use>
      </g>
     </g>
    </g>
    <g id="ytick_3">
     <g id="line2d_19">
      <path clip-path="url(#pe2e5f81019)" d="M 51.481562 188.4375 
L 721.081563 188.4375 
" style="fill:none;stroke:#ffffff;stroke-linecap:round;stroke-width:0.8;"></path>
     </g>
     <g id="line2d_20"></g>
     <g id="text_11">
      <!-- 0.4 -->
      <g style="fill:#262626;" transform="translate(25.717187 193.756406)scale(0.14 -0.14)">
       <use xlink:href="#DejaVuSans-48"></use>
       <use x="63.623047" xlink:href="#DejaVuSans-46"></use>
       <use x="95.410156" xlink:href="#DejaVuSans-52"></use>
      </g>
     </g>
    </g>
    <g id="ytick_4">
     <g id="line2d_21">
      <path clip-path="url(#pe2e5f81019)" d="M 51.481562 134.0775 
L 721.081563 134.0775 
" style="fill:none;stroke:#ffffff;stroke-linecap:round;stroke-width:0.8;"></path>
     </g>
     <g id="line2d_22"></g>
     <g id="text_12">
      <!-- 0.6 -->
      <g style="fill:#262626;" transform="translate(25.717187 139.396406)scale(0.14 -0.14)">
       <use xlink:href="#DejaVuSans-48"></use>
       <use x="63.623047" xlink:href="#DejaVuSans-46"></use>
       <use x="95.410156" xlink:href="#DejaVuSans-54"></use>
      </g>
     </g>
    </g>
    <g id="ytick_5">
     <g id="line2d_23">
      <path clip-path="url(#pe2e5f81019)" d="M 51.481562 79.7175 
L 721.081563 79.7175 
" style="fill:none;stroke:#ffffff;stroke-linecap:round;stroke-width:0.8;"></path>
     </g>
     <g id="line2d_24"></g>
     <g id="text_13">
      <!-- 0.8 -->
      <g style="fill:#262626;" transform="translate(25.717187 85.036406)scale(0.14 -0.14)">
       <use xlink:href="#DejaVuSans-48"></use>
       <use x="63.623047" xlink:href="#DejaVuSans-46"></use>
       <use x="95.410156" xlink:href="#DejaVuSans-56"></use>
      </g>
     </g>
    </g>
    <g id="ytick_6">
     <g id="line2d_25">
      <path clip-path="url(#pe2e5f81019)" d="M 51.481562 25.3575 
L 721.081563 25.3575 
" style="fill:none;stroke:#ffffff;stroke-linecap:round;stroke-width:0.8;"></path>
     </g>
     <g id="line2d_26"></g>
     <g id="text_14">
      <!-- 1.0 -->
      <g style="fill:#262626;" transform="translate(25.717187 30.676406)scale(0.14 -0.14)">
       <use xlink:href="#DejaVuSans-49"></use>
       <use x="63.623047" xlink:href="#DejaVuSans-46"></use>
       <use x="95.410156" xlink:href="#DejaVuSans-48"></use>
      </g>
     </g>
    </g>
    <g id="text_15">
     <!-- basis value -->
     <defs>
      <path d="M 48.6875 27.296875 
Q 48.6875 37.203125 44.609375 42.84375 
Q 40.53125 48.484375 33.40625 48.484375 
Q 26.265625 48.484375 22.1875 42.84375 
Q 18.109375 37.203125 18.109375 27.296875 
Q 18.109375 17.390625 22.1875 11.75 
Q 26.265625 6.109375 33.40625 6.109375 
Q 40.53125 6.109375 44.609375 11.75 
Q 48.6875 17.390625 48.6875 27.296875 
z
M 18.109375 46.390625 
Q 20.953125 51.265625 25.265625 53.625 
Q 29.59375 56 35.59375 56 
Q 45.5625 56 51.78125 48.09375 
Q 58.015625 40.1875 58.015625 27.296875 
Q 58.015625 14.40625 51.78125 6.484375 
Q 45.5625 -1.421875 35.59375 -1.421875 
Q 29.59375 -1.421875 25.265625 0.953125 
Q 20.953125 3.328125 18.109375 8.203125 
L 18.109375 0 
L 9.078125 0 
L 9.078125 75.984375 
L 18.109375 75.984375 
z
" id="DejaVuSans-98"></path>
      <path d="M 44.28125 53.078125 
L 44.28125 44.578125 
Q 40.484375 46.53125 36.375 47.5 
Q 32.28125 48.484375 27.875 48.484375 
Q 21.1875 48.484375 17.84375 46.4375 
Q 14.5 44.390625 14.5 40.28125 
Q 14.5 37.15625 16.890625 35.375 
Q 19.28125 33.59375 26.515625 31.984375 
L 29.59375 31.296875 
Q 39.15625 29.25 43.1875 25.515625 
Q 47.21875 21.78125 47.21875 15.09375 
Q 47.21875 7.46875 41.1875 3.015625 
Q 35.15625 -1.421875 24.609375 -1.421875 
Q 20.21875 -1.421875 15.453125 -0.5625 
Q 10.6875 0.296875 5.421875 2 
L 5.421875 11.28125 
Q 10.40625 8.6875 15.234375 7.390625 
Q 20.0625 6.109375 24.8125 6.109375 
Q 31.15625 6.109375 34.5625 8.28125 
Q 37.984375 10.453125 37.984375 14.40625 
Q 37.984375 18.0625 35.515625 20.015625 
Q 33.0625 21.96875 24.703125 23.78125 
L 21.578125 24.515625 
Q 13.234375 26.265625 9.515625 29.90625 
Q 5.8125 33.546875 5.8125 39.890625 
Q 5.8125 47.609375 11.28125 51.796875 
Q 16.75 56 26.8125 56 
Q 31.78125 56 36.171875 55.265625 
Q 40.578125 54.546875 44.28125 53.078125 
z
" id="DejaVuSans-115"></path>
      <path d="M 9.421875 54.6875 
L 18.40625 54.6875 
L 18.40625 0 
L 9.421875 0 
z
M 9.421875 75.984375 
L 18.40625 75.984375 
L 18.40625 64.59375 
L 9.421875 64.59375 
z
" id="DejaVuSans-105"></path>
      <path id="DejaVuSans-32"></path>
      <path d="M 2.984375 54.6875 
L 12.5 54.6875 
L 29.59375 8.796875 
L 46.6875 54.6875 
L 56.203125 54.6875 
L 35.6875 0 
L 23.484375 0 
z
" id="DejaVuSans-118"></path>
      <path d="M 9.421875 75.984375 
L 18.40625 75.984375 
L 18.40625 0 
L 9.421875 0 
z
" id="DejaVuSans-108"></path>
      <path d="M 8.5 21.578125 
L 8.5 54.6875 
L 17.484375 54.6875 
L 17.484375 21.921875 
Q 17.484375 14.15625 20.5 10.265625 
Q 23.53125 6.390625 29.59375 6.390625 
Q 36.859375 6.390625 41.078125 11.03125 
Q 45.3125 15.671875 45.3125 23.6875 
L 45.3125 54.6875 
L 54.296875 54.6875 
L 54.296875 0 
L 45.3125 0 
L 45.3125 8.40625 
Q 42.046875 3.421875 37.71875 1 
Q 33.40625 -1.421875 27.6875 -1.421875 
Q 18.265625 -1.421875 13.375 4.4375 
Q 8.5 10.296875 8.5 21.578125 
z
M 31.109375 56 
z
" id="DejaVuSans-117"></path>
     </defs>
     <g style="fill:#262626;" transform="translate(18.597656 203.382891)rotate(-90)scale(0.15 -0.15)">
      <use xlink:href="#DejaVuSans-98"></use>
      <use x="63.476562" xlink:href="#DejaVuSans-97"></use>
      <use x="124.755859" xlink:href="#DejaVuSans-115"></use>
      <use x="176.855469" xlink:href="#DejaVuSans-105"></use>
      <use x="204.638672" xlink:href="#DejaVuSans-115"></use>
      <use x="256.738281" xlink:href="#DejaVuSans-32"></use>
      <use x="288.525391" xlink:href="#DejaVuSans-118"></use>
      <use x="347.705078" xlink:href="#DejaVuSans-97"></use>
      <use x="408.984375" xlink:href="#DejaVuSans-108"></use>
      <use x="436.767578" xlink:href="#DejaVuSans-117"></use>
      <use x="500.146484" xlink:href="#DejaVuSans-101"></use>
     </g>
    </g>
   </g>
   <g id="PathCollection_1">
    <defs>
     <path d="M -3 0 
L 3 0 
M 0 3 
L 0 -3 
" id="m4b6fbba3f5" style="stroke:#2a2eec;stroke-width:1.5;"></path>
    </defs>
    <g clip-path="url(#pe2e5f81019)">
     <use style="fill:#2a2eec;stroke:#2a2eec;stroke-width:1.5;" x="99.207863" xlink:href="#m4b6fbba3f5" y="38.947503"></use>
     <use style="fill:#2a2eec;stroke:#2a2eec;stroke-width:1.5;" x="99.207863" xlink:href="#m4b6fbba3f5" y="38.947503"></use>
     <use style="fill:#2a2eec;stroke:#2a2eec;stroke-width:1.5;" x="99.207863" xlink:href="#m4b6fbba3f5" y="38.947503"></use>
     <use style="fill:#2a2eec;stroke:#2a2eec;stroke-width:1.5;" x="99.207863" xlink:href="#m4b6fbba3f5" y="38.947503"></use>
     <use style="fill:#2a2eec;stroke:#2a2eec;stroke-width:1.5;" x="206.114777" xlink:href="#m4b6fbba3f5" y="38.947503"></use>
     <use style="fill:#2a2eec;stroke:#2a2eec;stroke-width:1.5;" x="271.977072" xlink:href="#m4b6fbba3f5" y="38.947503"></use>
     <use style="fill:#2a2eec;stroke:#2a2eec;stroke-width:1.5;" x="317.317058" xlink:href="#m4b6fbba3f5" y="38.947503"></use>
     <use style="fill:#2a2eec;stroke:#2a2eec;stroke-width:1.5;" x="368.861463" xlink:href="#m4b6fbba3f5" y="38.947503"></use>
     <use style="fill:#2a2eec;stroke:#2a2eec;stroke-width:1.5;" x="405.610714" xlink:href="#m4b6fbba3f5" y="38.947503"></use>
     <use style="fill:#2a2eec;stroke:#2a2eec;stroke-width:1.5;" x="436.155547" xlink:href="#m4b6fbba3f5" y="38.947503"></use>
     <use style="fill:#2a2eec;stroke:#2a2eec;stroke-width:1.5;" x="467.177642" xlink:href="#m4b6fbba3f5" y="38.947503"></use>
     <use style="fill:#2a2eec;stroke:#2a2eec;stroke-width:1.5;" x="499.154264" xlink:href="#m4b6fbba3f5" y="38.947503"></use>
     <use style="fill:#2a2eec;stroke:#2a2eec;stroke-width:1.5;" x="529.699096" xlink:href="#m4b6fbba3f5" y="38.947503"></use>
     <use style="fill:#2a2eec;stroke:#2a2eec;stroke-width:1.5;" x="558.334877" xlink:href="#m4b6fbba3f5" y="38.947503"></use>
     <use style="fill:#2a2eec;stroke:#2a2eec;stroke-width:1.5;" x="586.493394" xlink:href="#m4b6fbba3f5" y="38.947503"></use>
     <use style="fill:#2a2eec;stroke:#2a2eec;stroke-width:1.5;" x="615.129175" xlink:href="#m4b6fbba3f5" y="38.947503"></use>
     <use style="fill:#2a2eec;stroke:#2a2eec;stroke-width:1.5;" x="645.196744" xlink:href="#m4b6fbba3f5" y="38.947503"></use>
     <use style="fill:#2a2eec;stroke:#2a2eec;stroke-width:1.5;" x="673.355262" xlink:href="#m4b6fbba3f5" y="38.947503"></use>
     <use style="fill:#2a2eec;stroke:#2a2eec;stroke-width:1.5;" x="673.355262" xlink:href="#m4b6fbba3f5" y="38.947503"></use>
     <use style="fill:#2a2eec;stroke:#2a2eec;stroke-width:1.5;" x="673.355262" xlink:href="#m4b6fbba3f5" y="38.947503"></use>
     <use style="fill:#2a2eec;stroke:#2a2eec;stroke-width:1.5;" x="673.355262" xlink:href="#m4b6fbba3f5" y="38.947503"></use>
    </g>
   </g>
   <g id="line2d_27">
    <path clip-path="url(#pe2e5f81019)" d="M 99.207863 25.3575 
L 100.639652 36.132431 
L 108.27586 88.820224 
L 118.775647 148.95393 
L 124.980066 178.347728 
L 126.411855 184.527312 
L 135.957115 220.34049 
L 139.297956 230.800078 
L 142.161534 238.971327 
L 145.025112 246.442631 
L 147.411427 252.156648 
L 149.320479 256.405748 
L 153.615846 264.970281 
L 156.956687 270.732374 
L 160.774791 276.423829 
L 165.070158 281.775927 
L 168.888262 285.681535 
L 171.274577 287.750005 
L 174.138156 289.884228 
L 177.001734 291.668479 
L 178.910786 292.679027 
L 181.774364 293.949636 
L 184.637942 294.953848 
L 188.933309 296.02923 
L 192.27415 296.567707 
L 198.001306 297.03869 
L 206.114777 297.1575 
L 673.355262 297.1575 
L 673.355262 297.1575 
" style="fill:none;stroke:#000000;stroke-linecap:round;stroke-opacity:0.5;stroke-width:1.5;"></path>
   </g>
   <g id="line2d_28">
    <path clip-path="url(#pe2e5f81019)" d="M 99.207863 297.1575 
L 100.639652 286.472416 
L 108.27586 237.158751 
L 117.821121 192.331382 
L 118.775647 188.795276 
L 124.02554 172.194816 
L 126.411855 166.172802 
L 135.957115 150.736254 
L 137.388904 149.521159 
L 139.297956 148.310971 
L 142.161534 147.336373 
L 145.025112 147.314832 
L 147.411427 147.979651 
L 149.320479 148.932271 
L 152.184057 151.01891 
L 153.615846 152.341208 
L 155.524898 154.375963 
L 156.956687 156.095632 
L 160.774791 161.428811 
L 165.070158 168.57996 
L 169.365525 176.74627 
L 172.706366 183.664148 
L 177.001734 193.112403 
L 181.774364 204.102103 
L 192.27415 228.703896 
L 198.001306 241.500061 
L 204.205725 254.126912 
L 206.114777 257.658101 
L 208.501092 261.797835 
L 212.796459 268.501321 
L 218.046352 275.471046 
L 220.432667 278.22428 
L 223.773508 281.672281 
L 228.546138 285.831478 
L 230.932453 287.597705 
L 234.273295 289.747222 
L 236.182347 290.816803 
L 239.045925 292.220075 
L 242.386766 293.575478 
L 245.250344 294.518027 
L 249.068448 295.495324 
L 251.454763 295.962526 
L 255.75013 296.566769 
L 258.136445 296.790938 
L 263.386338 297.069846 
L 271.022546 297.15738 
L 673.355262 297.1575 
L 673.355262 297.1575 
" style="fill:none;stroke:#000000;stroke-linecap:round;stroke-opacity:0.5;stroke-width:1.5;"></path>
   </g>
   <g id="line2d_29">
    <path clip-path="url(#pe2e5f81019)" d="M 99.207863 297.1575 
L 100.639652 297.06785 
L 108.27586 293.743833 
L 117.821121 283.734702 
L 118.775647 282.428802 
L 124.980066 272.804195 
L 126.411855 270.330703 
L 137.388904 248.958415 
L 142.161534 238.711726 
L 153.615846 213.227549 
L 160.774791 197.564974 
L 167.456473 183.809572 
L 171.274577 176.528957 
L 174.138156 171.419355 
L 177.95626 165.152121 
L 178.910786 163.692835 
L 181.774364 159.597264 
L 184.637942 155.956937 
L 188.933309 151.439494 
L 191.796887 149.116209 
L 192.27415 148.786067 
L 195.614991 146.956394 
L 197.524043 146.305709 
L 198.001306 146.1898 
L 202.773936 146.111541 
L 204.682988 146.656988 
L 206.114777 147.293621 
L 208.501092 148.793626 
L 211.841933 151.765454 
L 212.796459 152.789919 
L 218.046352 159.687756 
L 220.432667 163.464447 
L 223.773508 169.337414 
L 229.023401 179.73981 
L 233.318768 189.096831 
L 237.614136 199.001784 
L 244.773081 216.187934 
L 252.886552 235.676626 
L 258.136445 247.691513 
L 263.386338 258.809763 
L 267.204442 266.125416 
L 270.06802 271.09103 
L 272.931598 275.545121 
L 275.795176 279.464092 
L 278.181491 282.342717 
L 280.090543 284.406697 
L 281.522332 285.822083 
L 285.340436 289.076258 
L 287.726751 290.753832 
L 290.590329 292.43885 
L 292.022118 293.157303 
L 295.36296 294.542166 
L 298.226538 295.437875 
L 301.090116 296.101435 
L 303.476431 296.502189 
L 307.771798 296.942547 
L 311.589902 297.11107 
L 318.271584 297.1575 
L 673.355262 297.1575 
L 673.355262 297.1575 
" style="fill:none;stroke:#000000;stroke-linecap:round;stroke-opacity:0.5;stroke-width:1.5;"></path>
   </g>
   <g id="line2d_30">
    <path clip-path="url(#pe2e5f81019)" d="M 99.207863 297.1575 
L 108.27586 297.107192 
L 118.775647 296.651992 
L 126.411855 295.799183 
L 137.388904 293.402183 
L 139.297956 292.810251 
L 142.161534 291.810574 
L 147.411427 289.60065 
L 149.320479 288.666779 
L 153.615846 286.290962 
L 156.956687 284.163802 
L 160.774791 281.412387 
L 165.070158 277.881633 
L 169.365525 273.858962 
L 172.706366 270.36959 
L 175.569945 267.114963 
L 178.910786 262.996854 
L 183.683416 256.485413 
L 184.637942 255.09106 
L 188.933309 248.421463 
L 192.27415 242.772329 
L 197.524043 233.039743 
L 198.001306 232.101449 
L 204.205725 219.058638 
L 206.114777 214.720777 
L 210.887407 203.242451 
L 212.796459 198.449281 
L 231.886979 149.419478 
L 236.182347 139.402609 
L 240.000451 131.239534 
L 243.341292 124.807874 
L 246.20487 119.91362 
L 249.068448 115.665881 
L 250.9775 113.228552 
L 252.886552 111.131547 
L 255.75013 108.670506 
L 257.181919 107.767369 
L 258.136445 107.292601 
L 261.000023 106.508593 
L 262.431812 106.493147 
L 263.386338 106.628387 
L 264.818127 107.056175 
L 265.772653 107.495183 
L 267.681705 108.754278 
L 268.636231 109.579663 
L 270.06802 111.069989 
L 271.977072 113.541862 
L 272.931598 114.990244 
L 274.84065 118.297087 
L 277.226965 123.147959 
L 279.61328 128.722904 
L 281.522332 133.651671 
L 285.340436 144.589298 
L 287.726751 152.041477 
L 292.022118 166.360935 
L 297.272012 184.870439 
L 306.817272 218.780258 
L 310.158113 229.978354 
L 313.976217 241.912886 
L 316.839795 250.075655 
L 318.271584 253.857004 
L 321.612425 261.881376 
L 323.99874 266.960845 
L 326.385055 271.527695 
L 328.294107 274.830413 
L 329.725896 277.112003 
L 333.066737 281.819841 
L 335.453052 284.687415 
L 338.793893 288.066808 
L 341.180208 290.064021 
L 343.566523 291.744938 
L 345.952838 293.136825 
L 347.384627 293.844566 
L 353.111783 295.850977 
L 355.975362 296.441906 
L 359.316203 296.866653 
L 362.657044 297.077626 
L 368.3842 297.157464 
L 673.355262 297.1575 
L 673.355262 297.1575 
" style="fill:none;stroke:#000000;stroke-linecap:round;stroke-opacity:0.5;stroke-width:1.5;"></path>
   </g>
   <g id="line2d_31">
    <path clip-path="url(#pe2e5f81019)" d="M 99.207863 297.1575 
L 212.796459 297.089479 
L 218.046352 296.770171 
L 222.818982 296.094669 
L 223.773508 295.90186 
L 228.546138 294.583825 
L 230.932453 293.67196 
L 233.318768 292.56674 
L 236.182347 290.95907 
L 239.045925 289.014071 
L 241.909503 286.699615 
L 243.341292 285.393802 
L 246.20487 282.464925 
L 249.068448 279.086275 
L 251.454763 275.903979 
L 252.886552 273.826235 
L 256.227393 268.461064 
L 258.136445 265.054948 
L 262.431812 256.42828 
L 264.818127 251.028356 
L 267.681705 243.943097 
L 270.06802 237.512443 
L 272.931598 229.137538 
L 276.749702 216.948987 
L 280.090543 205.595196 
L 294.408433 156.031796 
L 297.272012 147.128995 
L 300.13559 138.948911 
L 301.567379 135.181596 
L 303.476431 130.539664 
L 306.340009 124.493113 
L 308.249061 121.144474 
L 308.726324 120.399636 
L 310.158113 118.39895 
L 311.589902 116.765095 
L 312.544428 115.889866 
L 314.45348 114.680608 
L 315.408006 114.358835 
L 316.839795 114.246982 
L 317.317058 114.311644 
L 318.271584 114.596427 
L 320.180636 115.76818 
L 322.089688 117.701499 
L 322.566951 118.298009 
L 324.476003 121.11351 
L 325.907792 123.654362 
L 326.862318 125.541027 
L 329.248633 130.887136 
L 329.725896 132.058061 
L 333.066737 141.109691 
L 335.453052 148.390591 
L 339.271156 161.18471 
L 343.08926 175.040329 
L 347.384627 191.402471 
L 356.452625 226.163294 
L 361.225255 243.153617 
L 364.566096 253.957842 
L 366.952411 260.955503 
L 369.338726 267.243827 
L 371.247778 271.72281 
L 373.15683 275.730779 
L 374.111356 277.566312 
L 378.883986 285.190286 
L 381.270301 288.118102 
L 383.656616 290.524615 
L 385.565668 292.108832 
L 387.47472 293.418291 
L 389.383772 294.47916 
L 391.292824 295.317606 
L 393.679139 296.092747 
L 396.065454 296.612346 
L 398.929032 296.970512 
L 402.269873 297.134127 
L 409.428818 297.1575 
L 673.355262 297.1575 
L 673.355262 297.1575 
" style="fill:none;stroke:#000000;stroke-linecap:round;stroke-opacity:0.5;stroke-width:1.5;"></path>
   </g>
   <g id="line2d_32">
    <path clip-path="url(#pe2e5f81019)" d="M 99.207863 297.1575 
L 278.181491 297.046914 
L 281.522332 296.754818 
L 285.340436 296.052542 
L 287.726751 295.348604 
L 290.590329 294.171666 
L 292.022118 293.428266 
L 294.408433 291.931549 
L 296.794749 290.079969 
L 298.703801 288.317834 
L 300.13559 286.819707 
L 301.567379 285.161213 
L 303.476431 282.686332 
L 306.340009 278.369988 
L 308.249061 275.061556 
L 310.158113 271.385879 
L 312.544428 266.245397 
L 315.408006 259.226355 
L 317.317058 254.00136 
L 320.180636 245.339827 
L 322.566951 237.470784 
L 326.385055 223.940598 
L 329.725896 211.462666 
L 339.748419 173.572509 
L 343.08926 161.802143 
L 345.952838 152.446531 
L 347.384627 148.086267 
L 352.157257 135.445272 
L 354.066309 131.344828 
L 355.498098 128.680632 
L 356.452625 127.113556 
L 359.316203 123.493666 
L 360.270729 122.67108 
L 361.225255 122.052317 
L 362.657044 121.521824 
L 364.088833 121.489754 
L 365.043359 121.757075 
L 365.520622 121.980001 
L 366.952411 123.016458 
L 368.3842 124.623019 
L 369.338726 126.022191 
L 370.770515 128.607277 
L 372.202304 131.741339 
L 373.634093 135.384635 
L 374.111356 136.705362 
L 378.883986 152.457947 
L 381.270301 161.775309 
L 384.611142 175.980275 
L 389.383772 197.704571 
L 396.542717 230.504954 
L 399.406295 242.7388 
L 402.269873 253.989297 
L 404.656188 262.384174 
L 406.56524 268.328732 
L 408.474292 273.55625 
L 410.383344 278.110249 
L 412.292396 282.037178 
L 415.155974 286.853424 
L 417.065027 289.415895 
L 418.974079 291.51387 
L 420.883131 293.193798 
L 422.792183 294.50213 
L 424.701235 295.485313 
L 426.610287 296.189799 
L 428.519339 296.662037 
L 430.905654 296.996499 
L 433.769232 297.14238 
L 441.882703 297.1575 
L 673.355262 297.1575 
L 673.355262 297.1575 
" style="fill:none;stroke:#000000;stroke-linecap:round;stroke-opacity:0.5;stroke-width:1.5;"></path>
   </g>
   <g id="line2d_33">
    <path clip-path="url(#pe2e5f81019)" d="M 99.207863 297.1575 
L 322.566951 297.084784 
L 326.385055 296.782773 
L 329.248633 296.30386 
L 329.725896 296.197271 
L 333.066737 295.194156 
L 335.453052 294.159681 
L 337.839367 292.813798 
L 340.225682 291.115533 
L 342.611997 289.023911 
L 344.521049 287.039861 
L 346.907364 284.136939 
L 347.384627 283.496696 
L 352.157257 275.904355 
L 354.543572 271.231326 
L 356.452625 267.034642 
L 359.793466 258.642967 
L 362.179781 251.780249 
L 364.566096 244.147207 
L 366.952411 235.702866 
L 369.815989 224.443875 
L 372.679567 212.062057 
L 374.111356 205.562579 
L 384.611142 156.706833 
L 387.47472 144.573765 
L 389.861035 135.394991 
L 391.770087 128.82338 
L 393.679139 123.061722 
L 395.110928 119.34101 
L 396.542717 116.188802 
L 397.974506 113.653489 
L 398.929032 112.329895 
L 399.406295 111.783459 
L 400.838084 110.6271 
L 401.79261 110.276574 
L 402.747136 110.279078 
L 403.701662 110.648951 
L 404.656188 111.400529 
L 405.610714 112.54815 
L 406.56524 114.100346 
L 407.519766 116.042426 
L 408.951555 119.641747 
L 410.383344 124.003022 
L 411.815133 129.057079 
L 412.292396 130.883761 
L 415.155974 143.155473 
L 418.019553 157.27602 
L 420.883131 172.692025 
L 426.610287 205.196906 
L 430.428391 226.329722 
L 433.291969 240.964812 
L 435.678284 251.919295 
L 437.587336 259.655517 
L 439.496388 266.455749 
L 441.40544 272.379831 
L 443.314492 277.488188 
L 445.223544 281.841242 
L 447.132596 285.49942 
L 448.564385 287.823388 
L 449.996174 289.815968 
L 451.427963 291.502651 
L 452.859752 292.908929 
L 454.768804 294.391837 
L 456.200593 295.242968 
L 458.109645 296.078205 
L 460.018697 296.626429 
L 461.927749 296.948061 
L 464.314064 297.123511 
L 470.04122 297.1575 
L 673.355262 297.1575 
L 673.355262 297.1575 
" style="fill:none;stroke:#000000;stroke-linecap:round;stroke-opacity:0.5;stroke-width:1.5;"></path>
   </g>
   <g id="line2d_34">
    <path clip-path="url(#pe2e5f81019)" d="M 99.207863 297.1575 
L 373.15683 297.068907 
L 374.111356 296.995748 
L 378.883986 296.032039 
L 381.270301 295.021543 
L 383.656616 293.537092 
L 384.611142 292.790188 
L 386.042931 291.487541 
L 387.951983 289.379779 
L 389.383772 287.495261 
L 390.815561 285.328558 
L 392.724613 281.966638 
L 394.633665 278.021389 
L 396.542717 273.446145 
L 398.451769 268.194239 
L 400.360821 262.219004 
L 402.269873 255.473776 
L 404.178925 247.911886 
L 406.087977 239.487265 
L 408.474292 227.798635 
L 411.33787 212.513865 
L 416.587763 182.876287 
L 420.405868 161.809721 
L 423.269446 147.274885 
L 425.178498 138.528691 
L 427.08755 130.749803 
L 428.519339 125.659924 
L 429.951128 121.293324 
L 431.382917 117.726789 
L 432.337443 115.831499 
L 433.291969 114.348673 
L 434.246495 113.301062 
L 435.201021 112.711419 
L 435.678284 112.595444 
L 436.155547 112.602493 
L 436.63281 112.734452 
L 437.587336 113.364346 
L 438.541862 114.462837 
L 439.496388 116.006675 
L 440.450914 117.97261 
L 441.40544 120.337393 
L 442.837229 124.58155 
L 444.269018 129.592338 
L 446.17807 137.330304 
L 448.087122 146.105677 
L 450.473437 158.250399 
L 452.859752 171.362182 
L 458.586908 204.602263 
L 461.927749 223.601373 
L 464.314064 236.298323 
L 466.223116 245.652585 
L 468.609431 256.053454 
L 470.518483 263.28881 
L 472.427535 269.621001 
L 474.336587 275.110237 
L 476.245639 279.816731 
L 478.154692 283.800692 
L 479.586481 286.350722 
L 481.01827 288.553598 
L 482.450059 290.434722 
L 483.881848 292.019494 
L 485.313637 293.333317 
L 486.745426 294.401592 
L 487.699952 294.989904 
L 489.131741 295.70538 
L 491.518056 296.515249 
L 493.427108 296.88655 
L 495.813423 297.103718 
L 499.631527 297.1575 
L 673.355262 297.1575 
L 673.355262 297.1575 
" style="fill:none;stroke:#000000;stroke-linecap:round;stroke-opacity:0.5;stroke-width:1.5;"></path>
   </g>
   <g id="line2d_35">
    <path clip-path="url(#pe2e5f81019)" d="M 99.207863 297.1575 
L 409.428818 297.071501 
L 411.815133 296.788477 
L 412.292396 296.696599 
L 415.155974 295.813765 
L 417.065027 294.835526 
L 418.496816 293.851408 
L 419.928605 292.622394 
L 421.360394 291.121274 
L 422.792183 289.320836 
L 424.223972 287.193872 
L 425.655761 284.713169 
L 427.08755 281.851517 
L 428.519339 278.581705 
L 429.951128 274.876523 
L 431.86018 269.212008 
L 433.769232 262.660627 
L 435.678284 255.157882 
L 437.587336 246.657001 
L 439.973651 234.80037 
L 442.837229 219.250178 
L 447.609859 191.769572 
L 451.905226 167.454807 
L 454.768804 152.564266 
L 456.677856 143.594956 
L 458.586908 135.610726 
L 460.018697 130.381886 
L 461.927749 124.573041 
L 462.882275 122.219795 
L 464.314064 119.444859 
L 465.745853 117.646209 
L 466.223116 117.277292 
L 467.177642 116.903001 
L 467.654905 116.902529 
L 468.132168 117.025295 
L 469.086694 117.62922 
L 470.04122 118.692138 
L 470.995746 120.191414 
L 471.950272 122.104411 
L 472.904798 124.408492 
L 474.336587 128.548379 
L 475.768376 133.440875 
L 477.677429 141.002882 
L 479.586481 149.585947 
L 481.972796 161.474759 
L 484.359111 174.322323 
L 489.131741 201.478918 
L 493.904371 228.226158 
L 496.767949 242.90091 
L 498.677001 251.734471 
L 500.586053 259.614272 
L 502.017842 264.885484 
L 503.926894 271.112558 
L 505.835946 276.482186 
L 507.744998 281.057881 
L 509.176787 284.006842 
L 510.608576 286.571739 
L 512.040365 288.779366 
L 513.472154 290.65652 
L 514.903943 292.229994 
L 516.335732 293.526584 
L 517.767521 294.573086 
L 519.19931 295.396294 
L 521.108362 296.192873 
L 523.017414 296.703635 
L 524.926466 296.992097 
L 527.312781 297.136825 
L 539.244357 297.1575 
L 673.355262 297.1575 
L 673.355262 297.1575 
" style="fill:none;stroke:#000000;stroke-linecap:round;stroke-opacity:0.5;stroke-width:1.5;"></path>
   </g>
   <g id="line2d_36">
    <path clip-path="url(#pe2e5f81019)" d="M 99.207863 297.1575 
L 439.973651 297.074748 
L 442.359966 296.802412 
L 444.269018 296.363441 
L 446.17807 295.660699 
L 447.609859 294.923209 
L 449.041648 293.976253 
L 450.473437 292.79365 
L 451.905226 291.349215 
L 452.859752 290.227867 
L 454.768804 287.570121 
L 456.200593 285.183094 
L 457.632382 282.429505 
L 459.064171 279.283169 
L 460.018697 276.954489 
L 461.927749 271.707524 
L 463.836801 265.622701 
L 465.745853 258.637954 
L 467.654905 250.691859 
L 469.563957 241.800256 
L 471.950272 229.610889 
L 475.291113 211.180357 
L 483.881848 162.911347 
L 486.268163 150.924771 
L 487.699952 144.327086 
L 489.131741 138.269528 
L 491.518056 129.583729 
L 492.949845 125.344237 
L 494.381634 121.928168 
L 495.33616 120.1464 
L 496.290686 118.787829 
L 497.245212 117.875348 
L 497.722475 117.593545 
L 498.677001 117.393121 
L 499.154264 117.480224 
L 499.631527 117.695027 
L 500.586053 118.498362 
L 501.540579 119.779424 
L 502.017842 120.591386 
L 502.972368 122.542738 
L 504.404157 126.242037 
L 505.835946 130.793979 
L 507.267735 136.115224 
L 509.176787 144.262865 
L 511.085839 153.432445 
L 513.472154 166.030572 
L 516.812995 185.097342 
L 524.926466 232.258168 
L 527.312781 244.718639 
L 530.176359 257.874994 
L 532.085411 265.335225 
L 533.994463 271.78556 
L 535.903515 277.299444 
L 536.858041 279.72817 
L 538.767094 283.975093 
L 540.198883 286.662222 
L 541.630672 288.956869 
L 543.062461 290.890018 
L 544.49425 292.492656 
L 545.926039 293.795767 
L 547.357828 294.830338 
L 548.789617 295.627353 
L 550.221406 296.217799 
L 552.130458 296.737283 
L 554.03951 297.018065 
L 556.425825 297.145259 
L 564.539296 297.1575 
L 673.355262 297.1575 
L 673.355262 297.1575 
" style="fill:none;stroke:#000000;stroke-linecap:round;stroke-opacity:0.5;stroke-width:1.5;"></path>
   </g>
   <g id="line2d_37">
    <path clip-path="url(#pe2e5f81019)" d="M 99.207863 297.1575 
L 470.995746 297.074488 
L 473.382061 296.801295 
L 475.291113 296.360943 
L 477.200165 295.655991 
L 478.631955 294.916181 
L 480.063744 293.966247 
L 481.972796 292.327412 
L 483.404585 290.785046 
L 484.359111 289.593048 
L 486.268163 286.781022 
L 487.699952 284.266834 
L 489.131741 281.376174 
L 491.518056 275.650466 
L 493.427108 270.182711 
L 495.33616 263.858896 
L 497.245212 256.616763 
L 499.154264 248.394053 
L 501.063316 239.1732 
L 502.972368 229.115412 
L 506.313209 210.119717 
L 514.903943 160.12099 
L 517.290258 147.787775 
L 519.19931 138.929273 
L 521.108362 131.18989 
L 522.540151 126.243638 
L 523.97194 122.129575 
L 524.926466 119.892089 
L 525.880992 118.088808 
L 526.835518 116.745471 
L 527.312781 116.254324 
L 529.221833 115.568281 
L 529.699096 115.732493 
L 530.176359 116.036293 
L 531.130885 117.051689 
L 532.085411 118.586857 
L 533.039937 120.613048 
L 533.994463 123.101514 
L 535.426252 127.638094 
L 536.858041 133.053087 
L 538.767094 141.471801 
L 540.676146 151.049666 
L 543.062461 164.301688 
L 546.403302 184.438332 
L 554.03951 231.232324 
L 556.425825 244.313588 
L 558.334877 253.710937 
L 560.243929 261.961974 
L 562.152981 269.096062 
L 564.062033 275.194434 
L 565.493822 279.137391 
L 566.925611 282.57772 
L 568.3574 285.549693 
L 569.789189 288.087579 
L 571.220978 290.225647 
L 572.652767 291.998169 
L 574.084556 293.439414 
L 575.516345 294.583652 
L 576.948134 295.465153 
L 578.379923 296.118187 
L 580.288975 296.692739 
L 582.198027 297.003285 
L 584.584342 297.143961 
L 591.743287 297.1575 
L 673.355262 297.1575 
L 673.355262 297.1575 
" style="fill:none;stroke:#000000;stroke-linecap:round;stroke-opacity:0.5;stroke-width:1.5;"></path>
   </g>
   <g id="line2d_38">
    <path clip-path="url(#pe2e5f81019)" d="M 99.207863 297.1575 
L 502.972368 297.061678 
L 505.358683 296.746325 
L 507.267735 296.238018 
L 508.699524 295.660276 
L 510.131313 294.88041 
L 511.563102 293.8681 
L 512.994891 292.593026 
L 514.42668 291.024872 
L 515.858469 289.133317 
L 517.290258 286.888043 
L 518.722047 284.258731 
L 520.153836 281.215062 
L 521.585625 277.726718 
L 523.017414 273.76338 
L 524.926466 267.687646 
L 526.835518 260.641711 
L 527.312781 258.720212 
L 530.176359 245.761425 
L 532.085411 235.777001 
L 534.471726 222.126095 
L 538.28983 198.676491 
L 543.539724 166.313006 
L 545.926039 152.747293 
L 547.835091 142.856582 
L 549.744143 134.078906 
L 551.175932 128.369372 
L 552.607721 123.520399 
L 554.03951 119.632477 
L 554.994036 117.624073 
L 555.948562 116.11724 
L 556.903088 115.141755 
L 557.380351 114.862572 
L 557.857614 114.727391 
L 558.334877 114.739934 
L 558.81214 114.90266 
L 559.289403 115.212967 
L 560.243929 116.260867 
L 561.198455 117.85272 
L 562.152981 119.95761 
L 563.107507 122.54462 
L 564.539296 127.261481 
L 565.971085 132.88921 
L 567.402874 139.323466 
L 569.311926 148.976726 
L 571.698241 162.421972 
L 574.561819 179.940677 
L 583.152553 233.48928 
L 585.538868 246.480074 
L 587.44792 255.663797 
L 589.356972 263.67025 
L 591.266024 270.574241 
L 593.175076 276.457435 
L 594.606865 280.249059 
L 596.038654 283.546871 
L 597.470443 286.385325 
L 598.902232 288.798873 
L 600.334022 290.821965 
L 601.765811 292.489054 
L 603.1976 293.834593 
L 604.629389 294.893032 
L 606.538441 295.917231 
L 607.97023 296.439752 
L 609.879282 296.874441 
L 611.788334 297.084556 
L 614.651912 297.157287 
L 673.355262 297.1575 
L 673.355262 297.1575 
" style="fill:none;stroke:#000000;stroke-linecap:round;stroke-opacity:0.5;stroke-width:1.5;"></path>
   </g>
   <g id="line2d_39">
    <path clip-path="url(#pe2e5f81019)" d="M 99.207863 297.1575 
L 533.5172 297.048615 
L 535.426252 296.790013 
L 536.858041 296.439752 
L 538.767094 295.698823 
L 540.198883 294.893032 
L 541.630672 293.834593 
L 543.062461 292.489054 
L 544.49425 290.821965 
L 545.926039 288.798873 
L 547.357828 286.385325 
L 548.789617 283.546871 
L 550.221406 280.249059 
L 551.653195 276.457435 
L 553.084984 272.137549 
L 554.516773 267.254949 
L 556.425825 259.809935 
L 558.334877 251.221628 
L 560.243929 241.463272 
L 562.630244 227.9202 
L 565.971085 207.31621 
L 573.13003 162.456599 
L 575.516345 149.030955 
L 577.425397 139.397855 
L 579.334449 131.017546 
L 580.766238 125.70351 
L 582.198027 121.338073 
L 583.152553 119.0064 
L 584.107079 117.173757 
L 585.061605 115.871114 
L 586.016131 115.129444 
L 586.493394 114.978652 
L 586.970657 114.978448 
L 587.44792 115.126357 
L 587.925183 115.418634 
L 588.879709 116.421308 
L 589.834235 117.95651 
L 590.788761 119.99428 
L 591.743287 122.504656 
L 593.175076 127.090818 
L 594.606865 132.571814 
L 596.038654 138.846526 
L 597.947706 148.272707 
L 600.334022 161.421781 
L 603.1976 178.586702 
L 611.788334 231.333884 
L 614.174649 244.237621 
L 615.606438 251.226334 
L 617.51549 259.555029 
L 619.424542 266.810645 
L 621.333594 273.067188 
L 623.242646 278.398663 
L 624.674435 281.834713 
L 626.106224 284.82326 
L 627.06075 286.582431 
L 628.969802 289.582735 
L 630.401591 291.416104 
L 631.83338 292.926856 
L 633.265169 294.146211 
L 634.696958 295.105391 
L 636.128747 295.835616 
L 638.037799 296.507062 
L 639.469588 296.824476 
L 641.855903 297.091396 
L 645.196744 297.1575 
L 673.355262 297.1575 
L 673.355262 297.1575 
" style="fill:none;stroke:#000000;stroke-linecap:round;stroke-opacity:0.5;stroke-width:1.5;"></path>
   </g>
   <g id="line2d_40">
    <path clip-path="url(#pe2e5f81019)" d="M 99.207863 297.1575 
L 562.152981 297.048595 
L 564.062033 296.789945 
L 565.971085 296.286258 
L 567.402874 295.698552 
L 568.834663 294.89261 
L 570.266452 293.833974 
L 571.698241 292.488185 
L 573.13003 290.820785 
L 574.561819 288.797316 
L 575.993608 286.383319 
L 577.425397 283.544336 
L 578.857186 280.245909 
L 580.288975 276.45358 
L 581.720764 272.132889 
L 583.152553 267.249379 
L 585.061605 259.802979 
L 586.970657 251.213899 
L 588.879709 241.501305 
L 591.266024 228.108353 
L 594.606865 207.845815 
L 601.288548 166.719807 
L 603.674863 153.354046 
L 605.583915 143.670734 
L 607.492967 135.139947 
L 608.924756 129.640008 
L 610.356545 125.020411 
L 611.311071 122.478869 
L 612.265597 120.402254 
L 613.220123 118.820034 
L 614.174649 117.761675 
L 614.651912 117.438151 
L 615.129175 117.256642 
L 615.606438 117.219638 
L 616.560964 117.56881 
L 617.51549 118.459033 
L 618.470016 119.862479 
L 619.424542 121.751321 
L 620.379068 124.09773 
L 621.810857 128.414409 
L 623.242646 133.604083 
L 624.674435 139.572833 
L 626.583487 148.580733 
L 628.969802 161.214348 
L 631.83338 177.815555 
L 642.333166 240.349659 
L 644.719481 252.343641 
L 646.628533 260.721533 
L 648.537585 267.984825 
L 650.446637 274.212401 
L 651.878426 278.251321 
L 653.310215 281.786076 
L 654.742004 284.850278 
L 656.173793 287.477536 
L 657.605582 289.701463 
L 659.037371 291.555669 
L 660.469161 293.073765 
L 661.90095 294.289363 
L 663.332739 295.236072 
L 664.764528 295.947505 
L 666.196317 296.457271 
L 668.105369 296.88135 
L 670.491684 297.112685 
L 673.355262 297.1575 
L 673.355262 297.1575 
" style="fill:none;stroke:#000000;stroke-linecap:round;stroke-opacity:0.5;stroke-width:1.5;"></path>
   </g>
   <g id="line2d_41">
    <path clip-path="url(#pe2e5f81019)" d="M 99.207863 297.1575 
L 590.311498 297.053892 
L 592.22055 296.807824 
L 594.129602 296.328639 
L 595.561391 295.769522 
L 596.99318 295.002785 
L 598.424969 293.995647 
L 599.856759 292.715324 
L 601.288548 291.129034 
L 602.720337 289.203997 
L 604.152126 286.907429 
L 605.583915 284.206549 
L 607.015704 281.068573 
L 608.447493 277.460722 
L 609.879282 273.350211 
L 611.311071 268.70426 
L 613.220123 261.620089 
L 615.129175 253.448039 
L 617.038227 244.166674 
L 619.424542 231.321842 
L 622.765383 211.928307 
L 628.015276 181.209902 
L 630.878854 165.986319 
L 632.787906 157.006597 
L 634.219695 151.070495 
L 635.651484 145.940823 
L 637.083273 141.727237 
L 638.037799 139.481267 
L 638.992325 137.723672 
L 639.469588 137.038169 
L 640.424114 136.074057 
L 640.901377 135.803571 
L 641.37864 135.679547 
L 641.855903 135.706046 
L 642.333166 135.88713 
L 642.810429 136.226859 
L 643.287692 136.729295 
L 644.242218 138.238533 
L 645.196744 140.447335 
L 646.15127 143.37352 
L 647.105796 146.976223 
L 648.537585 153.527266 
L 649.969374 161.288086 
L 651.878426 173.193763 
L 654.264741 189.954878 
L 657.605582 215.372937 
L 661.90095 247.901684 
L 664.287265 264.198724 
L 666.196317 275.57403 
L 667.628106 282.844257 
L 669.059895 288.825151 
L 670.014421 292.003558 
L 670.968947 294.470088 
L 671.923473 296.169206 
L 672.400736 296.71363 
L 672.877999 297.045376 
L 673.355262 297.1575 
L 673.355262 297.1575 
" style="fill:none;stroke:#000000;stroke-linecap:round;stroke-opacity:0.5;stroke-width:1.5;"></path>
   </g>
   <g id="line2d_42">
    <path clip-path="url(#pe2e5f81019)" d="M 99.207863 297.1575 
L 618.470016 297.058078 
L 620.379068 296.771695 
L 621.810857 296.362122 
L 623.242646 295.733415 
L 624.674435 294.838615 
L 626.106224 293.630766 
L 627.06075 292.628428 
L 628.015276 291.452173 
L 629.447065 289.331263 
L 630.878854 286.740778 
L 632.310643 283.633762 
L 633.742432 279.963257 
L 635.174221 275.682305 
L 636.60601 270.743949 
L 638.037799 265.101232 
L 639.469588 258.707197 
L 641.37864 248.931937 
L 643.287692 237.626212 
L 645.196744 224.678717 
L 647.583059 206.336389 
L 652.832952 164.742082 
L 654.742004 151.921261 
L 656.173793 143.971346 
L 657.128319 139.669156 
L 658.082845 136.292454 
L 659.037371 133.95034 
L 659.514634 133.201347 
L 659.991897 132.751913 
L 660.469161 132.615677 
L 660.946424 132.806276 
L 661.423687 133.337347 
L 661.90095 134.222528 
L 662.378213 135.475456 
L 663.332739 139.139105 
L 664.287265 144.437395 
L 665.241791 151.479425 
L 666.196317 160.374298 
L 667.150843 171.231112 
L 668.105369 184.158969 
L 669.537158 207.672617 
L 670.968947 236.459802 
L 672.400736 270.888737 
L 673.355262 297.1575 
L 673.355262 297.1575 
" style="fill:none;stroke:#000000;stroke-linecap:round;stroke-opacity:0.5;stroke-width:1.5;"></path>
   </g>
   <g id="line2d_43">
    <path clip-path="url(#pe2e5f81019)" d="M 99.207863 297.1575 
L 647.105796 297.072802 
L 648.060322 296.871644 
L 649.014848 296.479916 
L 649.969374 295.834093 
L 650.9239 294.870653 
L 651.878426 293.526071 
L 652.832952 291.736825 
L 653.787478 289.439391 
L 654.742004 286.570244 
L 655.69653 283.065863 
L 656.651056 278.862722 
L 657.605582 273.897299 
L 659.037371 264.880927 
L 660.469161 253.7921 
L 661.90095 240.416426 
L 663.332739 224.539513 
L 664.764528 205.946968 
L 666.196317 184.424401 
L 667.628106 159.757418 
L 669.059895 131.731629 
L 670.491684 100.132641 
L 672.400736 52.071793 
L 673.355262 25.3575 
L 673.355262 25.3575 
" style="fill:none;stroke:#000000;stroke-linecap:round;stroke-opacity:0.5;stroke-width:1.5;"></path>
   </g>
   <g id="patch_3">
    <path d="M 51.481562 297.1575 
L 51.481562 25.3575 
" style="fill:none;"></path>
   </g>
   <g id="patch_4">
    <path d="M 721.081563 297.1575 
L 721.081563 25.3575 
" style="fill:none;"></path>
   </g>
   <g id="patch_5">
    <path d="M 51.481562 297.1575 
L 721.081563 297.1575 
" style="fill:none;"></path>
   </g>
   <g id="patch_6">
    <path d="M 51.481562 25.3575 
L 721.081563 25.3575 
" style="fill:none;"></path>
   </g>
   <g id="text_16">
    <!-- Degree= 3 -->
    <defs>
     <path d="M 19.671875 64.796875 
L 19.671875 8.109375 
L 31.59375 8.109375 
Q 46.6875 8.109375 53.6875 14.9375 
Q 60.6875 21.78125 60.6875 36.53125 
Q 60.6875 51.171875 53.6875 57.984375 
Q 46.6875 64.796875 31.59375 64.796875 
z
M 9.8125 72.90625 
L 30.078125 72.90625 
Q 51.265625 72.90625 61.171875 64.09375 
Q 71.09375 55.28125 71.09375 36.53125 
Q 71.09375 17.671875 61.125 8.828125 
Q 51.171875 0 30.078125 0 
L 9.8125 0 
z
" id="DejaVuSans-68"></path>
     <path d="M 45.40625 27.984375 
Q 45.40625 37.75 41.375 43.109375 
Q 37.359375 48.484375 30.078125 48.484375 
Q 22.859375 48.484375 18.828125 43.109375 
Q 14.796875 37.75 14.796875 27.984375 
Q 14.796875 18.265625 18.828125 12.890625 
Q 22.859375 7.515625 30.078125 7.515625 
Q 37.359375 7.515625 41.375 12.890625 
Q 45.40625 18.265625 45.40625 27.984375 
z
M 54.390625 6.78125 
Q 54.390625 -7.171875 48.1875 -13.984375 
Q 42 -20.796875 29.203125 -20.796875 
Q 24.46875 -20.796875 20.265625 -20.09375 
Q 16.0625 -19.390625 12.109375 -17.921875 
L 12.109375 -9.1875 
Q 16.0625 -11.328125 19.921875 -12.34375 
Q 23.78125 -13.375 27.78125 -13.375 
Q 36.625 -13.375 41.015625 -8.765625 
Q 45.40625 -4.15625 45.40625 5.171875 
L 45.40625 9.625 
Q 42.625 4.78125 38.28125 2.390625 
Q 33.9375 0 27.875 0 
Q 17.828125 0 11.671875 7.65625 
Q 5.515625 15.328125 5.515625 27.984375 
Q 5.515625 40.671875 11.671875 48.328125 
Q 17.828125 56 27.875 56 
Q 33.9375 56 38.28125 53.609375 
Q 42.625 51.21875 45.40625 46.390625 
L 45.40625 54.6875 
L 54.390625 54.6875 
z
" id="DejaVuSans-103"></path>
     <path d="M 10.59375 45.40625 
L 73.1875 45.40625 
L 73.1875 37.203125 
L 10.59375 37.203125 
z
M 10.59375 25.484375 
L 73.1875 25.484375 
L 73.1875 17.1875 
L 10.59375 17.1875 
z
" id="DejaVuSans-61"></path>
     <path d="M 40.578125 39.3125 
Q 47.65625 37.796875 51.625 33 
Q 55.609375 28.21875 55.609375 21.1875 
Q 55.609375 10.40625 48.1875 4.484375 
Q 40.765625 -1.421875 27.09375 -1.421875 
Q 22.515625 -1.421875 17.65625 -0.515625 
Q 12.796875 0.390625 7.625 2.203125 
L 7.625 11.71875 
Q 11.71875 9.328125 16.59375 8.109375 
Q 21.484375 6.890625 26.8125 6.890625 
Q 36.078125 6.890625 40.9375 10.546875 
Q 45.796875 14.203125 45.796875 21.1875 
Q 45.796875 27.640625 41.28125 31.265625 
Q 36.765625 34.90625 28.71875 34.90625 
L 20.21875 34.90625 
L 20.21875 43.015625 
L 29.109375 43.015625 
Q 36.375 43.015625 40.234375 45.921875 
Q 44.09375 48.828125 44.09375 54.296875 
Q 44.09375 59.90625 40.109375 62.90625 
Q 36.140625 65.921875 28.71875 65.921875 
Q 24.65625 65.921875 20.015625 65.03125 
Q 15.375 64.15625 9.8125 62.3125 
L 9.8125 71.09375 
Q 15.4375 72.65625 20.34375 73.4375 
Q 25.25 74.21875 29.59375 74.21875 
Q 40.828125 74.21875 47.359375 69.109375 
Q 53.90625 64.015625 53.90625 55.328125 
Q 53.90625 49.265625 50.4375 45.09375 
Q 46.96875 40.921875 40.578125 39.3125 
z
" id="DejaVuSans-51"></path>
    </defs>
    <g style="fill:#262626;" transform="translate(342.830312 19.3575)scale(0.16 -0.16)">
     <use xlink:href="#DejaVuSans-68"></use>
     <use x="77.001953" xlink:href="#DejaVuSans-101"></use>
     <use x="138.525391" xlink:href="#DejaVuSans-103"></use>
     <use x="202.001953" xlink:href="#DejaVuSans-114"></use>
     <use x="240.865234" xlink:href="#DejaVuSans-101"></use>
     <use x="302.388672" xlink:href="#DejaVuSans-101"></use>
     <use x="363.912109" xlink:href="#DejaVuSans-61"></use>
     <use x="447.701172" xlink:href="#DejaVuSans-32"></use>
     <use x="479.488281" xlink:href="#DejaVuSans-51"></use>
    </g>
   </g>
  </g>
 </g>
 <defs>
  <clipPath id="pe2e5f81019">
   <rect height="271.8" width="669.6" x="51.481562" y="25.3575"></rect>
  </clipPath>
 </defs>
</svg>