<?xml version="1.0" encoding="utf-8"?>
<svg height="327.085469pt" version="1.1" viewBox="0 0 615.05625 327.085469" width="615.05625pt" xmlns="http://www.w3.org/2000/svg" xmlns:xlink="http://www.w3.org/1999/xlink">
 <defs>
  <style type="text/css">
*{stroke-linecap:butt;stroke-linejoin:round;}
  </style>
 </defs>
 <g id="figure_1">
  <g id="patch_1">
   <path d="M 0 327.085469 
L 615.05625 327.085469 
L 615.05625 0 
L 0 0 
z
" style="fill:none;"></path>
  </g>
  <g id="axes_1">
   <g id="patch_2">
    <path d="M 49.85625 284.318906 
L 607.85625 284.318906 
L 607.85625 12.518906 
L 49.85625 12.518906 
z
" style="fill:#eeeeee;"></path>
   </g>
   <g id="matplotlib.axis_1">
    <g id="xtick_1">
     <g id="line2d_1">
      <path clip-path="url(#peac7b18f24)" d="M 84.855537 284.318906 
L 84.855537 12.518906 
" style="fill:none;stroke:#ffffff;stroke-linecap:round;stroke-width:0.8;"></path>
     </g>
     <g id="line2d_2"></g>
     <g id="text_1">
      <!-- 800 -->
      <defs>
       <path d="M 31.78125 34.625 
Q 24.75 34.625 20.71875 30.859375 
Q 16.703125 27.09375 16.703125 20.515625 
Q 16.703125 13.921875 20.71875 10.15625 
Q 24.75 6.390625 31.78125 6.390625 
Q 38.8125 6.390625 42.859375 10.171875 
Q 46.921875 13.96875 46.921875 20.515625 
Q 46.921875 27.09375 42.890625 30.859375 
Q 38.875 34.625 31.78125 34.625 
z
M 21.921875 38.8125 
Q 15.578125 40.375 12.03125 44.71875 
Q 8.5 49.078125 8.5 55.328125 
Q 8.5 64.0625 14.71875 69.140625 
Q 20.953125 74.21875 31.78125 74.21875 
Q 42.671875 74.21875 48.875 69.140625 
Q 55.078125 64.0625 55.078125 55.328125 
Q 55.078125 49.078125 51.53125 44.71875 
Q 48 40.375 41.703125 38.8125 
Q 48.828125 37.15625 52.796875 32.3125 
Q 56.78125 27.484375 56.78125 20.515625 
Q 56.78125 9.90625 50.3125 4.234375 
Q 43.84375 -1.421875 31.78125 -1.421875 
Q 19.734375 -1.421875 13.25 4.234375 
Q 6.78125 9.90625 6.78125 20.515625 
Q 6.78125 27.484375 10.78125 32.3125 
Q 14.796875 37.15625 21.921875 38.8125 
z
M 18.3125 54.390625 
Q 18.3125 48.734375 21.84375 45.5625 
Q 25.390625 42.390625 31.78125 42.390625 
Q 38.140625 42.390625 41.71875 45.5625 
Q 45.3125 48.734375 45.3125 54.390625 
Q 45.3125 60.0625 41.71875 63.234375 
Q 38.140625 66.40625 31.78125 66.40625 
Q 25.390625 66.40625 21.84375 63.234375 
Q 18.3125 60.0625 18.3125 54.390625 
z
" id="DejaVuSans-56"></path>
       <path d="M 31.78125 66.40625 
Q 24.171875 66.40625 20.328125 58.90625 
Q 16.5 51.421875 16.5 36.375 
Q 16.5 21.390625 20.328125 13.890625 
Q 24.171875 6.390625 31.78125 6.390625 
Q 39.453125 6.390625 43.28125 13.890625 
Q 47.125 21.390625 47.125 36.375 
Q 47.125 51.421875 43.28125 58.90625 
Q 39.453125 66.40625 31.78125 66.40625 
z
M 31.78125 74.21875 
Q 44.046875 74.21875 50.515625 64.515625 
Q 56.984375 54.828125 56.984375 36.375 
Q 56.984375 17.96875 50.515625 8.265625 
Q 44.046875 -1.421875 31.78125 -1.421875 
Q 19.53125 -1.421875 13.0625 8.265625 
Q 6.59375 17.96875 6.59375 36.375 
Q 6.59375 54.828125 13.0625 64.515625 
Q 19.53125 74.21875 31.78125 74.21875 
z
" id="DejaVuSans-48"></path>
      </defs>
      <g style="fill:#262626;" transform="translate(71.494287 298.456719)scale(0.14 -0.14)">
       <use xlink:href="#DejaVuSans-56"></use>
       <use x="63.623047" xlink:href="#DejaVuSans-48"></use>
       <use x="127.246094" xlink:href="#DejaVuSans-48"></use>
      </g>
     </g>
    </g>
    <g id="xtick_2">
     <g id="line2d_3">
      <path clip-path="url(#peac7b18f24)" d="M 164.399372 284.318906 
L 164.399372 12.518906 
" style="fill:none;stroke:#ffffff;stroke-linecap:round;stroke-width:0.8;"></path>
     </g>
     <g id="line2d_4"></g>
     <g id="text_2">
      <!-- 1000 -->
      <defs>
       <path d="M 12.40625 8.296875 
L 28.515625 8.296875 
L 28.515625 63.921875 
L 10.984375 60.40625 
L 10.984375 69.390625 
L 28.421875 72.90625 
L 38.28125 72.90625 
L 38.28125 8.296875 
L 54.390625 8.296875 
L 54.390625 0 
L 12.40625 0 
z
" id="DejaVuSans-49"></path>
      </defs>
      <g style="fill:#262626;" transform="translate(146.584372 298.456719)scale(0.14 -0.14)">
       <use xlink:href="#DejaVuSans-49"></use>
       <use x="63.623047" xlink:href="#DejaVuSans-48"></use>
       <use x="127.246094" xlink:href="#DejaVuSans-48"></use>
       <use x="190.869141" xlink:href="#DejaVuSans-48"></use>
      </g>
     </g>
    </g>
    <g id="xtick_3">
     <g id="line2d_5">
      <path clip-path="url(#peac7b18f24)" d="M 243.943207 284.318906 
L 243.943207 12.518906 
" style="fill:none;stroke:#ffffff;stroke-linecap:round;stroke-width:0.8;"></path>
     </g>
     <g id="line2d_6"></g>
     <g id="text_3">
      <!-- 1200 -->
      <defs>
       <path d="M 19.1875 8.296875 
L 53.609375 8.296875 
L 53.609375 0 
L 7.328125 0 
L 7.328125 8.296875 
Q 12.9375 14.109375 22.625 23.890625 
Q 32.328125 33.6875 34.8125 36.53125 
Q 39.546875 41.84375 41.421875 45.53125 
Q 43.3125 49.21875 43.3125 52.78125 
Q 43.3125 58.59375 39.234375 62.25 
Q 35.15625 65.921875 28.609375 65.921875 
Q 23.96875 65.921875 18.8125 64.3125 
Q 13.671875 62.703125 7.8125 59.421875 
L 7.8125 69.390625 
Q 13.765625 71.78125 18.9375 73 
Q 24.125 74.21875 28.421875 74.21875 
Q 39.75 74.21875 46.484375 68.546875 
Q 53.21875 62.890625 53.21875 53.421875 
Q 53.21875 48.921875 51.53125 44.890625 
Q 49.859375 40.875 45.40625 35.40625 
Q 44.1875 33.984375 37.640625 27.21875 
Q 31.109375 20.453125 19.1875 8.296875 
z
" id="DejaVuSans-50"></path>
      </defs>
      <g style="fill:#262626;" transform="translate(226.128207 298.456719)scale(0.14 -0.14)">
       <use xlink:href="#DejaVuSans-49"></use>
       <use x="63.623047" xlink:href="#DejaVuSans-50"></use>
       <use x="127.246094" xlink:href="#DejaVuSans-48"></use>
       <use x="190.869141" xlink:href="#DejaVuSans-48"></use>
      </g>
     </g>
    </g>
    <g id="xtick_4">
     <g id="line2d_7">
      <path clip-path="url(#peac7b18f24)" d="M 323.487041 284.318906 
L 323.487041 12.518906 
" style="fill:none;stroke:#ffffff;stroke-linecap:round;stroke-width:0.8;"></path>
     </g>
     <g id="line2d_8"></g>
     <g id="text_4">
      <!-- 1400 -->
      <defs>
       <path d="M 37.796875 64.3125 
L 12.890625 25.390625 
L 37.796875 25.390625 
z
M 35.203125 72.90625 
L 47.609375 72.90625 
L 47.609375 25.390625 
L 58.015625 25.390625 
L 58.015625 17.1875 
L 47.609375 17.1875 
L 47.609375 0 
L 37.796875 0 
L 37.796875 17.1875 
L 4.890625 17.1875 
L 4.890625 26.703125 
z
" id="DejaVuSans-52"></path>
      </defs>
      <g style="fill:#262626;" transform="translate(305.672041 298.456719)scale(0.14 -0.14)">
       <use xlink:href="#DejaVuSans-49"></use>
       <use x="63.623047" xlink:href="#DejaVuSans-52"></use>
       <use x="127.246094" xlink:href="#DejaVuSans-48"></use>
       <use x="190.869141" xlink:href="#DejaVuSans-48"></use>
      </g>
     </g>
    </g>
    <g id="xtick_5">
     <g id="line2d_9">
      <path clip-path="url(#peac7b18f24)" d="M 403.030876 284.318906 
L 403.030876 12.518906 
" style="fill:none;stroke:#ffffff;stroke-linecap:round;stroke-width:0.8;"></path>
     </g>
     <g id="line2d_10"></g>
     <g id="text_5">
      <!-- 1600 -->
      <defs>
       <path d="M 33.015625 40.375 
Q 26.375 40.375 22.484375 35.828125 
Q 18.609375 31.296875 18.609375 23.390625 
Q 18.609375 15.53125 22.484375 10.953125 
Q 26.375 6.390625 33.015625 6.390625 
Q 39.65625 6.390625 43.53125 10.953125 
Q 47.40625 15.53125 47.40625 23.390625 
Q 47.40625 31.296875 43.53125 35.828125 
Q 39.65625 40.375 33.015625 40.375 
z
M 52.59375 71.296875 
L 52.59375 62.3125 
Q 48.875 64.0625 45.09375 64.984375 
Q 41.3125 65.921875 37.59375 65.921875 
Q 27.828125 65.921875 22.671875 59.328125 
Q 17.53125 52.734375 16.796875 39.40625 
Q 19.671875 43.65625 24.015625 45.921875 
Q 28.375 48.1875 33.59375 48.1875 
Q 44.578125 48.1875 50.953125 41.515625 
Q 57.328125 34.859375 57.328125 23.390625 
Q 57.328125 12.15625 50.6875 5.359375 
Q 44.046875 -1.421875 33.015625 -1.421875 
Q 20.359375 -1.421875 13.671875 8.265625 
Q 6.984375 17.96875 6.984375 36.375 
Q 6.984375 53.65625 15.1875 63.9375 
Q 23.390625 74.21875 37.203125 74.21875 
Q 40.921875 74.21875 44.703125 73.484375 
Q 48.484375 72.75 52.59375 71.296875 
z
" id="DejaVuSans-54"></path>
      </defs>
      <g style="fill:#262626;" transform="translate(385.215876 298.456719)scale(0.14 -0.14)">
       <use xlink:href="#DejaVuSans-49"></use>
       <use x="63.623047" xlink:href="#DejaVuSans-54"></use>
       <use x="127.246094" xlink:href="#DejaVuSans-48"></use>
       <use x="190.869141" xlink:href="#DejaVuSans-48"></use>
      </g>
     </g>
    </g>
    <g id="xtick_6">
     <g id="line2d_11">
      <path clip-path="url(#peac7b18f24)" d="M 482.57471 284.318906 
L 482.57471 12.518906 
" style="fill:none;stroke:#ffffff;stroke-linecap:round;stroke-width:0.8;"></path>
     </g>
     <g id="line2d_12"></g>
     <g id="text_6">
      <!-- 1800 -->
      <g style="fill:#262626;" transform="translate(464.75971 298.456719)scale(0.14 -0.14)">
       <use xlink:href="#DejaVuSans-49"></use>
       <use x="63.623047" xlink:href="#DejaVuSans-56"></use>
       <use x="127.246094" xlink:href="#DejaVuSans-48"></use>
       <use x="190.869141" xlink:href="#DejaVuSans-48"></use>
      </g>
     </g>
    </g>
    <g id="xtick_7">
     <g id="line2d_13">
      <path clip-path="url(#peac7b18f24)" d="M 562.118545 284.318906 
L 562.118545 12.518906 
" style="fill:none;stroke:#ffffff;stroke-linecap:round;stroke-width:0.8;"></path>
     </g>
     <g id="line2d_14"></g>
     <g id="text_7">
      <!-- 2000 -->
      <g style="fill:#262626;" transform="translate(544.303545 298.456719)scale(0.14 -0.14)">
       <use xlink:href="#DejaVuSans-50"></use>
       <use x="63.623047" xlink:href="#DejaVuSans-48"></use>
       <use x="127.246094" xlink:href="#DejaVuSans-48"></use>
       <use x="190.869141" xlink:href="#DejaVuSans-48"></use>
      </g>
     </g>
    </g>
    <g id="text_8">
     <!-- year -->
     <defs>
      <path d="M 32.171875 -5.078125 
Q 28.375 -14.84375 24.75 -17.8125 
Q 21.140625 -20.796875 15.09375 -20.796875 
L 7.90625 -20.796875 
L 7.90625 -13.28125 
L 13.1875 -13.28125 
Q 16.890625 -13.28125 18.9375 -11.515625 
Q 21 -9.765625 23.484375 -3.21875 
L 25.09375 0.875 
L 2.984375 54.6875 
L 12.5 54.6875 
L 29.59375 11.921875 
L 46.6875 54.6875 
L 56.203125 54.6875 
z
" id="DejaVuSans-121"></path>
      <path d="M 56.203125 29.59375 
L 56.203125 25.203125 
L 14.890625 25.203125 
Q 15.484375 15.921875 20.484375 11.0625 
Q 25.484375 6.203125 34.421875 6.203125 
Q 39.59375 6.203125 44.453125 7.46875 
Q 49.3125 8.734375 54.109375 11.28125 
L 54.109375 2.78125 
Q 49.265625 0.734375 44.1875 -0.34375 
Q 39.109375 -1.421875 33.890625 -1.421875 
Q 20.796875 -1.421875 13.15625 6.1875 
Q 5.515625 13.8125 5.515625 26.8125 
Q 5.515625 40.234375 12.765625 48.109375 
Q 20.015625 56 32.328125 56 
Q 43.359375 56 49.78125 48.890625 
Q 56.203125 41.796875 56.203125 29.59375 
z
M 47.21875 32.234375 
Q 47.125 39.59375 43.09375 43.984375 
Q 39.0625 48.390625 32.421875 48.390625 
Q 24.90625 48.390625 20.390625 44.140625 
Q 15.875 39.890625 15.1875 32.171875 
z
" id="DejaVuSans-101"></path>
      <path d="M 34.28125 27.484375 
Q 23.390625 27.484375 19.1875 25 
Q 14.984375 22.515625 14.984375 16.5 
Q 14.984375 11.71875 18.140625 8.90625 
Q 21.296875 6.109375 26.703125 6.109375 
Q 34.1875 6.109375 38.703125 11.40625 
Q 43.21875 16.703125 43.21875 25.484375 
L 43.21875 27.484375 
z
M 52.203125 31.203125 
L 52.203125 0 
L 43.21875 0 
L 43.21875 8.296875 
Q 40.140625 3.328125 35.546875 0.953125 
Q 30.953125 -1.421875 24.3125 -1.421875 
Q 15.921875 -1.421875 10.953125 3.296875 
Q 6 8.015625 6 15.921875 
Q 6 25.140625 12.171875 29.828125 
Q 18.359375 34.515625 30.609375 34.515625 
L 43.21875 34.515625 
L 43.21875 35.40625 
Q 43.21875 41.609375 39.140625 45 
Q 35.0625 48.390625 27.6875 48.390625 
Q 23 48.390625 18.546875 47.265625 
Q 14.109375 46.140625 10.015625 43.890625 
L 10.015625 52.203125 
Q 14.9375 54.109375 19.578125 55.046875 
Q 24.21875 56 28.609375 56 
Q 40.484375 56 46.34375 49.84375 
Q 52.203125 43.703125 52.203125 31.203125 
z
" id="DejaVuSans-97"></path>
      <path d="M 41.109375 46.296875 
Q 39.59375 47.171875 37.8125 47.578125 
Q 36.03125 48 33.890625 48 
Q 26.265625 48 22.1875 43.046875 
Q 18.109375 38.09375 18.109375 28.8125 
L 18.109375 0 
L 9.078125 0 
L 9.078125 54.6875 
L 18.109375 54.6875 
L 18.109375 46.1875 
Q 20.953125 51.171875 25.484375 53.578125 
Q 30.03125 56 36.53125 56 
Q 37.453125 56 38.578125 55.875 
Q 39.703125 55.765625 41.0625 55.515625 
z
" id="DejaVuSans-114"></path>
     </defs>
     <g style="fill:#262626;" transform="translate(312.123047 316.765938)scale(0.15 -0.15)">
      <use xlink:href="#DejaVuSans-121"></use>
      <use x="59.179688" xlink:href="#DejaVuSans-101"></use>
      <use x="120.703125" xlink:href="#DejaVuSans-97"></use>
      <use x="181.982422" xlink:href="#DejaVuSans-114"></use>
     </g>
    </g>
   </g>
   <g id="matplotlib.axis_2">
    <g id="ytick_1">
     <g id="line2d_15">
      <path clip-path="url(#peac7b18f24)" d="M 49.85625 284.318906 
L 607.85625 284.318906 
" style="fill:none;stroke:#ffffff;stroke-linecap:round;stroke-width:0.8;"></path>
     </g>
     <g id="line2d_16"></g>
     <g id="text_9">
      <!-- −8 -->
      <defs>
       <path d="M 10.59375 35.5 
L 73.1875 35.5 
L 73.1875 27.203125 
L 10.59375 27.203125 
z
" id="DejaVuSans-8722"></path>
      </defs>
      <g style="fill:#262626;" transform="translate(25.717188 289.637812)scale(0.14 -0.14)">
       <use xlink:href="#DejaVuSans-8722"></use>
       <use x="83.789062" xlink:href="#DejaVuSans-56"></use>
      </g>
     </g>
    </g>
    <g id="ytick_2">
     <g id="line2d_17">
      <path clip-path="url(#peac7b18f24)" d="M 49.85625 250.343906 
L 607.85625 250.343906 
" style="fill:none;stroke:#ffffff;stroke-linecap:round;stroke-width:0.8;"></path>
     </g>
     <g id="line2d_18"></g>
     <g id="text_10">
      <!-- −6 -->
      <g style="fill:#262626;" transform="translate(25.717188 255.662813)scale(0.14 -0.14)">
       <use xlink:href="#DejaVuSans-8722"></use>
       <use x="83.789062" xlink:href="#DejaVuSans-54"></use>
      </g>
     </g>
    </g>
    <g id="ytick_3">
     <g id="line2d_19">
      <path clip-path="url(#peac7b18f24)" d="M 49.85625 216.368906 
L 607.85625 216.368906 
" style="fill:none;stroke:#ffffff;stroke-linecap:round;stroke-width:0.8;"></path>
     </g>
     <g id="line2d_20"></g>
     <g id="text_11">
      <!-- −4 -->
      <g style="fill:#262626;" transform="translate(25.717188 221.687813)scale(0.14 -0.14)">
       <use xlink:href="#DejaVuSans-8722"></use>
       <use x="83.789062" xlink:href="#DejaVuSans-52"></use>
      </g>
     </g>
    </g>
    <g id="ytick_4">
     <g id="line2d_21">
      <path clip-path="url(#peac7b18f24)" d="M 49.85625 182.393906 
L 607.85625 182.393906 
" style="fill:none;stroke:#ffffff;stroke-linecap:round;stroke-width:0.8;"></path>
     </g>
     <g id="line2d_22"></g>
     <g id="text_12">
      <!-- −2 -->
      <g style="fill:#262626;" transform="translate(25.717188 187.712813)scale(0.14 -0.14)">
       <use xlink:href="#DejaVuSans-8722"></use>
       <use x="83.789062" xlink:href="#DejaVuSans-50"></use>
      </g>
     </g>
    </g>
    <g id="ytick_5">
     <g id="line2d_23">
      <path clip-path="url(#peac7b18f24)" d="M 49.85625 148.418906 
L 607.85625 148.418906 
" style="fill:none;stroke:#ffffff;stroke-linecap:round;stroke-width:0.8;"></path>
     </g>
     <g id="line2d_24"></g>
     <g id="text_13">
      <!-- 0 -->
      <g style="fill:#262626;" transform="translate(37.44875 153.737813)scale(0.14 -0.14)">
       <use xlink:href="#DejaVuSans-48"></use>
      </g>
     </g>
    </g>
    <g id="ytick_6">
     <g id="line2d_25">
      <path clip-path="url(#peac7b18f24)" d="M 49.85625 114.443906 
L 607.85625 114.443906 
" style="fill:none;stroke:#ffffff;stroke-linecap:round;stroke-width:0.8;"></path>
     </g>
     <g id="line2d_26"></g>
     <g id="text_14">
      <!-- 2 -->
      <g style="fill:#262626;" transform="translate(37.44875 119.762813)scale(0.14 -0.14)">
       <use xlink:href="#DejaVuSans-50"></use>
      </g>
     </g>
    </g>
    <g id="ytick_7">
     <g id="line2d_27">
      <path clip-path="url(#peac7b18f24)" d="M 49.85625 80.468906 
L 607.85625 80.468906 
" style="fill:none;stroke:#ffffff;stroke-linecap:round;stroke-width:0.8;"></path>
     </g>
     <g id="line2d_28"></g>
     <g id="text_15">
      <!-- 4 -->
      <g style="fill:#262626;" transform="translate(37.44875 85.787813)scale(0.14 -0.14)">
       <use xlink:href="#DejaVuSans-52"></use>
      </g>
     </g>
    </g>
    <g id="ytick_8">
     <g id="line2d_29">
      <path clip-path="url(#peac7b18f24)" d="M 49.85625 46.493906 
L 607.85625 46.493906 
" style="fill:none;stroke:#ffffff;stroke-linecap:round;stroke-width:0.8;"></path>
     </g>
     <g id="line2d_30"></g>
     <g id="text_16">
      <!-- 6 -->
      <g style="fill:#262626;" transform="translate(37.44875 51.812813)scale(0.14 -0.14)">
       <use xlink:href="#DejaVuSans-54"></use>
      </g>
     </g>
    </g>
    <g id="ytick_9">
     <g id="line2d_31">
      <path clip-path="url(#peac7b18f24)" d="M 49.85625 12.518906 
L 607.85625 12.518906 
" style="fill:none;stroke:#ffffff;stroke-linecap:round;stroke-width:0.8;"></path>
     </g>
     <g id="line2d_32"></g>
     <g id="text_17">
      <!-- 8 -->
      <g style="fill:#262626;" transform="translate(37.44875 17.837812)scale(0.14 -0.14)">
       <use xlink:href="#DejaVuSans-56"></use>
      </g>
     </g>
    </g>
    <g id="text_18">
     <!-- basis * weight -->
     <defs>
      <path d="M 48.6875 27.296875 
Q 48.6875 37.203125 44.609375 42.84375 
Q 40.53125 48.484375 33.40625 48.484375 
Q 26.265625 48.484375 22.1875 42.84375 
Q 18.109375 37.203125 18.109375 27.296875 
Q 18.109375 17.390625 22.1875 11.75 
Q 26.265625 6.109375 33.40625 6.109375 
Q 40.53125 6.109375 44.609375 11.75 
Q 48.6875 17.390625 48.6875 27.296875 
z
M 18.109375 46.390625 
Q 20.953125 51.265625 25.265625 53.625 
Q 29.59375 56 35.59375 56 
Q 45.5625 56 51.78125 48.09375 
Q 58.015625 40.1875 58.015625 27.296875 
Q 58.015625 14.40625 51.78125 6.484375 
Q 45.5625 -1.421875 35.59375 -1.421875 
Q 29.59375 -1.421875 25.265625 0.953125 
Q 20.953125 3.328125 18.109375 8.203125 
L 18.109375 0 
L 9.078125 0 
L 9.078125 75.984375 
L 18.109375 75.984375 
z
" id="DejaVuSans-98"></path>
      <path d="M 44.28125 53.078125 
L 44.28125 44.578125 
Q 40.484375 46.53125 36.375 47.5 
Q 32.28125 48.484375 27.875 48.484375 
Q 21.1875 48.484375 17.84375 46.4375 
Q 14.5 44.390625 14.5 40.28125 
Q 14.5 37.15625 16.890625 35.375 
Q 19.28125 33.59375 26.515625 31.984375 
L 29.59375 31.296875 
Q 39.15625 29.25 43.1875 25.515625 
Q 47.21875 21.78125 47.21875 15.09375 
Q 47.21875 7.46875 41.1875 3.015625 
Q 35.15625 -1.421875 24.609375 -1.421875 
Q 20.21875 -1.421875 15.453125 -0.5625 
Q 10.6875 0.296875 5.421875 2 
L 5.421875 11.28125 
Q 10.40625 8.6875 15.234375 7.390625 
Q 20.0625 6.109375 24.8125 6.109375 
Q 31.15625 6.109375 34.5625 8.28125 
Q 37.984375 10.453125 37.984375 14.40625 
Q 37.984375 18.0625 35.515625 20.015625 
Q 33.0625 21.96875 24.703125 23.78125 
L 21.578125 24.515625 
Q 13.234375 26.265625 9.515625 29.90625 
Q 5.8125 33.546875 5.8125 39.890625 
Q 5.8125 47.609375 11.28125 51.796875 
Q 16.75 56 26.8125 56 
Q 31.78125 56 36.171875 55.265625 
Q 40.578125 54.546875 44.28125 53.078125 
z
" id="DejaVuSans-115"></path>
      <path d="M 9.421875 54.6875 
L 18.40625 54.6875 
L 18.40625 0 
L 9.421875 0 
z
M 9.421875 75.984375 
L 18.40625 75.984375 
L 18.40625 64.59375 
L 9.421875 64.59375 
z
" id="DejaVuSans-105"></path>
      <path id="DejaVuSans-32"></path>
      <path d="M 47.015625 60.890625 
L 29.5 51.421875 
L 47.015625 41.890625 
L 44.1875 37.109375 
L 27.78125 47.015625 
L 27.78125 28.609375 
L 22.21875 28.609375 
L 22.21875 47.015625 
L 5.8125 37.109375 
L 2.984375 41.890625 
L 20.515625 51.421875 
L 2.984375 60.890625 
L 5.8125 65.71875 
L 22.21875 55.8125 
L 22.21875 74.21875 
L 27.78125 74.21875 
L 27.78125 55.8125 
L 44.1875 65.71875 
z
" id="DejaVuSans-42"></path>
      <path d="M 4.203125 54.6875 
L 13.1875 54.6875 
L 24.421875 12.015625 
L 35.59375 54.6875 
L 46.1875 54.6875 
L 57.421875 12.015625 
L 68.609375 54.6875 
L 77.59375 54.6875 
L 63.28125 0 
L 52.6875 0 
L 40.921875 44.828125 
L 29.109375 0 
L 18.5 0 
z
" id="DejaVuSans-119"></path>
      <path d="M 45.40625 27.984375 
Q 45.40625 37.75 41.375 43.109375 
Q 37.359375 48.484375 30.078125 48.484375 
Q 22.859375 48.484375 18.828125 43.109375 
Q 14.796875 37.75 14.796875 27.984375 
Q 14.796875 18.265625 18.828125 12.890625 
Q 22.859375 7.515625 30.078125 7.515625 
Q 37.359375 7.515625 41.375 12.890625 
Q 45.40625 18.265625 45.40625 27.984375 
z
M 54.390625 6.78125 
Q 54.390625 -7.171875 48.1875 -13.984375 
Q 42 -20.796875 29.203125 -20.796875 
Q 24.46875 -20.796875 20.265625 -20.09375 
Q 16.0625 -19.390625 12.109375 -17.921875 
L 12.109375 -9.1875 
Q 16.0625 -11.328125 19.921875 -12.34375 
Q 23.78125 -13.375 27.78125 -13.375 
Q 36.625 -13.375 41.015625 -8.765625 
Q 45.40625 -4.15625 45.40625 5.171875 
L 45.40625 9.625 
Q 42.625 4.78125 38.28125 2.390625 
Q 33.9375 0 27.875 0 
Q 17.828125 0 11.671875 7.65625 
Q 5.515625 15.328125 5.515625 27.984375 
Q 5.515625 40.671875 11.671875 48.328125 
Q 17.828125 56 27.875 56 
Q 33.9375 56 38.28125 53.609375 
Q 42.625 51.21875 45.40625 46.390625 
L 45.40625 54.6875 
L 54.390625 54.6875 
z
" id="DejaVuSans-103"></path>
      <path d="M 54.890625 33.015625 
L 54.890625 0 
L 45.90625 0 
L 45.90625 32.71875 
Q 45.90625 40.484375 42.875 44.328125 
Q 39.84375 48.1875 33.796875 48.1875 
Q 26.515625 48.1875 22.3125 43.546875 
Q 18.109375 38.921875 18.109375 30.90625 
L 18.109375 0 
L 9.078125 0 
L 9.078125 75.984375 
L 18.109375 75.984375 
L 18.109375 46.1875 
Q 21.34375 51.125 25.703125 53.5625 
Q 30.078125 56 35.796875 56 
Q 45.21875 56 50.046875 50.171875 
Q 54.890625 44.34375 54.890625 33.015625 
z
" id="DejaVuSans-104"></path>
      <path d="M 18.3125 70.21875 
L 18.3125 54.6875 
L 36.8125 54.6875 
L 36.8125 47.703125 
L 18.3125 47.703125 
L 18.3125 18.015625 
Q 18.3125 11.328125 20.140625 9.421875 
Q 21.96875 7.515625 27.59375 7.515625 
L 36.8125 7.515625 
L 36.8125 0 
L 27.59375 0 
Q 17.1875 0 13.234375 3.875 
Q 9.28125 7.765625 9.28125 18.015625 
L 9.28125 47.703125 
L 2.6875 47.703125 
L 2.6875 54.6875 
L 9.28125 54.6875 
L 9.28125 70.21875 
z
" id="DejaVuSans-116"></path>
     </defs>
     <g style="fill:#262626;" transform="translate(18.597656 201.477891)rotate(-90)scale(0.15 -0.15)">
      <use xlink:href="#DejaVuSans-98"></use>
      <use x="63.476562" xlink:href="#DejaVuSans-97"></use>
      <use x="124.755859" xlink:href="#DejaVuSans-115"></use>
      <use x="176.855469" xlink:href="#DejaVuSans-105"></use>
      <use x="204.638672" xlink:href="#DejaVuSans-115"></use>
      <use x="256.738281" xlink:href="#DejaVuSans-32"></use>
      <use x="288.525391" xlink:href="#DejaVuSans-42"></use>
      <use x="338.525391" xlink:href="#DejaVuSans-32"></use>
      <use x="370.3125" xlink:href="#DejaVuSans-119"></use>
      <use x="452.099609" xlink:href="#DejaVuSans-101"></use>
      <use x="513.623047" xlink:href="#DejaVuSans-105"></use>
      <use x="541.40625" xlink:href="#DejaVuSans-103"></use>
      <use x="604.882812" xlink:href="#DejaVuSans-104"></use>
      <use x="668.261719" xlink:href="#DejaVuSans-116"></use>
     </g>
    </g>
   </g>
   <g id="PathCollection_1">
    <defs>
     <path d="M -3 0 
L 3 0 
M 0 3 
L 0 -3 
" id="m59262e25cf" style="stroke:#2a2eec;stroke-width:1.5;"></path>
    </defs>
    <g clip-path="url(#peac7b18f24)">
     <use style="fill:#2a2eec;stroke:#2a2eec;stroke-width:1.5;" x="89.628167" xlink:href="#m59262e25cf" y="21.012656"></use>
     <use style="fill:#2a2eec;stroke:#2a2eec;stroke-width:1.5;" x="89.628167" xlink:href="#m59262e25cf" y="21.012656"></use>
     <use style="fill:#2a2eec;stroke:#2a2eec;stroke-width:1.5;" x="89.628167" xlink:href="#m59262e25cf" y="21.012656"></use>
     <use style="fill:#2a2eec;stroke:#2a2eec;stroke-width:1.5;" x="89.628167" xlink:href="#m59262e25cf" y="21.012656"></use>
     <use style="fill:#2a2eec;stroke:#2a2eec;stroke-width:1.5;" x="178.717262" xlink:href="#m59262e25cf" y="21.012656"></use>
     <use style="fill:#2a2eec;stroke:#2a2eec;stroke-width:1.5;" x="233.602508" xlink:href="#m59262e25cf" y="21.012656"></use>
     <use style="fill:#2a2eec;stroke:#2a2eec;stroke-width:1.5;" x="271.385829" xlink:href="#m59262e25cf" y="21.012656"></use>
     <use style="fill:#2a2eec;stroke:#2a2eec;stroke-width:1.5;" x="314.3395" xlink:href="#m59262e25cf" y="21.012656"></use>
     <use style="fill:#2a2eec;stroke:#2a2eec;stroke-width:1.5;" x="344.963877" xlink:href="#m59262e25cf" y="21.012656"></use>
     <use style="fill:#2a2eec;stroke:#2a2eec;stroke-width:1.5;" x="370.417904" xlink:href="#m59262e25cf" y="21.012656"></use>
     <use style="fill:#2a2eec;stroke:#2a2eec;stroke-width:1.5;" x="396.26965" xlink:href="#m59262e25cf" y="21.012656"></use>
     <use style="fill:#2a2eec;stroke:#2a2eec;stroke-width:1.5;" x="422.916834" xlink:href="#m59262e25cf" y="21.012656"></use>
     <use style="fill:#2a2eec;stroke:#2a2eec;stroke-width:1.5;" x="448.370862" xlink:href="#m59262e25cf" y="21.012656"></use>
     <use style="fill:#2a2eec;stroke:#2a2eec;stroke-width:1.5;" x="472.234012" xlink:href="#m59262e25cf" y="21.012656"></use>
     <use style="fill:#2a2eec;stroke:#2a2eec;stroke-width:1.5;" x="495.699443" xlink:href="#m59262e25cf" y="21.012656"></use>
     <use style="fill:#2a2eec;stroke:#2a2eec;stroke-width:1.5;" x="519.562594" xlink:href="#m59262e25cf" y="21.012656"></use>
     <use style="fill:#2a2eec;stroke:#2a2eec;stroke-width:1.5;" x="544.618901" xlink:href="#m59262e25cf" y="21.012656"></use>
     <use style="fill:#2a2eec;stroke:#2a2eec;stroke-width:1.5;" x="568.084333" xlink:href="#m59262e25cf" y="21.012656"></use>
     <use style="fill:#2a2eec;stroke:#2a2eec;stroke-width:1.5;" x="568.084333" xlink:href="#m59262e25cf" y="21.012656"></use>
     <use style="fill:#2a2eec;stroke:#2a2eec;stroke-width:1.5;" x="568.084333" xlink:href="#m59262e25cf" y="21.012656"></use>
     <use style="fill:#2a2eec;stroke:#2a2eec;stroke-width:1.5;" x="568.084333" xlink:href="#m59262e25cf" y="21.012656"></use>
    </g>
   </g>
   <g id="line2d_33">
    <path clip-path="url(#peac7b18f24)" d="M 89.628167 173.16665 
L 90.821325 172.185578 
L 97.184832 167.388287 
L 105.934653 161.913034 
L 112.29816 158.674032 
L 121.445701 154.993653 
L 125.422893 153.716833 
L 131.388681 152.129406 
L 136.55903 151.041368 
L 140.933941 150.306734 
L 148.092886 149.424132 
L 154.058673 148.943673 
L 160.819899 148.619552 
L 171.558317 148.431748 
L 193.432872 148.418906 
L 568.084333 148.418906 
L 568.084333 148.418906 
" style="fill:none;stroke:#000000;stroke-linecap:round;stroke-opacity:0.5;stroke-width:1.5;"></path>
   </g>
   <g id="line2d_34">
    <path clip-path="url(#peac7b18f24)" d="M 89.628167 148.418906 
L 90.821325 147.703242 
L 97.184832 144.400315 
L 105.934653 141.16103 
L 112.29816 139.645823 
L 121.445701 138.530532 
L 125.422893 138.384199 
L 131.388681 138.491089 
L 137.752187 138.970876 
L 144.513413 139.80705 
L 152.070078 141.024246 
L 164.399372 143.314004 
L 171.956036 144.691087 
L 180.705858 146.050589 
L 188.262522 146.927488 
L 193.432872 147.381739 
L 202.580413 147.941191 
L 212.125673 148.260393 
L 222.068652 148.394355 
L 247.920398 148.418906 
L 568.084333 148.418906 
L 568.084333 148.418906 
" style="fill:none;stroke:#000000;stroke-linecap:round;stroke-opacity:0.5;stroke-width:1.5;"></path>
   </g>
   <g id="line2d_35">
    <path clip-path="url(#peac7b18f24)" d="M 89.628167 148.418906 
L 90.821325 148.415141 
L 97.184832 148.275545 
L 105.934653 147.800357 
L 112.29816 147.292283 
L 129.400085 145.521191 
L 148.888324 143.427428 
L 158.433584 142.6419 
L 166.785687 142.201736 
L 171.956036 142.078838 
L 178.717262 142.125194 
L 184.285331 142.356017 
L 193.432872 143.050949 
L 203.77357 144.156041 
L 230.420755 147.187426 
L 237.977419 147.750098 
L 245.931802 148.123103 
L 255.874782 148.351971 
L 269.794953 148.418834 
L 568.084333 148.418906 
L 568.084333 148.418906 
" style="fill:none;stroke:#000000;stroke-linecap:round;stroke-opacity:0.5;stroke-width:1.5;"></path>
   </g>
   <g id="line2d_36">
    <path clip-path="url(#peac7b18f24)" d="M 89.628167 148.418906 
L 97.184832 148.398114 
L 105.934653 148.209982 
L 112.29816 147.857521 
L 122.638859 146.685618 
L 125.422893 146.20905 
L 129.797804 145.2957 
L 134.968153 143.927824 
L 137.752187 143.04868 
L 140.933941 141.911535 
L 146.502009 139.554603 
L 150.479201 137.561883 
L 154.058673 135.531025 
L 156.047269 134.300493 
L 160.819899 131.033071 
L 165.990249 126.963331 
L 169.96744 123.433259 
L 171.956036 121.531587 
L 177.921824 115.25273 
L 180.705858 112.018657 
L 184.285331 107.623324 
L 200.194097 87.359568 
L 203.77357 83.219653 
L 206.955323 79.84589 
L 209.739358 77.187721 
L 212.125673 75.164954 
L 214.909707 73.144844 
L 216.500584 72.171855 
L 217.693741 71.535368 
L 220.477775 70.383477 
L 222.068652 69.948752 
L 224.454967 69.624725 
L 226.443563 69.674234 
L 228.432159 70.032484 
L 230.420755 70.71656 
L 232.011631 71.509925 
L 234.000227 72.823571 
L 235.591104 74.134632 
L 237.5797 76.075748 
L 239.170576 77.850307 
L 241.556891 80.842823 
L 245.136364 85.965147 
L 247.920398 90.368681 
L 251.89759 97.105814 
L 265.420042 120.654123 
L 268.999514 126.170199 
L 271.385829 129.490836 
L 273.772145 132.473499 
L 275.76074 134.705343 
L 278.544775 137.465162 
L 280.53337 139.19124 
L 281.726528 140.134209 
L 284.510562 142.079934 
L 288.090035 144.099074 
L 290.47635 145.173352 
L 293.260384 146.181923 
L 296.442137 147.049688 
L 302.010206 147.971275 
L 305.987398 148.279753 
L 310.760028 148.407953 
L 324.680199 148.418906 
L 568.084333 148.418906 
L 568.084333 148.418906 
" style="fill:none;stroke:#000000;stroke-linecap:round;stroke-opacity:0.5;stroke-width:1.5;"></path>
   </g>
   <g id="line2d_37">
    <path clip-path="url(#peac7b18f24)" d="M 89.628167 148.418906 
L 193.432872 148.350445 
L 203.77357 148.080949 
L 212.125673 147.617822 
L 217.693741 147.146814 
L 224.454967 146.363328 
L 230.818474 145.38044 
L 236.784261 144.216874 
L 245.534083 142.234676 
L 254.283905 140.317298 
L 258.261097 139.587479 
L 263.431446 138.864798 
L 267.408638 138.535636 
L 271.385829 138.449586 
L 275.363021 138.63441 
L 279.340213 139.061846 
L 284.112843 139.835494 
L 289.283192 140.914444 
L 296.442137 142.652816 
L 307.975993 145.474448 
L 313.544062 146.587139 
L 318.316692 147.301442 
L 322.691603 147.766417 
L 328.65739 148.162835 
L 335.816336 148.373701 
L 346.554753 148.418906 
L 568.084333 148.418906 
L 568.084333 148.418906 
" style="fill:none;stroke:#000000;stroke-linecap:round;stroke-opacity:0.5;stroke-width:1.5;"></path>
   </g>
   <g id="line2d_38">
    <path clip-path="url(#peac7b18f24)" d="M 89.628167 148.418906 
L 240.363734 148.323996 
L 244.738645 147.994832 
L 247.920398 147.517593 
L 250.306713 146.987655 
L 253.090748 146.146132 
L 255.874782 145.02631 
L 258.261097 143.814823 
L 261.44285 141.792742 
L 263.829165 139.938652 
L 265.420042 138.527956 
L 267.408638 136.555078 
L 269.794953 133.861223 
L 272.181268 130.788255 
L 275.363021 126.131526 
L 278.544775 120.987437 
L 281.726528 115.529885 
L 290.47635 100.32502 
L 294.055822 94.637682 
L 296.442137 91.206508 
L 301.214767 85.539206 
L 303.203363 83.758779 
L 303.998802 83.157346 
L 306.782836 81.600595 
L 307.975993 81.214876 
L 309.169151 81.01128 
L 310.760028 81.038963 
L 311.555466 81.187121 
L 312.748623 81.584909 
L 314.3395 82.457231 
L 315.532658 83.375745 
L 317.123534 84.933452 
L 318.714411 86.838607 
L 322.691603 92.884326 
L 324.680199 96.460259 
L 328.259671 103.541391 
L 333.43002 114.505474 
L 338.202651 124.437656 
L 340.986685 129.747155 
L 343.373 133.830552 
L 345.361596 136.810597 
L 347.350192 139.360927 
L 349.338787 141.507365 
L 350.531945 142.615843 
L 352.91826 144.464281 
L 354.906856 145.665051 
L 356.895452 146.594237 
L 358.884048 147.286659 
L 361.270363 147.854059 
L 363.656678 148.190823 
L 366.838431 148.385063 
L 372.406499 148.418906 
L 568.084333 148.418906 
L 568.084333 148.418906 
" style="fill:none;stroke:#000000;stroke-linecap:round;stroke-opacity:0.5;stroke-width:1.5;"></path>
   </g>
   <g id="line2d_39">
    <path clip-path="url(#peac7b18f24)" d="M 89.628167 148.418906 
L 279.340213 148.518816 
L 284.112843 148.828136 
L 286.499158 149.104186 
L 290.47635 149.800056 
L 293.260384 150.496712 
L 296.442137 151.541666 
L 301.214767 153.687573 
L 303.998802 155.304771 
L 307.578274 157.830022 
L 309.964589 159.816997 
L 312.350904 162.065637 
L 314.737219 164.592043 
L 317.521254 167.871102 
L 318.714411 169.356834 
L 328.259671 181.475489 
L 331.043705 184.58428 
L 333.43002 186.898852 
L 335.418616 188.513191 
L 337.009493 189.561958 
L 338.60037 190.366582 
L 339.793527 190.794054 
L 340.986685 191.05839 
L 342.577561 191.137947 
L 343.770719 190.978602 
L 344.963877 190.61925 
L 346.157034 190.053304 
L 347.747911 188.997709 
L 349.338787 187.632461 
L 350.531945 186.427866 
L 352.91826 183.622644 
L 355.702294 179.824606 
L 358.884048 175.037291 
L 366.440712 163.460211 
L 368.827027 160.226855 
L 370.815623 157.848249 
L 372.804219 155.806407 
L 374.792815 154.0829 
L 376.78141 152.650751 
L 378.770006 151.482982 
L 380.758602 150.552616 
L 383.144917 149.711563 
L 385.531232 149.126905 
L 388.315266 148.706667 
L 391.49702 148.481063 
L 396.26965 148.418906 
L 568.084333 148.418906 
L 568.084333 148.418906 
" style="fill:none;stroke:#000000;stroke-linecap:round;stroke-opacity:0.5;stroke-width:1.5;"></path>
   </g>
   <g id="line2d_40">
    <path clip-path="url(#peac7b18f24)" d="M 89.628167 148.418906 
L 318.714411 148.320917 
L 322.691603 147.737103 
L 324.680199 147.124945 
L 327.066514 146.006496 
L 328.65739 144.98405 
L 330.645986 143.34488 
L 332.236863 141.710202 
L 333.82774 139.757481 
L 335.418616 137.458447 
L 337.009493 134.784831 
L 338.60037 131.708361 
L 339.793527 129.119627 
L 341.782123 124.233779 
L 343.770719 118.58595 
L 345.759315 112.123818 
L 348.14563 103.391183 
L 350.531945 93.930269 
L 357.69089 64.899245 
L 360.077205 56.246617 
L 362.065801 49.885328 
L 363.656678 45.507228 
L 364.849835 42.710723 
L 366.042993 40.383386 
L 367.23615 38.571752 
L 368.031589 37.673448 
L 368.827027 37.038808 
L 369.622465 36.68161 
L 370.417904 36.615617 
L 371.213342 36.849991 
L 372.00878 37.375277 
L 372.804219 38.177398 
L 373.599657 39.242276 
L 374.792815 41.301414 
L 375.985972 43.872521 
L 377.17913 46.908057 
L 378.770006 51.595708 
L 380.758602 58.325851 
L 383.144917 67.388353 
L 386.326671 80.52108 
L 391.894739 103.858662 
L 394.678773 114.446152 
L 396.667369 121.109945 
L 398.258246 125.780363 
L 399.849122 129.885409 
L 401.439999 133.461556 
L 403.030876 136.54528 
L 404.621752 139.173055 
L 405.81491 140.866615 
L 407.803506 143.206669 
L 409.394383 144.685458 
L 410.58754 145.589088 
L 412.576136 146.749379 
L 414.167013 147.407463 
L 416.155609 147.952225 
L 418.144204 148.254765 
L 420.530519 148.398389 
L 426.098588 148.418906 
L 568.084333 148.418906 
L 568.084333 148.418906 
" style="fill:none;stroke:#000000;stroke-linecap:round;stroke-opacity:0.5;stroke-width:1.5;"></path>
   </g>
   <g id="line2d_41">
    <path clip-path="url(#peac7b18f24)" d="M 89.628167 148.418906 
L 354.509137 148.31243 
L 359.679486 148.028763 
L 364.054397 147.567097 
L 368.031589 146.916102 
L 371.611061 146.103163 
L 375.985972 144.846399 
L 387.519828 141.377165 
L 390.303862 140.771268 
L 393.485616 140.307362 
L 396.26965 140.153182 
L 398.655965 140.235225 
L 401.439999 140.556582 
L 404.621752 141.166898 
L 408.201225 142.083988 
L 413.371574 143.653964 
L 420.928239 145.930924 
L 424.507711 146.780617 
L 428.087184 147.412792 
L 432.064375 147.896163 
L 436.837006 148.233924 
L 442.405074 148.393308 
L 453.541211 148.418906 
L 568.084333 148.418906 
L 568.084333 148.418906 
" style="fill:none;stroke:#000000;stroke-linecap:round;stroke-opacity:0.5;stroke-width:1.5;"></path>
   </g>
   <g id="line2d_42">
    <path clip-path="url(#peac7b18f24)" d="M 89.628167 148.418906 
L 375.588253 148.31208 
L 378.372287 148.029917 
L 380.758602 147.564297 
L 382.747198 146.970359 
L 384.338075 146.334167 
L 386.326671 145.306992 
L 388.315266 143.988075 
L 390.303862 142.340949 
L 391.894739 140.762431 
L 393.883335 138.432628 
L 395.474212 136.260706 
L 397.462807 133.135259 
L 399.849122 128.855477 
L 402.633157 123.36516 
L 410.58754 107.284741 
L 412.973855 103.085491 
L 414.564732 100.618392 
L 416.553328 98.005317 
L 418.144204 96.358653 
L 419.337362 95.41869 
L 420.530519 94.757436 
L 421.723677 94.398141 
L 422.916834 94.364051 
L 424.109992 94.67035 
L 425.30315 95.300025 
L 426.894026 96.59928 
L 428.087184 97.885988 
L 429.67806 99.970285 
L 431.268937 102.421455 
L 433.257533 105.910797 
L 435.643848 110.568672 
L 439.62104 118.952795 
L 443.995951 128.106589 
L 446.382266 132.642983 
L 449.1663 137.191777 
L 451.154896 139.852231 
L 452.745772 141.649152 
L 454.336649 143.175395 
L 456.325245 144.73622 
L 458.313841 145.951794 
L 460.302437 146.865273 
L 462.291033 147.519813 
L 464.279628 147.958571 
L 466.665944 148.261011 
L 469.847697 148.406477 
L 478.995238 148.418906 
L 568.084333 148.418906 
L 568.084333 148.418906 
" style="fill:none;stroke:#000000;stroke-linecap:round;stroke-opacity:0.5;stroke-width:1.5;"></path>
   </g>
   <g id="line2d_43">
    <path clip-path="url(#peac7b18f24)" d="M 89.628167 148.418906 
L 400.644561 148.331495 
L 403.030876 148.096253 
L 405.019472 147.719616 
L 407.008068 147.126258 
L 408.996663 146.266922 
L 410.58754 145.354851 
L 412.576136 143.892634 
L 414.167013 142.434423 
L 415.757889 140.692503 
L 416.951047 139.184708 
L 418.939643 136.256662 
L 420.530519 133.512304 
L 421.723677 131.203031 
L 423.712273 126.846884 
L 425.30315 122.931958 
L 428.087184 115.415609 
L 437.234725 89.853273 
L 439.223321 85.184827 
L 440.814197 81.92877 
L 442.405074 79.188569 
L 443.598231 77.522125 
L 444.791389 76.227961 
L 445.984547 75.34124 
L 446.382266 75.142297 
L 447.973142 74.86441 
L 448.768581 75.05398 
L 449.564019 75.46528 
L 450.359457 76.087113 
L 451.552615 77.389151 
L 452.745772 79.099401 
L 453.93893 81.178559 
L 455.529807 84.456706 
L 457.120683 88.22767 
L 459.109279 93.49247 
L 461.893313 101.565868 
L 469.052259 122.815296 
L 471.040854 128.00599 
L 473.02945 132.550141 
L 474.620327 135.661977 
L 476.211204 138.337832 
L 477.80208 140.610614 
L 479.392957 142.513223 
L 480.983834 144.078566 
L 482.57471 145.339547 
L 484.165587 146.329069 
L 485.756464 147.080036 
L 487.74506 147.733405 
L 489.733656 148.12971 
L 492.119971 148.35644 
L 495.699443 148.418906 
L 568.084333 148.418906 
L 568.084333 148.418906 
" style="fill:none;stroke:#000000;stroke-linecap:round;stroke-opacity:0.5;stroke-width:1.5;"></path>
   </g>
   <g id="line2d_44">
    <path clip-path="url(#peac7b18f24)" d="M 89.628167 148.418906 
L 430.07578 148.311488 
L 434.052971 148.014579 
L 437.234725 147.559564 
L 440.018759 146.954492 
L 442.802793 146.116571 
L 445.189108 145.184291 
L 446.382266 144.636095 
L 449.564019 142.881393 
L 452.348053 141.03468 
L 457.518403 137.257021 
L 461.495594 134.464473 
L 464.279628 132.786275 
L 466.268224 131.8076 
L 468.25682 131.06418 
L 469.847697 130.669598 
L 471.438574 130.478326 
L 473.02945 130.512809 
L 474.620327 130.772601 
L 476.211204 131.234355 
L 478.1998 132.058476 
L 480.188395 133.112588 
L 482.57471 134.614175 
L 485.756464 136.882997 
L 493.710847 142.681665 
L 496.097162 144.120414 
L 498.483477 145.302976 
L 500.869792 146.245936 
L 503.653827 147.079414 
L 506.437861 147.666761 
L 509.619614 148.091882 
L 513.199087 148.333179 
L 518.369436 148.418341 
L 568.084333 148.418906 
L 568.084333 148.418906 
" style="fill:none;stroke:#000000;stroke-linecap:round;stroke-opacity:0.5;stroke-width:1.5;"></path>
   </g>
   <g id="line2d_45">
    <path clip-path="url(#peac7b18f24)" d="M 89.628167 148.418906 
L 452.348053 148.322075 
L 454.336649 148.0921 
L 456.325245 147.644254 
L 457.916122 147.080307 
L 459.506998 146.293261 
L 461.097875 145.245931 
L 462.688752 143.901135 
L 464.279628 142.221689 
L 465.870505 140.17041 
L 467.461382 137.710115 
L 469.052259 134.80362 
L 470.643135 131.413742 
L 472.234012 127.503297 
L 474.222608 121.875377 
L 476.608923 114.281763 
L 480.188395 101.96618 
L 484.165587 88.375642 
L 486.551902 80.973642 
L 488.540498 75.57567 
L 490.131375 71.920155 
L 491.324532 69.639249 
L 492.51769 67.806117 
L 493.710847 66.468365 
L 494.506286 65.875239 
L 495.301724 65.537539 
L 496.097162 65.468792 
L 496.892601 65.669217 
L 497.688039 66.125756 
L 498.483477 66.824769 
L 499.676635 68.298079 
L 500.869792 70.240216 
L 502.06295 72.605139 
L 503.653827 76.336456 
L 505.244703 80.628397 
L 507.233299 86.615461 
L 510.017333 95.776677 
L 516.778559 118.447974 
L 518.767155 124.323327 
L 520.755751 129.464739 
L 522.346628 133.008466 
L 523.937504 136.080446 
L 525.528381 138.714373 
L 527.119258 140.943945 
L 528.710135 142.802857 
L 530.301011 144.324806 
L 532.289607 145.804723 
L 533.880484 146.691708 
L 535.47136 147.351243 
L 537.459956 147.907144 
L 539.448552 148.226118 
L 541.834867 148.388808 
L 546.607497 148.418906 
L 568.084333 148.418906 
L 568.084333 148.418906 
" style="fill:none;stroke:#000000;stroke-linecap:round;stroke-opacity:0.5;stroke-width:1.5;"></path>
   </g>
   <g id="line2d_46">
    <path clip-path="url(#peac7b18f24)" d="M 89.628167 148.418906 
L 478.1998 148.308494 
L 481.381553 148.020864 
L 484.165587 147.535605 
L 486.551902 146.892561 
L 488.938217 145.995127 
L 490.926813 145.022351 
L 492.915409 143.818934 
L 494.904005 142.360342 
L 496.892601 140.62547 
L 499.278916 138.224983 
L 502.460669 134.68246 
L 508.824176 127.512953 
L 510.812772 125.536883 
L 513.199087 123.500046 
L 514.789963 122.401501 
L 516.38084 121.552729 
L 517.971717 120.989989 
L 519.164874 120.77745 
L 519.960313 120.743842 
L 521.551189 120.934465 
L 523.142066 121.440831 
L 524.732943 122.228696 
L 526.323819 123.263826 
L 528.312415 124.853285 
L 530.301011 126.708717 
L 533.482765 130.063704 
L 542.630306 140.06892 
L 545.016621 142.192803 
L 547.005217 143.668181 
L 548.993812 144.889871 
L 550.982408 145.881806 
L 553.368723 146.802549 
L 555.755038 147.468263 
L 558.141353 147.920306 
L 560.925388 148.232805 
L 564.50486 148.395644 
L 568.084333 148.418906 
L 568.084333 148.418906 
" style="fill:none;stroke:#000000;stroke-linecap:round;stroke-opacity:0.5;stroke-width:1.5;"></path>
   </g>
   <g id="line2d_47">
    <path clip-path="url(#peac7b18f24)" d="M 89.628167 148.418906 
L 504.051546 148.310939 
L 508.426457 148.036889 
L 512.005929 147.615409 
L 515.585402 146.961626 
L 518.767155 146.144244 
L 521.948909 145.07815 
L 526.721539 143.181884 
L 532.289607 141.000631 
L 535.47136 140.002574 
L 537.857676 139.464292 
L 539.846271 139.194146 
L 542.232586 139.127832 
L 544.221182 139.321773 
L 546.209778 139.766695 
L 548.198374 140.435112 
L 550.584689 141.461973 
L 554.164162 143.282032 
L 560.129949 146.34162 
L 562.516264 147.322648 
L 564.50486 147.938865 
L 566.493456 148.318751 
L 568.084333 148.418906 
L 568.084333 148.418906 
" style="fill:none;stroke:#000000;stroke-linecap:round;stroke-opacity:0.5;stroke-width:1.5;"></path>
   </g>
   <g id="line2d_48">
    <path clip-path="url(#peac7b18f24)" d="M 89.628167 148.418906 
L 523.539785 148.513099 
L 525.9261 148.804718 
L 527.914696 149.291222 
L 529.505573 149.890662 
L 531.494169 150.9621 
L 533.085045 152.121043 
L 534.675922 153.58743 
L 536.266799 155.39743 
L 537.857676 157.587213 
L 539.448552 160.19295 
L 541.039429 163.250812 
L 542.630306 166.796966 
L 544.221182 170.867583 
L 546.209778 176.695183 
L 551.380127 192.553862 
L 552.971004 196.534562 
L 554.164162 198.932271 
L 554.9596 200.184362 
L 555.755038 201.117975 
L 556.550477 201.697671 
L 557.345915 201.887991 
L 558.141353 201.65348 
L 558.936792 200.958683 
L 559.73223 199.76815 
L 560.527668 198.046433 
L 561.323107 195.758078 
L 562.118545 192.867622 
L 562.913983 189.339617 
L 564.107141 182.774659 
L 565.300298 174.575796 
L 566.493456 164.623372 
L 567.686614 152.797736 
L 568.084333 148.418906 
L 568.084333 148.418906 
" style="fill:none;stroke:#000000;stroke-linecap:round;stroke-opacity:0.5;stroke-width:1.5;"></path>
   </g>
   <g id="line2d_49">
    <path clip-path="url(#peac7b18f24)" d="M 89.628167 148.418906 
L 547.005217 148.526304 
L 548.198374 148.781375 
L 549.391532 149.278092 
L 550.584689 150.097003 
L 551.777847 151.318658 
L 552.971004 153.023605 
L 554.164162 155.292392 
L 555.357319 158.205569 
L 556.550477 161.843684 
L 557.743634 166.287284 
L 558.936792 171.616921 
L 560.129949 177.913142 
L 561.323107 185.256493 
L 562.516264 193.72753 
L 564.107141 206.915631 
L 565.698018 222.442627 
L 567.288894 240.499452 
L 568.084333 250.536215 
L 568.084333 250.536215 
" style="fill:none;stroke:#000000;stroke-linecap:round;stroke-opacity:0.5;stroke-width:1.5;"></path>
   </g>
   <g id="patch_3">
    <path d="M 49.85625 284.318906 
L 49.85625 12.518906 
" style="fill:none;"></path>
   </g>
   <g id="patch_4">
    <path d="M 607.85625 284.318906 
L 607.85625 12.518906 
" style="fill:none;"></path>
   </g>
   <g id="patch_5">
    <path d="M 49.85625 284.318906 
L 607.85625 284.318906 
" style="fill:none;"></path>
   </g>
   <g id="patch_6">
    <path d="M 49.85625 12.518906 
L 607.85625 12.518906 
" style="fill:none;"></path>
   </g>
  </g>
 </g>
 <defs>
  <clipPath id="peac7b18f24">
   <rect height="271.8" width="558" x="49.85625" y="12.518906"></rect>
  </clipPath>
 </defs>
</svg>